<?xml version="1.0" encoding="UTF-8"?><svg xmlns="http://www.w3.org/2000/svg" width="100%" height="100%"><defs><font id="web" horiz-adv-x="1086"><!--



NOTICE: This font software is the valuable property 
of Webtype LLC, The Font Bureau, Webtype and/or its 
suppliers and its use by you is covered under the terms 
of the Web Font license agreement between you and Webtype 
LLC. You may ONLY use this font software with the licensed 
web site. Except as specifically permitted by the license, 
you may not copy this font software. If you have any 
questions, please contact Webtype.com. 

For more information, please visit http://www.webtype.com/store/license/?id=23

Licensed to: toyota-europe.com

Serial number: SH-920
--><font-face font-family="" units-per-em="2048" panose-1="2 0 5 3 3 0 0 2 0 3" ascent="2188" descent="-619" alphabetic="0"/><missing-glyph horiz-adv-x="1024"/><glyph unicode=" " horiz-adv-x="307"/><glyph unicode="!" horiz-adv-x="436" d="M104 0V225H319V0H104ZM104 891V1495H319V891L279 319H145L104 891Z"/><glyph unicode="&quot;" horiz-adv-x="698" d="M102 1276V1495H297V1276L256 1051H143L102 1276ZM401 1276V1495H596V1276L555 1051H442L401 1276Z"/><glyph unicode="#" horiz-adv-x="1262" d="M92 424V580H305L336 922H92V1077H348L385 1495H569L532 1077H786L823 1495H1008L971 1077H1169V922H956L928 580H1169V424H913L877 0H692L729 424H475L438 0H254L291 424H92ZM489 580H743L774 922H518L489 580Z"/><glyph unicode="$" horiz-adv-x="1167" d="M43 236L174 362Q270 270 406 216Q455 197 508 188V733Q327 809 256 869T151 993T117 1143T149 1291T236 1397Q338 1477 508 1495V1614H657V1495Q770 1484 852 1448Q978 1391 1026 1341L918 1192Q803 1287 657 1311V883Q867 791 943 722T1060 578T1100 406T1066 241T972 121Q847 16 657 0V-162H508V0Q303 23 126 157Q76 195 43 236ZM317 1153Q317 1081 370 1035T508 948V1313Q317 1282 317 1153ZM657 186Q887 219 887 400Q887 496 821 558T657 668V186Z"/><glyph unicode="%" horiz-adv-x="1516" d="M102 1133Q102 1300 181 1408Q263 1520 395 1520Q529 1520 610 1406Q684 1302 684 1136Q684 1055 664 984T605 860Q525 748 389 748Q270 748 192 843Q102 952 102 1133ZM133 0L1155 1495H1362L340 0H133ZM272 1176T272 1134T278 1050T299 974Q331 897 389 897Q449 897 484 974Q512 1034 512 1103Q512 1224 481 1297T393 1370Q307 1370 280 1218Q272 1176 272 1134ZM831 360Q831 528 910 636Q992 748 1124 748Q1259 748 1340 634Q1413 529 1413 364Q1413 283 1393 212T1334 88Q1253 -25 1118 -25Q1001 -25 921 71Q831 179 831 360ZM1001 403T1001 361T1007 278T1028 202Q1060 125 1118 125Q1178 125 1214 202Q1241 262 1241 331Q1241 452 1210 525T1122 598Q1036 598 1008 445Q1001 403 1001 361Z"/><glyph unicode="&amp;" horiz-adv-x="1315" d="M57 356Q57 624 348 809L270 899Q152 1037 152 1174Q152 1315 258 1417Q365 1520 508 1520Q670 1520 770 1422Q868 1326 868 1176Q868 1003 698 856Q653 817 612 784L954 391Q1043 480 1085 543L1227 418Q1165 335 1071 250L1290 0H1032L922 129Q817 57 715 16T505 -25T320 4T184 84Q57 194 57 356ZM260 377Q260 283 332 218Q402 154 498 154Q672 154 813 264L465 674Q371 607 334 560Q260 468 260 377ZM352 1244T352 1180T375 1072T449 973L500 915Q674 1035 674 1188Q674 1249 632 1299T512 1350Q449 1350 400 1298Q352 1244 352 1180Z"/><glyph unicode="'" horiz-adv-x="399" d="M102 1276V1495H297V1276L256 1051H143L102 1276Z"/><glyph unicode="(" horiz-adv-x="586" d="M59 600Q59 874 208 1141Q346 1389 563 1534V1370Q336 1143 286 826Q270 719 270 600Q268 350 333 156T563 -201V-367Q363 -241 219 11Q59 291 59 600Z"/><glyph unicode=")" horiz-adv-x="586" d="M27 -201Q188 -39 253 155T317 595T249 1026T27 1370V1534Q237 1394 381 1141Q530 879 530 588Q530 436 486 287T370 11Q228 -240 27 -367V-201Z"/><glyph unicode="*" horiz-adv-x="805" d="M82 1223L115 1325L330 1274L348 1495H455L471 1274L686 1325L723 1225L518 1137L631 950L547 885L401 1053L258 887L170 948L285 1139L82 1223Z"/><glyph unicode="+" horiz-adv-x="1028" d="M72 590V766H422V1100H606V766H956V590H606V256H422V590H72Z"/><glyph unicode="," horiz-adv-x="399" d="M37 -297Q43 -279 53 -251T72 -190Q92 -109 92 -43V225H307V70Q307 -104 160 -297H37Z"/><glyph unicode="-" horiz-adv-x="618" d="M92 344V520H526V344H92Z"/><glyph unicode="." horiz-adv-x="399" d="M92 0V225H307V0H92Z"/><glyph unicode="/" horiz-adv-x="791" d="M29 0L567 1495H762L223 0H29Z"/><glyph unicode="0" horiz-adv-x="1245" d="M82 743Q82 1084 220 1296Q364 1520 627 1520Q893 1520 1034 1294Q1163 1089 1163 750Q1163 590 1130 448T1027 200Q880 -25 616 -25Q383 -25 238 166Q82 373 82 743ZM297 745Q297 517 376 353Q465 168 616 168Q790 168 876 355Q946 505 946 744Q946 844 931 947T878 1135Q795 1327 623 1327Q456 1327 370 1140Q297 981 297 745Z"/><glyph unicode="1" horiz-adv-x="702" d="M51 1049V1241Q149 1254 254 1320Q367 1391 422 1495H559V0H356V1178Q284 1110 133 1066Q88 1053 51 1049Z"/><glyph unicode="2" horiz-adv-x="1194" d="M90 1034Q90 1264 228 1396Q358 1520 567 1520Q765 1520 897 1413Q1049 1290 1049 1059Q1049 881 920 721L492 195H1087V0H94L743 821Q842 944 842 1059Q842 1200 742 1270Q664 1325 579 1325T441 1302T353 1238Q289 1163 289 1034H90Z"/><glyph unicode="3" horiz-adv-x="1223" d="M47 127L160 287Q340 158 575 158Q748 158 842 248Q926 328 926 442Q926 584 825 654Q741 713 610 713H424V893H612Q727 893 803 954Q883 1017 883 1120Q883 1192 830 1250Q754 1333 610 1333Q400 1333 276 1133L106 1223Q195 1414 412 1490Q498 1520 631 1520T856 1477T1000 1372Q1083 1270 1083 1114Q1083 1010 1027 930T897 811Q997 764 1063 673T1130 440Q1130 259 1018 136Q874 -25 578 -25Q399 -25 262 20T47 127Z"/><glyph unicode="4" horiz-adv-x="1174" d="M49 352V494L768 1495H926V535H1135V352H926V0H731V352H49ZM301 535H731V1151Q729 1149 719 1133T698 1100L301 535Z"/><glyph unicode="5" horiz-adv-x="1194" d="M90 141L197 303Q316 215 460 180Q514 166 583 166T714 195T816 274Q895 372 895 510Q895 653 816 747T602 842Q512 842 440 800T326 676L170 694L233 1495H1016V1311H410L381 946Q475 1026 637 1026Q854 1026 982 880Q1106 738 1106 520Q1106 272 958 122Q812 -25 569 -25Q365 -25 178 81Q125 111 90 141Z"/><glyph unicode="6" horiz-adv-x="1126" d="M92 487Q92 813 301 1153L508 1495H733L559 1214Q549 1198 521 1153T458 1054Q370 912 350 858Q451 963 579 963T794 923T940 814Q1061 672 1061 461Q1061 255 926 118Q785 -25 573 -25Q366 -25 232 110Q92 253 92 487ZM295 477Q295 331 379 238Q462 147 580 147Q701 147 782 243Q858 333 858 470Q858 539 837 598T777 699Q696 788 582 788Q455 788 374 696Q295 607 295 477Z"/><glyph unicode="7" horiz-adv-x="1083" d="M121 1307V1495H1057L389 0H162L758 1307H121Z"/><glyph unicode="8" horiz-adv-x="1262" d="M104 426Q104 639 254 746Q295 776 334 793Q203 868 167 982Q152 1030 152 1114T190 1277T296 1410Q431 1520 637 1520Q852 1520 986 1402Q1120 1283 1120 1090T938 793Q1090 727 1148 564Q1169 504 1169 413T1133 238T1027 96Q885 -25 637 -25Q390 -25 248 96Q104 219 104 426ZM313 426Q313 306 412 232Q507 162 637 162Q854 162 930 309Q956 358 956 426Q956 545 867 610T632 676T399 614T313 426ZM360 1096Q360 985 446 918Q523 860 637 860Q825 860 888 996Q909 1040 909 1096Q909 1204 837 1271T637 1339Q522 1339 444 1275Q360 1205 360 1096Z"/><glyph unicode="9" horiz-adv-x="1174" d="M78 1010Q78 1227 220 1374Q363 1520 573 1520Q798 1520 943 1378Q1087 1238 1087 1014Q1087 700 881 377L614 -37L442 76L797 602Q696 514 555 514Q355 514 218 650Q78 791 78 1010ZM293 1006Q293 865 377 779Q460 694 578 694Q711 694 792 783T874 1012Q874 1083 853 1143T792 1246Q711 1335 578 1335Q450 1335 369 1237Q293 1145 293 1006Z"/><glyph unicode=":" horiz-adv-x="399" d="M92 0V225H307V0H92ZM92 651V877H307V651H92Z"/><glyph unicode=";" horiz-adv-x="399" d="M37 -297Q43 -279 53 -251T72 -190Q92 -109 92 -43V225H307V70Q307 -104 160 -297H37ZM92 651V877H307V651H92Z"/><glyph unicode="&lt;" horiz-adv-x="758" d="M78 588V741L633 1116V901L252 666L633 428V209L78 588Z"/><glyph unicode="=" horiz-adv-x="1069" d="M133 393V569H936V393H133ZM133 795V971H936V795H133Z"/><glyph unicode="&gt;" horiz-adv-x="758" d="M125 209V428L506 666L125 901V1116L680 741V588L125 209Z"/><glyph unicode="?" horiz-adv-x="903" d="M33 1331Q194 1520 432 1520Q628 1520 740 1404Q848 1293 848 1112Q848 943 718 777Q682 731 635 669T547 521T506 326H307Q307 522 432 698Q467 748 513 809T601 940T643 1078T629 1191T588 1269Q531 1341 432 1341Q286 1341 168 1194L33 1331ZM299 0V225H514V0H299Z"/><glyph unicode="@" horiz-adv-x="1729" d="M92 588T92 747T152 1047T318 1293T564 1459T868 1520T1174 1465T1419 1312T1579 1085T1636 814T1602 577T1517 422T1408 336T1282 309Q1161 309 1114 424Q979 309 778 309Q626 309 540 393Q459 472 459 596Q459 735 578 817Q694 897 895 897H1100Q1100 1006 1043 1041T851 1077T606 1028L549 1145Q661 1210 856 1210Q1049 1210 1136 1150Q1239 1080 1239 907V483Q1239 442 1259 429T1315 416T1384 436T1451 502Q1526 607 1526 803Q1526 1049 1348 1223Q1160 1407 864 1407Q727 1407 607 1355T397 1214T255 1004T203 747T255 490T397 280T607 138T865 86T1130 143L1176 43Q1026 -25 866 -25T565 35T319 201T153 447ZM627 596Q627 527 658 499Q712 449 831 449Q897 449 970 477T1096 559V770H893Q627 770 627 596Z"/><glyph unicode="A" horiz-adv-x="1384" d="M51 0L625 1495H756L1333 0H1106L926 483H449L268 0H51ZM520 676H854L698 1094Q686 1124 686 1133L676 1096L520 676Z"/><glyph unicode="B" horiz-adv-x="1147" d="M154 0V1495H549Q741 1495 862 1388Q983 1282 983 1106Q983 977 933 893T811 762Q904 736 981 640Q1063 538 1063 406Q1063 336 1038 263T956 132Q830 0 602 0H154ZM358 193H580Q719 193 784 255T850 418T783 578T600 637H358V193ZM358 829H496Q645 829 717 914Q770 976 770 1083T706 1246T514 1303H358V829Z"/><glyph unicode="C" horiz-adv-x="1495" d="M92 569T92 739T147 1050T301 1296T535 1460T854 1520Q1189 1520 1386 1286L1235 1151Q1071 1319 838 1319Q616 1319 462 1164Q305 1005 305 752Q305 482 480 320Q557 248 650 212T840 176T1054 223T1268 383L1415 256Q1329 135 1177 55T825 -25Q688 -25 557 29T323 183T156 426Z"/><glyph unicode="D" horiz-adv-x="1425" d="M154 0V1495H535Q906 1495 1126 1277Q1333 1071 1333 750Q1333 596 1278 459T1118 220Q888 0 516 0H154ZM358 184H492Q799 184 972 362Q1120 515 1120 754Q1120 864 1078 965T960 1144Q794 1311 530 1311H358V184Z"/><glyph unicode="E" horiz-adv-x="1133" d="M154 0V1495H989V1303H358V825H975V633H358V193H1028V0H154Z"/><glyph unicode="F" horiz-adv-x="991" d="M154 0V1495H891V1303H358V825H860V633H358V0H154Z"/><glyph unicode="G" horiz-adv-x="1606" d="M92 573T92 747T152 1064T317 1307T560 1464T866 1520Q1168 1520 1403 1317L1278 1165Q1180 1245 1080 1282T857 1319T636 1278T463 1162Q305 1002 305 745Q305 515 467 347Q632 176 856 176Q1017 176 1136 259T1296 477H846V670H1534Q1534 518 1478 390T1327 170T1109 27T847 -25T573 30T330 187T158 431Z"/><glyph unicode="H" horiz-adv-x="1434" d="M154 0V1495H358V836H1075V1495H1280V0H1075V643H358V0H154Z"/><glyph unicode="I" horiz-adv-x="512" d="M154 0V1495H358V0H154Z"/><glyph unicode="J" horiz-adv-x="748" d="M61 -6V178Q105 168 202 168T349 222T399 375V1495H604V360Q604 206 510 98Q404 -25 215 -25Q126 -25 61 -6Z"/><glyph unicode="K" horiz-adv-x="1323" d="M154 0V1495H358V883L938 1495H1200L569 836L1296 0H1032L432 692L358 616V0H154Z"/><glyph unicode="L" horiz-adv-x="981" d="M154 0V1495H358V193H926V0H154Z"/><glyph unicode="M" horiz-adv-x="1774" d="M154 0V1495H328L891 764L1438 1495H1620V0H1415V1100Q1415 1118 1417 1135T1419 1155Q1417 1153 1411 1142T1399 1122L930 489H848L375 1106Q364 1117 354 1137L358 1083V0H154Z"/><glyph unicode="N" horiz-adv-x="1483" d="M154 0V1495H328L1102 432L1128 391Q1124 399 1124 438V1495H1329V0H1165L381 1083Q377 1087 373 1094T364 1109T354 1124Q354 1114 356 1106L358 1075V0H154Z"/><glyph unicode="O" horiz-adv-x="1716" d="M92 582T92 748T149 1055T308 1299T549 1461T856 1520T1166 1461T1410 1297T1567 1051T1624 747T1564 444T1400 199T1157 35T859 -25T560 33T316 194T152 439ZM305 752Q305 506 472 339Q635 176 860 176Q1089 176 1245 332Q1411 498 1411 749Q1411 877 1370 980T1256 1158Q1098 1319 852 1319Q610 1319 456 1158Q305 999 305 752Z"/><glyph unicode="P" horiz-adv-x="1147" d="M154 0V1495H602Q823 1495 960 1362Q1092 1234 1092 1038Q1092 944 1055 863T956 720Q824 588 641 588H358V0H154ZM358 780H584Q713 780 796 849T879 1043T797 1236T571 1303H358V780Z"/><glyph unicode="Q" horiz-adv-x="1716" d="M92 582T92 748T149 1055T308 1299T549 1461T856 1520T1166 1461T1410 1297T1567 1051T1624 746T1563 439T1393 190Q1473 147 1550 143L1411 -23Q1314 5 1229 70Q1052 -25 876 -25T560 33T316 194T152 439ZM305 752Q305 506 472 339Q635 176 860 176Q971 176 1075 217Q1016 291 987 350L1120 467Q1164 385 1229 317Q1411 482 1411 756Q1411 999 1256 1158Q1098 1319 852 1319Q610 1319 456 1158Q305 999 305 752Z"/><glyph unicode="R" horiz-adv-x="1249" d="M154 0V1495H637Q839 1495 972 1365Q1100 1241 1100 1055Q1100 878 970 750Q845 627 674 627L1225 0H963L358 698V0H154ZM358 788H596Q735 788 811 865T887 1047T809 1227T600 1303H358V788Z"/><glyph unicode="S" horiz-adv-x="1065" d="M92 127L209 285Q336 174 520 174Q635 174 705 225T776 383Q776 506 622 596Q575 623 511 655T370 729T232 824Q96 945 96 1135Q96 1302 212 1410Q330 1520 528 1520Q749 1520 932 1393L821 1225Q752 1276 687 1297T530 1319T375 1276T311 1159T336 1042T406 966Q461 924 581 866T764 769T877 679T958 558T989 392T952 217T853 85Q727 -25 530 -25Q278 -25 92 127Z"/><glyph unicode="T" horiz-adv-x="983" d="M78 1303V1495H905V1303H588V0H383V1303H78Z"/><glyph unicode="U" horiz-adv-x="1456" d="M143 565V1495H350V565Q350 361 464 258Q564 168 727 168Q983 168 1077 382Q1110 457 1110 565V1495H1313V565Q1313 302 1145 136Q982 -25 727 -25Q463 -25 306 132Q143 295 143 565Z"/><glyph unicode="V" horiz-adv-x="1280" d="M51 1495H250L629 416L641 367Q641 371 645 386Q653 416 1034 1495H1229L705 0H578L51 1495Z"/><glyph unicode="W" horiz-adv-x="1882" d="M74 1495H274L535 514Q537 504 539 494T543 473Q545 463 547 451Q547 463 551 473Q556 499 563 516L872 1495H1008L1307 508Q1309 498 1311 489T1319 449Q1325 479 1326 489T1331 510L1610 1495H1808L1391 0H1251L948 997Q930 1038 930 1071L911 997L602 0H467L74 1495Z"/><glyph unicode="X" horiz-adv-x="1409" d="M66 0L584 788L125 1495H377L664 1053L711 975Q711 977 725 1002T760 1057L1049 1495H1284L827 799L1348 0H1100L766 510Q756 524 746 541T725 576T702 614Q690 596 680 578T658 541T635 506L303 0H66Z"/><glyph unicode="Y" horiz-adv-x="1321" d="M41 1495H279L639 936Q643 932 646 924Q650 912 662 893Q666 901 670 908T678 923T686 938L1047 1495H1280L760 694V0H555V694L41 1495Z"/><glyph unicode="Z" horiz-adv-x="1266" d="M29 0L811 1257Q815 1264 820 1271Q833 1289 840 1296Q834 1294 825 1294H158V1495H1200L408 229Q395 213 391 207Q387 201 383 199H397L426 201H1176V0H29Z"/><glyph unicode="[" horiz-adv-x="625" d="M154 -367V1495H563V1313H348V-184H563V-367H154Z"/><glyph unicode="\" horiz-adv-x="791" d="M29 1495H223L762 0H567L29 1495Z"/><glyph unicode="]" horiz-adv-x="625" d="M61 -184H276V1313H61V1495H471V-367H61V-184Z"/><glyph unicode="^" horiz-adv-x="989" d="M61 756L395 1495H590L928 756H709L492 1300L276 756H61Z"/><glyph unicode="_" horiz-adv-x="1024" d="M0 -129H1024V-264H0V-129Z"/><glyph unicode="`" horiz-adv-x="1024" d="M332 1311H528L719 1010H522L332 1311Z"/><glyph unicode="a" horiz-adv-x="944" d="M61 262Q61 407 194 492Q320 573 524 573H651Q651 651 615 682T452 713T219 666L152 811Q210 846 276 857Q396 877 459 877Q637 877 739 819T842 623V0H647V61Q535 -25 381 -25Q226 -25 140 59Q61 136 61 262ZM260 262Q260 177 372 154Q403 147 435 147T492 150T542 161Q587 174 647 215V416H592Q426 416 343 380T260 262Z"/><glyph unicode="b" horiz-adv-x="1008" d="M123 0V1495H317V750Q408 877 559 877Q723 877 830 752Q936 630 936 438Q936 247 830 114Q720 -25 559 -25Q471 -25 411 15T317 102V0H123ZM301 430Q301 323 360 242Q423 156 516 156Q620 156 681 236Q737 308 737 428Q737 483 724 531T683 616Q622 696 518 696Q424 696 360 614Q301 538 301 430Z"/><glyph unicode="c" horiz-adv-x="942" d="M72 426Q72 611 190 740Q313 877 502 877Q629 877 742 809Q823 761 881 678L739 571Q644 696 504 696Q401 696 332 612Q270 537 270 418T338 228T528 156T764 289L897 182Q788 38 630 -8Q575 -25 492 -25T324 10T184 106Q72 228 72 426Z"/><glyph unicode="d" horiz-adv-x="1008" d="M72 243T72 432T177 748Q283 877 439 877T690 762V1495H885V0H690V94Q657 47 597 11T451 -25T296 12T177 112Q72 243 72 432ZM270 424Q270 310 326 236Q386 156 485 156Q583 156 647 238Q707 316 707 429Q707 481 692 529T647 614Q582 696 487 696Q387 696 326 613Q270 535 270 424Z"/><glyph unicode="e" horiz-adv-x="1004" d="M72 434Q72 626 194 750Q319 877 508 877Q697 877 818 742Q936 611 936 401H266Q272 237 417 176Q463 156 540 156Q667 156 803 258L922 135Q842 66 747 21T537 -25T341 7T200 98Q72 221 72 434ZM274 549H725Q702 623 642 662T499 702T354 662T274 549Z"/><glyph unicode="f" horiz-adv-x="545" d="M39 672V852H162V1305Q162 1395 232 1452Q291 1501 393 1501Q446 1501 483 1493V1323Q461 1327 443 1327Q399 1327 376 1302Q356 1282 356 1233V852H489V672H356V0H162V672H39Z"/><glyph unicode="g" horiz-adv-x="1008" d="M72 414Q72 604 177 738Q287 877 449 877Q537 877 597 840T690 756V852H885V8Q885 -203 758 -302Q650 -387 463 -387Q249 -387 129 -287L225 -143Q332 -213 455 -213Q613 -213 670 -118Q690 -86 690 -41V92Q605 -25 449 -25Q283 -25 177 100Q72 222 72 414ZM270 426Q270 248 394 178Q434 156 485 156T577 178T647 237T691 323T707 425T692 525T647 611Q582 696 487 696Q388 696 326 614Q270 540 270 426Z"/><glyph unicode="h" horiz-adv-x="969" d="M123 0V1495H317V750Q350 801 412 839T548 877T678 857T777 796Q866 711 866 555V0H672V518Q672 612 625 654T507 696T377 636T317 457V0H123Z"/><glyph unicode="i" horiz-adv-x="440" d="M123 0V852H317V0H123ZM123 1047V1282H317V1047H123Z"/><glyph unicode="j" horiz-adv-x="440" d="M-31 -188Q16 -193 43 -193Q51 -193 57 -193Q123 -193 123 -131V852H317V-127Q317 -255 234 -318Q172 -367 91 -367T-31 -356V-188ZM123 1047V1282H317V1047H123Z"/><glyph unicode="k" horiz-adv-x="963" d="M123 0V1495H317V526L655 852H924L553 504L926 0H674L410 369L317 289V0H123Z"/><glyph unicode="l" horiz-adv-x="440" d="M123 0V1495H317V0H123Z"/><glyph unicode="m" horiz-adv-x="1485" d="M123 0V852H317V770Q354 817 414 847T560 877Q726 877 811 745Q882 839 1015 868Q1053 877 1111 877T1225 852T1317 784Q1382 704 1382 563V0H1188V545Q1188 623 1146 659T1052 696T965 682T904 642Q850 586 850 508V0H655V545Q655 623 611 659T496 696T371 642T317 506V0H123Z"/><glyph unicode="n" horiz-adv-x="975" d="M123 0V852H317V750Q402 877 549 877T784 796T872 555V0H678V518Q678 596 639 646T531 696T423 674T362 616Q317 551 317 459V0H123Z"/><glyph unicode="o" horiz-adv-x="1016" d="M72 432Q72 612 186 740Q308 877 502 877Q693 877 822 746Q944 622 944 435Q944 344 913 259T822 110Q698 -25 506 -25Q313 -25 194 100Q72 228 72 432ZM270 547T270 425T330 230T500 156Q623 156 687 234Q745 304 745 428T680 624T502 696Q394 696 330 620Q270 547 270 425Z"/><glyph unicode="p" horiz-adv-x="1008" d="M123 -367V852H317V756Q350 803 410 840T556 877T710 840T830 740Q936 610 936 420T830 104Q723 -25 564 -25T317 92V-367H123ZM301 422Q301 314 360 238Q424 156 520 156Q619 156 681 238Q737 314 737 428Q737 608 613 674Q573 696 522 696Q423 696 360 613Q301 534 301 422Z"/><glyph unicode="q" horiz-adv-x="1008" d="M72 414Q72 604 177 738Q287 877 449 877Q537 877 597 840T690 756V852H885V-367H690V92Q603 -25 449 -25Q283 -25 177 100Q72 222 72 414ZM270 426Q270 248 394 178Q434 156 485 156T577 178T647 237T691 323T707 425T692 525T647 611Q582 696 487 696Q388 696 326 614Q270 540 270 426Z"/><glyph unicode="r" horiz-adv-x="725" d="M123 0V852H317V750Q410 877 547 877Q635 877 715 813L627 649Q567 692 495 692T370 624T317 432V0H123Z"/><glyph unicode="s" horiz-adv-x="745" d="M70 88L166 233Q219 190 275 172T370 154T442 171T477 230T442 299T358 350T263 397T179 452Q92 524 92 637Q92 735 175 807Q256 877 375 877Q541 877 649 801L569 647Q484 707 386 707T287 641Q287 606 327 583T416 535T509 485T589 425Q672 347 672 238Q672 128 589 55Q503 -20 377 -20Q203 -20 70 88Z"/><glyph unicode="t" horiz-adv-x="594" d="M47 672V852H164V1251H358V852H512V672H358V283Q358 215 386 194T479 172H500Q508 172 514 174V-10Q506 -12 500 -12H481Q317 -12 250 39Q164 104 164 276V672H47Z"/><glyph unicode="u" horiz-adv-x="985" d="M113 297V852H307V334Q307 262 348 209T454 156T557 178T618 236Q668 305 668 393V852H862V0H668V102Q633 49 571 12T426 -25Q272 -25 193 56T113 297Z"/><glyph unicode="v" horiz-adv-x="862" d="M20 852H236L420 440Q427 424 434 399Q436 406 439 418T449 442L635 852H842L430 -25L20 852Z"/><glyph unicode="w" horiz-adv-x="1296" d="M20 852H229L403 451Q408 440 412 428T418 412Q418 417 436 455L649 877L860 455Q868 434 872 426T879 412Q881 420 885 427T891 442T897 459L1069 852H1276L895 -25L666 477Q659 489 655 501T649 518Q647 516 643 503T633 477L399 -25L20 852Z"/><glyph unicode="x" horiz-adv-x="909" d="M20 0L336 469L80 852H317L428 686Q432 680 436 672T445 657T455 641Q465 661 483 688L592 852H823L571 473L889 0H651L481 254Q467 270 453 299Q451 297 444 281T426 254L258 0H20Z"/><glyph unicode="y" horiz-adv-x="868" d="M25 852H236L424 295L436 246Q436 255 451 297L637 852H844L477 -152Q445 -249 403 -291Q324 -367 207 -367Q132 -367 70 -348V-172Q115 -190 158 -190T228 -176T272 -138T299 -81T322 -16L25 852Z"/><glyph unicode="z" horiz-adv-x="885" d="M33 0L475 651Q479 659 494 674L463 672H113V852H844L399 205Q383 181 377 178H387L412 180H805V0H33Z"/><glyph unicode="{" horiz-adv-x="655" d="M82 506V662Q180 662 208 760Q225 819 225 955T238 1177T289 1330Q365 1469 571 1534V1411Q443 1316 426 1148Q420 1090 420 1020T417 885T400 760Q367 630 272 584Q406 517 417 282Q420 217 420 148T426 20T450 -86Q484 -179 571 -244V-367Q366 -302 289 -162Q225 -45 225 180Q225 348 210 400Q180 506 82 506Z"/><glyph unicode="|" horiz-adv-x="498" d="M154 -367V1495H344V-367H154Z"/><glyph unicode="}" horiz-adv-x="655" d="M84 -244Q211 -145 230 20Q236 78 236 147T239 282T256 406Q287 535 383 584Q250 649 239 884Q236 950 236 1020T230 1148T206 1253Q172 1342 84 1411V1534Q291 1469 366 1330Q430 1212 430 987Q430 818 446 767Q477 662 573 662V506Q439 506 432 303Q430 244 430 160T417 -9T366 -162Q291 -302 84 -367V-244Z"/><glyph unicode="~" horiz-adv-x="1024" d="M82 584Q101 756 134 814T214 898T326 924T447 894T542 834T615 782T682 760Q737 760 750 920H942Q923 750 888 691T806 605T696 578Q595 578 483 666Q430 707 404 724T342 741Q287 741 274 584H82Z"/><glyph unicode=" " horiz-adv-x="307"/><glyph unicode="¡" horiz-adv-x="436" d="M104 0V604L145 1176H279L319 604V0H104ZM104 1270V1495H319V1270H104Z"/><glyph unicode="¢" horiz-adv-x="942" d="M72 426Q72 592 173 720Q279 853 444 872V1014H557V872Q718 856 832 738Q862 707 881 678L739 571Q660 675 557 694V154Q669 172 764 289L897 182Q842 106 753 47T557 -23V-162H444V-20Q263 4 165 129Q72 248 72 426ZM266 522T266 420T314 249T444 160V692Q358 670 312 596Z"/><glyph unicode="£" horiz-adv-x="1229" d="M51 174Q51 307 211 348Q258 360 311 360Q434 360 543 311Q551 341 551 393T526 494H145V592H473Q446 635 414 674H145V770H338Q283 850 239 927T195 1098T228 1269T324 1401Q460 1520 672 1520Q895 1520 1022 1408Q1149 1296 1137 1108H924Q932 1204 870 1266Q803 1333 676 1333Q497 1333 434 1206Q412 1163 412 1109T425 1012T461 929T515 851T575 770H979V674H641Q673 618 686 592H979V494H721Q737 427 737 365T709 227Q750 197 796 187T868 176T914 193T944 238Q958 277 958 358H1149Q1166 108 1024 13Q967 -25 870 -25Q777 -25 654 45Q623 63 600 80Q482 -25 301 -25Q198 -25 127 24Q51 78 51 174ZM213 223T213 166T305 109Q394 109 461 172Q433 200 384 211T315 223Q213 223 213 166Z"/><glyph unicode="¤" horiz-adv-x="1245" d="M39 604V702H207Q205 743 207 784H39V881H213Q238 1167 372 1338Q514 1520 743 1520Q1069 1520 1202 1210L1024 1120Q972 1221 927 1258Q841 1329 755 1329T613 1292T518 1192Q443 1073 426 881H870V784H420Q416 743 420 702H870V604H428Q463 306 614 204Q668 168 755 168Q917 168 1018 383L1202 297Q1130 137 1017 56T735 -25Q529 -25 389 131Q240 297 213 604H39Z"/><glyph unicode="¥" horiz-adv-x="1260" d="M10 1495H246L629 901L1014 1495H1249L729 694V555H1065V459H729V336H1065V238H729V0H524V238H188V336H524V459H188V555H524V694L10 1495Z"/><glyph unicode="¦" horiz-adv-x="498" d="M154 -367V410H344V-367H154ZM154 719V1495H344V719H154Z"/><glyph unicode="§" horiz-adv-x="1384" d="M72 502T72 621T131 841T287 1008Q215 1088 215 1192T248 1355T342 1452Q454 1520 649 1520Q1004 1520 1231 1364L1130 1210Q927 1335 680 1335T432 1225Q432 1171 472 1137T582 1073L1032 899Q1186 840 1249 746T1313 532T1254 312T1096 145Q1169 66 1169 -38T1138 -202T1046 -299Q934 -367 700 -367Q479 -367 270 -274Q205 -246 154 -211L254 -57Q460 -182 706 -182T952 -72Q952 -18 912 16T803 80L352 254Q199 313 136 407ZM287 643Q287 567 316 530Q369 466 481 424L946 242Q1098 341 1098 510Q1098 585 1068 622Q1014 688 903 729L438 911Q287 811 287 643Z"/><glyph unicode="¨" horiz-adv-x="1024" d="M256 1010V1237H442V1010H256ZM582 1010V1237H768V1010H582Z"/><glyph unicode="©" horiz-adv-x="1729" d="M92 588T92 747T152 1047T318 1293T564 1459T864 1520T1164 1460T1410 1294T1576 1048T1636 748T1576 448T1411 202T1165 36T865 -25T565 35T319 201T153 447ZM203 1017T203 745T397 280Q487 190 607 138T864 86Q1001 86 1121 138T1331 279T1473 488T1526 745T1474 1002T1331 1212T1121 1355T864 1407Q727 1407 607 1355T397 1212Q203 1017 203 745ZM428 768Q428 951 553 1082Q683 1217 872 1217Q1090 1217 1204 1075L1108 989Q1012 1085 874 1085Q741 1085 655 995Q565 901 565 768Q565 606 667 506Q755 420 870 420Q1022 420 1128 539L1223 457Q1169 385 1078 337T887 289T708 320T566 414Q428 550 428 768Z"/><glyph unicode="ª" horiz-adv-x="903" d="M129 553V688H752V553H129ZM129 934T129 1012T157 1136T236 1214Q337 1278 498 1278H600Q600 1339 571 1364T439 1389T254 1352L201 1468Q292 1520 441 1520T671 1474T752 1317V819H596V868Q506 799 380 799T192 866ZM287 1094T287 1037T332 958T428 936T514 947T596 991V1151H553Q418 1151 353 1123Z"/><glyph unicode="«" horiz-adv-x="756" d="M61 342V496L350 748V543L205 420L350 295V86L61 342ZM377 342V496L668 748V543L522 420L668 295V86L377 342Z"/><glyph unicode="¬" horiz-adv-x="1028" d="M72 590V766H956V256H772V590H72Z"/><glyph unicode="­" horiz-adv-x="618" d="M92 344V520H526V344H92Z"/><glyph unicode="®" horiz-adv-x="1729" d="M92 588T92 747T152 1047T318 1293T564 1459T864 1520T1164 1460T1410 1294T1576 1048T1636 748T1576 448T1411 202T1165 36T865 -25T565 35T319 201T153 447ZM203 1017T203 745T397 280Q487 190 607 138T864 86Q1001 86 1121 138T1331 279T1473 488T1526 745T1474 1002T1331 1212T1121 1355T864 1407Q727 1407 607 1355T397 1212Q203 1017 203 745ZM594 317V1214H895Q1018 1214 1096 1138Q1171 1065 1171 950Q1171 843 1094 768Q1019 694 918 694L1247 317H1079L727 727V317H594ZM727 799H870Q942 799 988 840T1034 943T1004 1036Q950 1090 887 1090H727V799Z"/><glyph unicode="¯" horiz-adv-x="1024" d="M205 1010V1145H819V1010H205Z"/><glyph unicode="°" horiz-adv-x="893" d="M61 1135Q61 1294 173 1406Q287 1520 446 1520Q604 1520 718 1406Q831 1293 831 1134Q831 1055 801 984T718 861Q607 750 446 750Q284 750 173 861Q61 973 61 1135ZM227 1135Q227 1045 292 980T446 915Q536 915 601 980T666 1135Q666 1226 601 1290Q535 1354 446 1354Q358 1354 292 1290Q227 1226 227 1135Z"/><glyph unicode="±" horiz-adv-x="1483" d="M39 672V852H162V1305Q162 1395 232 1452Q291 1501 393 1501Q446 1501 483 1493V1323Q409 1338 376 1302Q356 1282 356 1233V852H489V672H356V0H162V672H39ZM543 672V852H666V1305Q666 1395 736 1452Q795 1501 896 1501Q948 1501 987 1493V1323Q913 1338 880 1302Q860 1282 860 1233V852H993V672H860V0H666V672H543ZM1165 0V1495H1360V0H1165Z"/><glyph unicode="²" horiz-adv-x="918" d="M123 1202Q123 1326 202 1415Q292 1516 442 1516Q590 1516 679 1425Q758 1344 758 1212Q758 1110 684 1022L498 799H776V629H133L504 1047Q582 1137 582 1208Q582 1281 532 1319Q493 1348 429 1348T331 1305T295 1202H123Z"/><glyph unicode="³" horiz-adv-x="899" d="M123 717L221 838Q307 774 413 774T562 815T604 893T590 951T552 985Q506 1010 446 1010H352V1153H446Q502 1153 542 1180T582 1262Q582 1320 513 1350Q487 1362 434 1362T334 1329T266 1262L141 1339Q167 1402 242 1454Q332 1516 434 1516T595 1490T686 1425Q743 1358 743 1251Q743 1194 713 1155T641 1100Q688 1085 728 1036T768 931T754 824T702 728Q614 621 430 621Q310 621 253 644Q167 679 123 717Z"/><glyph unicode="´" horiz-adv-x="1024" d="M334 1010L524 1311H721L530 1010H334Z"/><glyph unicode="µ" horiz-adv-x="1008" d="M123 -367V852H317V334Q317 262 358 209T464 156T567 178T628 236Q678 305 678 393V852H872V0H678V102Q643 49 581 12T445 -25T317 4V-367H123Z"/><glyph unicode="¶" horiz-adv-x="1475" d="M55 993Q55 1210 200 1352Q348 1495 586 1495H1321V-367H1130V1313H958V-367H768V506H545Q350 506 204 652Q55 801 55 993ZM264 1006Q264 867 356 777Q447 688 584 688H768V1313H596Q447 1313 355 1227Q264 1142 264 1006Z"/><glyph unicode="·" horiz-adv-x="399" d="M92 627V852H307V627H92Z"/><glyph unicode="¸" horiz-adv-x="1024" d="M279 -301L334 -236Q393 -279 481 -279Q510 -279 534 -265T559 -219Q559 -166 473 -166Q440 -166 410 -176L367 -131L498 29H633L541 -88Q621 -88 669 -119T717 -199T697 -278T642 -328Q575 -367 497 -367T370 -349T279 -301Z"/><glyph unicode="¹" horiz-adv-x="651" d="M115 1182V1360Q186 1370 231 1402T311 1493H434V629H266V1243Q250 1223 204 1206T115 1182Z"/><glyph unicode="º" horiz-adv-x="975" d="M137 553V688H836V553H137ZM137 1165Q137 1311 229 1411Q329 1520 481 1520Q636 1520 738 1414Q836 1312 836 1168Q836 1094 810 1026T738 907Q641 799 485 799Q330 799 234 898Q137 999 137 1165ZM297 1251T297 1156T345 1003T488 944T630 1006T676 1165T625 1319T483 1376T345 1314Z"/><glyph unicode="»" horiz-adv-x="756" d="M86 86V295L231 420L86 543V748L377 496V342L86 86ZM403 86V295L549 420L403 543V748L694 496V342L403 86Z"/><glyph unicode="¼" horiz-adv-x="1810" d="M115 1182V1360Q186 1370 231 1402T311 1493H434V629H266V1243Q250 1223 204 1206T115 1182ZM244 0L1266 1495H1448L426 0H244ZM1032 176V309L1393 829H1593V330H1698V176H1593V0H1425V176H1032ZM1210 330H1425V639Q1423 635 1417 626T1409 612L1210 330Z"/><glyph unicode="½" horiz-adv-x="1913" d="M115 1182V1360Q186 1370 231 1402T311 1493H434V629H266V1243Q250 1223 204 1206T115 1182ZM236 0L1257 1495H1440L418 0H236ZM1110 573Q1110 698 1188 788Q1272 887 1430 887Q1582 887 1665 795Q1743 709 1743 580Q1743 485 1675 395L1485 170H1763V0H1120L1491 418Q1569 508 1569 580Q1569 652 1518 690Q1481 719 1417 719T1318 676T1282 573H1110Z"/><glyph unicode="¾" horiz-adv-x="1995" d="M123 717L221 838Q307 774 413 774T562 815T604 893T590 951T552 985Q506 1010 446 1010H352V1153H446Q502 1153 542 1180T582 1262Q582 1320 513 1350Q487 1362 434 1362T334 1329T266 1262L141 1339Q167 1402 242 1454Q332 1516 434 1516T595 1490T686 1425Q743 1358 743 1251Q743 1194 713 1155T641 1100Q688 1085 728 1036T768 931T754 824T702 728Q614 621 430 621Q310 621 253 644Q167 679 123 717ZM420 0L1442 1495H1624L602 0H420ZM1214 176V309L1575 829H1776V330H1880V176H1776V0H1608V176H1214ZM1393 330H1608V639Q1606 635 1600 626T1591 612L1393 330Z"/><glyph unicode="¿" horiz-adv-x="903" d="M55 383Q55 549 186 718Q221 764 268 826T356 974T397 1169H596Q596 972 471 797Q436 748 390 687T302 555T260 417T274 304T316 226Q373 154 471 154Q617 154 735 301L870 164Q711 -25 471 -25Q275 -25 163 91Q55 203 55 383ZM389 1270V1495H604V1270H389Z"/><glyph unicode="À" horiz-adv-x="1384" d="M51 0L625 1495H756L1333 0H1106L926 483H449L268 0H51ZM402 1915H598L789 1614H592L402 1915ZM520 676H854L698 1094Q686 1124 686 1133L676 1096L520 676Z"/><glyph unicode="Á" horiz-adv-x="1384" d="M51 0L625 1495H756L1333 0H1106L926 483H449L268 0H51ZM520 676H854L698 1094Q686 1124 686 1133L676 1096L520 676ZM584 1614L774 1915H971L780 1614H584Z"/><glyph unicode="Â" horiz-adv-x="1384" d="M51 0L625 1495H756L1333 0H1106L926 483H449L268 0H51ZM389 1594L600 1895H780L991 1594H796L688 1764L579 1594H389ZM520 676H854L698 1094Q686 1124 686 1133L676 1096L520 676Z"/><glyph unicode="Ã" horiz-adv-x="1384" d="M51 0L625 1495H756L1333 0H1106L926 483H449L268 0H51ZM391 1614Q391 1729 419 1775T483 1839T562 1857Q627 1857 716 1800Q780 1759 807 1759T843 1782T854 1853H1005Q1005 1610 825 1610Q764 1610 680 1667Q653 1683 631 1695T585 1708T553 1685T542 1614H391ZM520 676H854L698 1094Q686 1124 686 1133L676 1096L520 676Z"/><glyph unicode="Ä" horiz-adv-x="1384" d="M51 0L625 1495H756L1333 0H1106L926 483H449L268 0H51ZM213 1268V1495H399V1268H213ZM520 676H854L698 1094Q686 1124 686 1133L676 1096L520 676ZM981 1268V1495H1167V1268H981Z"/><glyph unicode="Å" horiz-adv-x="1384" d="M51 0L590 1403Q530 1432 494 1486T457 1600T475 1703T524 1776Q592 1843 688 1843Q783 1843 852 1776Q920 1709 920 1625Q920 1468 791 1405L1333 0H1106L926 483H449L268 0H51ZM520 676H854L698 1094Q686 1124 686 1133L676 1096L520 676ZM578 1612Q578 1565 609 1533T688 1501Q735 1501 767 1533T799 1612Q799 1659 767 1690T688 1722Q641 1722 610 1691T578 1612Z"/><glyph unicode="Æ" horiz-adv-x="2005" d="M0 0L989 1495H1862V1303H1231V825H1847V633H1231V193H1901V0H1026V483H551L231 0H0ZM680 676H1026V1223L680 676Z"/><glyph unicode="Ç" horiz-adv-x="1495" d="M92 748Q92 909 147 1050T301 1296T535 1460T854 1520Q1189 1520 1386 1286L1235 1151Q1071 1319 838 1319Q616 1319 462 1164Q305 1005 305 752Q305 482 480 320Q557 248 650 212T840 176T1054 223T1268 383L1415 256Q1335 143 1196 66T877 -23L825 -88Q905 -88 953 -119T1001 -199T981 -278T927 -328Q860 -367 781 -367T654 -349T563 -301L618 -236Q677 -279 766 -279Q795 -279 819 -265T844 -220Q844 -166 762 -166Q726 -166 694 -176L651 -131L743 -20Q480 9 292 214Q92 432 92 748Z"/><glyph unicode="È" horiz-adv-x="1133" d="M154 0V1495H989V1303H358V825H975V633H358V193H1028V0H154ZM300 1915H496L687 1614H490L300 1915Z"/><glyph unicode="É" horiz-adv-x="1133" d="M154 0V1495H989V1303H358V825H975V633H358V193H1028V0H154ZM440 1614L630 1915H827L636 1614H440Z"/><glyph unicode="Ê" horiz-adv-x="1133" d="M154 0V1495H989V1303H358V825H975V633H358V193H1028V0H154ZM264 1614L475 1915H655L866 1614H671L563 1784L454 1614H264Z"/><glyph unicode="Ë" horiz-adv-x="1133" d="M154 0V1495H989V1303H358V825H975V633H358V193H1028V0H154ZM311 1614V1841H497V1614H311ZM637 1614V1841H823V1614H637Z"/><glyph unicode="Ì" horiz-adv-x="512" d="M-32 1915H164L355 1614H158L-32 1915ZM154 0V1495H358V0H154Z"/><glyph unicode="Í" horiz-adv-x="512" d="M154 0V1495H358V0H154ZM157 1614L347 1915H544L353 1614H157Z"/><glyph unicode="Î" horiz-adv-x="512" d="M-44 1614L167 1915H347L558 1614H363L255 1784L146 1614H-44ZM154 0V1495H358V0H154Z"/><glyph unicode="Ï" horiz-adv-x="512" d="M1 1614V1841H187V1614H1ZM154 0V1495H358V0H154ZM327 1614V1841H513V1614H327Z"/><glyph unicode="Ð" horiz-adv-x="1487" d="M72 633V825H215V1495H596Q967 1495 1186 1277Q1395 1070 1395 750Q1395 596 1340 459T1178 220Q949 0 578 0H215V633H72ZM420 184H553Q860 184 1033 362Q1182 516 1182 754Q1182 864 1140 965T1021 1144Q854 1311 592 1311H420V825H772V633H420V184Z"/><glyph unicode="Ñ" horiz-adv-x="1483" d="M154 0V1495H328L1102 432L1128 391Q1124 399 1124 438V1495H1329V0H1165L381 1083Q377 1087 373 1094T364 1109T354 1124Q354 1114 356 1106L358 1075V0H154ZM436 1559Q436 1674 464 1720T528 1784T607 1802Q672 1802 761 1745Q825 1704 852 1704T888 1727T899 1798H1050Q1050 1555 870 1555Q809 1555 725 1612Q698 1628 676 1640T630 1653T598 1630T587 1559H436Z"/><glyph unicode="Ò" horiz-adv-x="1716" d="M92 582T92 748T149 1055T308 1299T549 1461T856 1520T1166 1461T1410 1297T1567 1051T1624 747T1564 444T1400 199T1157 35T859 -25T560 33T316 194T152 439ZM305 752Q305 506 472 339Q635 176 860 176Q1089 176 1245 332Q1411 498 1411 749Q1411 877 1370 980T1256 1158Q1098 1319 852 1319Q610 1319 456 1158Q305 999 305 752ZM565 1915H761L952 1614H755L565 1915Z"/><glyph unicode="Ó" horiz-adv-x="1716" d="M92 582T92 748T149 1055T308 1299T549 1461T856 1520T1166 1461T1410 1297T1567 1051T1624 747T1564 444T1400 199T1157 35T859 -25T560 33T316 194T152 439ZM305 752Q305 506 472 339Q635 176 860 176Q1089 176 1245 332Q1411 498 1411 749Q1411 877 1370 980T1256 1158Q1098 1319 852 1319Q610 1319 456 1158Q305 999 305 752ZM731 1614L921 1915H1118L927 1614H731Z"/><glyph unicode="Ô" horiz-adv-x="1716" d="M92 582T92 748T149 1055T308 1299T549 1461T856 1520T1166 1461T1410 1297T1567 1051T1624 747T1564 444T1400 199T1157 35T859 -25T560 33T316 194T152 439ZM305 752Q305 506 472 339Q635 176 860 176Q1089 176 1245 332Q1411 498 1411 749Q1411 877 1370 980T1256 1158Q1098 1319 852 1319Q610 1319 456 1158Q305 999 305 752ZM549 1614L760 1915H940L1151 1614H956L848 1784L739 1614H549Z"/><glyph unicode="Õ" horiz-adv-x="1716" d="M92 582T92 748T149 1055T308 1299T549 1461T856 1520T1166 1461T1410 1297T1567 1051T1624 747T1564 444T1400 199T1157 35T859 -25T560 33T316 194T152 439ZM305 752Q305 506 472 339Q635 176 860 176Q1089 176 1245 332Q1411 498 1411 749Q1411 877 1370 980T1256 1158Q1098 1319 852 1319Q610 1319 456 1158Q305 999 305 752ZM545 1649Q545 1764 573 1810T637 1874T716 1892Q781 1892 870 1835Q934 1794 961 1794T997 1817T1008 1888H1159Q1159 1645 979 1645Q918 1645 834 1702Q807 1718 785 1730T739 1743T707 1720T696 1649H545Z"/><glyph unicode="Ö" horiz-adv-x="1716" d="M45 1268V1495H231V1268H45ZM92 582T92 748T149 1055T308 1299T549 1461T856 1520T1166 1461T1410 1297T1567 1051T1624 747T1564 444T1400 199T1157 35T859 -25T560 33T316 194T152 439ZM305 752Q305 506 472 339Q635 176 860 176Q1089 176 1245 332Q1411 498 1411 749Q1411 877 1370 980T1256 1158Q1098 1319 852 1319Q610 1319 456 1158Q305 999 305 752ZM1485 1268V1495H1671V1268H1485Z"/><glyph unicode="×" horiz-adv-x="1028" d="M86 385L379 676L90 965L225 1102L514 813L805 1102L940 965L649 676L940 385L805 248L514 539L221 248L86 385Z"/><glyph unicode="Ø" horiz-adv-x="1716" d="M88 98L254 264Q92 468 92 752Q92 915 149 1055T308 1299T549 1461T850 1520Q1137 1520 1343 1356L1507 1520L1612 1421L1446 1255Q1624 1048 1624 748Q1624 584 1564 444T1400 199T1157 35T860 -25Q569 -25 352 160L193 0L88 98ZM305 752Q305 566 408 418L1196 1208Q1055 1319 852 1319Q610 1319 456 1158Q305 999 305 752ZM502 311Q660 176 860 176Q1089 176 1245 332Q1411 498 1411 756Q1411 957 1298 1108L502 311Z"/><glyph unicode="Ù" horiz-adv-x="1456" d="M143 565V1495H350V565Q350 361 464 258Q564 168 727 168Q983 168 1077 382Q1110 457 1110 565V1495H1313V565Q1313 302 1145 136Q982 -25 727 -25Q463 -25 306 132Q143 295 143 565ZM479 1895H675L866 1594H669L479 1895Z"/><glyph unicode="Ú" horiz-adv-x="1456" d="M143 565V1495H350V565Q350 361 464 258Q564 168 727 168Q983 168 1077 382Q1110 457 1110 565V1495H1313V565Q1313 302 1145 136Q982 -25 727 -25Q463 -25 306 132Q143 295 143 565ZM576 1594L766 1895H963L772 1594H576Z"/><glyph unicode="Û" horiz-adv-x="1456" d="M143 565V1495H350V565Q350 361 464 258Q564 168 727 168Q983 168 1077 382Q1110 457 1110 565V1495H1313V565Q1313 302 1145 136Q982 -25 727 -25Q463 -25 306 132Q143 295 143 565ZM428 1594L639 1895H819L1030 1594H835L727 1764L618 1594H428Z"/><glyph unicode="Ü" horiz-adv-x="1456" d="M143 565V1495H350V565Q350 361 464 258Q564 168 727 168Q983 168 1077 382Q1110 457 1110 565V1495H1313V565Q1313 302 1145 136Q982 -25 727 -25Q463 -25 306 132Q143 295 143 565ZM479 1268V1495H666V1268H479ZM795 1268V1495H981V1268H795Z"/><glyph unicode="Ý" horiz-adv-x="1321" d="M41 1495H279L639 936Q643 932 646 924Q650 912 662 893Q666 901 670 908T678 923T686 938L1047 1495H1280L760 694V0H555V694L41 1495ZM555 1594L745 1895H942L751 1594H555Z"/><glyph unicode="Þ" horiz-adv-x="1147" d="M154 0V1495H358V1217H602Q823 1217 960 1084Q1092 956 1092 760Q1092 666 1055 585T956 442Q823 309 641 309H358V0H154ZM358 502H584Q713 502 796 570T879 765T797 957T571 1024H358V502Z"/><glyph unicode="ß" horiz-adv-x="987" d="M123 0V1104Q123 1296 217 1408T499 1520T785 1426T883 1178Q883 1063 827 976T659 852Q775 794 848 658Q915 533 915 389Q915 208 818 92Q720 -25 555 -25Q487 -25 424 0V180Q470 156 545 156T669 209T717 363T691 537T623 664Q542 769 442 795V930H459Q544 930 614 990Q694 1058 694 1165Q694 1297 590 1344Q553 1360 502 1360Q416 1360 366 1298T315 1118V0H123Z"/><glyph unicode="à" horiz-adv-x="944" d="M61 262Q61 407 194 492Q320 573 524 573H651Q651 651 615 682T452 713T219 666L152 811Q210 846 276 857Q396 877 459 877Q637 877 739 819T842 623V0H647V61Q535 -25 381 -25Q226 -25 140 59Q61 136 61 262ZM218 1311H414L605 1010H408L218 1311ZM260 262Q260 177 372 154Q403 147 435 147T492 150T542 161Q587 174 647 215V416H592Q426 416 343 380T260 262Z"/><glyph unicode="á" horiz-adv-x="944" d="M61 262Q61 407 194 492Q320 573 524 573H651Q651 651 615 682T452 713T219 666L152 811Q210 846 276 857Q396 877 459 877Q637 877 739 819T842 623V0H647V61Q535 -25 381 -25Q226 -25 140 59Q61 136 61 262ZM260 262Q260 177 372 154Q403 147 435 147T492 150T542 161Q587 174 647 215V416H592Q426 416 343 380T260 262ZM348 1010L538 1311H735L544 1010H348Z"/><glyph unicode="â" horiz-adv-x="944" d="M61 262Q61 407 194 492Q320 573 524 573H651Q651 651 615 682T452 713T219 666L152 811Q210 846 276 857Q396 877 459 877Q637 877 739 819T842 623V0H647V61Q535 -25 381 -25Q226 -25 140 59Q61 136 61 262ZM183 1010L394 1311H574L785 1010H590L482 1180L373 1010H183ZM260 262Q260 177 372 154Q403 147 435 147T492 150T542 161Q587 174 647 215V416H592Q426 416 343 380T260 262Z"/><glyph unicode="ã" horiz-adv-x="944" d="M61 262Q61 407 194 492Q320 573 524 573H651Q651 651 615 682T452 713T219 666L152 811Q210 846 276 857Q396 877 459 877Q637 877 739 819T842 623V0H647V61Q535 -25 381 -25Q226 -25 140 59Q61 136 61 262ZM192 1010Q192 1125 220 1171T284 1235T363 1253Q428 1253 517 1196Q581 1155 608 1155T644 1178T655 1249H806Q806 1006 626 1006Q565 1006 481 1063Q454 1079 432 1091T386 1104T354 1081T343 1010H192ZM260 262Q260 177 372 154Q403 147 435 147T492 150T542 161Q587 174 647 215V416H592Q426 416 343 380T260 262Z"/><glyph unicode="ä" horiz-adv-x="944" d="M61 262Q61 407 194 492Q320 573 524 573H651Q651 651 615 682T452 713T219 666L152 811Q210 846 276 857Q396 877 459 877Q637 877 739 819T842 623V0H647V61Q535 -25 381 -25Q226 -25 140 59Q61 136 61 262ZM228 1010V1237H414V1010H228ZM260 262Q260 177 372 154Q403 147 435 147T492 150T542 161Q587 174 647 215V416H592Q426 416 343 380T260 262ZM554 1010V1237H740V1010H554Z"/><glyph unicode="å" horiz-adv-x="944" d="M61 262Q61 407 194 492Q320 573 524 573H651Q651 651 615 682T452 713T219 666L152 811Q210 846 276 857Q396 877 459 877Q637 877 739 819T842 623V0H647V61Q535 -25 381 -25Q226 -25 140 59Q61 136 61 262ZM260 262Q260 177 372 154Q403 147 435 147T492 150T542 161Q587 174 647 215V416H592Q426 416 343 380T260 262ZM264 1227Q264 1325 331 1390Q400 1458 495 1458Q590 1458 659 1390Q726 1325 726 1227Q726 1130 659 1063Q591 995 495 995Q399 995 331 1063Q264 1130 264 1227ZM384 1227Q384 1180 416 1148T495 1116Q542 1116 574 1148T606 1227Q606 1274 574 1305T495 1337Q448 1337 416 1306T384 1227Z"/><glyph unicode="æ" horiz-adv-x="1565" d="M61 262Q61 398 184 475Q300 549 504 549H655Q655 627 617 670T481 713Q326 713 219 666L152 811Q210 846 276 857Q396 877 488 877Q699 877 786 756Q909 877 1079 877Q1266 877 1384 742Q1497 612 1497 401H844Q844 299 910 225Q978 150 1084 150T1252 178T1368 254L1483 135Q1403 66 1308 21T1087 -25Q871 -25 750 156Q686 57 598 16T406 -25T241 -3T140 59Q61 136 61 262ZM256 334T256 268T304 171T403 141T498 154T576 198Q657 264 657 401H571Q406 401 331 368ZM852 549H1286Q1241 702 1071 702Q987 702 928 662T852 549Z"/><glyph unicode="ç" horiz-adv-x="942" d="M72 426Q72 611 190 740Q313 877 502 877Q629 877 742 809Q823 761 881 678L739 571Q644 696 504 696Q401 696 332 612Q270 537 270 418T338 228T528 156T764 289L897 182Q844 109 759 52T573 -20L520 -88Q600 -88 648 -119T696 -199T676 -278T622 -328Q555 -367 476 -367T349 -349T258 -301L313 -236Q372 -279 461 -279Q489 -279 514 -265T539 -220T512 -178T453 -166T389 -176L346 -131L438 -18Q261 5 163 131Q72 248 72 426Z"/><glyph unicode="è" horiz-adv-x="1004" d="M72 434Q72 626 194 750Q319 877 508 877Q697 877 818 742Q936 611 936 401H266Q272 237 417 176Q463 156 540 156Q667 156 803 258L922 135Q842 66 747 21T537 -25T341 7T200 98Q72 221 72 434ZM229 1311H425L616 1010H419L229 1311ZM274 549H725Q702 623 642 662T499 702T354 662T274 549Z"/><glyph unicode="é" horiz-adv-x="1004" d="M72 434Q72 626 194 750Q319 877 508 877Q697 877 818 742Q936 611 936 401H266Q272 237 417 176Q463 156 540 156Q667 156 803 258L922 135Q842 66 747 21T537 -25T341 7T200 98Q72 221 72 434ZM274 549H725Q702 623 642 662T499 702T354 662T274 549ZM371 1010L561 1311H758L567 1010H371Z"/><glyph unicode="ê" horiz-adv-x="1004" d="M72 434Q72 626 194 750Q319 877 508 877Q697 877 818 742Q936 611 936 401H266Q272 237 417 176Q463 156 540 156Q667 156 803 258L922 135Q842 66 747 21T537 -25T341 7T200 98Q72 221 72 434ZM204 997L415 1298H595L806 997H611L503 1167L394 997H204ZM274 549H725Q702 623 642 662T499 702T354 662T274 549Z"/><glyph unicode="ë" horiz-adv-x="1004" d="M72 434Q72 626 194 750Q319 877 508 877Q697 877 818 742Q936 611 936 401H266Q272 237 417 176Q463 156 540 156Q667 156 803 258L922 135Q842 66 747 21T537 -25T341 7T200 98Q72 221 72 434ZM245 1010V1237H431V1010H245ZM274 549H725Q702 623 642 662T499 702T354 662T274 549ZM571 1010V1237H757V1010H571Z"/><glyph unicode="ì" horiz-adv-x="440" d="M-62 1311H134L325 1010H128L-62 1311ZM123 0V852H317V0H123Z"/><glyph unicode="í" horiz-adv-x="440" d="M120 1010L310 1311H507L316 1010H120ZM123 0V852H317V0H123Z"/><glyph unicode="î" horiz-adv-x="440" d="M-79 1010L132 1311H312L523 1010H328L220 1180L111 1010H-79ZM123 0V852H317V0H123Z"/><glyph unicode="ï" horiz-adv-x="440" d="M-36 1010V1237H150V1010H-36ZM123 0V852H317V0H123ZM290 1010V1237H476V1010H290Z"/><glyph unicode="ð" horiz-adv-x="1016" d="M72 432Q72 612 186 740Q308 877 502 877Q623 877 707 801Q680 937 561 1135L344 1047L276 1186L469 1264Q389 1368 297 1454L379 1534Q504 1450 614 1323L762 1382L827 1243L713 1196Q944 847 944 434Q944 254 842 126Q721 -25 506 -25Q313 -25 194 100Q72 228 72 432ZM270 547T270 425T330 230T500 156Q623 156 687 234Q745 304 745 428T680 624T502 696Q394 696 330 620Q270 547 270 425Z"/><glyph unicode="ñ" horiz-adv-x="975" d="M123 0V852H317V750Q402 877 549 877T784 796T872 555V0H678V518Q678 596 639 646T531 696T423 674T362 616Q317 551 317 459V0H123ZM188 1010Q188 1125 216 1171T280 1235T359 1253Q424 1253 513 1196Q577 1155 604 1155T640 1178T651 1249H802Q802 1006 622 1006Q561 1006 477 1063Q450 1079 428 1091T382 1104T350 1081T339 1010H188Z"/><glyph unicode="ò" horiz-adv-x="1016" d="M72 432Q72 612 186 740Q308 877 502 877Q693 877 822 746Q944 622 944 435Q944 344 913 259T822 110Q698 -25 506 -25Q313 -25 194 100Q72 228 72 432ZM229 1311H425L616 1010H419L229 1311ZM270 547T270 425T330 230T500 156Q623 156 687 234Q745 304 745 428T680 624T502 696Q394 696 330 620Q270 547 270 425Z"/><glyph unicode="ó" horiz-adv-x="1016" d="M72 432Q72 612 186 740Q308 877 502 877Q693 877 822 746Q944 622 944 435Q944 344 913 259T822 110Q698 -25 506 -25Q313 -25 194 100Q72 228 72 432ZM270 547T270 425T330 230T500 156Q623 156 687 234Q745 304 745 428T680 624T502 696Q394 696 330 620Q270 547 270 425ZM369 1010L559 1311H756L565 1010H369Z"/><glyph unicode="ô" horiz-adv-x="1016" d="M72 432Q72 612 186 740Q308 877 502 877Q693 877 822 746Q944 622 944 435Q944 344 913 259T822 110Q698 -25 506 -25Q313 -25 194 100Q72 228 72 432ZM198 991L409 1292H589L800 991H605L497 1161L388 991H198ZM270 547T270 425T330 230T500 156Q623 156 687 234Q745 304 745 428T680 624T502 696Q394 696 330 620Q270 547 270 425Z"/><glyph unicode="õ" horiz-adv-x="1016" d="M72 432Q72 612 186 740Q308 877 502 877Q693 877 822 746Q944 622 944 435Q944 344 913 259T822 110Q698 -25 506 -25Q313 -25 194 100Q72 228 72 432ZM196 1010Q196 1125 224 1171T288 1235T367 1253Q432 1253 521 1196Q585 1155 612 1155T648 1178T659 1249H810Q810 1006 630 1006Q569 1006 485 1063Q458 1079 436 1091T390 1104T358 1081T347 1010H196ZM270 547T270 425T330 230T500 156Q623 156 687 234Q745 304 745 428T680 624T502 696Q394 696 330 620Q270 547 270 425Z"/><glyph unicode="ö" horiz-adv-x="1016" d="M72 432Q72 612 186 740Q308 877 502 877Q693 877 822 746Q944 622 944 435Q944 344 913 259T822 110Q698 -25 506 -25Q313 -25 194 100Q72 228 72 432ZM243 1010V1237H429V1010H243ZM270 547T270 425T330 230T500 156Q623 156 687 234Q745 304 745 428T680 624T502 696Q394 696 330 620Q270 547 270 425ZM569 1010V1237H755V1010H569Z"/><glyph unicode="÷" horiz-adv-x="1137" d="M76 537V745H1061V537H76ZM461 139V365H676V139H461ZM461 913V1139H676V913H461Z"/><glyph unicode="ø" horiz-adv-x="1016" d="M59 59L152 152Q72 266 72 432Q72 612 186 740Q308 877 489 877T786 778L885 877L969 793L866 692Q944 584 944 440Q944 242 822 110Q698 -25 521 -25T233 63L143 -25L59 59ZM270 547T270 449T295 293L653 649Q594 696 520 696T403 676T330 620Q270 547 270 449ZM367 197Q420 156 492 156T611 176T687 233T731 320T745 432T725 551L367 197Z"/><glyph unicode="ù" horiz-adv-x="985" d="M113 297V852H307V334Q307 262 348 209T454 156T557 178T618 236Q668 305 668 393V852H862V0H668V102Q633 49 571 12T426 -25Q272 -25 193 56T113 297ZM284 1311H480L671 1010H474L284 1311Z"/><glyph unicode="ú" horiz-adv-x="985" d="M113 297V852H307V334Q307 262 348 209T454 156T557 178T618 236Q668 305 668 393V852H862V0H668V102Q633 49 571 12T426 -25Q272 -25 193 56T113 297ZM350 1010L540 1311H737L546 1010H350Z"/><glyph unicode="û" horiz-adv-x="985" d="M113 297V852H307V334Q307 262 348 209T454 156T557 178T618 236Q668 305 668 393V852H862V0H668V102Q633 49 571 12T426 -25Q272 -25 193 56T113 297ZM202 1010L413 1311H593L804 1010H609L501 1180L392 1010H202Z"/><glyph unicode="ü" horiz-adv-x="985" d="M113 297V852H307V334Q307 262 348 209T454 156T557 178T618 236Q668 305 668 393V852H862V0H668V102Q633 49 571 12T426 -25Q272 -25 193 56T113 297ZM241 1010V1237H427V1010H241ZM567 1010V1237H753V1010H567Z"/><glyph unicode="ý" horiz-adv-x="868" d="M25 852H236L424 295L436 246Q436 255 451 297L637 852H844L477 -152Q445 -249 403 -291Q324 -367 207 -367Q132 -367 70 -348V-172Q115 -190 158 -190T228 -176T272 -138T299 -81T322 -16L25 852ZM331 1010L521 1311H718L527 1010H331Z"/><glyph unicode="þ" horiz-adv-x="1008" d="M123 -367V1495H317V750Q420 877 559 877Q723 877 830 752Q936 630 936 438Q936 247 830 114Q720 -25 559 -25Q471 -25 411 15T317 102V-367H123ZM301 430Q301 323 360 242Q423 156 516 156Q620 156 681 236Q737 308 737 428Q737 483 724 531T683 616Q622 696 518 696Q424 696 360 614Q301 538 301 430Z"/><glyph unicode="ÿ" horiz-adv-x="868" d="M25 852H236L424 295L436 246Q436 255 451 297L637 852H844L477 -152Q445 -249 403 -291Q324 -367 207 -367Q132 -367 70 -348V-172Q115 -190 158 -190T228 -176T272 -138T299 -81T322 -16L25 852ZM181 1010V1237H367V1010H181ZM507 1010V1237H693V1010H507Z"/><glyph unicode="Ā" horiz-adv-x="1384" d="M51 0L625 1495H756L1333 0H1106L926 483H449L268 0H51ZM395 1626V1761H1009V1626H395ZM520 676H854L698 1094Q686 1124 686 1133L676 1096L520 676Z"/><glyph unicode="ā" horiz-adv-x="944" d="M61 262Q61 407 194 492Q320 573 524 573H651Q651 651 615 682T452 713T219 666L152 811Q210 846 276 857Q396 877 459 877Q637 877 739 819T842 623V0H647V61Q535 -25 381 -25Q226 -25 140 59Q61 136 61 262ZM202 1010V1145H816V1010H202ZM260 262Q260 177 372 154Q403 147 435 147T492 150T542 161Q587 174 647 215V416H592Q426 416 343 380T260 262Z"/><glyph unicode="Ă" horiz-adv-x="1384" d="M51 0L625 1495H756L1333 0H1106L926 483H449L268 0H51ZM391 1916H538Q542 1855 571 1818T627 1767T694 1753Q765 1753 808 1804Q845 1850 850 1916H997Q985 1769 902 1692T694 1615Q569 1615 486 1692T391 1916ZM520 676H854L698 1094Q686 1124 686 1133L676 1096L520 676Z"/><glyph unicode="ă" horiz-adv-x="944" d="M61 262Q61 407 194 492Q320 573 524 573H651Q651 651 615 682T452 713T219 666L152 811Q210 846 276 857Q396 877 459 877Q637 877 739 819T842 623V0H647V61Q535 -25 381 -25Q226 -25 140 59Q61 136 61 262ZM185 1300H332Q336 1239 365 1202T421 1151T488 1137Q559 1137 602 1188Q639 1234 644 1300H791Q779 1153 696 1076T488 999Q363 999 280 1076T185 1300ZM260 262Q260 177 372 154Q403 147 435 147T492 150T542 161Q587 174 647 215V416H592Q426 416 343 380T260 262Z"/><glyph unicode="Ą" horiz-adv-x="1384" d="M51 0L625 1495H756L1333 0Q1210 -41 1147 -110Q1100 -161 1100 -217Q1100 -297 1186 -297Q1251 -297 1315 -254L1370 -330Q1290 -395 1167 -395Q1074 -395 1006 -352Q932 -304 932 -225Q932 -104 1106 0L926 483H449L268 0H51ZM520 676H854L698 1094Q686 1124 686 1133L676 1096L520 676Z"/><glyph unicode="ą" horiz-adv-x="944" d="M61 262Q61 407 194 492Q320 573 524 573H651Q651 651 615 682T452 713T219 666L152 811Q210 846 276 857Q396 877 459 877Q637 877 739 819T842 623V0Q730 -22 666 -91Q612 -150 612 -215Q612 -295 690 -295Q741 -295 807 -252L862 -328Q782 -393 659 -393Q570 -393 509 -350Q444 -303 444 -235T486 -114T647 -2V61Q535 -25 381 -25Q226 -25 140 59Q61 136 61 262ZM260 262Q260 177 372 154Q403 147 435 147T492 150T542 161Q587 174 647 215V416H592Q426 416 343 380T260 262Z"/><glyph unicode="Ć" horiz-adv-x="1495" d="M92 569T92 739T147 1050T301 1296T535 1460T854 1520Q1189 1520 1386 1286L1235 1151Q1071 1319 838 1319Q616 1319 462 1164Q305 1005 305 752Q305 482 480 320Q557 248 650 212T840 176T1054 223T1268 383L1415 256Q1329 135 1177 55T825 -25Q688 -25 557 29T323 183T156 426ZM635 1647L825 1948H1022L831 1647H635Z"/><glyph unicode="ć" horiz-adv-x="942" d="M72 426Q72 611 190 740Q313 877 502 877Q629 877 742 809Q823 761 881 678L739 571Q644 696 504 696Q401 696 332 612Q270 537 270 418T338 228T528 156T764 289L897 182Q788 38 630 -8Q575 -25 492 -25T324 10T184 106Q72 228 72 426ZM359 1010L549 1311H746L555 1010H359Z"/><glyph unicode="Č" horiz-adv-x="1495" d="M92 569T92 739T147 1050T301 1296T535 1460T854 1520Q1189 1520 1386 1286L1235 1151Q1071 1319 838 1319Q616 1319 462 1164Q305 1005 305 752Q305 482 480 320Q557 248 650 212T840 176T1054 223T1268 383L1415 256Q1329 135 1177 55T825 -25Q688 -25 557 29T323 183T156 426ZM516 1927H710L819 1757L927 1927H1118L907 1626H727L516 1927Z"/><glyph unicode="č" horiz-adv-x="942" d="M72 426Q72 611 190 740Q313 877 502 877Q629 877 742 809Q823 761 881 678L739 571Q644 696 504 696Q401 696 332 612Q270 537 270 418T338 228T528 156T764 289L897 182Q788 38 630 -8Q575 -25 492 -25T324 10T184 106Q72 228 72 426ZM179 1311H373L482 1141L590 1311H781L570 1010H390L179 1311Z"/><glyph unicode="Ď" horiz-adv-x="1425" d="M154 0V1495H535Q906 1495 1126 1277Q1333 1071 1333 750Q1333 596 1278 459T1118 220Q888 0 516 0H154ZM357 1927H551L660 1757L768 1927H959L748 1626H568L357 1927ZM358 184H492Q799 184 972 362Q1120 515 1120 754Q1120 864 1078 965T960 1144Q794 1311 530 1311H358V184Z"/><glyph unicode="ď" horiz-adv-x="1008" d="M72 243T72 432T177 748Q283 877 439 877T690 762V1495H885V0H690V94Q657 47 597 11T451 -25T296 12T177 112Q72 243 72 432ZM270 424Q270 310 326 236Q386 156 485 156Q583 156 647 238Q707 316 707 429Q707 481 692 529T647 614Q582 696 487 696Q387 696 326 613Q270 535 270 424ZM979 1026Q1028 1148 1028 1254V1495H1221V1356Q1221 1204 1090 1026H979Z"/><glyph unicode="Đ" horiz-adv-x="1487" d="M72 633V825H215V1495H596Q967 1495 1186 1277Q1395 1070 1395 750Q1395 596 1340 459T1178 220Q949 0 578 0H215V633H72ZM420 184H553Q860 184 1033 362Q1182 516 1182 754Q1182 864 1140 965T1021 1144Q854 1311 592 1311H420V825H772V633H420V184Z"/><glyph unicode="đ" horiz-adv-x="1008" d="M72 243T72 432T177 748Q283 877 439 877T690 762V1069H348V1204H690V1495H885V1204H1016V1069H885V0H690V94Q657 47 597 11T451 -25T296 12T177 112Q72 243 72 432ZM270 424Q270 310 326 236Q386 156 485 156Q583 156 647 238Q707 316 707 429Q707 481 692 529T647 614Q582 696 487 696Q387 696 326 613Q270 535 270 424Z"/><glyph unicode="Ē" horiz-adv-x="1133" d="M154 0V1495H989V1303H358V825H975V633H358V193H1028V0H154ZM275 1626V1761H889V1626H275Z"/><glyph unicode="ē" horiz-adv-x="1004" d="M72 434Q72 626 194 750Q319 877 508 877Q697 877 818 742Q936 611 936 401H266Q272 237 417 176Q463 156 540 156Q667 156 803 258L922 135Q842 66 747 21T537 -25T341 7T200 98Q72 221 72 434ZM207 1010V1145H821V1010H207ZM274 549H725Q702 623 642 662T499 702T354 662T274 549Z"/><glyph unicode="Ė" horiz-adv-x="1133" d="M154 0V1495H989V1303H358V825H975V633H358V193H1028V0H154ZM488 1626V1853H676V1626H488Z"/><glyph unicode="ė" horiz-adv-x="1004" d="M72 434Q72 626 194 750Q319 877 508 877Q697 877 818 742Q936 611 936 401H266Q272 237 417 176Q463 156 540 156Q667 156 803 258L922 135Q842 66 747 21T537 -25T341 7T200 98Q72 221 72 434ZM274 549H725Q702 623 642 662T499 702T354 662T274 549ZM417 1010V1237H605V1010H417Z"/><glyph unicode="Ę" horiz-adv-x="1133" d="M154 0V1495H989V1303H358V825H975V633H358V193H1028V0Q880 -35 810 -106Q758 -159 758 -217Q758 -297 842 -297Q909 -297 973 -254L1028 -330Q948 -395 825 -395Q732 -395 664 -352Q590 -304 590 -225Q590 -101 797 0H154Z"/><glyph unicode="ę" horiz-adv-x="1004" d="M72 434Q72 626 194 750Q319 877 508 877Q697 877 818 742Q936 611 936 401H266Q272 237 417 176Q463 156 540 156Q667 156 803 258L922 135Q833 57 712 -1T553 -115T516 -216T540 -277T594 -295Q665 -295 731 -252L786 -328Q707 -393 584 -393Q492 -393 423 -350Q348 -302 348 -223Q348 -116 506 -25Q318 -21 196 102Q72 225 72 434ZM274 549H725Q702 623 642 662T499 702T354 662T274 549Z"/><glyph unicode="Ě" horiz-adv-x="1133" d="M154 0V1495H989V1303H358V825H975V633H358V193H1028V0H154ZM277 1927H471L580 1757L688 1927H879L668 1626H488L277 1927Z"/><glyph unicode="ě" horiz-adv-x="1004" d="M72 434Q72 626 194 750Q319 877 508 877Q697 877 818 742Q936 611 936 401H266Q272 237 417 176Q463 156 540 156Q667 156 803 258L922 135Q842 66 747 21T537 -25T341 7T200 98Q72 221 72 434ZM207 1311H401L510 1141L618 1311H809L598 1010H418L207 1311ZM274 549H725Q702 623 642 662T499 702T354 662T274 549Z"/><glyph unicode="Ğ" horiz-adv-x="1606" d="M92 573T92 747T152 1064T317 1307T560 1464T866 1520Q1168 1520 1403 1317L1278 1165Q1180 1245 1080 1282T857 1319T636 1278T463 1162Q305 1002 305 745Q305 515 467 347Q632 176 856 176Q1017 176 1136 259T1296 477H846V670H1534Q1534 518 1478 390T1327 170T1109 27T847 -25T573 30T330 187T158 431ZM549 1916H696Q700 1855 729 1818T785 1767T852 1753Q923 1753 966 1804Q1003 1850 1008 1916H1155Q1143 1769 1060 1692T852 1615Q727 1615 644 1692T549 1916Z"/><glyph unicode="ğ" horiz-adv-x="1008" d="M72 414Q72 604 177 738Q287 877 449 877Q537 877 597 840T690 756V852H885V8Q885 -203 758 -302Q650 -387 463 -387Q249 -387 129 -287L225 -143Q332 -213 455 -213Q613 -213 670 -118Q690 -86 690 -41V92Q605 -25 449 -25Q283 -25 177 100Q72 222 72 414ZM202 1300H349Q353 1239 382 1202T438 1151T505 1137Q576 1137 619 1188Q656 1234 661 1300H808Q796 1153 713 1076T505 999Q380 999 297 1076T202 1300ZM270 426Q270 248 394 178Q434 156 485 156T577 178T647 237T691 323T707 425T692 525T647 611Q582 696 487 696Q388 696 326 614Q270 540 270 426Z"/><glyph unicode="Ģ" horiz-adv-x="1606" d="M92 573T92 747T152 1064T317 1307T560 1464T866 1520Q1168 1520 1403 1317L1278 1165Q1180 1245 1080 1282T857 1319T636 1278T463 1162Q305 1002 305 745Q305 515 467 347Q632 176 856 176Q1017 176 1136 259T1296 477H846V670H1534Q1534 518 1478 390T1327 170T1109 27T847 -25T573 30T330 187T158 431ZM737 -578Q786 -456 786 -350V-109H979V-248Q979 -400 848 -578H737Z"/><glyph unicode="ģ" horiz-adv-x="1008" d="M72 414Q72 604 177 738Q287 877 449 877Q537 877 597 840T690 756V852H885V8Q885 -203 758 -302Q650 -387 463 -387Q249 -387 129 -287L225 -143Q332 -213 455 -213Q613 -213 670 -118Q690 -86 690 -41V92Q605 -25 449 -25Q283 -25 177 100Q72 222 72 414ZM270 426Q270 248 394 178Q434 156 485 156T577 178T647 237T691 323T707 425T692 525T647 611Q582 696 487 696Q388 696 326 614Q270 540 270 426ZM366 1000V1139Q366 1291 497 1469H608Q559 1347 559 1241V1000H366Z"/><glyph unicode="Ī" horiz-adv-x="512" d="M-50 1626V1761H564V1626H-50ZM154 0V1495H358V0H154Z"/><glyph unicode="ī" horiz-adv-x="440" d="M-89 1010V1145H525V1010H-89ZM123 0V852H317V0H123Z"/><glyph unicode="Į" horiz-adv-x="512" d="M-29 -225Q-29 -111 154 0V1495H358V0Q192 -62 150 -168Q139 -197 139 -229T163 -279T217 -297Q290 -297 354 -254L410 -330Q330 -395 207 -395Q115 -395 46 -352Q-29 -304 -29 -225Z"/><glyph unicode="į" horiz-adv-x="440" d="M-57 -223Q-57 -106 123 0V852H317V0Q203 -47 157 -108T111 -215Q111 -260 135 -277T188 -295Q260 -295 326 -252L381 -328Q301 -393 178 -393Q85 -393 18 -350Q-57 -302 -57 -223ZM123 1047V1282H317V1047H123Z"/><glyph unicode="İ" horiz-adv-x="512" d="M154 0V1495H358V0H154ZM163 1626V1853H351V1626H163Z"/><glyph unicode="ı" horiz-adv-x="440" d="M123 0V852H317V0H123Z"/><glyph unicode="Ķ" horiz-adv-x="1323" d="M154 0V1495H358V883L938 1495H1200L569 836L1296 0H1032L432 692L358 616V0H154ZM500 -579Q549 -457 549 -351V-110H742V-249Q742 -401 611 -579H500Z"/><glyph unicode="ķ" horiz-adv-x="963" d="M123 0V1495H317V526L655 852H924L553 504L926 0H674L410 369L317 289V0H123ZM334 -578Q383 -456 383 -350V-109H576V-248Q576 -400 445 -578H334Z"/><glyph unicode="Ĺ" horiz-adv-x="981" d="M154 0V1495H358V193H926V0H154ZM169 1647L359 1948H556L365 1647H169Z"/><glyph unicode="ĺ" horiz-adv-x="440" d="M123 0V1495H317V0H123ZM138 1669L328 1970H525L334 1669H138Z"/><glyph unicode="Ļ" horiz-adv-x="981" d="M154 0V1495H358V193H926V0H154ZM393 -578Q442 -456 442 -350V-109H635V-248Q635 -400 504 -578H393Z"/><glyph unicode="ļ" horiz-adv-x="440" d="M71 -578Q120 -456 120 -350V-109H313V-248Q313 -400 182 -578H71ZM123 0V1495H317V0H123Z"/><glyph unicode="Ľ" horiz-adv-x="981" d="M154 0V1495H358V193H926V0H154ZM493 1026Q542 1148 542 1254V1495H735V1356Q735 1204 604 1026H493Z"/><glyph unicode="ľ" horiz-adv-x="440" d="M123 0V1495H317V0H123ZM411 1026Q460 1148 460 1254V1495H653V1356Q653 1204 522 1026H411Z"/><glyph unicode="Ł" horiz-adv-x="1042" d="M39 721L215 793V1495H420V874L729 999L803 831L420 676V193H987V0H215V594L115 553L39 721Z"/><glyph unicode="ł" horiz-adv-x="571" d="M10 711L178 778V1495H373V858L496 907L561 758L373 682V0H178V602L78 561L10 711Z"/><glyph unicode="Ń" horiz-adv-x="1483" d="M154 0V1495H328L1102 432L1128 391Q1124 399 1124 438V1495H1329V0H1165L381 1083Q377 1087 373 1094T364 1109T354 1124Q354 1114 356 1106L358 1075V0H154ZM668 1606L858 1907H1055L864 1606H668Z"/><glyph unicode="ń" horiz-adv-x="975" d="M123 0V852H317V750Q402 877 549 877T784 796T872 555V0H678V518Q678 596 639 646T531 696T423 674T362 616Q317 551 317 459V0H123ZM393 1010L583 1311H780L589 1010H393Z"/><glyph unicode="Ņ" horiz-adv-x="1483" d="M154 0V1495H328L1102 432L1128 391Q1124 399 1124 438V1495H1329V0H1165L381 1083Q377 1087 373 1094T364 1109T354 1124Q354 1114 356 1106L358 1075V0H154ZM586 -578Q635 -456 635 -350V-109H828V-248Q828 -400 697 -578H586Z"/><glyph unicode="ņ" horiz-adv-x="975" d="M123 0V852H317V750Q402 877 549 877T784 796T872 555V0H678V518Q678 596 639 646T531 696T423 674T362 616Q317 551 317 459V0H123ZM350 -578Q399 -456 399 -350V-109H592V-248Q592 -400 461 -578H350Z"/><glyph unicode="Ň" horiz-adv-x="1483" d="M154 0V1495H328L1102 432L1128 391Q1124 399 1124 438V1495H1329V0H1165L381 1083Q377 1087 373 1094T364 1109T354 1124Q354 1114 356 1106L358 1075V0H154ZM473 1866H667L776 1696L884 1866H1075L864 1565H684L473 1866Z"/><glyph unicode="ň" horiz-adv-x="975" d="M123 0V852H317V750Q402 877 549 877T784 796T872 555V0H678V518Q678 596 639 646T531 696T423 674T362 616Q317 551 317 459V0H123ZM207 1311H401L510 1141L618 1311H809L598 1010H418L207 1311Z"/><glyph unicode="Ō" horiz-adv-x="1716" d="M92 582T92 748T149 1055T308 1299T549 1461T856 1520T1166 1461T1410 1297T1567 1051T1624 747T1564 444T1400 199T1157 35T859 -25T560 33T316 194T152 439ZM305 752Q305 506 472 339Q635 176 860 176Q1089 176 1245 332Q1411 498 1411 749Q1411 877 1370 980T1256 1158Q1098 1319 852 1319Q610 1319 456 1158Q305 999 305 752ZM549 1626V1761H1163V1626H549Z"/><glyph unicode="ō" horiz-adv-x="1016" d="M72 432Q72 612 186 740Q308 877 502 877Q693 877 822 746Q944 622 944 435Q944 344 913 259T822 110Q698 -25 506 -25Q313 -25 194 100Q72 228 72 432ZM198 1010V1145H812V1010H198ZM270 547T270 425T330 230T500 156Q623 156 687 234Q745 304 745 428T680 624T502 696Q394 696 330 620Q270 547 270 425Z"/><glyph unicode="Ő" horiz-adv-x="1716" d="M92 582T92 748T149 1055T308 1299T549 1461T856 1520T1166 1461T1410 1297T1567 1051T1624 747T1564 444T1400 199T1157 35T859 -25T560 33T316 194T152 439ZM305 752Q305 506 472 339Q635 176 860 176Q1089 176 1245 332Q1411 498 1411 749Q1411 877 1370 980T1256 1158Q1098 1319 852 1319Q610 1319 456 1158Q305 999 305 752ZM590 1647L781 1948H967L776 1647H590ZM885 1647L1076 1948H1262L1071 1647H885Z"/><glyph unicode="ő" horiz-adv-x="1016" d="M72 432Q72 612 186 740Q308 877 502 877Q693 877 822 746Q944 622 944 435Q944 344 913 259T822 110Q698 -25 506 -25Q313 -25 194 100Q72 228 72 432ZM258 1010L449 1311H635L444 1010H258ZM270 547T270 425T330 230T500 156Q623 156 687 234Q745 304 745 428T680 624T502 696Q394 696 330 620Q270 547 270 425ZM553 1010L744 1311H930L739 1010H553Z"/><glyph unicode="Œ" horiz-adv-x="2386" d="M92 582T92 748T149 1055T308 1299T549 1461T850 1520Q1193 1520 1407 1300V1495H2243V1303H1612V825H2228V633H1612V193H2281V0H1407V205Q1303 98 1163 37T861 -25T560 33T316 194T152 439ZM305 752Q305 506 472 339Q635 176 860 176Q1089 176 1245 332Q1411 498 1411 749Q1411 877 1370 980T1256 1158Q1098 1319 852 1319Q610 1319 456 1158Q305 999 305 752Z"/><glyph unicode="œ" horiz-adv-x="1657" d="M72 432Q72 612 186 740Q308 877 514 877T842 713Q897 791 986 834T1173 877T1346 841T1476 742Q1589 612 1589 401H936Q936 295 1002 223T1182 150Q1280 150 1328 172Q1407 207 1462 252L1575 135Q1495 66 1400 21T1188 -25T983 21T842 145Q726 -25 506 -25Q313 -25 194 100Q72 228 72 432ZM270 547T270 425T330 230T500 156Q623 156 687 234Q745 304 745 428T680 624T502 696Q394 696 330 620Q270 547 270 425ZM944 549H1378Q1333 702 1163 702Q1079 702 1020 662T944 549Z"/><glyph unicode="Ŕ" horiz-adv-x="1249" d="M154 0V1495H637Q839 1495 972 1365Q1100 1241 1100 1055Q1100 878 970 750Q845 627 674 627L1225 0H963L358 698V0H154ZM358 788H596Q735 788 811 865T887 1047T809 1227T600 1303H358V788ZM434 1626L624 1927H821L630 1626H434Z"/><glyph unicode="ŕ" horiz-adv-x="725" d="M123 0V852H317V750Q410 877 547 877Q635 877 715 813L627 649Q567 692 495 692T370 624T317 432V0H123ZM282 1010L472 1311H669L478 1010H282Z"/><glyph unicode="Ŗ" horiz-adv-x="1249" d="M154 0V1495H637Q839 1495 972 1365Q1100 1241 1100 1055Q1100 878 970 750Q845 627 674 627L1225 0H963L358 698V0H154ZM358 788H596Q735 788 811 865T887 1047T809 1227T600 1303H358V788ZM475 -578Q524 -456 524 -350V-109H717V-248Q717 -400 586 -578H475Z"/><glyph unicode="ŗ" horiz-adv-x="725" d="M76 -578Q125 -456 125 -350V-109H318V-248Q318 -400 187 -578H76ZM123 0V852H317V750Q410 877 547 877Q635 877 715 813L627 649Q567 692 495 692T370 624T317 432V0H123Z"/><glyph unicode="Ř" horiz-adv-x="1249" d="M154 0V1495H637Q839 1495 972 1365Q1100 1241 1100 1055Q1100 878 970 750Q845 627 674 627L1225 0H963L358 698V0H154ZM275 1927H469L578 1757L686 1927H877L666 1626H486L275 1927ZM358 788H596Q735 788 811 865T887 1047T809 1227T600 1303H358V788Z"/><glyph unicode="ř" horiz-adv-x="725" d="M114 1311H308L417 1141L525 1311H716L505 1010H325L114 1311ZM123 0V852H317V750Q410 877 547 877Q635 877 715 813L627 649Q567 692 495 692T370 624T317 432V0H123Z"/><glyph unicode="Ś" horiz-adv-x="1065" d="M92 127L209 285Q336 174 520 174Q635 174 705 225T776 383Q776 506 622 596Q575 623 511 655T370 729T232 824Q96 945 96 1135Q96 1302 212 1410Q330 1520 528 1520Q749 1520 932 1393L821 1225Q752 1276 687 1297T530 1319T375 1276T311 1159T336 1042T406 966Q461 924 581 866T764 769T877 679T958 558T989 392T952 217T853 85Q727 -25 530 -25Q278 -25 92 127ZM391 1626L581 1927H778L587 1626H391Z"/><glyph unicode="ś" horiz-adv-x="745" d="M70 88L166 233Q219 190 275 172T370 154T442 171T477 230T442 299T358 350T263 397T179 452Q92 524 92 637Q92 735 175 807Q256 877 375 877Q541 877 649 801L569 647Q484 707 386 707T287 641Q287 606 327 583T416 535T509 485T589 425Q672 347 672 238Q672 128 589 55Q503 -20 377 -20Q203 -20 70 88ZM245 1010L435 1311H632L441 1010H245Z"/><glyph unicode="Ş" horiz-adv-x="1065" d="M92 127L209 285Q336 174 520 174Q635 174 705 225T776 383Q776 506 622 596Q575 623 511 655T370 729T232 824Q96 945 96 1135Q96 1302 212 1410Q330 1520 528 1520Q749 1520 932 1393L821 1225Q752 1276 687 1297T530 1319T375 1276T311 1159T336 1042T406 966Q461 924 581 866T764 769T877 679T958 558T989 392T952 217T853 85Q727 -25 530 -25Q278 -25 92 127ZM283 -301L338 -236Q397 -279 485 -279Q514 -279 538 -265T563 -219Q563 -166 477 -166Q444 -166 414 -176L371 -131L502 29H637L545 -88Q625 -88 673 -119T721 -199T701 -278T646 -328Q579 -367 501 -367T374 -349T283 -301Z"/><glyph unicode="ş" horiz-adv-x="745" d="M70 88L166 233Q219 190 275 172T370 154T442 171T477 230T442 299T358 350T263 397T179 452Q92 524 92 637Q92 735 175 807Q256 877 375 877Q541 877 649 801L569 647Q484 707 386 707T287 641Q287 606 327 583T416 535T509 485T589 425Q672 347 672 238Q672 128 589 55Q503 -20 377 -20Q203 -20 70 88ZM114 -301L169 -236Q228 -279 316 -279Q345 -279 369 -265T394 -219Q394 -166 308 -166Q275 -166 245 -176L202 -131L333 29H468L376 -88Q456 -88 504 -119T552 -199T532 -278T477 -328Q410 -367 332 -367T205 -349T114 -301Z"/><glyph unicode="Š" horiz-adv-x="1065" d="M92 127L209 285Q336 174 520 174Q635 174 705 225T776 383Q776 506 622 596Q575 623 511 655T370 729T232 824Q96 945 96 1135Q96 1302 212 1410Q330 1520 528 1520Q749 1520 932 1393L821 1225Q752 1276 687 1297T530 1319T375 1276T311 1159T336 1042T406 966Q461 924 581 866T764 769T877 679T958 558T989 392T952 217T853 85Q727 -25 530 -25Q278 -25 92 127ZM221 1915H415L524 1745L632 1915H823L612 1614H432L221 1915Z"/><glyph unicode="š" horiz-adv-x="745" d="M70 88L166 233Q219 190 275 172T370 154T442 171T477 230T442 299T358 350T263 397T179 452Q92 524 92 637Q92 735 175 807Q256 877 375 877Q541 877 649 801L569 647Q484 707 386 707T287 641Q287 606 327 583T416 535T509 485T589 425Q672 347 672 238Q672 128 589 55Q503 -20 377 -20Q203 -20 70 88ZM75 1311H269L378 1141L486 1311H677L466 1010H286L75 1311Z"/><glyph unicode="Ţ" horiz-adv-x="983" d="M78 1303V1495H905V1303H588V0H383V1303H78ZM340 -578Q389 -456 389 -350V-109H582V-248Q582 -400 451 -578H340Z"/><glyph unicode="ţ" horiz-adv-x="594" d="M47 672V852H164V1251H358V852H512V672H358V283Q358 215 386 194T479 172H500Q508 172 514 174V-10Q506 -12 500 -12H481Q317 -12 250 39Q164 104 164 276V672H47ZM186 -578Q235 -456 235 -350V-109H428V-248Q428 -400 297 -578H186Z"/><glyph unicode="Ť" horiz-adv-x="983" d="M78 1303V1495H905V1303H588V0H383V1303H78ZM190 1927H384L493 1757L601 1927H792L581 1626H401L190 1927Z"/><glyph unicode="ť" horiz-adv-x="584" d="M47 672V852H164V1251H358V852H512V672H358V283Q358 215 386 194T479 172H500Q508 172 514 174V-10Q506 -12 500 -12H481Q317 -12 250 39Q164 104 164 276V672H47ZM491 978Q540 1100 540 1206V1447H733V1308Q733 1156 602 978H491Z"/><glyph unicode="Ū" horiz-adv-x="1456" d="M143 565V1495H350V565Q350 361 464 258Q564 168 727 168Q983 168 1077 382Q1110 457 1110 565V1495H1313V565Q1313 302 1145 136Q982 -25 727 -25Q463 -25 306 132Q143 295 143 565ZM432 1626V1761H1046V1626H432Z"/><glyph unicode="ū" horiz-adv-x="985" d="M113 297V852H307V334Q307 262 348 209T454 156T557 178T618 236Q668 305 668 393V852H862V0H668V102Q633 49 571 12T426 -25Q272 -25 193 56T113 297ZM190 1010V1145H804V1010H190Z"/><glyph unicode="Ů" horiz-adv-x="1456" d="M143 565V1495H350V565Q350 361 464 258Q564 168 727 168Q983 168 1077 382Q1110 457 1110 565V1495H1313V565Q1313 302 1145 136Q982 -25 727 -25Q463 -25 306 132Q143 295 143 565ZM508 1782Q508 1880 575 1945Q644 2013 739 2013Q834 2013 903 1945Q970 1880 970 1782Q970 1685 903 1618Q835 1550 739 1550Q643 1550 575 1618Q508 1685 508 1782ZM628 1782Q628 1735 660 1703T739 1671Q786 1671 818 1703T850 1782Q850 1829 818 1860T739 1892Q692 1892 660 1861T628 1782Z"/><glyph unicode="ů" horiz-adv-x="985" d="M113 297V852H307V334Q307 262 348 209T454 156T557 178T618 236Q668 305 668 393V852H862V0H668V102Q633 49 571 12T426 -25Q272 -25 193 56T113 297ZM278 1146Q278 1244 345 1309Q414 1377 509 1377Q604 1377 673 1309Q740 1244 740 1146Q740 1049 673 982Q605 914 509 914Q413 914 345 982Q278 1049 278 1146ZM398 1146Q398 1099 430 1067T509 1035Q556 1035 588 1067T620 1146Q620 1193 588 1224T509 1256Q462 1256 430 1225T398 1146Z"/><glyph unicode="Ű" horiz-adv-x="1456" d="M143 565V1495H350V565Q350 361 464 258Q564 168 727 168Q983 168 1077 382Q1110 457 1110 565V1495H1313V565Q1313 302 1145 136Q982 -25 727 -25Q463 -25 306 132Q143 295 143 565ZM473 1647L664 1948H850L659 1647H473ZM768 1647L959 1948H1145L954 1647H768Z"/><glyph unicode="ű" horiz-adv-x="985" d="M113 297V852H307V334Q307 262 348 209T454 156T557 178T618 236Q668 305 668 393V852H862V0H668V102Q633 49 571 12T426 -25Q272 -25 193 56T113 297ZM239 1010L430 1311H616L425 1010H239ZM534 1010L725 1311H911L720 1010H534Z"/><glyph unicode="Ų" horiz-adv-x="1456" d="M143 565V1495H350V565Q350 361 464 258Q564 168 727 168Q983 168 1077 382Q1110 457 1110 565V1495H1313V565Q1313 345 1191 188Q1084 50 891 -23Q782 -62 730 -120Q694 -162 694 -211T718 -277T772 -295Q843 -295 909 -252L965 -328Q885 -393 762 -393Q670 -393 601 -350Q526 -302 526 -223Q526 -116 686 -23Q441 -9 293 144Q143 300 143 565Z"/><glyph unicode="ų" horiz-adv-x="985" d="M113 297V852H307V334Q307 262 348 209T454 156T557 178T618 236Q668 305 668 393V852H862V0Q614 -122 614 -215Q614 -260 639 -277T697 -295T751 -286T809 -252L864 -328Q823 -362 784 -377T692 -393T597 -382T521 -350Q446 -302 446 -223Q446 -111 670 0H668V102Q633 49 571 12T426 -25Q272 -25 193 56T113 297Z"/><glyph unicode="Ÿ" horiz-adv-x="1321" d="M41 1495H279L639 936Q643 932 646 924Q650 912 662 893Q666 901 670 908T678 923T686 938L1047 1495H1280L760 694V0H555V694L41 1495ZM408 1594V1821H594V1594H408ZM734 1594V1821H920V1594H734Z"/><glyph unicode="Ź" horiz-adv-x="1266" d="M29 0L811 1257Q815 1264 820 1271Q833 1289 840 1296Q834 1294 825 1294H158V1495H1200L408 229Q395 213 391 207Q387 201 383 199H397L426 201H1176V0H29ZM516 1647L706 1948H903L712 1647H516Z"/><glyph unicode="ź" horiz-adv-x="885" d="M33 0L475 651Q479 659 494 674L463 672H113V852H844L399 205Q383 181 377 178H387L412 180H805V0H33ZM367 1010L557 1311H754L563 1010H367Z"/><glyph unicode="Ż" horiz-adv-x="1266" d="M29 0L811 1257Q815 1264 820 1271Q833 1289 840 1296Q834 1294 825 1294H158V1495H1200L408 229Q395 213 391 207Q387 201 383 199H397L426 201H1176V0H29ZM578 1626V1853H766V1626H578Z"/><glyph unicode="ż" horiz-adv-x="885" d="M33 0L475 651Q479 659 494 674L463 672H113V852H844L399 205Q383 181 377 178H387L412 180H805V0H33ZM376 1010V1237H564V1010H376Z"/><glyph unicode="Ž" horiz-adv-x="1266" d="M29 0L811 1257Q815 1264 820 1271Q833 1289 840 1296Q834 1294 825 1294H158V1495H1200L408 229Q395 213 391 207Q387 201 383 199H397L426 201H1176V0H29ZM326 1915H520L629 1745L737 1915H928L717 1614H537L326 1915Z"/><glyph unicode="ž" horiz-adv-x="885" d="M33 0L475 651Q479 659 494 674L463 672H113V852H844L399 205Q383 181 377 178H387L412 180H805V0H33ZM167 1311H361L470 1141L578 1311H769L558 1010H378L167 1311Z"/><glyph unicode="ƒ" horiz-adv-x="623" d="M-33 -358L-18 -188Q-10 -190 4 -193T44 -192Q110 -181 117 -98L184 672H61L78 852H201L240 1305Q247 1396 322 1452Q388 1501 488 1501Q539 1501 578 1493L563 1323Q437 1348 428 1233L395 852H528L512 672H379L305 -170Q297 -262 223 -318Q156 -367 80 -367T-33 -358Z"/><glyph unicode="ˆ" horiz-adv-x="1024" d="M211 1010L422 1311H602L813 1010H618L510 1180L401 1010H211Z"/><glyph unicode="ˇ" horiz-adv-x="1024" d="M207 1311H401L510 1141L618 1311H809L598 1010H418L207 1311Z"/><glyph unicode="˘" horiz-adv-x="1024" d="M209 1300H356Q360 1239 389 1202T445 1151T512 1137Q583 1137 626 1188Q663 1234 668 1300H815Q803 1153 720 1076T512 999Q387 999 304 1076T209 1300Z"/><glyph unicode="˙" horiz-adv-x="1024" d="M418 1010V1237H606V1010H418Z"/><glyph unicode="˛" horiz-adv-x="1024" d="M256 -201Q256 -78 463 25H598Q424 -94 424 -193Q424 -238 448 -255T502 -272Q575 -272 639 -229L694 -305Q614 -371 492 -371Q401 -371 331 -326Q256 -279 256 -201Z"/><glyph unicode="˜" horiz-adv-x="1024" d="M205 1010Q205 1125 233 1171T297 1235T376 1253Q441 1253 530 1196Q594 1155 621 1155T657 1178T668 1249H819Q819 1006 639 1006Q578 1006 494 1063Q467 1079 445 1091T399 1104T367 1081T356 1010H205Z"/><glyph unicode="˝" horiz-adv-x="1024" d="M176 1010L367 1311H553L362 1010H176ZM471 1010L662 1311H848L657 1010H471Z"/><glyph unicode="΄" horiz-adv-x="1024" d="M375 1010L483 1311H662L553 1010H375Z"/><glyph unicode="΅" horiz-adv-x="1024" d="M162 1010V1237H348V1010H162ZM383 1010L492 1311H670L561 1010H383ZM676 1010V1237H862V1010H676Z"/><glyph unicode="Ά" horiz-adv-x="1384" d="M51 0L625 1495H756L1333 0H1106L926 483H449L268 0H51ZM61 1194L169 1495H348L239 1194H61ZM520 676H854L698 1094Q686 1124 686 1133L676 1096L520 676Z"/><glyph unicode="Έ" horiz-adv-x="1391" d="M-5 1194L103 1495H282L173 1194H-5ZM412 0V1495H1247V1303H616V825H1233V633H616V193H1286V0H412Z"/><glyph unicode="Ή" horiz-adv-x="1692" d="M-5 1194L103 1495H282L173 1194H-5ZM412 0V1495H616V836H1333V1495H1538V0H1333V643H616V0H412Z"/><glyph unicode="Ί" horiz-adv-x="770" d="M-5 1194L103 1495H282L173 1194H-5ZM412 0V1495H616V0H412Z"/><glyph unicode="Ό" horiz-adv-x="1880" d="M-5 1194L103 1495H282L173 1194H-5ZM256 582T256 748T313 1055T472 1299T713 1461T1020 1520T1330 1461T1574 1297T1731 1051T1788 747T1728 444T1564 199T1321 35T1023 -25T724 33T480 194T316 439ZM469 752Q469 506 636 339Q799 176 1024 176Q1253 176 1409 332Q1575 498 1575 749Q1575 877 1534 980T1420 1158Q1262 1319 1016 1319Q774 1319 620 1158Q469 999 469 752Z"/><glyph unicode="Ύ" horiz-adv-x="1671" d="M-5 1194L103 1495H282L173 1194H-5ZM391 1495H629L989 936Q993 932 996 924Q1000 912 1012 893Q1016 901 1020 908T1028 923T1036 938L1397 1495H1630L1110 694V0H905V694L391 1495Z"/><glyph unicode="Ώ" horiz-adv-x="1647" d="M-5 1194L103 1495H282L173 1194H-5ZM277 889Q277 1157 454 1338Q632 1520 899 1520Q1179 1520 1359 1336Q1534 1157 1534 887Q1534 698 1448 549T1194 322V193H1516V0H989V459Q1134 488 1228 600Q1327 718 1327 893Q1327 1083 1208 1200Q1084 1323 899 1323Q716 1323 599 1200Q483 1078 483 889Q483 718 583 598Q674 489 821 459V0H295V193H617V322Q449 399 363 549T277 889Z"/><glyph unicode="ΐ" horiz-adv-x="440" d="M-130 1010V1237H56V1010H-130ZM91 1010L200 1311H378L269 1010H91ZM123 0V852H317V0H123ZM384 1010V1237H570V1010H384Z"/><glyph unicode="Α" horiz-adv-x="1384" d="M51 0L625 1495H756L1333 0H1106L926 483H449L268 0H51ZM520 676H854L698 1094Q686 1124 686 1133L676 1096L520 676Z"/><glyph unicode="Β" horiz-adv-x="1147" d="M154 0V1495H549Q741 1495 862 1388Q983 1282 983 1106Q983 977 933 893T811 762Q904 736 981 640Q1063 538 1063 406Q1063 336 1038 263T956 132Q830 0 602 0H154ZM358 193H580Q719 193 784 255T850 418T783 578T600 637H358V193ZM358 829H496Q645 829 717 914Q770 976 770 1083T706 1246T514 1303H358V829Z"/><glyph unicode="Γ" horiz-adv-x="991" d="M154 0V1495H891V1303H358V0H154Z"/><glyph unicode="Δ" horiz-adv-x="1384" d="M51 0L625 1495H756L1333 0H51ZM340 193H1034L698 1094Q686 1124 686 1133L676 1096L340 193Z"/><glyph unicode="Ε" horiz-adv-x="1133" d="M154 0V1495H989V1303H358V825H975V633H358V193H1028V0H154Z"/><glyph unicode="Ζ" horiz-adv-x="1266" d="M29 0L811 1257Q815 1264 820 1271Q833 1289 840 1296Q834 1294 825 1294H158V1495H1200L408 229Q395 213 391 207Q387 201 383 199H397L426 201H1176V0H29Z"/><glyph unicode="Η" horiz-adv-x="1434" d="M154 0V1495H358V836H1075V1495H1280V0H1075V643H358V0H154Z"/><glyph unicode="Θ" horiz-adv-x="1716" d="M92 582T92 748T149 1055T308 1299T549 1461T856 1520T1166 1461T1410 1297T1567 1051T1624 747T1564 444T1400 199T1157 35T859 -25T560 33T316 194T152 439ZM305 752Q305 506 472 339Q635 176 860 176Q1089 176 1245 332Q1411 498 1411 749Q1411 877 1370 980T1256 1158Q1098 1319 852 1319Q610 1319 456 1158Q305 999 305 752ZM641 676V852H1075V676H641Z"/><glyph unicode="Ι" horiz-adv-x="512" d="M154 0V1495H358V0H154Z"/><glyph unicode="Κ" horiz-adv-x="1323" d="M154 0V1495H358V883L938 1495H1200L569 836L1296 0H1032L432 692L358 616V0H154Z"/><glyph unicode="Λ" horiz-adv-x="1346" d="M117 0L641 1495H768L1295 0H1096L717 1079L705 1128Q705 1124 701 1109Q693 1079 312 0H117Z"/><glyph unicode="Μ" horiz-adv-x="1774" d="M154 0V1495H328L891 764L1438 1495H1620V0H1415V1100Q1415 1118 1417 1135T1419 1155Q1417 1153 1411 1142T1399 1122L930 489H848L375 1106Q364 1117 354 1137L358 1083V0H154Z"/><glyph unicode="Ν" horiz-adv-x="1483" d="M154 0V1495H328L1102 432L1128 391Q1124 399 1124 438V1495H1329V0H1165L381 1083Q377 1087 373 1094T364 1109T354 1124Q354 1114 356 1106L358 1075V0H154Z"/><glyph unicode="Ξ" horiz-adv-x="1354" d="M86 0V193H575V643H354V836H575V1303H176V1495H1178V1303H778V836H997V643H778V193H1268V0H86Z"/><glyph unicode="Ο" horiz-adv-x="1716" d="M92 582T92 748T149 1055T308 1299T549 1461T856 1520T1166 1461T1410 1297T1567 1051T1624 747T1564 444T1400 199T1157 35T859 -25T560 33T316 194T152 439ZM305 752Q305 506 472 339Q635 176 860 176Q1089 176 1245 332Q1411 498 1411 749Q1411 877 1370 980T1256 1158Q1098 1319 852 1319Q610 1319 456 1158Q305 999 305 752Z"/><glyph unicode="Π" horiz-adv-x="1372" d="M154 0V1495H1219V0H1014V1303H358V0H154Z"/><glyph unicode="Ρ" horiz-adv-x="1147" d="M154 0V1495H602Q823 1495 960 1362Q1092 1234 1092 1038Q1092 944 1055 863T956 720Q824 588 641 588H358V0H154ZM358 780H584Q713 780 796 849T879 1043T797 1236T571 1303H358V780Z"/><glyph unicode="Σ" horiz-adv-x="1266" d="M29 0L524 797L88 1495H1133V1294H463Q455 1294 449 1296Q462 1283 477 1257L762 795L408 229Q395 213 391 207Q387 201 383 199H397L426 201H1176V0H29Z"/><glyph unicode="Τ" horiz-adv-x="983" d="M78 1303V1495H905V1303H588V0H383V1303H78Z"/><glyph unicode="Υ" horiz-adv-x="1321" d="M41 1495H279L639 936Q643 932 646 924Q650 912 662 893Q666 901 670 908T678 923T686 938L1047 1495H1280L760 694V0H555V694L41 1495Z"/><glyph unicode="Φ" horiz-adv-x="1663" d="M92 750Q92 1025 273 1208Q456 1393 725 1393V1495H930V1393Q1212 1389 1394 1203Q1571 1022 1571 745Q1571 610 1521 493T1383 288T1180 151T930 100V0H725V100Q459 104 276 287Q92 471 92 750ZM303 748Q303 653 337 573T429 432Q550 305 725 301V1192Q538 1192 420 1065Q303 939 303 748ZM930 301Q1105 301 1230 423Q1360 549 1360 748Q1360 848 1328 927T1240 1064Q1120 1188 930 1192V301Z"/><glyph unicode="Χ" horiz-adv-x="1409" d="M66 0L584 788L125 1495H377L664 1053L711 975Q711 977 725 1002T760 1057L1049 1495H1284L827 799L1348 0H1100L766 510Q756 524 746 541T725 576T702 614Q690 596 680 578T658 541T635 506L303 0H66Z"/><glyph unicode="Ψ" horiz-adv-x="1507" d="M102 1077V1495H307V1077Q307 813 486 738Q553 711 651 707V1495H856V707Q1131 718 1184 930Q1200 997 1200 1077V1495H1405V1077Q1405 806 1282 670Q1148 522 856 514V0H651V514Q226 525 132 846Q102 948 102 1077Z"/><glyph unicode="Ω" horiz-adv-x="1483" d="M113 889Q113 1157 290 1338Q468 1520 735 1520Q1015 1520 1195 1336Q1370 1157 1370 887Q1370 698 1284 549T1030 322V193H1352V0H825V459Q970 488 1064 600Q1163 718 1163 893Q1163 1083 1044 1200Q920 1323 735 1323Q552 1323 435 1200Q319 1078 319 889Q319 718 419 598Q510 489 657 459V0H131V193H453V322Q285 399 199 549T113 889Z"/><glyph unicode="Ϊ" horiz-adv-x="512" d="M1 1614V1841H187V1614H1ZM154 0V1495H358V0H154ZM327 1614V1841H513V1614H327Z"/><glyph unicode="Ϋ" horiz-adv-x="1321" d="M41 1495H279L639 936Q643 932 646 924Q650 912 662 893Q666 901 670 908T678 923T686 938L1047 1495H1280L760 694V0H555V694L41 1495ZM408 1594V1821H594V1594H408ZM734 1594V1821H920V1594H734Z"/><glyph unicode="ά" horiz-adv-x="1008" d="M72 414Q72 604 177 738Q287 877 449 877Q537 877 597 840T690 756V852H885V0H690V92Q603 -25 449 -25Q283 -25 177 100Q72 222 72 414ZM270 426Q270 248 394 178Q434 156 485 156T577 178T647 237T691 323T707 425T692 525T647 611Q582 696 487 696Q388 696 326 614Q270 540 270 426ZM402 1010L510 1311H689L580 1010H402Z"/><glyph unicode="έ" horiz-adv-x="905" d="M80 184T80 247T121 365T240 438Q178 451 150 504T121 616Q121 733 216 805T477 877Q667 877 766 792Q797 766 825 733L688 618Q621 702 466 702T311 614T475 526H614V379H467Q272 379 272 274Q272 194 388 166Q430 156 492 156Q661 156 766 246L885 123Q745 -25 492 -25Q178 -25 102 138Q80 184 80 247ZM381 1010L489 1311H668L559 1010H381Z"/><glyph unicode="ή" horiz-adv-x="975" d="M123 0V852H317V750Q402 877 549 877T784 796T872 555V-367H678V518Q678 596 639 646T531 696T423 674T362 616Q317 551 317 459V0H123ZM428 1010L536 1311H715L606 1010H428Z"/><glyph unicode="ί" horiz-adv-x="440" d="M123 0V852H317V0H123ZM136 1010L244 1311H423L314 1010H136Z"/><glyph unicode="ΰ" horiz-adv-x="975" d="M113 334V852H307V334Q307 262 352 209T487 156T623 209T668 334V852H862V334Q862 82 652 2Q582 -25 488 -25T323 2T206 76Q113 171 113 334ZM138 1010V1237H324V1010H138ZM359 1010L468 1311H646L537 1010H359ZM652 1010V1237H838V1010H652Z"/><glyph unicode="α" horiz-adv-x="1008" d="M72 414Q72 604 177 738Q287 877 449 877Q537 877 597 840T690 756V852H885V0H690V92Q603 -25 449 -25Q283 -25 177 100Q72 222 72 414ZM270 426Q270 248 394 178Q434 156 485 156T577 178T647 237T691 323T707 425T692 525T647 611Q582 696 487 696Q388 696 326 614Q270 540 270 426Z"/><glyph unicode="β" horiz-adv-x="987" d="M123 -367V1104Q123 1296 217 1408T499 1520T785 1426T883 1178Q883 1063 827 976T659 852Q775 794 848 658Q915 533 915 389Q915 208 818 92Q720 -25 555 -25Q487 -25 424 0V180Q470 156 545 156T669 209T717 363T691 537T623 664Q542 769 442 795V930H459Q544 930 614 990Q694 1058 694 1165Q694 1297 590 1344Q553 1360 502 1360Q416 1360 366 1298T315 1118V-367H123Z"/><glyph unicode="γ" horiz-adv-x="862" d="M20 852H236L420 440L434 399Q434 416 449 442L635 852H842L526 180V-367H332V184L20 852Z"/><glyph unicode="δ" horiz-adv-x="1016" d="M72 432Q72 612 186 740Q308 877 502 877Q623 877 707 801Q674 977 520 1124Q377 1258 195 1315V1495H844V1315H514Q944 1059 944 481Q944 261 842 127Q725 -25 506 -25Q313 -25 194 100Q72 228 72 432ZM270 547T270 425T330 230T500 156Q623 156 687 234Q745 304 745 428T680 624T502 696Q394 696 330 620Q270 547 270 425Z"/><glyph unicode="ε" horiz-adv-x="905" d="M80 184T80 247T121 365T240 438Q178 451 150 504T121 616Q121 733 216 805T477 877Q667 877 766 792Q797 766 825 733L688 618Q621 702 466 702T311 614T475 526H614V379H467Q272 379 272 274Q272 194 388 166Q430 156 492 156Q661 156 766 246L885 123Q745 -25 492 -25Q178 -25 102 138Q80 184 80 247Z"/><glyph unicode="ζ" horiz-adv-x="823" d="M72 414Q72 527 100 605Q151 745 244 893L496 1294Q500 1303 514 1317L483 1315H113V1495H844L424 827Q329 676 306 606Q270 498 270 421T292 296T353 217Q418 164 543 143Q669 124 722 89T800 10T825 -101T800 -220T733 -303Q653 -367 547 -367T378 -346T262 -283L334 -158Q398 -213 510 -213Q557 -213 590 -190T623 -123T605 -62T555 -33T483 -17T391 3T283 45T178 121Q72 227 72 414Z"/><glyph unicode="η" horiz-adv-x="975" d="M123 0V852H317V750Q402 877 549 877T784 796T872 555V-367H678V518Q678 596 639 646T531 696T423 674T362 616Q317 551 317 459V0H123Z"/><glyph unicode="θ" horiz-adv-x="1163" d="M82 743Q82 1291 354 1460Q449 1520 588 1520T822 1460T975 1295T1056 1051T1081 751T1054 448T966 200Q840 -25 575 -25Q345 -25 216 166Q82 366 82 743ZM291 745Q291 352 442 208Q496 156 582 156T726 209T816 346T859 535T870 743T860 951T818 1143Q745 1339 582 1339Q423 1339 348 1149Q291 1004 291 745ZM399 655V831H752V655H399Z"/><glyph unicode="ι" horiz-adv-x="440" d="M123 0V852H317V0H123Z"/><glyph unicode="κ" horiz-adv-x="963" d="M123 0V852H317V526L655 852H924L553 504L926 0H674L410 369L317 289V0H123Z"/><glyph unicode="λ" horiz-adv-x="868" d="M-31 1309V1485Q28 1503 99 1503T215 1486T291 1438Q341 1391 377 1288L844 0H633L446 555Q442 567 438 583T432 606L420 557L231 0H25L319 864L219 1149Q207 1182 198 1213T171 1270Q133 1327 53 1327Q16 1327 -31 1309Z"/><glyph unicode="μ" horiz-adv-x="1008" d="M123 -367V852H317V334Q317 262 358 209T464 156T567 178T628 236Q678 305 678 393V852H872V0H678V102Q643 49 581 12T445 -25T317 4V-367H123Z"/><glyph unicode="ν" horiz-adv-x="862" d="M20 852H236L420 440Q427 424 434 399Q436 406 439 418T449 442L635 852H842L430 -25L20 852Z"/><glyph unicode="ξ" horiz-adv-x="821" d="M72 426Q72 667 255 786Q311 823 379 852Q268 885 212 961T156 1147T233 1313H113V1495H844V1315H516Q438 1315 391 1262T344 1146T366 1046T425 981Q493 930 596 930V788Q382 772 301 594Q270 526 270 438T292 300T353 218Q417 164 543 143Q676 118 726 83Q825 15 825 -100Q825 -229 733 -303Q653 -367 547 -367T378 -346T262 -283L334 -158Q398 -213 510 -213Q557 -213 590 -190T623 -123T605 -62T555 -33T483 -17T391 3T283 46T178 125Q72 236 72 426Z"/><glyph unicode="ο" horiz-adv-x="1016" d="M72 432Q72 612 186 740Q308 877 502 877Q693 877 822 746Q944 622 944 435Q944 344 913 259T822 110Q698 -25 506 -25Q313 -25 194 100Q72 228 72 432ZM270 547T270 425T330 230T500 156Q623 156 687 234Q745 304 745 428T680 624T502 696Q394 696 330 620Q270 547 270 425Z"/><glyph unicode="π" horiz-adv-x="975" d="M123 0V852H852V0H657V672H317V0H123Z"/><glyph unicode="ρ" horiz-adv-x="1008" d="M123 -367V422Q123 613 230 742Q340 877 526 877Q716 877 830 740Q936 615 936 420Q936 230 830 104Q723 -25 564 -25T317 92V-367H123ZM309 422Q309 312 366 238Q427 156 524 156Q621 156 683 238Q737 311 737 428Q737 609 618 674Q578 696 527 696T435 674T368 613Q309 532 309 422Z"/><glyph unicode="ς" horiz-adv-x="942" d="M72 426Q72 611 190 740Q313 877 502 877Q629 877 742 809Q823 761 881 678L739 571Q644 696 504 696Q401 696 332 612Q270 537 270 447T292 304T353 219Q416 164 543 143Q669 124 722 89T800 10T825 -101T800 -220T733 -303Q653 -367 547 -367T378 -346T262 -283L334 -158Q398 -213 510 -213Q557 -213 590 -190T623 -123T605 -62T555 -33T483 -17T391 3T283 45T178 123Q72 234 72 426Z"/><glyph unicode="σ" horiz-adv-x="1016" d="M72 420Q72 595 186 720Q308 852 502 852H979V672H854Q944 586 944 428Q944 234 822 106Q697 -25 506 -25Q316 -25 194 96Q72 219 72 420ZM270 526T270 412T330 227T511 156T688 230T745 422T680 605T502 672Q393 672 330 598Q270 526 270 412Z"/><glyph unicode="τ" horiz-adv-x="788" d="M10 672V852H778V672H492V0H297V672H10Z"/><glyph unicode="υ" horiz-adv-x="975" d="M113 334V852H307V334Q307 262 352 209T487 156T623 209T668 334V852H862V334Q862 82 652 2Q582 -25 488 -25T323 2T206 76Q113 171 113 334Z"/><glyph unicode="φ" horiz-adv-x="1204" d="M72 432Q72 613 186 740Q311 877 500 877V1128H694V877Q882 877 1012 744Q1133 618 1133 440Q1133 243 1010 110Q886 -25 694 -25V-367H500V-25Q309 -21 192 102Q72 228 72 432ZM270 541T270 422T330 230T500 156V696Q389 694 330 618ZM694 156Q821 158 877 235T934 432T870 622T694 696V156Z"/><glyph unicode="χ" horiz-adv-x="909" d="M-10 -367L344 332L80 852H303L455 551L608 852H823L563 340L924 -367H698L453 119L207 -367H-10Z"/><glyph unicode="ψ" horiz-adv-x="1272" d="M113 395V852H307V395Q307 235 438 176Q481 156 539 156V1128H733V156Q842 156 906 228Q965 292 965 395V852H1159V395Q1159 99 922 6Q842 -25 733 -25V-367H539V-25Q329 -25 218 92Q113 203 113 395Z"/><glyph unicode="ω" horiz-adv-x="1354" d="M66 199T66 415T190 852H385Q306 718 272 532Q260 469 260 408Q260 156 420 156Q498 156 539 209T580 334V709H774V334Q774 262 815 209T934 156Q1094 156 1094 408Q1094 630 969 852H1163Q1246 711 1277 532Q1288 469 1288 406Q1288 199 1201 87T934 -25Q846 -25 776 9T676 117Q647 43 578 9T420 -25Q240 -25 153 87Z"/><glyph unicode="ϊ" horiz-adv-x="440" d="M-36 1010V1237H150V1010H-36ZM123 0V852H317V0H123ZM290 1010V1237H476V1010H290Z"/><glyph unicode="ϋ" horiz-adv-x="975" d="M113 334V852H307V334Q307 262 352 209T487 156T623 209T668 334V852H862V334Q862 82 652 2Q582 -25 488 -25T323 2T206 76Q113 171 113 334ZM232 1010V1237H418V1010H232ZM558 1010V1237H744V1010H558Z"/><glyph unicode="ό" horiz-adv-x="1016" d="M72 432Q72 612 186 740Q308 877 502 877Q693 877 822 746Q944 622 944 435Q944 344 913 259T822 110Q698 -25 506 -25Q313 -25 194 100Q72 228 72 432ZM270 547T270 425T330 230T500 156Q623 156 687 234Q745 304 745 428T680 624T502 696Q394 696 330 620Q270 547 270 425ZM410 1010L518 1311H697L588 1010H410Z"/><glyph unicode="ύ" horiz-adv-x="975" d="M113 334V852H307V334Q307 262 352 209T487 156T623 209T668 334V852H862V334Q862 82 652 2Q582 -25 488 -25T323 2T206 76Q113 171 113 334ZM398 1010L506 1311H685L576 1010H398Z"/><glyph unicode="ώ" horiz-adv-x="1427" d="M103 199T103 415T227 852H422Q343 718 309 532Q297 469 297 408Q297 156 457 156Q535 156 576 209T617 334V709H811V334Q811 262 852 209T971 156Q1131 156 1131 408Q1131 630 1006 852H1200Q1283 711 1314 532Q1325 469 1325 406Q1325 199 1238 87T971 -25Q883 -25 813 9T713 117Q684 43 615 9T457 -25Q277 -25 190 87ZM629 1010L737 1311H916L807 1010H629Z"/><glyph unicode="Ё" horiz-adv-x="1063" d="M154 0V1495H989V1303H358V825H975V633H358V193H1028V0H154ZM344 1637V1864H530V1637H344ZM670 1637V1864H856V1637H670Z"/><glyph unicode="Ђ" horiz-adv-x="1413" d="M78 1303V1495H905V1303H588V750Q633 801 718 839T898 877T1068 853T1196 783Q1311 683 1311 514V-127Q1311 -255 1228 -318Q1165 -367 1084 -367T963 -356V-188Q1012 -195 1040 -195T1087 -183T1106 -131V477Q1106 587 1033 645Q969 696 868 696Q684 696 614 567Q590 524 588 467V0H383V1303H78Z"/><glyph unicode="Ѓ" horiz-adv-x="991" d="M154 0V1495H891V1303H358V0H154ZM453 1637L643 1938H840L649 1637H453Z"/><glyph unicode="Є" horiz-adv-x="1495" d="M92 569T92 739T147 1050T301 1296T535 1460T854 1520Q1189 1520 1386 1286L1235 1151Q1071 1319 838 1319Q639 1319 490 1190Q341 1059 311 846H1118V653H311Q342 430 509 295Q656 176 829 176Q938 176 1054 223T1268 383L1415 256Q1329 135 1177 55T825 -25Q688 -25 557 29T323 183T156 426Z"/><glyph unicode="Ѕ" horiz-adv-x="1065" d="M92 127L209 285Q336 174 520 174Q635 174 705 225T776 383Q776 506 622 596Q575 623 511 655T370 729T232 824Q96 945 96 1135Q96 1302 212 1410Q330 1520 528 1520Q749 1520 932 1393L821 1225Q752 1276 687 1297T530 1319T375 1276T311 1159T336 1042T406 966Q461 924 581 866T764 769T877 679T958 558T989 392T952 217T853 85Q727 -25 530 -25Q278 -25 92 127Z"/><glyph unicode="І" horiz-adv-x="512" d="M154 0V1495H358V0H154Z"/><glyph unicode="Ї" horiz-adv-x="512" d="M1 1614V1841H187V1614H1ZM154 0V1495H358V0H154ZM327 1614V1841H513V1614H327Z"/><glyph unicode="Ј" horiz-adv-x="748" d="M61 -6V178Q105 168 202 168T349 222T399 375V1495H604V360Q604 206 510 98Q404 -25 215 -25Q126 -25 61 -6Z"/><glyph unicode="Љ" horiz-adv-x="2054" d="M45 -10V174Q51 172 59 172H80Q145 172 173 193T201 283V1495H1266V825H1509Q1735 825 1868 712Q1999 599 1999 408Q1999 315 1962 242T1864 114Q1735 0 1548 0H1061V1303H406V276Q406 30 212 -2Q152 -12 78 -12H57Q49 -12 45 -10ZM1266 193H1491Q1786 193 1786 418Q1786 537 1704 585T1479 633H1266V193Z"/><glyph unicode="Њ" horiz-adv-x="2068" d="M154 0V1495H358V825H1075V1495H1280V825H1524Q1750 825 1882 712Q2013 599 2013 408Q2013 315 1976 242T1878 114Q1751 0 1563 0H1075V633H358V0H154ZM1280 193H1505Q1800 193 1800 418Q1800 537 1718 585T1493 633H1280V193Z"/><glyph unicode="Ћ" horiz-adv-x="1413" d="M78 1303V1495H905V1303H588V750Q633 801 718 839T898 877T1068 853T1196 783Q1311 683 1311 514V0H1106V477Q1106 587 1033 645Q969 696 868 696Q684 696 614 567Q590 524 588 467V0H383V1303H78Z"/><glyph unicode="Ќ" horiz-adv-x="1323" d="M154 0V1495H358V883L737 1282Q854 1405 922 1440T1045 1485T1167 1495V1303Q1084 1303 1038 1279Q953 1235 870 1149L569 836L1296 0H1032L432 692L358 616V0H154ZM594 1614L784 1915H981L790 1614H594Z"/><glyph unicode="Ў" horiz-adv-x="1155" d="M68 1495H283L573 637L586 588Q586 592 591 608T600 639L887 1495H1104L631 190Q590 87 551 48Q476 -25 356 -25Q281 -25 219 -6V170Q266 152 308 152T378 166T422 204T448 261T471 326L68 1495ZM283 1927H430Q434 1866 463 1829T519 1778T586 1764Q657 1764 700 1815Q737 1861 742 1927H889Q877 1780 794 1703T586 1626Q461 1626 378 1703T283 1927Z"/><glyph unicode="Џ" horiz-adv-x="1372" d="M154 0V1495H358V193H1014V1495H1219V0H786V-367H590V0H154Z"/><glyph unicode="А" horiz-adv-x="1384" d="M51 0L625 1495H756L1333 0H1106L926 483H449L268 0H51ZM520 676H854L698 1094Q686 1124 686 1133L676 1096L520 676Z"/><glyph unicode="Б" horiz-adv-x="1147" d="M154 0V1495H891V1303H358V825H602Q828 825 960 712Q1092 599 1092 408Q1092 315 1055 242T956 114Q828 0 641 0H154ZM358 193H584Q879 193 879 418Q879 537 797 585T571 633H358V193Z"/><glyph unicode="В" horiz-adv-x="1147" d="M154 0V1495H549Q741 1495 862 1388Q983 1282 983 1106Q983 977 933 893T811 762Q904 736 981 640Q1063 538 1063 406Q1063 336 1038 263T956 132Q830 0 602 0H154ZM358 193H580Q719 193 784 255T850 418T783 578T600 637H358V193ZM358 829H496Q645 829 717 914Q770 976 770 1083T706 1246T514 1303H358V829Z"/><glyph unicode="Г" horiz-adv-x="991" d="M154 0V1495H891V1303H358V0H154Z"/><glyph unicode="Д" horiz-adv-x="1401" d="M18 193H53Q119 193 144 210T174 295L256 1495H1239V193H1356V-367H1159V0H215V-367H18V193ZM354 193H1034V1303H461L379 289Q375 260 371 234T354 193Z"/><glyph unicode="Е" horiz-adv-x="1133" d="M154 0V1495H989V1303H358V825H975V633H358V193H1028V0H154Z"/><glyph unicode="Ж" horiz-adv-x="2093" d="M6 0L733 836L432 1149Q342 1239 293 1264Q219 1303 135 1303V1495Q271 1495 360 1450Q450 1405 565 1282L944 883V1495H1149V883L1528 1282Q1643 1405 1732 1450Q1822 1495 1958 1495V1303Q1874 1303 1828 1279Q1743 1235 1661 1149L1360 836L2087 0H1823L1223 692L1149 616V0H944V616L870 692L270 0H6Z"/><glyph unicode="З" horiz-adv-x="1223" d="M68 168L199 319Q335 158 575 158Q748 158 842 248Q926 328 926 442Q926 584 825 654Q741 713 610 713H383V893H612Q727 893 803 954Q883 1017 883 1120Q883 1192 830 1250Q754 1333 610 1333Q400 1333 276 1133L106 1223Q195 1414 412 1490Q498 1520 631 1520T856 1477T1000 1372Q1083 1270 1083 1114Q1083 1010 1027 930T897 811Q997 764 1063 673T1130 440Q1130 259 1018 136Q874 -25 578 -25Q246 -25 68 168Z"/><glyph unicode="И" horiz-adv-x="1483" d="M154 0H318L1102 1083Q1106 1087 1110 1094T1119 1109T1129 1124Q1129 1114 1127 1106L1125 1075V0H1329V1495H1155L381 432L355 391Q359 399 359 438V1495H154V0Z"/><glyph unicode="Й" horiz-adv-x="1483" d="M154 0H318L1102 1083Q1106 1087 1110 1094T1119 1109T1129 1124Q1129 1114 1127 1106L1125 1075V0H1329V1495H1155L381 432L355 391Q359 399 359 438V1495H154V0ZM438 1916H585Q589 1855 618 1818T674 1767T741 1753Q812 1753 855 1804Q892 1850 897 1916H1044Q1032 1769 949 1692T741 1615Q616 1615 533 1692T438 1916Z"/><glyph unicode="К" horiz-adv-x="1323" d="M154 0V1495H358V883L737 1282Q854 1405 922 1440T1045 1485T1167 1495V1303Q1084 1303 1038 1279Q953 1235 870 1149L569 836L1296 0H1032L432 692L358 616V0H154Z"/><glyph unicode="Л" horiz-adv-x="1419" d="M45 -10V174Q51 172 59 172H80Q145 172 173 193T201 283V1495H1266V0H1061V1303H406V276Q406 30 212 -2Q152 -12 78 -12H57Q49 -12 45 -10Z"/><glyph unicode="М" horiz-adv-x="1774" d="M154 0V1495H328L891 764L1438 1495H1620V0H1415V1100Q1415 1118 1417 1135T1419 1155Q1417 1153 1411 1142T1399 1122L930 489H848L375 1106Q364 1117 354 1137L358 1083V0H154Z"/><glyph unicode="Н" horiz-adv-x="1434" d="M154 0V1495H358V836H1075V1495H1280V0H1075V643H358V0H154Z"/><glyph unicode="О" horiz-adv-x="1716" d="M92 582T92 748T149 1055T308 1299T549 1461T856 1520T1166 1461T1410 1297T1567 1051T1624 747T1564 444T1400 199T1157 35T859 -25T560 33T316 194T152 439ZM305 752Q305 506 472 339Q635 176 860 176Q1089 176 1245 332Q1411 498 1411 749Q1411 877 1370 980T1256 1158Q1098 1319 852 1319Q610 1319 456 1158Q305 999 305 752Z"/><glyph unicode="П" horiz-adv-x="1372" d="M154 0V1495H1219V0H1014V1303H358V0H154Z"/><glyph unicode="Р" horiz-adv-x="1147" d="M154 0V1495H602Q823 1495 960 1362Q1092 1234 1092 1038Q1092 944 1055 863T956 720Q824 588 641 588H358V0H154ZM358 780H584Q713 780 796 849T879 1043T797 1236T571 1303H358V780Z"/><glyph unicode="С" horiz-adv-x="1495" d="M92 569T92 739T147 1050T301 1296T535 1460T854 1520Q1189 1520 1386 1286L1235 1151Q1071 1319 838 1319Q616 1319 462 1164Q305 1005 305 752Q305 482 480 320Q557 248 650 212T840 176T1054 223T1268 383L1415 256Q1329 135 1177 55T825 -25Q688 -25 557 29T323 183T156 426Z"/><glyph unicode="Т" horiz-adv-x="983" d="M78 1303V1495H905V1303H588V0H383V1303H78Z"/><glyph unicode="У" horiz-adv-x="1155" d="M68 1495H283L573 637L586 588Q586 592 591 608T600 639L887 1495H1104L631 190Q590 87 551 48Q476 -25 356 -25Q281 -25 219 -6V170Q266 152 308 152T378 166T422 204T448 261T471 326L68 1495Z"/><glyph unicode="Ф" horiz-adv-x="1663" d="M92 750Q92 1025 273 1208Q456 1393 725 1393V1495H930V1393Q1212 1389 1394 1203Q1571 1022 1571 745Q1571 610 1521 493T1383 288T1180 151T930 100V0H725V100Q459 104 276 287Q92 471 92 750ZM303 748Q303 653 337 573T429 432Q550 305 725 301V1192Q538 1192 420 1065Q303 939 303 748ZM930 301Q1105 301 1230 423Q1360 549 1360 748Q1360 848 1328 927T1240 1064Q1120 1188 930 1192V301Z"/><glyph unicode="Х" horiz-adv-x="1409" d="M66 0L584 788L125 1495H377L664 1053L711 975Q711 977 725 1002T760 1057L1049 1495H1284L827 799L1348 0H1100L766 510Q756 524 746 541T725 576T702 614Q690 596 680 578T658 541T635 506L303 0H66Z"/><glyph unicode="Ц" horiz-adv-x="1380" d="M154 0V1495H358V193H1014V1495H1219V193H1335V-367H1139V0H154Z"/><glyph unicode="Ч" horiz-adv-x="1225" d="M123 981V1495H317V1018Q317 870 389 804T584 737Q780 737 853 896Q877 948 877 1018V1495H1071V0H877V684Q831 633 747 595T559 557T378 582T244 662Q123 777 123 981Z"/><glyph unicode="Ш" horiz-adv-x="2068" d="M154 0V1495H358V193H932V1495H1137V193H1710V1495H1915V0H154Z"/><glyph unicode="Щ" horiz-adv-x="2077" d="M154 0V1495H358V193H932V1495H1137V193H1710V1495H1915V193H2032V-367H1835V0H154Z"/><glyph unicode="Ъ" horiz-adv-x="1376" d="M78 1303V1495H588V825H831Q1057 825 1190 712Q1321 599 1321 408Q1321 315 1284 242T1186 114Q1057 0 870 0H383V1303H78ZM588 193H813Q1108 193 1108 418Q1108 537 1026 585T801 633H588V193Z"/><glyph unicode="Ы" horiz-adv-x="1563" d="M154 0V1495H358V825H602Q828 825 960 712Q1092 599 1092 408Q1092 315 1055 242T956 114Q828 0 641 0H154ZM358 193H584Q879 193 879 418Q879 537 797 585T571 633H358V193ZM1204 0V1495H1409V0H1204Z"/><glyph unicode="Ь" horiz-adv-x="1147" d="M154 0V1495H358V825H602Q828 825 960 712Q1092 599 1092 408Q1092 315 1055 242T956 114Q828 0 641 0H154ZM358 193H584Q879 193 879 418Q879 537 797 585T571 633H358V193Z"/><glyph unicode="Э" horiz-adv-x="1495" d="M80 256Q166 135 318 55T670 -25Q807 -25 938 29T1172 183T1339 426T1403 739T1348 1050T1194 1296T960 1460T641 1520Q306 1520 109 1286L260 1151Q424 1319 657 1319Q856 1319 1005 1190Q1154 1059 1184 846H377V653H1184Q1153 430 986 295Q839 176 666 176Q557 176 441 223T227 383L80 256Z"/><glyph unicode="Ю" horiz-adv-x="2331" d="M154 0V1495H358V836H711Q739 1132 950 1325Q1164 1520 1464 1520Q1807 1520 2024 1296Q2126 1192 2182 1051T2238 747T2178 444T2015 199T1772 35T1480 -25T1196 24T964 162Q749 348 713 643H358V0H154ZM920 752Q920 507 1086 339Q1248 176 1475 176Q1705 176 1860 332Q2025 499 2025 749Q2025 877 1985 980T1870 1158Q1711 1319 1466 1319Q1226 1319 1071 1158Q920 1001 920 752Z"/><glyph unicode="Я" horiz-adv-x="1249" d="M74 0V193Q201 193 332 349Q369 393 410 438L575 627Q404 627 278 750Q150 877 150 1055Q150 1242 276 1365Q410 1495 612 1495H1096V0H891V698L563 317Q514 262 467 205T364 102Q235 0 74 0ZM362 1152T362 1047T438 865T653 788H891V1303H649Q519 1303 433 1220Q362 1152 362 1047Z"/><glyph unicode="а" horiz-adv-x="944" d="M61 262Q61 407 194 492Q320 573 524 573H651Q651 651 615 682T452 713T219 666L152 811Q210 846 276 857Q396 877 459 877Q637 877 739 819T842 623V0H647V61Q535 -25 381 -25Q226 -25 140 59Q61 136 61 262ZM260 262Q260 177 372 154Q403 147 435 147T492 150T542 161Q587 174 647 215V416H592Q426 416 343 380T260 262Z"/><glyph unicode="б" horiz-adv-x="977" d="M92 451V780Q92 1111 276 1298Q470 1493 834 1493V1319Q539 1319 413 1182T287 780V750Q328 807 390 842T531 877T680 844T800 752Q905 630 905 438Q905 246 794 114Q677 -25 485 -25Q307 -25 201 106Q92 239 92 451ZM270 538T270 424T329 233T485 156Q591 156 650 236Q707 310 707 428Q707 483 694 531T652 616Q593 696 487 696Q393 696 330 614Q270 538 270 424Z"/><glyph unicode="в" horiz-adv-x="813" d="M123 0V852H463Q571 852 641 789T711 610T612 434Q662 420 709 371T756 242Q756 149 694 80Q622 0 494 0H123ZM303 152H459Q518 152 544 179T571 250T544 320T469 348H303V152ZM303 496H410Q481 496 503 528T526 604Q526 647 499 673T420 700H303V496Z"/><glyph unicode="г" horiz-adv-x="696" d="M123 0V852H645V672H317V0H123Z"/><glyph unicode="д" horiz-adv-x="1032" d="M14 178H63Q111 178 128 204T150 295L190 852H879V178H1012V-367H817V0H209V-367H14V178ZM313 178H684V672H385L358 289Q348 204 313 178Z"/><glyph unicode="е" horiz-adv-x="1004" d="M72 434Q72 626 194 750Q319 877 508 877Q697 877 818 742Q936 611 936 401H266Q272 237 417 176Q463 156 540 156Q667 156 803 258L922 135Q842 66 747 21T537 -25T341 7T200 98Q72 221 72 434ZM274 549H725Q702 623 642 662T499 702T354 662T274 549Z"/><glyph unicode="ж" horiz-adv-x="1485" d="M37 0L410 504L338 571Q231 672 80 672V852Q268 852 373 780Q410 754 444 721L645 526V852H840V526L1040 721Q1117 793 1176 815Q1279 852 1405 852V672Q1253 672 1147 571L1075 504L1448 0H1196L932 369L840 289V0H645V289L553 369L289 0H37Z"/><glyph unicode="з" horiz-adv-x="795" d="M41 96L164 238Q250 156 369 156Q449 156 489 188T530 272Q530 379 393 379H221V526H393Q440 526 473 547T506 610Q506 702 381 702T211 616L57 700Q119 810 251 858Q305 877 391 877T539 850T637 786Q696 725 696 650T665 528T592 459Q725 398 725 252Q725 148 649 72Q552 -25 369 -25Q197 -25 94 52Q66 74 41 96Z"/><glyph unicode="и" horiz-adv-x="989" d="M123 0V852H317V360Q317 352 316 343T315 332Q318 338 330 356L692 852H866V0H672V520Q672 526 674 530Q670 524 667 519T659 506L289 0H123Z"/><glyph unicode="й" horiz-adv-x="989" d="M123 0V852H317V360Q317 352 316 343T315 332Q318 338 330 356L692 852H866V0H672V520Q672 526 674 530Q670 524 667 519T659 506L289 0H123ZM200 1300H347Q351 1239 380 1202T436 1151T503 1137Q574 1137 617 1188Q654 1234 659 1300H806Q794 1153 711 1076T503 999Q378 999 295 1076T200 1300Z"/><glyph unicode="к" horiz-adv-x="963" d="M123 0V852H317V526L518 721Q595 793 654 815Q757 852 883 852V672Q731 672 625 571L553 504L926 0H674L410 369L317 289V0H123Z"/><glyph unicode="л" horiz-adv-x="1028" d="M41 -10V174Q47 172 55 172H76Q131 172 153 193T176 283V852H905V0H711V672H371V276Q371 103 291 39Q227 -12 74 -12H53Q47 -12 41 -10Z"/><glyph unicode="м" horiz-adv-x="1159" d="M123 0V852H299L580 487L854 852H1036V0H842V518Q842 528 843 536T844 549L643 279H518L328 526Q319 535 315 543L317 512V0H123Z"/><glyph unicode="н" horiz-adv-x="965" d="M123 0V852H317V510H647V852H842V0H647V330H317V0H123Z"/><glyph unicode="о" horiz-adv-x="1016" d="M72 432Q72 612 186 740Q308 877 502 877Q693 877 822 746Q944 622 944 435Q944 344 913 259T822 110Q698 -25 506 -25Q313 -25 194 100Q72 228 72 432ZM270 547T270 425T330 230T500 156Q623 156 687 234Q745 304 745 428T680 624T502 696Q394 696 330 620Q270 547 270 425Z"/><glyph unicode="п" horiz-adv-x="975" d="M123 0V852H852V0H657V672H317V0H123Z"/><glyph unicode="р" horiz-adv-x="1008" d="M123 -367V852H317V756Q350 803 410 840T556 877T710 840T830 740Q936 610 936 420T830 104Q723 -25 564 -25T317 92V-367H123ZM301 422Q301 314 360 238Q424 156 520 156Q619 156 681 238Q737 314 737 428Q737 608 613 674Q573 696 522 696Q423 696 360 613Q301 534 301 422Z"/><glyph unicode="с" horiz-adv-x="942" d="M72 426Q72 611 190 740Q313 877 502 877Q629 877 742 809Q823 761 881 678L739 571Q644 696 504 696Q401 696 332 612Q270 537 270 418T338 228T528 156T764 289L897 182Q788 38 630 -8Q575 -25 492 -25T324 10T184 106Q72 228 72 426Z"/><glyph unicode="т" horiz-adv-x="788" d="M10 672V852H778V672H492V0H297V672H10Z"/><glyph unicode="у" horiz-adv-x="868" d="M25 852H236L424 295L436 246Q436 255 451 297L637 852H844L477 -152Q445 -249 403 -291Q324 -367 207 -367Q132 -367 70 -348V-172Q115 -190 158 -190T228 -176T272 -138T299 -81T322 -16L25 852Z"/><glyph unicode="ф" horiz-adv-x="1575" d="M72 243T72 432T177 748Q283 877 439 877T690 762V1495H885V756Q918 803 978 840T1123 877T1278 840T1398 740Q1503 609 1503 420T1398 104Q1292 -25 1132 -25T885 92V-367H690V94Q657 47 597 11T451 -25T296 12T177 112Q72 243 72 432ZM270 424Q270 310 326 236Q386 156 485 156Q583 156 647 238Q707 316 707 429Q707 481 692 529T647 614Q582 696 487 696Q387 696 326 613Q270 535 270 424ZM868 422Q868 314 928 238Q991 156 1087 156Q1188 156 1248 238Q1305 316 1305 428Q1305 542 1248 616Q1189 696 1090 696Q990 696 928 613Q868 534 868 422Z"/><glyph unicode="х" horiz-adv-x="909" d="M20 0L336 469L80 852H317L428 686Q432 680 436 672T445 657T455 641Q465 661 483 688L592 852H823L571 473L889 0H651L481 254Q467 270 453 299Q451 297 444 281T426 254L258 0H20Z"/><glyph unicode="ц" horiz-adv-x="1006" d="M123 0V852H317V180H657V852H852V178H985V-367H791V0H123Z"/><glyph unicode="ч" horiz-adv-x="885" d="M96 545V852H291V614Q291 455 429 455T567 614V852H762V0H567V354Q545 326 497 305T386 283T270 299T178 347Q96 414 96 545Z"/><glyph unicode="ш" horiz-adv-x="1327" d="M123 0V852H317V180H565V852H760V180H1010V852H1204V0H123Z"/><glyph unicode="щ" horiz-adv-x="1358" d="M123 0V852H317V180H565V852H760V180H1010V852H1204V178H1337V-367H1143V0H123Z"/><glyph unicode="ъ" horiz-adv-x="1067" d="M25 672V852H485V623H631Q817 623 908 538T999 312T904 86T651 0H293V672H25ZM485 178H631Q799 178 799 313Q799 385 753 414T625 444H485V178Z"/><glyph unicode="ы" horiz-adv-x="1235" d="M123 0V852H315V623H461Q647 623 738 538T829 312T734 86T481 0H123ZM315 178H461Q629 178 629 313Q629 385 583 414T455 444H315V178ZM918 0V852H1112V0H918Z"/><glyph unicode="ь" horiz-adv-x="897" d="M123 0V852H315V623H461Q647 623 738 538T829 312T734 86T481 0H123ZM315 178H461Q629 178 629 313Q629 385 583 414T455 444H315V178Z"/><glyph unicode="э" horiz-adv-x="942" d="M45 182Q154 38 312 -8Q367 -25 450 -25T618 10T758 106Q870 228 870 426Q870 611 752 740Q629 877 440 877Q313 877 200 809Q119 761 61 678L203 571Q298 696 438 696Q530 696 586 639T663 504H260V356H666Q647 258 584 207T426 156Q291 156 178 289L45 182Z"/><glyph unicode="ю" horiz-adv-x="1425" d="M123 0V852H317V510H487Q515 667 624 767Q743 877 911 877Q1104 877 1232 746Q1354 620 1354 435Q1354 344 1322 259T1232 110Q1108 -25 915 -25Q750 -25 635 71Q519 168 489 330H317V0H123ZM680 547T680 425T740 230T909 156Q1093 156 1140 320Q1155 371 1155 428Q1155 553 1090 624T911 696Q804 696 740 620Q680 547 680 425Z"/><glyph unicode="я" horiz-adv-x="854" d="M72 0V152Q121 152 153 169T223 229L324 348Q237 360 176 430Q115 499 115 600Q115 705 198 778Q283 852 418 852H731V0H537V367L358 137Q303 59 239 30T72 0ZM305 629T305 582T340 502T434 469H537V700H432Q369 700 337 665Z"/><glyph unicode="ё" horiz-adv-x="1004" d="M72 434Q72 626 194 750Q319 877 508 877Q697 877 818 742Q936 611 936 401H266Q272 237 417 176Q463 156 540 156Q667 156 803 258L922 135Q842 66 747 21T537 -25T341 7T200 98Q72 221 72 434ZM245 1010V1237H431V1010H245ZM274 549H725Q702 623 642 662T499 702T354 662T274 549ZM571 1010V1237H757V1010H571Z"/><glyph unicode="ђ" horiz-adv-x="969" d="M-8 1069V1204H123V1495H317V1204H659V1069H317V750Q350 801 412 839T548 877T678 857T777 796Q866 711 866 555V-127Q866 -255 784 -318Q721 -367 640 -367T518 -356V-188Q567 -195 596 -195Q672 -195 672 -131V518Q672 612 625 654T507 696T377 636T317 457V0H123V1069H-8Z"/><glyph unicode="ѓ" horiz-adv-x="696" d="M123 0V852H645V672H317V0H123ZM247 1010L437 1311H634L443 1010H247Z"/><glyph unicode="є" horiz-adv-x="942" d="M72 426Q72 611 190 740Q313 877 502 877Q629 877 742 809Q823 761 881 678L739 571Q644 696 504 696Q412 696 356 639T279 504H682V356H276Q295 258 358 207T516 156Q651 156 764 289L897 182Q788 38 630 -8Q575 -25 492 -25T324 10T184 106Q72 228 72 426Z"/><glyph unicode="ѕ" horiz-adv-x="745" d="M70 88L166 233Q219 190 275 172T370 154T442 171T477 230T442 299T358 350T263 397T179 452Q92 524 92 637Q92 735 175 807Q256 877 375 877Q541 877 649 801L569 647Q484 707 386 707T287 641Q287 606 327 583T416 535T509 485T589 425Q672 347 672 238Q672 128 589 55Q503 -20 377 -20Q203 -20 70 88Z"/><glyph unicode="і" horiz-adv-x="440" d="M123 0V852H317V0H123ZM123 1047V1282H317V1047H123Z"/><glyph unicode="ї" horiz-adv-x="440" d="M-36 1010V1237H150V1010H-36ZM123 0V852H317V0H123ZM290 1010V1237H476V1010H290Z"/><glyph unicode="ј" horiz-adv-x="440" d="M-31 -188Q30 -195 57 -193Q123 -193 123 -131V852H317V-127Q317 -255 234 -318Q172 -367 91 -367T-31 -356V-188ZM123 1047V1282H317V1047H123Z"/><glyph unicode="љ" horiz-adv-x="1389" d="M41 -10V174Q47 172 55 172H76Q131 172 153 193T176 283V852H905V541H1010Q1174 541 1255 467T1337 273T1253 76T1030 0H711V672H371V276Q371 103 291 39Q227 -12 74 -12H53Q47 -12 41 -10ZM905 178H1010Q1137 178 1137 272Q1137 322 1102 342T1004 362H905V178Z"/><glyph unicode="њ" horiz-adv-x="1325" d="M123 0V852H317V541H647V852H842V541H946Q1110 541 1192 467T1274 273T1190 76T967 0H647V360H317V0H123ZM842 178H946Q1073 178 1073 272Q1073 322 1039 342T940 362H842V178Z"/><glyph unicode="ћ" horiz-adv-x="969" d="M-8 1069V1204H123V1495H317V1204H659V1069H317V750Q350 801 412 839T548 877T678 857T777 796Q866 711 866 555V0H672V518Q672 612 625 654T507 696T377 636T317 457V0H123V1069H-8Z"/><glyph unicode="ќ" horiz-adv-x="963" d="M123 0V852H317V526L518 721Q595 793 654 815Q757 852 883 852V672Q731 672 625 571L553 504L926 0H674L410 369L317 289V0H123ZM414 1010L604 1311H801L610 1010H414Z"/><glyph unicode="ў" horiz-adv-x="868" d="M25 852H236L424 295L436 246Q436 255 451 297L637 852H844L477 -152Q445 -249 403 -291Q324 -367 207 -367Q132 -367 70 -348V-172Q115 -190 158 -190T228 -176T272 -138T299 -81T322 -16L25 852ZM130 1300H277Q281 1239 310 1202T366 1151T433 1137Q504 1137 547 1188Q584 1234 589 1300H736Q724 1153 641 1076T433 999Q308 999 225 1076T130 1300Z"/><glyph unicode="џ" horiz-adv-x="975" d="M123 0V852H317V180H657V852H852V0H586V-367H391V0H123Z"/><glyph unicode="Ґ" horiz-adv-x="991" d="M154 0V1495H694V1802H891V1303H358V0H154Z"/><glyph unicode="ґ" horiz-adv-x="696" d="M123 0V852H451V1079H645V672H317V0H123Z"/><glyph unicode="–" horiz-adv-x="942" d="M92 344V520H850V344H92Z"/><glyph unicode="—" horiz-adv-x="1321" d="M92 344V520H1229V344H92Z"/><glyph unicode="‘" horiz-adv-x="403" d="M80 1051V1182Q80 1330 227 1495H350Q295 1381 295 1278V1051H80Z"/><glyph unicode="’" horiz-adv-x="403" d="M53 1051Q109 1156 109 1268V1495H324V1364Q324 1239 218 1102Q193 1069 176 1051H53Z"/><glyph unicode="‚" horiz-adv-x="403" d="M47 -219Q102 -105 102 -2V225H317V94Q317 -54 170 -219H47Z"/><glyph unicode="“" horiz-adv-x="698" d="M76 1051V1182Q76 1330 223 1495H346Q291 1381 291 1278V1051H76ZM375 1051V1182Q375 1330 522 1495H645Q590 1381 590 1278V1051H375Z"/><glyph unicode="”" horiz-adv-x="698" d="M55 1051Q111 1156 111 1268V1495H326V1364Q326 1239 220 1102Q195 1069 178 1051H55ZM354 1051Q410 1156 410 1268V1495H625V1364Q625 1239 520 1102Q494 1069 477 1051H354Z"/><glyph unicode="„" horiz-adv-x="698" d="M47 -219Q102 -105 102 -2V225H317V94Q317 -54 170 -219H47ZM346 -219Q401 -105 401 -2V225H616V94Q616 -54 469 -219H346Z"/><glyph unicode="†" horiz-adv-x="1157" d="M51 782V963H481V1495H676V963H1106V782H676V-367H481V782H51Z"/><glyph unicode="‡" horiz-adv-x="1157" d="M51 193V373H481V782H51V963H481V1495H676V963H1106V782H676V373H1106V193H676V-367H481V193H51Z"/><glyph unicode="•" horiz-adv-x="782" d="M164 776Q164 867 232 936Q298 1004 391 1004Q483 1004 551 936Q618 869 618 776Q618 682 551 616Q482 549 391 549Q299 549 232 616T164 776Z"/><glyph unicode="…" horiz-adv-x="1180" d="M92 0V225H305V0H92ZM483 0V225H696V0H483ZM874 0V225H1087V0H874Z"/><glyph unicode="‰" horiz-adv-x="2150" d="M102 1133Q102 1300 181 1408Q263 1520 395 1520Q529 1520 610 1406Q684 1302 684 1136Q684 1055 664 984T605 860Q525 748 389 748Q270 748 192 843Q102 952 102 1133ZM133 0L1155 1495H1362L340 0H133ZM272 1176T272 1134T278 1050T299 974Q331 897 389 897Q449 897 484 974Q512 1034 512 1103Q512 1224 481 1297T393 1370Q307 1370 280 1218Q272 1176 272 1134ZM831 360Q831 528 910 636Q992 748 1124 748Q1259 748 1340 634Q1413 529 1413 364Q1413 283 1393 212T1334 88Q1253 -25 1118 -25Q1001 -25 921 71Q831 179 831 360ZM1001 403T1001 361T1007 278T1028 202Q1060 125 1118 125Q1178 125 1214 202Q1241 262 1241 331Q1241 452 1210 525T1122 598Q1036 598 1008 445Q1001 403 1001 361ZM1487 360Q1487 528 1566 636Q1648 748 1780 748Q1914 748 1995 634Q2068 531 2068 364Q2068 283 2048 212T1990 88Q1909 -25 1774 -25Q1656 -25 1576 71Q1487 178 1487 360ZM1657 403T1657 361T1663 278T1684 202Q1716 125 1774 125Q1833 125 1868 202Q1896 262 1896 331Q1896 452 1865 525T1778 598Q1690 598 1664 445Q1657 403 1657 361Z"/><glyph unicode="‹" horiz-adv-x="438" d="M63 342V496L352 748V543L207 420L352 295V86L63 342Z"/><glyph unicode="›" horiz-adv-x="438" d="M86 86V295L231 420L86 543V748L377 496V342L86 86Z"/><glyph unicode="€" horiz-adv-x="1245" d="M39 604V702H207Q205 743 207 784H39V881H213Q238 1167 372 1338Q514 1520 743 1520Q1069 1520 1202 1210L1024 1120Q972 1221 927 1258Q841 1329 755 1329T613 1292T518 1192Q443 1073 426 881H870V784H420Q416 743 420 702H870V604H428Q463 306 614 204Q668 168 755 168Q917 168 1018 383L1202 297Q1130 137 1017 56T735 -25Q529 -25 389 131Q240 297 213 604H39Z"/><glyph unicode="№" horiz-adv-x="2363" d="M154 0V1495H328L1102 432L1128 391Q1124 399 1124 438V1495H1329V0H1165L381 1083Q377 1087 373 1094T364 1109T354 1124Q354 1114 356 1106L358 1075V0H154ZM1526 553V688H2225V553H1526ZM1526 1165Q1526 1311 1618 1411Q1718 1520 1870 1520Q2025 1520 2127 1414Q2225 1312 2225 1168Q2225 1094 2199 1026T2127 907Q2030 799 1874 799Q1719 799 1623 898Q1526 999 1526 1165ZM1686 1251T1686 1156T1734 1003T1877 944T2019 1006T2065 1165T2014 1319T1872 1376T1734 1314Z"/><glyph unicode="™" horiz-adv-x="1677" d="M66 1376V1495H561V1376H375V598H244V1376H66ZM682 598V1495H795L1133 1057L1460 1495H1579V598H1448V1282L1157 887H1108L813 1270V598H682Z"/><glyph unicode="ﬀ" horiz-adv-x="1049" d="M39 672V852H162V1305Q162 1395 232 1452Q291 1501 393 1501Q446 1501 483 1493V1323Q409 1338 376 1302Q356 1282 356 1233V852H489V672H356V0H162V672H39ZM543 672V852H666V1305Q666 1395 736 1452Q795 1501 896 1501Q948 1501 987 1493V1323Q913 1338 880 1302Q860 1282 860 1233V852H993V672H860V0H666V672H543Z"/><glyph unicode="ﬁ" horiz-adv-x="979" d="M39 672V852H162V1305Q162 1395 232 1452Q291 1501 393 1501Q446 1501 483 1493V1323Q409 1338 376 1302Q356 1282 356 1233V852H489V672H356V0H162V672H39ZM662 0V852H856V0H662ZM662 1047V1282H856V1047H662Z"/><glyph unicode="ﬂ" horiz-adv-x="979" d="M39 672V852H162V1305Q162 1395 232 1452Q291 1501 393 1501Q446 1501 483 1493V1323Q409 1338 376 1302Q356 1282 356 1233V852H489V672H356V0H162V672H39ZM662 0V1495H856V0H662Z"/><glyph unicode="ﬃ" horiz-adv-x="1483" d="M39 672V852H162V1305Q162 1395 232 1452Q291 1501 393 1501Q446 1501 483 1493V1323Q409 1338 376 1302Q356 1282 356 1233V852H489V672H356V0H162V672H39ZM543 672V852H666V1305Q666 1395 736 1452Q795 1501 896 1501Q948 1501 987 1493V1323Q913 1338 880 1302Q860 1282 860 1233V852H993V672H860V0H666V672H543ZM1165 0V852H1360V0H1165ZM1165 1047V1282H1360V1047H1165Z"/><glyph unicode="ﬄ" horiz-adv-x="1483" d="M39 672V852H162V1305Q162 1395 232 1452Q291 1501 393 1501Q446 1501 483 1493V1323Q409 1338 376 1302Q356 1282 356 1233V852H489V672H356V0H162V672H39ZM543 672V852H666V1305Q666 1395 736 1452Q795 1501 896 1501Q948 1501 987 1493V1323Q913 1338 880 1302Q860 1282 860 1233V852H993V672H860V0H666V672H543ZM1165 0V1495H1360V0H1165Z"/></font>
</defs>
</svg>
