<?xml version="1.0" standalone="no"?>
<!DOCTYPE svg PUBLIC "-//W3C//DTD SVG 1.1//EN" "http://www.w3.org/Graphics/SVG/1.1/DTD/svg11.dtd" >
<svg xmlns="http://www.w3.org/2000/svg" xmlns:xlink="http://www.w3.org/1999/xlink" version="1.1">
<metadata>
Created by FontForge 20161013 at Fri Jan  1 02:30:17 1904
 By ,,,
Slava Meskhi, 1997  All rights reserved.
</metadata>
<defs>
<font id="BrushScriptGeorgian" horiz-adv-x="0" >
  <font-face 
    font-family="Brush Script Georgian"
    font-weight="400"
    font-stretch="normal"
    units-per-em="2048"
    panose-1="4 11 5 0 0 0 0 0 0 0"
    ascent="1638"
    descent="-410"
    x-height="776"
    cap-height="1333"
    bbox="-340 -573 2005 1421"
    underline-thickness="50"
    underline-position="-175"
    unicode-range="U+0008-00C0"
  />
<missing-glyph horiz-adv-x="1536" 
d="M256 0v1280h1024v-1280h-1024zM1247 33v1214h-958v-1214h958z" />
    <glyph glyph-name=".notdef" unicode="&#xa5;" horiz-adv-x="1536" 
d="M256 0v1280h1024v-1280h-1024zM1247 33v1214h-958v-1214h958z" />
    <glyph glyph-name=".notdef" unicode="&#xe01e;" horiz-adv-x="1536" 
d="M256 0v1280h1024v-1280h-1024zM1247 33v1214h-958v-1214h958z" />
    <glyph glyph-name=".notdef" unicode="&#x25ca;" horiz-adv-x="1536" 
d="M256 0v1280h1024v-1280h-1024zM1247 33v1214h-958v-1214h958z" />
    <glyph glyph-name=".notdef" unicode="&#x2260;" horiz-adv-x="1536" 
d="M256 0v1280h1024v-1280h-1024zM1247 33v1214h-958v-1214h958z" />
    <glyph glyph-name=".notdef" unicode="&#x2248;" horiz-adv-x="1536" 
d="M256 0v1280h1024v-1280h-1024zM1247 33v1214h-958v-1214h958z" />
    <glyph glyph-name=".notdef" unicode="&#x222b;" horiz-adv-x="1536" 
d="M256 0v1280h1024v-1280h-1024zM1247 33v1214h-958v-1214h958z" />
    <glyph glyph-name=".notdef" unicode="&#x221e;" horiz-adv-x="1536" 
d="M256 0v1280h1024v-1280h-1024zM1247 33v1214h-958v-1214h958z" />
    <glyph glyph-name=".notdef" unicode="&#x221a;" horiz-adv-x="1536" 
d="M256 0v1280h1024v-1280h-1024zM1247 33v1214h-958v-1214h958z" />
    <glyph glyph-name=".notdef" unicode="&#x2211;" horiz-adv-x="1536" 
d="M256 0v1280h1024v-1280h-1024zM1247 33v1214h-958v-1214h958z" />
    <glyph glyph-name=".notdef" unicode="&#x220f;" horiz-adv-x="1536" 
d="M256 0v1280h1024v-1280h-1024zM1247 33v1214h-958v-1214h958z" />
    <glyph glyph-name=".notdef" unicode="&#x2202;" horiz-adv-x="1536" 
d="M256 0v1280h1024v-1280h-1024zM1247 33v1214h-958v-1214h958z" />
    <glyph glyph-name=".notdef" unicode="&#x2122;" horiz-adv-x="1536" 
d="M256 0v1280h1024v-1280h-1024zM1247 33v1214h-958v-1214h958z" />
    <glyph glyph-name=".notdef" unicode="&#x20ac;" horiz-adv-x="1536" 
d="M256 0v1280h1024v-1280h-1024zM1247 33v1214h-958v-1214h958z" />
    <glyph glyph-name=".notdef" unicode="&#x2044;" horiz-adv-x="1536" 
d="M256 0v1280h1024v-1280h-1024zM1247 33v1214h-958v-1214h958z" />
    <glyph glyph-name=".notdef" unicode="&#x2030;" horiz-adv-x="1536" 
d="M256 0v1280h1024v-1280h-1024zM1247 33v1214h-958v-1214h958z" />
    <glyph glyph-name=".notdef" unicode="&#x2026;" horiz-adv-x="1536" 
d="M256 0v1280h1024v-1280h-1024zM1247 33v1214h-958v-1214h958z" />
    <glyph glyph-name=".notdef" unicode="&#x3c0;" horiz-adv-x="1536" 
d="M256 0v1280h1024v-1280h-1024zM1247 33v1214h-958v-1214h958z" />
    <glyph glyph-name=".notdef" unicode="&#x3a9;" horiz-adv-x="1536" 
d="M256 0v1280h1024v-1280h-1024zM1247 33v1214h-958v-1214h958z" />
    <glyph glyph-name=".notdef" unicode="&#x394;" horiz-adv-x="1536" 
d="M256 0v1280h1024v-1280h-1024zM1247 33v1214h-958v-1214h958z" />
    <glyph glyph-name=".notdef" unicode="&#x192;" horiz-adv-x="1536" 
d="M256 0v1280h1024v-1280h-1024zM1247 33v1214h-958v-1214h958z" />
    <glyph glyph-name=".notdef" unicode="&#x178;" horiz-adv-x="1536" 
d="M256 0v1280h1024v-1280h-1024zM1247 33v1214h-958v-1214h958z" />
    <glyph glyph-name=".notdef" unicode="&#x131;" horiz-adv-x="1536" 
d="M256 0v1280h1024v-1280h-1024zM1247 33v1214h-958v-1214h958z" />
    <glyph glyph-name=".notdef" unicode="&#xff;" horiz-adv-x="1536" 
d="M256 0v1280h1024v-1280h-1024zM1247 33v1214h-958v-1214h958z" />
    <glyph glyph-name=".null" 
 />
    <glyph glyph-name=".null" 
 />
    <glyph glyph-name=".null" 
 />
    <glyph glyph-name="nonmarkingreturn" unicode="&#x9;" 
 />
    <glyph glyph-name="nonmarkingreturn" unicode="&#xa0;" 
 />
    <glyph glyph-name="nonmarkingreturn" unicode="&#xd;" 
 />
    <glyph glyph-name="space" unicode=" " horiz-adv-x="575" 
 />
    <glyph glyph-name="exclam" unicode="!" horiz-adv-x="705" 
d="M713 1282q20 6 37 6q32 0 73 -20q39 -23 66 -60q-47 -69 -152 -227q-106 -156 -157 -233q-54 -78 -109 -162q-53 -84 -82 -131q19 -4 19 -23q0 -12 -23 -41q-25 -29 -43 -29q-23 0 -55 39q-35 41 -35 70q0 14 16 47q15 35 54 105q38 67 88 149q49 84 118 205
q138 235 185 305zM219 8q-31 0 -59.5 26.5t-28.5 74.5q0 63 33 143q33 78 67 78q23 0 45 -15q23 -16 37 -45q17 -26 17 -61q0 -55 -37 -127q-37 -74 -74 -74z" />
    <glyph glyph-name="quotedbl" unicode="&#x22;" horiz-adv-x="618" 
d="M221 1010v237h150v-237l-31 -271h-88zM485 1010v237h152v-237l-31 -271h-88z" />
    <glyph glyph-name="numbersign" unicode="#" horiz-adv-x="1245" 
d="M111 768v131h292l78 363h129l-78 -363h365l78 363h131l-78 -363h172v-131h-199l-65 -317h264v-132h-289l-77 -360h-132l78 360h-366l-76 -360h-131l76 360h-172v132h200l66 317h-266zM872 768h-366l-66 -317h367z" />
    <glyph glyph-name="dollar" unicode="$" horiz-adv-x="961" 
d="M641 1104l129 14q21 56 35 84q12 31 39 58q26 28 61 28q19 0 19 -14q0 -6 -23.5 -57.5t-40.5 -94.5q96 -2 139 -20q43 -21 43 -84q0 -80 -71 -113q-25 -10 -70 -24q-45 -13 -51 -13q-12 0 -12 9q0 4 4 8q18 10 28 16q9 4 9 17q0 12 -25 18q-29 4 -68 4l-79 -215
q221 -25 221 -182q0 -80 -41 -146q-43 -63 -127 -110t-213 -76q-17 -47 -33 -111q-18 -61 -29 -88q-12 -26 -26 -26q-15 0 -25 26q-10 29 -10 64q0 51 27 121q-50 -4 -127 -4q-23 -64 -37 -132q-17 -69 -25 -69q-12 0 -26 45q-15 43 -15 63q0 19 25 109q-86 29 -107 39
q-22 8 -35 24q-14 17 -14 50q0 81 94 151q35 -35 60 -47q20 -16 67 -27l84 250q-59 2 -100 15q-43 12 -68 43q-24 30 -24 84q0 28 12 67q14 39 37 72q45 65 117 98q69 33 190 57q6 15 12 33q7 19 13 33q4 10 18 39q12 24 21 41q20 4 34 4q33 0 33 -16q0 -7 -6 -21
q-6 -16 -20 -45q-17 -33 -23 -49zM438 770l56 152q-82 -21 -127 -50q-45 -26 -45 -57q0 -39 116 -45zM705 944l-132 -10l-63 -174l123 -19zM674 621l-64 -203q88 33 129 59q41 27 41 62q0 36 -22 51q-25 14 -84 31zM596 631l-127 10l-84 -252q12 -2 43 -2q49 0 90 10z" />
    <glyph glyph-name="percent" unicode="%" horiz-adv-x="1409" 
d="M731 1137q31 -9 45 -29q15 -23 15 -70q0 -82 -46.5 -180t-121.5 -166q-78 -69 -166 -69q-66 0 -109 51q-43 49 -43 135q0 88 51 174q52 88 133 147q84 58 168 58q27 0 43 -12q17 -13 31 -39zM475 748q64 0 123 51q57 49 94 119q35 67 35 114q0 55 -31 55q-4 0 -39 -8
q-16 -4 -28 -4q-15 0 -23 6q-2 2 -6 4q-2 2 -6 2q-12 0 -59 -40q-48 -43 -84.5 -103.5t-36.5 -124.5q0 -33 18 -51q19 -20 43 -20zM1143 467q37 -12 49 -35q10 -20 10 -82q0 -94 -57 -184q-58 -92 -131 -150q-76 -59 -119 -59q-45 0 -92 59q-49 62 -49 146q0 69 47 153
q47 82 123 140q73 57 147 57q41 0 72 -45zM840 156q0 -56 22 -76q12 -10 29 -10q14 0 33 8q37 18 84 76q51 63 79 129q29 63 29 98q0 47 -31 47q-24 0 -86 -37q-61 -39 -110 -100.5t-49 -134.5zM215 41q0 47 74 135q71 88 280 309q101 105 193 191q90 86 141 131
q53 43 158 129q102 86 121 102q73 68 104 82q8 4 14 4q17 0 17 -34q0 -35 -39 -84q-41 -50 -158 -160q-116 -111 -239 -236q-125 -125 -269 -291q-71 -83 -137 -167q-63 -84 -106 -146q-45 -63 -62 -82q-16 -20 -33 -20q-20 0 -41 51q-18 51 -18 86z" />
    <glyph glyph-name="ampersand" unicode="&#x26;" horiz-adv-x="1004" 
d="M365 8q-70 0 -138 43q-65 45 -104 123q-41 78 -41 174q0 127 98 234q96 104 287 206q-10 64 -10 89q0 102 43 190t110 152q68 61 144 96q75 33 145 33q80 0 129 -37q49 -39 49 -101q0 -82 -41 -145q-43 -64 -106 -115q-66 -51 -160 -108q-92 -60 -113 -74
q31 -127 97 -258q90 61 141 111q51 47 86 88t47 41q8 0 14 -23q7 -20 7 -47q0 -62 -23 -115q-20 -53 -61 -108q-41 -54 -101 -115l66 -72q8 9 21.5 23t21.5 20q6 6 14 6q10 0 17 -8q4 -8 4 -18q0 -41 -58 -137q-57 -97 -96 -97q-20 0 -39 17q-18 16 -47 53q-27 37 -43 61
q-115 -88 -205 -135t-155 -47zM635 956v-41q143 80 223 170q80 91 80 144q0 45 -45 45q-41 0 -105 -47q-63 -49 -106 -123q-47 -74 -47 -148zM500 657q-74 -51 -131.5 -110.5t-89.5 -114.5q-35 -55 -35 -92q0 -74 67 -74q49 0 133 33t168 94q-45 103 -112 264z" />
    <glyph glyph-name="quotesingle" unicode="'" horiz-adv-x="449" 
d="M270 1010v237h148v-237l-25 -269h-92z" />
    <glyph glyph-name="parenleft" unicode="(" horiz-adv-x="682" 
d="M436 147q19 29 27 29q6 0 8 -18q4 -21 4 -49q0 -52 -31 -82q-20 -23 -49 -23q-10 0 -22 4q-43 12 -78 69.5t-59 162.5q-25 102 -25 213q0 174 64.5 337.5t156.5 290.5q90 129 176 207q86 80 115 80q12 0 19.5 -16.5t7.5 -38.5q0 -53 -84 -146q-134 -145 -215 -342
q-84 -196 -84 -389q0 -88 18 -168q21 -80 51 -121z" />
    <glyph glyph-name="parenright" unicode=")" horiz-adv-x="682" 
d="M397 1194q-10 -20 -18 -20q-4 0 -4 10v16q0 60 31 96q28 37 65 37q33 0 64 -37q30 -34 51 -102q20 -70 20 -162q0 -88 -16 -178q-17 -92 -49 -195q-33 -102 -82 -204q-101 -222 -178.5 -334.5t-130.5 -112.5q-23 0 -37 19q-17 16 -17 43q0 20 13 41q90 143 149 266
q61 123 102 241q41 119 59.5 215.5t18.5 180.5q0 69 -12 121q-10 49 -29 59z" />
    <glyph glyph-name="asterisk" unicode="*" horiz-adv-x="662" 
d="M-72 893q0 16 18.5 24.5t73.5 24.5q56 16 91 29q32 10 82 35q-52 20 -138 41q-88 18 -108.5 24t-20.5 29q0 14 31 65q33 49 53 49q21 0 76 -30.5t152 -93.5q0 73 -25 149q-23 78 -23 92q0 19 12.5 25t39.5 6q106 0 106 -70q0 -16 -12 -82q-14 -65 -19 -123
q29 15 49.5 38.5t55.5 68.5q31 43 53 63q23 21 43 21q17 0 37 -29q18 -28 32.5 -65t14.5 -51q0 -29 -18 -37q-21 -11 -95.5 -29t-123.5 -45q41 -10 110 -25q72 -16 96 -24q25 -10 25 -33q0 -31 -33 -74t-57 -43q-6 0 -60 37q-53 39 -120 80q4 -51 18 -113q14 -61 14 -82
q0 -24 -14 -43q-14 -16 -41 -16q-113 0 -113 53q0 2 11 29q10 23 20 63q10 41 15 109q-41 -29 -74 -55.5t-58 -44.5q-24 -19 -47 -27q-22 -6 -53 -6q-16 0 -47 31q-29 30 -29 55z" />
    <glyph glyph-name="plus" unicode="+" horiz-adv-x="1366" 
d="M170 547v158h469v471h158v-471h471v-158h-471v-465h-158v465h-469z" />
    <glyph glyph-name="comma" unicode="," horiz-adv-x="682" 
d="M184 -25q-32 13 -41.5 19t-9.5 24q0 27 33 72q31 43 70 78q40 33 65 33q37 0 37 -45q0 -52 -59 -136q-62 -83 -111 -116q-18 -13 -27 -13q-6 0 -6 7q0 8 6 14q4 6 21 27q12 18 22 36z" />
    <glyph glyph-name="hyphen" unicode="-" horiz-adv-x="1044" 
d="M688 588q35 8 41 10q6 0 53 -10q17 -2 27 -4t18 -4q9 -5 9 -9q0 -10 -54.5 -55t-107.5 -59q-33 -11 -121 -19t-197 -8q-57 0 -86 4q-28 4 -28 21q0 8 14 29.5t39 45.5q67 68 246 68q30 0 147 -10z" />
    <glyph glyph-name="period" unicode="." horiz-adv-x="682" 
d="M158 -4q-17 0 -29 12q-12 15 -12 37q0 18 22 66q21 45 53.5 81.5t67.5 36.5q43 0 43 -51q0 -28 -22 -72q-25 -45 -58 -77q-35 -33 -65 -33z" />
    <glyph glyph-name="slash" unicode="/" horiz-adv-x="575" 
d="M150 -135h-146l424 1515h145z" />
    <glyph glyph-name="zero" unicode="0" horiz-adv-x="897" 
d="M887 1161q47 -20 69 -67q21 -50 21 -142q0 -141 -55 -305q-58 -162 -158 -305q-102 -143 -234 -236q-147 -104 -241 -104q-74 0 -137 43q-64 45 -103 127q-37 82 -37 190q0 152 84 320q82 168 211 301q129 135 268 209q107 57 191 57q27 0 49 -6q66 -14 72 -82zM657 965
l35 73q-59 -30 -104 -59t-103.5 -82t-122.5 -133q-104 -133 -157 -256q-53 -125 -53 -213q0 -125 84 -125q49 0 139 51q88 53 188 144q96 88 168 196q74 111 113 215q37 107 37 182q0 48 -21 74q-20 27 -53 27q-31 0 -64 -23q-32 -22 -86 -71z" />
    <glyph glyph-name="one" unicode="1" horiz-adv-x="555" 
d="M201 956v82q37 31 73 62q37 30 82 65t95 68q49 31 110 65q55 -79 55 -153q0 -39 -18 -88q-16 -49 -45 -113q-31 -63 -74 -158q-119 -262 -176 -430q-59 -170 -59 -231q0 -4 8 -39q6 -35 6 -51q0 -29 -16 -31h-4q-17 0 -43 12q-76 37 -103 72q-26 35 -26 88q0 96 71 301
q35 103 84 205q47 102 107 207q57 104 110 192q-112 -47 -237 -125z" />
    <glyph glyph-name="two" unicode="2" horiz-adv-x="897" 
d="M311 879q105 -5 150 -15q45 -8 45 -35q0 -12 -6 -16q-8 -4 -27 -6q-16 -4 -39 -8q-35 -6 -112.5 -23.5t-85.5 -17.5q-39 0 -39 49q0 45 18 113q18 69 51 129q31 59 66 84q41 28 129 59q86 29 192 49q109 21 197 21q45 0 68 -13q20 -12 28 -32q10 -23 31 -89
q20 -61 20 -139q0 -94 -45 -164q-43 -69 -121 -127q-77 -57 -272 -180q-194 -121 -303 -194q-10 -7 -41 -25q-31 -20 -55 -43q-25 -20 -49 -53q135 12 424 73q79 17 153 37q76 21 90 21q25 0 25 -25q0 -22 -10 -55q-11 -35 -31 -70q-21 -34 -47 -59q-131 -123 -510 -123
q-99 0 -131 31q-21 18 -41 82q-23 61 -23 92q0 51 51 129q52 74 140 153q90 80 196 142q326 186 346 200q72 50 115 101q41 51 41 82q0 28 -22 45q-23 14 -64 14q-65 0 -156 -22q-92 -25 -186 -70q-92 -43 -160 -102z" />
    <glyph glyph-name="three" unicode="3" horiz-adv-x="1044" 
d="M319 915q-28 17 -40 37q-13 21 -13 66q0 63 68 117q65 51 188 82q121 28 273 28q161 0 241 -59q82 -60 82 -174q0 -68 -31 -119q-30 -53 -100 -98q-78 -47 -524 -140q135 -12 229 -37q94 -24 149.5 -77.5t55.5 -143.5q0 -98 -86 -194q-86 -99 -238 -160
q-153 -63 -340 -63q-135 0 -208 43q-74 40 -74 104q0 37 24 80q25 41 58 69q33 31 55 31q14 0 14 -10q0 -6 -10 -27q-10 -10 -10 -22q0 -25 47 -41q45 -17 119 -17q100 0 194 23q95 23 168 59q74 35 119 76q43 41 43 76q0 70 -88 94q-88 25 -268 25q-62 0 -117 -11l-55 -10
v0q-15 0 -15 25q0 39 23 100q20 62 49 80q18 12 139 32.5t209 41.5q88 16 209 61q76 29 115 68q37 39 37 69q0 78 -193 78q-94 0 -182 -10q-90 -12 -139 -29q-52 -16 -52 -32q0 -13 10.5 -21t20.5 -12t35 -12q6 -3 12 -9t6 -14q0 -25 -141 -25q-31 0 -68 2z" />
    <glyph glyph-name="four" unicode="4" horiz-adv-x="874" 
d="M817 348l-211 -45q-28 -78 -39 -172q27 -25 27 -51q0 -23 -72 -72q-71 -47 -94 -47q-47 0 -47 72q0 123 31 237q-41 0 -111 -8t-96 -8q-62 0 -94 10q-35 10 -54 37q-16 31 -32 84q-15 53 -15 80q0 22 29 82q27 57 84 137q55 78 129 147q78 74 188 150q111 78 213 135
q103 58 183 94q82 37 96 37q49 0 49 -55q0 -10 -20 -57q32 -29 32 -54q0 -34 -10 -61q-8 -29 -22 -53q-17 -25 -37 -56q-43 -67 -64 -100q-22 -35 -57 -90q-37 -57 -62 -98q-22 -41 -49 -101q158 27 174 27q45 0 45 -35q0 -45 -94 -166zM498 489q80 166 166 287
q88 119 172 216.5t84 111.5q0 8 -7 14q-6 4 -16 4q-20 0 -164 -90q-151 -96 -258 -178q-106 -84 -188 -182q-84 -99 -140 -213q195 12 351 30z" />
    <glyph glyph-name="five" unicode="5" horiz-adv-x="874" 
d="M498 1210q172 -8 264 -8q135 0 258 6q-43 -94 -82 -153q-41 -64 -57 -70q-27 -8 -195 -8q-156 0 -223 2q-113 -94 -180 -238q186 64 280 64q121 0 189 -70q67 -67 67 -198q0 -164 -106 -295q-109 -129 -275 -201q-168 -72 -340 -72q-98 0 -141 31q-41 31 -41 113
q0 47 18 77q19 31 60 58q102 67 215 67q12 0 12 -8q0 -4 -8 -8q-6 -4 -8 -4q-127 -47 -127 -74q0 -26 84 -26q123 0 258 61q133 61 223 145t90 138q0 41 -37 63q-39 23 -108 23q-68 0 -123 -11.5t-125 -29.5q-72 -21 -88 -21q-33 0 -45 29q-12 24 -23 49q-12 23 -18 47
q-8 27 -10 43q59 215 342 479z" />
    <glyph glyph-name="six" unicode="6" horiz-adv-x="854" 
d="M750 1198l104 -6q64 -4 86 -8q23 -4 23 -17q0 -12 -93 -61q-94 -53 -155.5 -90t-171.5 -127q-111 -88 -219 -213q-23 -27 -41 -51q-19 -27 -33 -50q-14 -22 -17 -24q107 115 193 170q84 55 176 55q96 0 154 -57q55 -60 55 -162q0 -115 -80 -252q-78 -139 -199 -233
q-118 -97 -231 -97q-70 0 -135 54q-66 55 -107 141q-39 84 -39 174q0 123 89 283q86 157 251 311q166 154 390 260zM260 137q53 0 149.5 72t170 176t73.5 197q0 84 -63 84q-72 0 -225 -129q-93 -78 -134 -142q-43 -63 -43 -143q0 -62 16.5 -88.5t55.5 -26.5z" />
    <glyph glyph-name="seven" unicode="7" horiz-adv-x="895" 
d="M481 137l15 -18q-88 -68 -154 -103.5t-111 -35.5q-41 0 -61 26q-20 27 -20 70q0 84 77 237q76 154 240 344q162 191 397 369q-129 18 -258 18q-110 0 -174 -16q-63 -14 -123 -41q-20 -8 -47 -26q-24 -17 -29 -17q-10 0 -20 10q-14 11 -14 25q0 20 43 77.5t65 96.5
q29 49 60 70q24 14 145 26q117 13 291 13h67q39 -2 86 -7q45 -4 66 -4q20 -43 31 -90q10 -49 10 -78q0 -26 -8 -43q-8 -14 -33 -34q-47 -41 -98 -91q-52 -47 -119 -120q-70 -72 -131 -154q-64 -82 -125 -180q-62 -96 -94 -176q-35 -80 -35 -133q0 -27 18 -27q19 0 43 12z
" />
    <glyph glyph-name="eight" unicode="8" horiz-adv-x="918" 
d="M623 664q47 -84 71 -146q27 -59 27 -112q0 -134 -62 -226q-61 -92 -151 -137q-92 -43 -186 -43q-80 0 -150 43q-70 45 -70 113q0 49 39 118q39 70 115 162q76 90 188 205q-147 172 -147 313q0 101 43 172q41 72 125 119t205 69.5t286 22.5q105 0 146 -8t41 -43
q0 -10 -10 -37q-13 -26 -31 -61q-23 -35 -47 -66q-13 -16 -27 -20q-10 -2 -29 -2h-22q18 -31 18 -49q0 -27 -26 -56q-27 -26 -107 -96t-137 -129q-20 -20 -51 -53t-51 -53zM563 750q55 49 129 114q76 66 135 117q62 51 84 78q25 24 25 31q0 28 -133 28q-168 0 -252 -47
q-86 -47 -86 -131q0 -37 27 -86q24 -49 71 -104zM510 551q-133 -141 -209 -244q-74 -100 -74 -129q0 -65 113 -65q37 0 78 18q41 16 74 47q32 33 55 80q20 47 20 104q0 109 -57 189z" />
    <glyph glyph-name="nine" unicode="9" horiz-adv-x="938" 
d="M795 731q-105 -86 -181 -139q-75 -55 -137 -86q-59 -31 -108 -31q-35 0 -86.5 49t-88 123t-36.5 141q0 125 127 258.5t295 223.5q168 88 262 88q51 0 94 -33q45 -33 70 -74q24 -39 24 -61q0 -33 -43 -78t-94 -82t-66 -37q-6 0 -6 8q0 13 58 70q32 33 32 53q0 13 -12 13
q-20 0 -102 -33q-82 -35 -176.5 -92.5t-169.5 -132.5q-58 -60 -86.5 -123.5t-28.5 -96.5q0 -47 55 -47q33 0 101 27q65 27 141 74q74 45 125 96q108 106 151 139q41 33 76 33q25 0 41 -12.5t16 -32.5q0 -6 -61 -105q-170 -280 -252 -407q-80 -129 -149.5 -227.5
t-133.5 -155.5q-63 -57 -112 -57q-29 0 -29 39q0 32 41 110q39 78 96 78h4q119 168 191 276q72 111 158 244z" />
    <glyph glyph-name="colon" unicode=":" horiz-adv-x="682" 
d="M176 -4q-49 0 -49 51q0 37 33 78q30 39 73 67.5t76 28.5h4q27 0 27 -35q0 -28 -27 -73q-28 -47 -67 -82t-70 -35zM375 426q-25 0 -35 16q-14 17 -14 43q0 31 30 76q31 45 72 78q43 33 72 33q20 0 32 -13q13 -14 13 -36q0 -27 -29 -76t-67 -84q-41 -37 -74 -37z" />
    <glyph glyph-name="semicolon" unicode=";" horiz-adv-x="682" 
d="M381 408q-23 0 -39 18q-18 16 -18 41q0 33 32 78q31 47 74 80q43 34 70 34q18 0 32 -14q13 -12 13 -39q0 -33 -27 -80q-26 -47 -65 -82.5t-72 -35.5zM182 -18q-61 4 -61 51q0 26 31 69q28 43 69 76t74 33q39 0 39 -47q0 -39 -49 -123q-49 -86 -105 -129q-22 -16 -37 -21
h-6q-10 -2 -10 9q0 6 20 26q19 23 35 56z" />
    <glyph glyph-name="less" unicode="&#x3c;" horiz-adv-x="1366" 
d="M1266 268v-172l-1094 461v141l1094 459v-170l-881 -358z" />
    <glyph glyph-name="equal" unicode="=" horiz-adv-x="1366" 
d="M172 786v158h1094v-158h-1094zM172 315v158h1094v-158h-1094z" />
    <glyph glyph-name="greater" unicode="&#x3e;" horiz-adv-x="1366" 
d="M172 987v170l1094 -459v-141l-1094 -461v172l881 359z" />
    <glyph glyph-name="question" unicode="?" horiz-adv-x="662" 
d="M301 1090q0 -9 12 -17q15 -6 25 -12q43 -17 43 -41q0 -14 -4 -14q-6 0 -23 6q-14 8 -20 8q-35 8 -78 10q-43 0 -59 8q-15 6 -15 41q0 33 27 90q24 58 53 86q23 21 80 44.5t127 41.5q72 17 127 17q90 0 143 -51q52 -54 52 -152q0 -49 -21 -117q-18 -65 -57 -141
q-37 -74 -90 -147q-52 -74 -121 -148q-58 -57 -88 -100q-33 -45 -33 -82q0 -2 2 -10.5t2 -14.5q0 -8 2 -12v-14q0 -43 -31 -43q-26 0 -55 45q-29 43 -29 98q0 76 82 181.5t264 262.5q58 50 82 78q23 29 23 70q0 49 -35 75.5t-104 26.5q-49 0 -119 -12q-72 -12 -117 -29
q-47 -18 -47 -32zM207 6q-19 0 -53 31q-37 31 -37 78q0 37 18 84q21 49 45 84q27 36 43 36q17 0 37 -20q23 -20 37 -47q12 -29 12 -55q0 -27 -16 -72q-19 -49 -41 -84q-25 -35 -45 -35z" />
    <glyph glyph-name="at" unicode="@" horiz-adv-x="2068" 
d="M1012 971q92 0 170 -47t131 -136l33 156h180l-144 -672q-8 -41 -18 -90q-12 -49 -12 -67q0 -25 20 -43q23 -21 53 -21q62 0 154 72q90 70 160 196q69 127 69 285q0 135 -53 250q-53 117 -151 203q-97 86 -230 133q-131 45 -282 45q-183 0 -334 -66q-154 -63 -266.5 -182
t-173 -276.5t-60.5 -337.5t57 -322q58 -143 170 -241q113 -101 275 -152q162 -53 364 -53q242 0 424 82q183 82 277 219h180q-31 -62 -82 -123q-53 -62 -127 -119q-74 -55 -160 -98t-178 -70q-145 -39 -336 -39q-317 0 -544 111q-230 110 -349 313q-118 203 -118 475
q0 201 67 387q68 185 193 330q90 105 200 172q111 70 242 103q133 32 287 32q194 0 354 -61q158 -62 270 -166q111 -106 172 -246q60 -137 60 -291q0 -151 -51.5 -284t-139.5 -236q-88 -100 -194 -157q-109 -56 -211 -56q-115 0 -154 43t-45 125q-43 -51 -96 -88
q-53 -39 -104 -57q-54 -21 -103 -21q-100 0 -184 58q-86 57 -133 161q-49 105 -49 234q0 113 43 225q40 115 114 207t168 148q92 53 195 53zM676 322q0 -89 29 -152q28 -66 77 -100q52 -37 115 -37q59 0 125 39q63 39 117 108q53 70 84 160q32 90 32 192q0 136 -63 213
q-64 78 -170 78q-96 0 -174 -75q-80 -78 -125 -195q-47 -121 -47 -231z" />
    <glyph glyph-name="A" unicode="A" 
 />
    <glyph glyph-name="C" unicode="C" horiz-adv-x="748" 
d="M172 469q51 45 104 106q54 62 154 189q96 123 154 205q55 80 82 135q28 53 28 74q0 14 -8 14q-22 0 -90 -72q-72 -73 -160 -198q-123 -174 -178 -263q-55 -88 -86 -190zM0 219q0 79 27.5 184t74.5 199q97 186 232 350t262 270.5t172 106.5q43 0 43 -59q0 -262 -672 -914
v-120q133 149 232 243q98 96 166 146q67 47 100 47q31 0 55 -35q27 -37 27 -59q0 -11 -10 -25q-72 -86 -113 -141q-43 -58 -68 -103q-22 -45 -22 -76q0 -47 45 -47q47 0 213 129v-63q-86 -88 -150 -146q-63 -57 -110 -86q-49 -28 -82 -28q-78 0 -78 92q0 74 49 172
q47 96 139 229q-45 -24 -86 -57q-38 -33 -69 -68q-33 -36 -53 -61q-66 -74 -125.5 -149.5t-79.5 -100.5q-23 -22 -41 -22q-78 0 -78 192z" />
    <glyph glyph-name="D" unicode="D" horiz-adv-x="1323" 
d="M1051 289q-25 47 -74 84q-51 37 -113 59q-63 23 -131 33q-203 31 -377 131q-14 8 -32 35q-17 24 -17 49q0 88 31 176q29 88 74 139q73 82 268 146q190 61 432 61q143 0 223 -22q78 -23 78 -68q0 -76 -20.5 -117t-42.5 -53q-25 -14 -84 -37q-64 -22 -109 -47
q-47 -22 -80 -45q-33 -22 -41 -22q-10 0 -10 8q0 16 37 53q35 33 86 59q55 29 55 37q0 13 -61 13q-185 0 -342.5 -33t-245.5 -86q-92 -56 -92 -111q0 -35 39 -49q37 -14 164 -49q129 -35 229 -78q145 -61 215 -129t70 -150q0 -57 -27 -114q-29 -58 -82 -107
q-51 -47 -121 -78q-59 -24 -147 -47q-90 -22 -195 -34q-104 -13 -200 -13q-175 0 -281.5 33t-106.5 100q0 29 35 95q37 61 86 84q43 18 82 20h10q31 0 31 -10q0 -2 -4 -6q-2 -2 -6 -4t-8 -5q-21 -8 -33 -12q-12 -6 -18 -8q-9 -6 -9 -14q0 -21 207 -21q180 0 295 12
q115 15 203 48q88 34 160 94z" />
    <glyph glyph-name="E" unicode="E" 
 />
    <glyph glyph-name="G" unicode="G" 
 />
    <glyph glyph-name="I" unicode="I" horiz-adv-x="897" 
d="M365 -29l-62 45q-14 13 -14 25t47 90q35 55 92 151.5t92 157.5q35 62 86 162q49 100 92 197q97 221 97 282q0 72 -56 72q-43 0 -118 -43q-78 -43 -162 -111q-82 -69 -137 -145q-56 -74 -56 -131q0 -8 4 -12q6 -6 19 -6q24 0 78 28q10 6 16 6q8 0 8 -10q0 -16 -76 -82
q-75 -67 -112 -67q-31 0 -86 55q-56 51 -56 96q0 17 31 80q31 66 84 145q55 80 115 140q69 69 158 123q88 55 169 84q82 30 132 30q71 0 112 -53q41 -55 41 -154q0 -131 -102.5 -376.5t-313.5 -575.5q2 -10 7 -20q4 -13 4 -23q0 -2 -2 -6q-4 -6 -9 -12q-4 -7 -4 -9l-73 -120
q-13 -21 -25 -21t-20 8z" />
    <glyph glyph-name="J" unicode="J" horiz-adv-x="1014" 
d="M496 688q-51 -16 -115 -94q-10 -12 -10 -29q0 -46 98 -90q82 -43 121 -90t39 -104q0 -41 -15 -82q-16 -39 -47 -74q-26 -33 -67 -55q-33 -17 -82 -33.5t-109 -24.5q-59 -8 -112 -8q-99 0 -158 22.5t-59 71.5q0 19 20 66q20 43 47 59q25 13 45 15q23 0 23 -9
q-2 -10 -25 -18l-12 -6q-4 -4 -4 -10q0 -15 114 -15q101 0 164 8q66 11 115 35q52 24 82 64q4 8 4 12q0 24 -37 47q-48 28 -65 35q-16 7 -34 13.5t-38 17.5q-141 76 -141 184q3 35 40.5 83t88.5 73q67 33 132 54t125.5 30.5t116.5 9.5q151 0 318 -62q25 -8 47 -30
q22 -28 22 -47q0 -23 -30 -80q-34 -55 -90.5 -164.5t-136 -266.5t-158.5 -307t-127 -223q2 -10 6 -20q4 -13 4 -23q0 -2 -2 -6l-8 -12t-4 -8l-74 -121q-12 -21 -25 -21q-12 0 -20 8l-62 45q-14 13 -14 25q0 9 47 90q40 66 148 264q19 36 49 92t37 70q8 18 48 103t77 166
t71.5 155.5t42.5 91.5q6 12 6 25q0 18 -10 37q-64 96 -211 96q-85 0 -196 -35z" />
    <glyph glyph-name="K" unicode="K" 
 />
    <glyph glyph-name="O" unicode="O" 
 />
    <glyph glyph-name="P" unicode="P" 
 />
    <glyph glyph-name="R" unicode="R" horiz-adv-x="1331" 
d="M240 -154q3 -74 32 -143q9 -16 21 -16q4 0 8 2q16 6 35 28l20 -10q-51 -98 -96 -158q-43 -61 -84 -81q-20 -9 -37 -9q-14 0 -28 6q-31 15 -50 54q-14 33 -18 87t-4 161q1 80 10.5 132.5t32.5 145.5q33 124 89 245t116 204q75 102 141 155q81 67 170 96q82 31 131 31
q75 0 113 -53q14 -19 23.5 -86.5t17.5 -67.5q38 63 76 108t77 68q52 31 131 31q72 0 113 -53q50 -69 53 -162q0 -219 -86 -373l31 -30q-82 -103 -143.5 -150t-90.5 -47q-24 0 -24 43q0 88 96 238q23 36 45.5 95t36.5 111.5t14 75.5q0 36 -19 54t-48 18q-43 0 -119.5 -43.5
t-153.5 -167.5q0 -4 2.5 -9.5t4.5 -10.5q4 -18 4 -23q-2 -5 -6.5 -13t-8.5 -14l-73 -120q-13 -21 -25 -21q-8 0 -20 8l-62 45q-14 13 -14 25t47 90q19 33 36 86.5t17 95.5q-1 34 -20 53t-47 19q-74 0 -132 -31q-86 -47 -149 -135q-59 -80 -90.5 -145.5t-59.5 -163.5
q-13 -51 -24.5 -139t-11.5 -136z" />
    <glyph glyph-name="S" unicode="S" horiz-adv-x="860" 
d="M571 465q17 27 27 76q-88 -31 -209 -97.5t-145 -91.5q-23 -20 -39 -73q-8 -25 -8 -60q0 -88 61 -96q54 0 155 122.5t158 219.5zM760 813q46 87 85.5 173.5t39.5 109.5q0 16 -13 28q-15 11 -28 11q-28 -14 -49.5 -39t-43 -62t-42.5 -71q0 -3 6 -21q4 -16 4 -22
q-13 -21 -36.5 -49.5t-29.5 -28.5q-8 0 -20 8l-62 45q-14 12 -14 25q19 29 36 82t17 100q-2 37 -20.5 60.5t-46.5 23.5q-35 0 -83.5 -25.5t-84.5 -81.5q-33 -50 -33 -53q0 -10 27 -10q10 0 29.5 2t52.5 4q18 0 18 -6q0 -2 -6 -8q-6 -4 -8 -4q-95 -37 -168 -62
q-31 -9 -42 -15.5t-12 -6.5q-18 0 -18 22q0 59 35 143q35 82 96 144q53 56 121 94q48 27 98 27q74 0 113 -50q14 -20 24.5 -86.5t16.5 -66.5q36 61 92 112t104 58q65 0 97 -25q35 -26 35 -73q0 -13 -13 -53.5t-20 -69.5q-21 -75 -88 -219q-36 -80 -123 -230
q-16 -28 -70.5 -128.5t-98 -178t-89.5 -148t-103 -143.5q-47 -59 -147 -59q-44 0 -82 14q-74 29 -129 115q-17 29 -22 62.5t-5 86.5q0 99 94.5 197t213.5 162q105 57 180 65q37 0 61.5 -16t35.5 -34t11 -24q39 67 107 195z" />
    <glyph glyph-name="T" unicode="T" horiz-adv-x="1085" 
d="M506 580q-82 -50 -141 -91q-60 -40 -101 -81q-31 -32 -55 -84q-25 -54 -25 -121q8 -35 28.5 -50.5t63.5 -15.5t144 74q-17 47 -17 90q0 64 27 129q25 66 76 150zM629 584q53 90 162 153q66 39 131 39q71 0 112 -53q50 -69 53 -162q0 -219 -86 -373l31 -30
q-82 -103 -143.5 -150t-89.5 -47q-25 0 -25 43q0 88 96 238q34 52 65.5 149.5t31.5 132.5q0 34 -19 53t-49 19q-43 0 -119 -43q-100 -57 -159 -154q-7 -11 -35 -71t-46.5 -97t-47.5 -77q-58 -78 -117 -116t-113 -38q-55 0 -102 37q-45 37 -72 100q-29 66 -29 144
q0 63 43 143q41 78 111 145q66 68 143 109q78 41 144 41q47 0 73 -14q27 -15 27 -41q0 -21 -22 -46q26 -6 51 -34z" />
    <glyph glyph-name="V" unicode="V" horiz-adv-x="874" 
d="M723 1130q0 -10 -23 -45q-22 -36 -67 -106q-45 -72 -111 -180q-63 -111 -131 -244q-78 -154 -112 -240q-35 -88 -35 -151q0 -49 53 -88q63 51 127 119q61 69 123 153q59 86 139 215q80 131 141 240q-4 8 -6 18q-4 8 -4 15q0 47 18.5 88t49.5 80q26 38 84 110q14 19 37 19
q36 0 36 -46q0 -47 -36 -145q-39 -98 -111 -231q-74 -133 -182.5 -297t-245.5 -344q-139 -181 -199 -181q-35 0 -78 37t-73.5 102.5t-30.5 139.5q0 45 18 113q19 69 60 165q39 97 88 191q51 98 92 164q39 65 88 145q51 78 51 86q0 15 -20 15q-57 0 -154 -60
q-96 -57 -252 -178q-59 -45 -73 -59q-17 -15 -17 -23q0 -12 19 -12q8 0 55 6q45 6 72 6q45 0 45 -16q0 -15 -19 -23q-18 -6 -51 -14t-88 -23q-59 -16 -127 -47q-68 -29 -78 -29q-18 0 -22 15q-6 12 -6 45q0 141 47 219t168 162q139 96 264 160q127 63 219 94q90 28 133 28
t84 -55q41 -53 41 -113z" />
    <glyph glyph-name="W" unicode="W" horiz-adv-x="840" 
d="M401 199l31 12q-87 105 -182 164q-68 35 -94 35q-11 0 -27 -4q-27 -12 -27 -35q0 -7 4 -23q17 -49 52 -82q43 -41 118 -65q35 -13 68 -13q31 0 57 11zM795 -127q-60 36 -108 79.5t-105 113.5q-102 -133 -269 -295q-143 -142 -260 -226q-116 -86 -164 -86
q-18 0 -32.5 12.5t-14.5 32.5q0 17 45 87.5t123 132.5q80 59 180 67q41 43 72 76q29 33 82 98q22 24 50.5 67t37.5 54q-49 -25 -94 -25q-50 0 -133 37q-18 8 -38 26t-30.5 32t-38.5 53q-43 61 -57 129q-12 43 -12 80q0 28 8 53q20 59 65 78q33 12 66 12q29 0 55 -10
q60 -23 113 -68q55 -49 121 -121q67 -71 84 -86q18 32 51 91t69 123.5t58 103.5q57 104 110 192q-131 -52 -249 -124v81q36 31 73 62t82 65q45 35 94 68q50 31 111 66q55 -80 55 -154q0 -39 -18 -88q-16 -49 -45 -113q-31 -63 -74 -157q-133 -223 -211 -336q17 -18 38.5 -34
t48.5 -33t42 -26z" />
    <glyph glyph-name="X" unicode="X" horiz-adv-x="1237" 
d="M725 610l10 449q-94 -15 -184 -49q-90 -37 -162 -78q-70 -41 -117 -78q-45 -37 -45 -45q0 -10 27 -10q10 0 31 2q18 2 51 4q18 0 18 -6q0 -2 -6 -8q-6 -5 -8 -5q-94 -36 -168 -61q-76 -23 -86 -23q-18 0 -18 23q0 59 34 143q35 82 97 144q43 45 120 94q78 47 170 86
q93 39 185 63q94 23 170 23q47 0 71 -16q25 -19 25 -80q0 -25 -6 -135q-8 -109 -10 -220l186 203q43 47 90 100q45 52 64 64q16 12 32 12q35 0 35 -30q0 -41 -82 -187q-30 -16 -73 -24l-267 -303l-32 -543v-8q0 -21 10 -31q10 -14 33 -14q28 0 79 28q52 29 136 86q4 2 12 2
q18 0 18 -16q0 -25 -63 -100q-66 -76 -150 -136q-84 -59 -153 -59q-51 0 -68.5 39t-17.5 129q0 29 2 57v84q2 56 4 115q0 59 2 147q-119 -127 -197 -217q-75 -90 -114 -139q-41 -51 -52 -68q-49 -59 -116.5 -104t-98.5 -45q-32 0 -32 49q0 59 57 139q53 80 139 140
q23 14 88 47z" />
    <glyph glyph-name="Z" unicode="Z" horiz-adv-x="799" 
d="M518 465q17 30 27 76q-88 -31 -209 -97.5t-146 -91.5q-22 -20 -38 -73q-9 -24 -9 -60q0 -88 62 -96q54 0 155 122.5t158 219.5zM750 647q-41 -88 -99 -195.5t-120 -204.5t-142 -198q-49 -59 -147 -59q-46 0 -82 14q-74 29 -129 115q-17 29 -22 62.5t-5 86.5q0 99 94 197
q95 98 213 162q107 57 181 65q37 0 61.5 -16t35.5 -34t11 -24q28 60 109.5 237.5t109.5 229.5q70 125 117 185q45 61 65 61q23 0 41 -20q19 -23 19 -49q0 -52 -76 -179q-59 -100 -133 -237t-102 -199z" />
    <glyph glyph-name="bracketleft" unicode="[" horiz-adv-x="598" 
d="M776 1360q76 -10 176 -10q68 0 185 10q-29 -66 -52 -111q-20 -47 -38 -73q-21 -27 -43.5 -39.5t-57.5 -12.5q-41 0 -147 27q-181 -313 -250 -436q-74 -123 -125 -211q-53 -88 -102 -172q-52 -84 -86 -144q-113 -202 -164 -381q102 37 174 37q90 0 164 -43
q-68 -102 -101 -163q-33 -64 -57 -152q-31 20 -62 33q-32 10 -81 10q-50 0 -84 -6q-35 -8 -76 -19q-43 -12 -53 -12q-58 0 -58 127q0 66 33 156q35 90 102 215q70 125 172 295q103 170 238 387q78 127 135 225q57 96 86 147q29 52 84 154q55 105 88 162z" />
    <glyph glyph-name="backslash" unicode="\" horiz-adv-x="575" 
d="M573 -135h-145l-424 1515h146z" />
    <glyph glyph-name="bracketright" unicode="]" horiz-adv-x="748" 
d="M545 1372q41 -24 67 -33q27 -10 72 -10q51 0 129 21q78 18 84 18q61 0 61 -108q0 -99 -59 -236t-149 -291q-91 -153 -293 -483q-97 -156 -172 -289q-78 -131 -135.5 -231.5t-126.5 -227.5q-62 4 -99 4q-35 2 -102 2q-78 0 -162 -10q41 99 66 144q22 45 53 67q28 25 69 25
q43 0 93 -13q51 -12 59 -12q147 260 342 590q197 330 268 459q72 129 99 211q12 41 20 84q-57 -21 -96 -29q-37 -10 -80 -10q-76 0 -164 45q51 84 72 117q18 32 45 88q24 55 39 108z" />
    <glyph glyph-name="asciicircum" unicode="^" horiz-adv-x="961" 
d="M477 1128l-239 -598h-185l355 801h143l356 -801h-182z" />
    <glyph glyph-name="underscore" unicode="_" horiz-adv-x="1024" 
d="M-12 -256v102h1048v-102h-1048z" />
    <glyph glyph-name="grave" unicode="`" horiz-adv-x="961" 
d="M440 -23q0 7 -6 7q-41 0 -41 41q0 34 27 79q26 43 63 74t68 31q41 0 41 -53q0 -56 -39 -115q-39 -61 -88 -109q-51 -45 -64 -45q-6 0 -6 7q0 10 22.5 39.5t22.5 43.5zM197 -23q0 7 -9 7q-41 0 -41 41q0 34 27 79q27 43 63.5 74t67.5 31q41 0 41 -53q0 -54 -39 -115
q-41 -64 -88 -109q-49 -45 -61 -45q-6 0 -6 7q0 14 20 40q25 33 25 43z" />
    <glyph glyph-name="a" unicode="a" horiz-adv-x="870" 
d="M184 197q-4 -10 -30 -19q-15 -4 -17 -6q-6 -4 -6 -10q0 -15 143 -15q127 0 207 9q80 10 144 34q79 29 110 66q4 8 4 10q0 23 -55 47q-53 26 -80 35q-15 5 -27.5 9t-27.5 9t-35 13q-203 88 -203 190q11 79 111 131q110 58 256 76q43 4 76 4q34 2 61 -4q47 -8 51 -41
q4 -24 4 -43q0 -22 -6 -39q-8 -30 -20 -41q-15 -12 -45 -32q-37 -19 -62 -39q-28 -19 -47 -39q-16 -19 -22 -19q-4 0 -4 6v5q0 10 14 34q18 25 47 50q33 22 33 28q-2 6 -21 6q-8 0 -20 -2q-55 -5 -114.5 -13.5t-86.5 -35.5q-14 -14 -14 -29q0 -42 125 -90q102 -43 149 -90
q49 -47 49 -104q0 -41 -18 -82q-21 -39 -57 -74q-35 -33 -84 -55q-41 -17 -105 -33q-61 -16 -135 -24.5t-141 -8.5q-121 0 -197 23q-74 22 -74 72q0 18 25 65q27 43 59 59q31 13 58 15q28 0 28 -8z" />
    <glyph glyph-name="b" unicode="b" horiz-adv-x="696" 
d="M295 133q49 8 91.5 48.5t84.5 101.5q74 104 74 196q0 84 -64 84q-41 0 -110 -53.5t-127 -153.5q-41 -67 -41 -157q17 -66 92 -66zM166 25q-103 49 -103 174q0 24 9 69q21 100 49 156q25 52 106 154q46 57 119 174.5t125.5 219t56.5 136.5q0 18 -12 28.5t-29 10.5
q-63 0 -141 -64q-42 -35 -51.5 -43.5t-18 -14t-12.5 -5.5q-12 1 -20 12.5t-8 26.5q1 24 1 41t2.5 25t20.5 55q12 29 26.5 56t30 52t33 58t31.5 61q12 12 16 14q3 0 9 -4v-2q0 -8 -5 -31q-4 -11 -8 -53q-2 -14 -2 -53q98 43 168 43q62 0 96 -25q35 -26 35 -73q0 -43 -33 -123
q-15 -35 -45.5 -94t-52.5 -101q-19 -39 -70.5 -131.5t-60.5 -109.5q8 10 66 10q96 0 153 -58q55 -59 55 -161q0 -127 -79 -252q-30 -45 -86.5 -93.5t-125 -79t-130.5 -30.5q-64 0 -115 25z" />
    <glyph glyph-name="c" unicode="c" horiz-adv-x="983" 
d="M242 -537q71 11 143 45t107 66q76 69 187 228.5t144 287.5q6 21 6 43q0 89 -77 127q-48 21 -73.5 36t-25.5 36q0 12 11 22q22 24 54.5 30t104.5 11q31 0 33 -4q0 -6 -27 -22q-22 -21 -36 -41q-13 -19 -13 -27v-4q0 -4 4 -4t19 14q14 17 37 31q20 16 49 31q24 16 37 26
q8 8 16 33q4 10 4 27q0 16 -4 39q-2 26 -41 32q-20 4 -47 4t-61 -4q-62 -8 -97 -19t-75 -40q-28 -20 -52.5 -56t-27.5 -63q0 -37 51.5 -84t62.5 -76q11 -22 11 -57q-2 -49 -23 -102q-33 -84 -95 -171t-130 -149q-17 -17 -42 -40.5t-50.5 -40t-55.5 -23.5q-44 -8 -92 -8
q-37 0 -57 2q-56 6 -88.5 43t-32.5 88q5 71 42 147t77 123q14 17 34.5 45.5t49 67t45.5 59.5q29 35 67.5 82t53.5 68q4 5 48 59.5t72 95.5q84 123 119 180q35 58 35 82q0 15 -20 25q-23 12 -58 14v0q-30 0 -110 -84q-57 -57 -101 -106.5t-96 -120.5q-50 -65 -98.5 -131.5
t-101.5 -143.5t-101 -153q-71 -112 -98 -201q-19 -60 -19 -141q6 -161 131 -221q39 -19 158 -19q74 0 113 6z" />
    <glyph glyph-name="d" unicode="d" horiz-adv-x="1352" 
d="M1182 637q-82 -49 -142 -90q-59 -41 -100 -82t-55 -84q-25 -111 -25 -121q0 -65 92 -65q43 0 144 73q-17 47 -17 90q0 64 27 129q24 66 76 150zM774 498q0 40 -21 69t-46 29q-74 0 -132 -31q-86 -47 -149 -135q-59 -80 -90.5 -145.5t-59.5 -163.5q-13 -51 -24.5 -139
t-11.5 -136q3 -74 32 -143q9 -16 21 -16q4 0 8 2q16 6 35 28l20 -10q-51 -98 -96 -158q-43 -61 -84 -81q-20 -9 -37 -9q-14 0 -28 6q-31 15 -50 54q-14 33 -18 87t-4 161q1 80 10.5 132.5t32.5 145.5q33 124 89 245t116 204q75 102 141 155q81 67 170 96q82 31 131 31
q75 0 113 -53q14 -19 23.5 -86.5t17.5 -67.5q69 119 149 166q69 41 144 41q47 0 73 -14q27 -14 27 -41q0 -21 -23 -45q37 -8 52 -27q14 -18 14 -67q0 -50 -23 -121q-22 -74 -61 -137l18 -19h15q16 0 35 8q16 9 28 19t58 43v-68q-66 -59 -107 -80q-35 -16 -90 -16h-25
q-131 -154 -229 -154q-55 0 -102 37q-45 37 -72 101q-21 48 -21 143q0 21 5 46.5t12.5 55.5t13.5 58z" />
    <glyph glyph-name="e" unicode="e" horiz-adv-x="840" 
d="M324 -377q115 191 155 264q46 85 86 162q49 101 92 197q97 221 97 282q0 72 -56 72q-43 0 -118 -43q-78 -43 -162 -111q-82 -69 -137 -145q-56 -74 -56 -131q0 -8 4 -12q7 -6 19 -6q24 0 78 28q10 6 16 6q8 0 8 -10q0 -16 -76 -82q-75 -67 -112 -67q-31 0 -86 55
q-56 51 -56 96q0 17 31 80q31 66 84 145q55 80 115 140q69 69 158 123q88 55 170 84q81 30 131 30q71 0 112 -53q41 -55 41 -154q0 -131 -102 -376q-103 -248 -285 -531q2 -10 6 -20q4 -13 4 -23q0 -2 -2 -6l-8 -12t-4 -8l-74 -121q-12 -21 -24 -21q-13 0 -21 8l-61 45
q-15 13 -15 25q0 10 48 90z" />
    <glyph glyph-name="f" unicode="f" horiz-adv-x="1106" 
d="M506 580q-82 -50 -141 -91q-60 -40 -101 -81q-31 -32 -55 -84q-25 -54 -25 -121q8 -35 28.5 -50.5t63.5 -15.5t144 74q-17 47 -17 90q0 64 27 129q25 66 76 150zM928 586q-13 10 -29 10q-43 0 -119 -43q-100 -57 -159 -154q-7 -11 -35 -71t-46.5 -97t-47.5 -77
q-58 -78 -117 -116t-113 -38q-55 0 -102 37q-45 37 -72 100q-29 66 -29 144q0 63 43 143q41 78 111 145q66 68 143 109q78 41 144 41q47 0 73 -14q27 -15 27 -41q0 -21 -22 -46q26 -6 51 -34q53 90 162 153q66 39 131 39q77 0 139 -14q31 -6 43 -21q9 -11 12 -32
q4 -42 4 -82q0 -29 -24.5 -79t-59.5 -91q-9 -11 -49.5 -53t-56.5 -66q-12 -17 -12 -39q3 -39 47 -59q67 -33 67 -105q0 -29 -14 -61q-23 -53 -44 -88.5t-64.5 -97.5t-69 -96.5t-90.5 -125.5q0 -2 6 -20q4 -13 4 -23q0 -2 -2 -6q-4 -6 -8.5 -12t-4.5 -8l-73 -121
q-13 -21 -25 -21t-20 8l-62 45q-14 13 -14 25t47 90q24 39 81.5 134.5t74.5 129.5q14 26 26.5 46t25.5 41t23 42q25 42 36.5 66t11.5 51q0 20 -9 35q-10 22 -46 62t-36 69q6 28 19 48.5t39 49.5q33 40 62.5 88t29.5 80q0 16 -8 21z" />
    <glyph glyph-name="g" unicode="g" horiz-adv-x="870" 
d="M180 0q-42 -51 -77 -125t-42 -145q0 -101 121 -131q32 -9 68 -9q45 0 82 15q43 16 77 42t70 62q63 63 106.5 119.5t78.5 134.5q12 25 12 60q0 59 -41 92q-36 24 -113 24q-92 0 -189 -34.5t-153 -104.5zM303 -537q-88 -18 -139 -18q-73 0 -131 31q-64 33 -96.5 95.5
t-34.5 125.5q0 92 10 141q11 47 42 106t64 95q59 63 132.5 104.5t144.5 66t141 42.5q23 55 66 121q41 63 94 127q-29 -6 -64 -13q-34 -6 -73 -14q-39 -6 -60 -10q-29 -59 -56 -92t-91 -88v65q22 27 28.5 34t20.5 30q-33 12 -45 26q-16 17 -16 49q0 35 29.5 90.5t74.5 104.5
q43 47 80 61q14 7 27 7q20 0 20 -19q0 -16 -31 -69q205 32 260 32q21 0 29 -4q16 -8 29 -43q10 -33 10 -65q0 -21 -18.5 -45.5t-63.5 -71.5q-24 -26 -41 -45.5t-28.5 -37.5t-18.5 -40q-4 -16 -4 -27q0 -43 46 -68t132 -52q40 -12 59 -44.5t19 -74.5q0 -27 -6 -51
q-23 -88 -75 -179.5t-109.5 -161.5t-106.5 -110q-36 -29 -108 -62.5t-142 -48.5z" />
    <glyph glyph-name="h" unicode="h" horiz-adv-x="870" 
d="M508 889q74 -25 117 -25q10 0 18 2q15 2 22.5 10.5t11.5 23t7 26.5q0 51 -70 75q-13 6 -32 12.5t-39 14.5q-162 74 -162 162q7 67 88 113q85 46 205 65q35 4 61 4q29 0 49 -4q37 -8 41 -35q2 -20 2 -37q0 -20 -4 -34q-12 -11 -37 -27q-28 -16 -49.5 -33.5t-36.5 -34.5
q-12 -16 -18 -16q-2 0 -2 6v4q0 10 10 29q15 22 39 43q25 18 25 24q0 5 -13 5q-8 0 -20 -2q-43 -6 -96.5 -27.5t-79.5 -48.5q-10 -10 -10 -25q0 -16 17 -31t43.5 -28t37.5 -19q96 -41 161.5 -84.5t65.5 -119.5q0 -43 -22 -60q-25 -26 -72 -33h-57q-45 -2 -125 0
q49 -32 116 -79q68 -43 101 -72q37 -27 59 -51q21 -27 25 -56v-4q0 -22 -27 -61q-29 -43 -82 -74q-12 0 -12 -10q0 -13 30.5 -62t30.5 -67q0 -41 -18 -82q-21 -39 -57 -74q-35 -33 -84 -55q-41 -17 -105 -33q-61 -16 -135 -24.5t-141 -8.5q-121 0 -197 23q-74 22 -74 72
q0 18 25 65q27 43 59 59q31 13 58 15q28 0 28 -8q-4 -10 -30 -19q-15 -4 -17 -6q-6 -4 -6 -10q0 -15 143 -15q127 0 207 9q80 10 144 34q79 29 110 66q4 8 4 10q0 23 -55 47q-33 0 -83.5 18.5t-51.5 18.5q-22 9 -91 34t-87 34q-60 31 -95.5 60.5t-42.5 51.5q-2 15 -4 37
q2 23 11 43q4 21 16 21q17 0 34 -6t33.5 -15t32.5 -18q45 -24 123.5 -56.5t100.5 -43.5q26 -13 63 -13q14 1 25 1.5t26 0.5q15 2 23 13q12 8 12 16v4q-4 41 -147 141q-39 29 -67.5 51.5t-58.5 44.5t-63.5 45.5t-95.5 61.5q-11 7 -14 29v8q0 20 6 39q2 5 6.5 7.5t10 3
t9.5 1.5q5 0 73.5 -20t119.5 -37z" />
    <glyph glyph-name="i" unicode="i" horiz-adv-x="901" 
d="M618 748q78 28 132 28q71 0 112 -53q50 -69 53 -162q0 -219 -86 -373l31 -30q-82 -103 -143.5 -150t-89.5 -47q-25 0 -25 43q0 88 96 238q34 52 65.5 149.5t31.5 132.5q0 34 -19 53t-49 19q-33 0 -119 -43q-70 -37 -162 -111q-82 -70 -153 -170q-55 -73 -55 -131
q0 -2 7.5 -6.5t8.5 -5.5q6 -6 18 -6q25 0 78 29q6 2 21 11t20 9q0 -9 -28 -42.5t-64 -63.5q-76 -68 -113 -68q-30 0 -86 55q-55 51 -55 97q0 16 31 79q30 66 84 146q76 109 131 164q69 69 158 123q92 56 169 86z" />
    <glyph glyph-name="j" unicode="j" horiz-adv-x="614" 
d="M258 332v235q-37 -8 -70 -32q-34 -23 -71 -56q-37 -35 -47 -35q-11 0 -11 29t60 102q59 74 131 138q72 61 104 61q19 0 33 -22q14 -21 14 -60q0 -24 -2 -45q0 -22 -2 -57q0 -35 -2 -101q221 236 262 236q13 0 21 -8q6 -10 6 -25q0 -33 -53 -100q-53 -70 -72 -70
q-24 0 -39 8l-127 -161q2 -88 17 -131q12 -43 47 -43q30 0 69 30q41 29 131 111v-70q-204 -282 -290 -282q-54 0 -74 55q-25 57 -31 176q-76 -90 -115 -139q-10 -12 -10 -29q0 -45 99 -90q81 -43 120 -90t39 -105q0 -41 -14 -81q-16 -39 -47 -74q-27 -33 -68 -56
q-33 -16 -82 -32.5t-108 -24.5q-52 -8 -80 -8q-98 0 -158 22q-59 23 -59 72q0 19 20 66q21 43 47 59q25 12 45 14q23 0 23 -8q-2 -12 -25 -18l-12 -6q-4 -4 -4 -11q0 -6 19 -8t96 -6q86 0 131 8q95 25 114 35q61 26 91 66q0 31 -41 57q-54 30 -66 35q-20 9 -34 14t-38 17
q-56 30 -84 66t-28 99q6 38 46.5 92.5t88.5 102t90 78.5z" />
    <glyph glyph-name="k" unicode="k" horiz-adv-x="440" 
d="M453 373q-7 -58 -53 -163t-104 -214.5t-109.5 -196t-82.5 -133.5q2 -10 7 -20q4 -13 4 -23q0 -2 -2 -6q-4 -6 -9 -12q-4 -6 -4 -8l-73 -121q-13 -21 -25 -21t-20 8l-62 45q-14 13 -14 25t47 90q126 209 156 264q8 16 76 146t87 168q7 14 7 24q0 21 -21 21
q-15 0 -49 -26.5t-57 -69.5q-11 -21 -35 -21q-37 0 -68 64q-31 65 -31 149q0 61 20.5 106.5t63.5 112.5q68 96 111 139q41 41 88 41q29 0 49 -10q21 -12 21 -33q0 -20 -37 -69q-37 -47 -92 -99q-31 -28 -58 -71q-26 -43 -26 -62q0 -26 20 -26q41 37 78 65q70 53 119 53
q29 0 51 -22q27 -25 27 -94z" />
    <glyph glyph-name="l" unicode="l" horiz-adv-x="1782" 
d="M1167 776q75 0 113 -53q8 -9 13 -31t10.5 -55t9.5 -50.5t8 -17.5q76 131 154 176q52 31 131 31q71 0 112 -53q20 -26 36.5 -71.5t17.5 -90.5q0 -217 -86 -373l30 -30q-82 -103 -143.5 -150t-89.5 -47q-25 0 -25 43q0 88 96 238q34 52 65.5 149.5t31.5 132.5q0 34 -19 53
t-49 19q-43 0 -119 -43q-78 -44 -153 -168q0 -2 6 -20q4 -18 4 -23q-3 -8 -14 -27l-74 -120q-12 -21 -25 -21q-8 0 -20 8l-62 45q-14 13 -14 25t47 90q20 32 36.5 83.5t16.5 98.5q-1 35 -19.5 53.5t-47.5 18.5q-43 0 -119.5 -43.5t-153.5 -167.5q0 -4 2.5 -9.5t4.5 -10.5
q4 -18 4 -23q-2 -5 -6.5 -13t-8.5 -14l-73 -120q-13 -21 -25 -21q-8 0 -20 8l-62 45q-14 13 -14 25t47 90q19 33 36 86.5t17 95.5q-1 34 -20 53t-47 19q-74 0 -132 -31q-86 -47 -149 -135q-59 -80 -90.5 -145.5t-59.5 -163.5q-13 -51 -24.5 -139t-11.5 -136q3 -74 32 -143
q9 -16 21 -16q4 0 8 2q16 6 35 28l20 -10q-51 -98 -96 -158q-43 -61 -84 -81q-20 -9 -37 -9q-14 0 -28 6q-31 15 -50 54q-14 33 -18 87t-4 161q1 80 10.5 132.5t32.5 145.5q33 124 89 245t116 204q75 102 141 155q81 67 170 96q82 31 131 31q75 0 113 -53q14 -19 23.5 -86.5
t17.5 -67.5q38 63 76 108t77 68q52 31 131 31z" />
    <glyph glyph-name="m" unicode="m" horiz-adv-x="696" 
d="M528 465q17 27 27 76q-88 -31 -209 -97.5t-145 -91.5q-23 -20 -39 -73q-8 -25 -8 -60q0 -88 61 -96q54 0 155 122.5t158 219.5zM760 647q-77 -164 -162.5 -309.5t-198.5 -288.5q-47 -59 -147 -59q-44 0 -82 14q-74 29 -129 115q-17 29 -22 62.5t-5 86.5q0 99 94.5 197
t213.5 162q105 57 180 65q37 0 61.5 -16t35.5 -34t11 -24q25 43 90 173q97 221 97 282q0 72 -56 72q-30 0 -133 -62q-132 -83 -151 -122q-2 -5 -2 -7q0 -4 2 -6q2 -8 14 -12t33 -4q20 -2 51 4h10q13 0 13 -6v-4q-5 -17 -97 -54q-73 -28 -112 -28q-11 0 -19 2q-28 8 -65 82
q-23 45 -23 80q0 14 4 26q11 29 58 68q81 70 141 102q18 10 71.5 42.5t84.5 47.5q61 31 131 31q71 0 112 -53q41 -55 41 -154q0 -42 -21 -124t-52.5 -171.5t-71.5 -175.5z" />
    <glyph glyph-name="n" unicode="n" horiz-adv-x="717" 
d="M223 133q49 8 91.5 48.5t84.5 101.5q74 104 74 196q0 84 -63 84q-42 0 -111 -53.5t-127 -153.5q-41 -67 -41 -157q17 -66 92 -66zM664 1307q40 10 81 14t89 4q79 0 112 -10q62 -19 62 -55q0 -35 -17 -72q-16 -33 -35 -43q-18 -12 -67 -29.5t-86 -38.5q-37 -18 -64 -35
q-26 -18 -32 -18q-9 0 -9 6q0 12 29 43q29 27 70 47q43 23 43 29t-101 6q-54 -4 -139 -59q-28 -18 -55 -57t-59.5 -99.5t-47.5 -85.5q-31 -56 -58 -113.5t-40 -81.5q47 15 82 15q96 0 152.5 -58.5t56.5 -160.5q0 -126 -80 -252q-28 -45 -84.5 -93t-125.5 -79t-132 -31
q-64 0 -115 25q-102 48 -102 182q0 46 8 74q29 117 74 211t124.5 230.5t118.5 223.5q24 51 68 120.5t74 100.5q109 115 205 140z" />
    <glyph glyph-name="o" unicode="o" horiz-adv-x="1352" 
d="M1354 561q0 -217 -86 -373l30 -30q-81 -103 -143 -150q-61 -47 -90 -47q-25 0 -25 43q0 89 97 238q23 36 45.5 95t36.5 111.5t14 75.5q0 34 -19 53t-49 19q-43 0 -118 -43q-78 -44 -154 -168q0 -2 6 -20q4 -18 4 -23q-3 -8 -14 -27l-74 -120q-12 -21 -24 -21q-9 0 -21 8
l-61 45q-15 13 -15 25t47 90q9 14 23 47t22.5 67.5t8.5 67.5q-1 34 -20 53t-48 19q-43 0 -119 -43q-78 -43 -162 -111q-82 -70 -153 -170q-55 -73 -55 -131q0 -7 14 -14q8 -4 20 -4q25 0 78 29q6 2 21 11t20 9q0 -9 -28 -42.5t-64 -63.5q-76 -68 -113 -68q-30 0 -86 55
q-55 51 -55 97q0 16 31 79q30 66 84 146q59 84 135 164q72 75 154 123q111 64 169 83q82 31 132 31q71 0 112 -53q8 -9 13 -31t10.5 -55t9.5 -50.5t8 -17.5q38 63 77 108t77 68q52 31 131 31q72 0 112 -53q51 -70 54 -162z" />
    <glyph glyph-name="p" unicode="p" horiz-adv-x="870" 
d="M492 532q-39 7 -111 7q-98 0 -158 20q-59 23 -59 68q0 7 20 51q21 41 47 55q25 12 45 15q23 0 23 -9q-2 -9 -25 -16l-12 -6q-4 -4 -4 -10q0 -15 115 -15q100 0 164 8q65 11 114 33q18 8 34.5 22.5t28 32t15.5 35.5q4 22 4 31q0 36 -33 61q-18 15 -65 35q-49 17 -72 29
q-162 84 -162 180q9 75 88 125q84 51 205 72q35 4 62 4q28 2 49 -4q37 -8 41 -39q2 -23 2 -41q0 -23 -4 -37q-6 -29 -17 -39q-12 -12 -36 -31q-29 -18 -50.5 -36.5t-35.5 -36.5q-13 -19 -19 -19q-2 0 -2 6v4q0 13 10 33q15 25 39 47q25 21 25 27t-15 6q-8 0 -18 -2
q-17 -3 -55 -7t-63.5 -12.5t-41.5 -27.5q-10 -10 -10 -27q0 -37 98 -86q82 -41 121 -86q29 -30 49 -88q8 -19 8 -57q0 -37 -12 -66q-17 -33 -27 -46.5t-40 -41.5q-17 -14 -34.5 -29.5t-33.5 -23.5q103 -7 160 -80q50 -69 53 -131q0 -116 -41 -192q-23 -45 -90 -101
q-50 -37 -100 -59q-41 -17 -105 -33q-61 -16 -135 -24.5t-141 -8.5q-121 0 -197 23q-74 22 -74 72q0 18 25 65q27 43 59 59q31 13 58 15q28 0 28 -8q-4 -10 -30 -19q-15 -4 -17 -6q-6 -4 -6 -10q0 -15 143 -15q127 0 207 9q80 10 144 34q30 11 62.5 41.5t53.5 59.5
q21 26 21 63q0 58 -62.5 107t-207.5 71z" />
    <glyph glyph-name="q" unicode="q" horiz-adv-x="840" 
d="M541 268q37 66 59.5 107.5t57.5 106.5t61 112q57 104 110 192q-131 -52 -249 -124v81q36 31 73 62t82 65q45 35 94 68q50 31 111 66q55 -80 55 -154q0 -39 -18 -88q-16 -49 -45 -113q-31 -63 -74 -157q-63 -107 -143 -224h153l-112 -174q-27 -2 -66 -4q-41 0 -90 -2
q-66 -85 -141 -166.5t-146 -150.5q-143 -142 -260 -226q-116 -86 -164 -86q-18 0 -32.5 12.5t-14.5 32.5q0 17 45 87.5t123 132.5q80 59 180 67q41 43 72 76q29 33 82 98q22 24 50.5 67t37.5 54l-285 -2q-21 0 -52 -16.5t-36 -16.5q-18 6 -18 33l10 27q10 24 21 43
q16 28 26 34q8 7 54 17l184 45q73 18 102 18h103z" />
    <glyph glyph-name="r" unicode="r" horiz-adv-x="1331" 
d="M1333 561q0 -219 -86 -373l31 -30q-82 -103 -143.5 -150t-90.5 -47q-24 0 -24 43q0 88 96 238q23 36 45.5 95t36.5 111.5t14 75.5q0 36 -19 54t-48 18q-43 0 -119.5 -43.5t-153.5 -167.5q0 -4 2.5 -9.5t4.5 -10.5q4 -18 4 -23q-2 -5 -6.5 -13t-8.5 -14l-73 -120
q-13 -21 -25 -21q-8 0 -20 8l-62 45q-14 13 -14 25t47 90q19 33 36 86.5t17 95.5q-1 34 -20 53t-47 19q-43 0 -119 -43q-78 -43 -162 -111q-84 -72 -154 -170q-55 -73 -55 -131q0 -7 14 -14q9 -4 21 -4q25 0 78 29q4 2 19.5 11t21.5 9q0 -9 -28 -42.5t-64 -63.5
q-76 -68 -113 -68q-31 0 -86 55q-55 51 -55 97q0 16 30 79q31 66 84 146q59 84 135 164q70 73 154 123q110 63 170 83q82 31 131 31q72 0 113 -53q14 -19 23.5 -86.5t17.5 -67.5q38 63 76 108t77 68q52 31 131 31q72 0 113 -53q50 -69 53 -162zM1407 1098q0 -44 -35 -103
q-33 -57 -74 -100q-41 -45 -65 -45q-27 0 -27 29q2 8 2 14v14q0 13 -8 15q-8 0 -20 -9q49 74 67 113q21 45 21 64q0 22 -18.5 46t-49.5 27q-162 0 -319 -53q-150 -52 -232 -94q-143 -77 -272 -162q51 -9 133 -29q7 -2 35 -7t34.5 -7.5t6.5 -11.5q0 -11 -21 -19
q-22 -6 -73 -16q-31 -4 -62 -16q-33 -15 -74 -33q-43 -21 -63 -29q-25 -10 -39 -10q-55 0 -55 67v88q6 76 28 117q35 65 97 105q81 51 219 112q131 59 268 107q148 53 328 53q134 -6 198 -59q70 -58 70 -168z" />
    <glyph glyph-name="s" unicode="s" horiz-adv-x="748" 
d="M164 250q5 71 42 147t77 123q61 76 137 172t112 150q39 51 130 180q83 123 118 180q35 58 35 82q0 14 -20 25q-23 12 -58 14v0q-30 0 -110 -84q-82 -86 -205 -252q-181 -238 -301 -428q-71 -112 -98 -201q-19 -60 -19 -141q6 -161 131 -221q39 -19 158 -19q55 0 113 7
q59 6 108 20q51 12 84 25q39 18 68 45q28 28 45 59q14 33 14 66q0 45 -39 84q-37 36 -119 71q-51 22 -74.5 37t-23.5 35q0 12 10 23q24 24 56 29.5t104 10.5q31 0 33 -4q0 -6 -27 -22q-22 -21 -37 -41q-12 -19 -12 -27v-4q0 -4 4 -4t18 14q15 17 37 31q21 17 50 31
q24 16 36 26q9 9 17 33q4 10 4 27q0 16 -4 39q-2 26 -41 33q-21 4 -47 4q-27 0 -62 -4q-58 -7 -95.5 -19.5t-76.5 -40.5q-28 -20 -52.5 -56t-27.5 -63q0 -49 30 -79.5t91 -59.5q25 -9 64 -29q41 -15 41 -45q-6 -34 -43 -65t-88 -39q-54 -8 -113 -8q-35 0 -53 2
q-56 6 -88.5 43t-32.5 88z" />
    <glyph glyph-name="t" unicode="t" horiz-adv-x="1126" 
d="M709 82q8 -36 8 -78q0 -125 -74 -242.5t-151 -187.5q-35 -32 -107 -66t-143 -45q-65 -10 -113 -10q-111 0 -158 23q-125 60 -131 221q0 81 19 141q27 89 98 201q48 76 101 153t101.5 143.5t98.5 131.5q52 71 96 120.5t101 106.5q80 84 110 84v0q35 -2 58 -14
q20 -10 20 -25q0 -24 -35 -82q-35 -57 -119 -180q-28 -41 -72 -95.5t-48 -59.5q-15 -21 -53.5 -68t-67.5 -82q-17 -21 -45.5 -59.5t-49 -67t-34.5 -45.5q-40 -47 -77 -123t-42 -147q0 -51 32.5 -88t88.5 -43q20 -2 57 -2q63 0 92 8q30 7 55.5 23.5t50.5 40t42 40.5
q59 52 98 130.5t39 164.5q0 52 -10 88q-10 41 -10 88q0 103 43 191t110 151q68 62 143 96q76 33 146 33q80 0 129 -37q49 -39 49 -100q0 -82 -41 -145q-43 -64 -106 -115q-66 -51 -160 -109q-27 -17 -50.5 -26.5t-47.5 -18t-41 -18.5zM713 260v-41q143 80 223 170t80 143
q0 46 -45 46q-41 0 -105 -48q-63 -49 -106 -122q-47 -74 -47 -148z" />
    <glyph glyph-name="u" unicode="u" horiz-adv-x="963" 
d="M293 397q-5 -8 -30 -38.5t-44 -57.5q-43 -59 -61 -80q-17 -20 -35 -20q-37 0 -68 63q-30 66 -30 150q0 36 20 106q15 47 50.5 98t66.5 82q41 41 88 41q29 0 49 -10q20 -12 20 -33q0 -20 -36 -69q-37 -47 -93 -99q-26 -43 -26 -61q0 -27 20 -27q24 0 86 70
q32 36 78.5 77.5t95.5 82t74 59.5q70 53 119 53q31 0 50.5 -22.5t19.5 -54.5q0 -23 -31 -80q-29 -58 -86 -142q-60 -84 -150 -204q138 120 238 213q98 90 156 141q55 53 98 88q43 37 55 37q23 0 45 -47q21 -49 21 -78q0 -19 -43 -90q-35 -56 -107 -189.5t-136 -253
t-137.5 -250.5t-109.5 -186q2 -10 6 -20q4 -13 4 -23q0 -2 -2 -6l-8 -12t-4 -8l-74 -121q-12 -21 -24 -21t-21 8l-61 45q-14 13 -14 25t47 90q115 191 155 264q46 85 86 162q16 31 56.5 111t72 142t70 139t59.5 122q-102 -82 -180 -160q-80 -77 -129 -133q-51 -59 -80 -92
q-55 -61 -104 -61q-51 0 -51 73q0 31 38 109q39 76 111 197q6 8 6 24q0 21 -20 21q-7 0 -40 -22.5t-67.5 -54.5t-58.5 -67z" />
    <glyph glyph-name="v" unicode="v" horiz-adv-x="717" 
d="M432 16q20 34 33.5 63t13.5 54q0 22 -8 35q-9 19 -33.5 45.5t-36.5 43.5t-12 42q6 40 57 98q31 34 60 87t29 85q0 7 -5 17q-11 26 -41 32q-79 0 -202 -45q-62 -21 -131 -67q45 -13 100 -41q25 -12 25 -29q0 -4 -2 -8q-3 -12 -9 -14h-18q-12 -2 -31 -2q-22 0 -80 -2
q-57 -2 -61 -2q-19 4 -19 28q0 10 2 23q9 37 37 94q27 59 60 106q35 46 61 62q35 18 103 31q161 22 200 24q78 0 140 -14q30 -6 43 -21q9 -11 12 -32q4 -42 4 -82q0 -29 -24.5 -79t-59.5 -91q-14 -16 -37 -40.5t-44 -48t-26 -30.5q-12 -17 -12 -39q3 -39 47 -59
q68 -33 68 -105q0 -29 -14 -61q-31 -70 -63 -121t-76 -109.5t-130 -177.5q0 -2 6 -20q4 -13 4 -23q0 -2 -2 -6l-8 -12t-4 -8l-74 -121q-12 -21 -24 -21t-21 8l-61 45q-14 13 -14 25t47 90q24 39 78.5 129.5t76.5 134.5q22 38 42.5 71t33.5 58z" />
    <glyph glyph-name="w" unicode="w" horiz-adv-x="1024" 
d="M223 133q49 8 91.5 48.5t84.5 101.5q74 104 74 196q0 84 -63 84q-42 0 -111 -53.5t-127 -153.5q-41 -67 -41 -157q17 -66 92 -66zM1186 918q-28 -56 -60 -122t-61 -116.5t-43 -50.5q-31 0 -51 22q-19 23 -19 56q0 22 31 79q29 58 86 142q59 84 150 205q-29 -25 -90 -73
t-119 -94t-90 -75q-56 -53 -99 -88q-43 -37 -55 -37q-23 0 -45 47q-21 49 -21 78q0 20 64 90q33 41 33 88q0 27 -19 43q-18 16 -43 16q-28 0 -69 -30q-37 -23 -97 -97.5t-118 -158.5q-63 -89 -111 -183q47 15 82 15q96 0 152.5 -58.5t56.5 -160.5q0 -126 -80 -252
q-28 -45 -84.5 -93t-125.5 -79t-132 -31q-64 0 -115 25q-102 48 -102 184q0 30 8 72q25 122 91 260.5t133 245t134 200.5q105 141 142 180q43 48 137.5 105t206.5 57q33 0 63 -6q38 -7 54 -25q20 -22 20 -57t-12 -70q-13 -34 -37 -81q-13 -26 -33 -67.5t-31 -59.5
q73 49 201 167q27 25 49.5 45.5t40.5 38t21 21.5q55 61 104 61q51 0 51 -73q0 -31 -39.5 -109t-109.5 -196z" />
    <glyph glyph-name="x" unicode="x" horiz-adv-x="635" 
d="M436 580q-82 -50 -141 -91q-59 -40 -100 -81q-46 -46 -64 -84q-22 -48 -22 -86q0 -23 6 -35q13 -33 31.5 -49.5t60.5 -16.5t143 74q-16 47 -16 90q0 64 26 129q25 66 76 150zM10 338q19 91 63 191t90 175.5t100 151t95 131.5q49 69 104.5 136.5t102.5 115.5q80 84 111 84
v0q35 -2 57 -14q21 -11 21 -25q0 -24 -35 -82q-35 -57 -119 -180q-33 -48 -53.5 -74.5t-49 -64.5t-30.5 -41q-14 -19 -91 -107t-93 -108q28 16 51.5 31t47 28.5t44.5 20.5q32 8 43 8q18 0 35 -10q26 -18 26 -41q0 -21 -22 -46q37 -8 51 -26.5t14 -67.5t-22.5 -121.5
t-61.5 -136.5l19 -18h14q17 0 35 8q16 8 29 18q12 11 57 43v-67q-65 -60 -106 -80q-35 -16 -91 -16h-24q-131 -154 -229 -154q-56 0 -103 37q-49 38 -72 100q-18 55 -18 107q0 36 10 94z" />
    <glyph glyph-name="y" unicode="y" horiz-adv-x="645" 
d="M504 496q6 12 6 24q0 21 -21 21q-22 0 -63 -41q-41 -43 -160 -174q-33 -37 -73 -97q-43 -59 -62 -79q-16 -21 -35 -21q-37 0 -67 64q-31 65 -31 149q0 61 20 107q21 45 64 112q68 96 111 139q40 41 88 41q28 0 49 -10q20 -12 20 -33q0 -20 -37 -69q-37 -47 -92 -99
q-31 -28 -57.5 -71t-26.5 -62q0 -26 21 -26q16 0 86 69q69 70 151 154q82 82 154 137q69 53 119 53q17 0 38.5 -5.5t32.5 -16.5q19 -23 19 -55q0 -23 -31 -80q-34 -55 -110.5 -204t-141 -277.5t-138.5 -267.5t-122 -212q0 -3 -7 -10t-7 -10q4 -13 4 -23q0 -2 -2 -6
q-4 -6 -8.5 -12t-4.5 -8l-73 -121q-13 -21 -25 -21t-20 8l-62 45q-14 13 -14 25t47 90q126 209 156 264q19 36 49 92t36.5 69.5t106 214.5t113.5 233z" />
    <glyph glyph-name="z" unicode="z" horiz-adv-x="696" 
d="M219 125q49 8 89.5 46t86.5 103q74 105 74 197q0 84 -63 84q-42 0 -111 -53.5t-127 -153.5q-41 -67 -41 -158q7 -26 30.5 -45.5t61.5 -19.5zM467 821q-10 -12 -37.5 -46t-51 -64.5t-42.5 -59.5q55 15 82 15q96 0 152.5 -58.5t56.5 -161.5q0 -125 -80 -251
q-27 -46 -83.5 -93.5t-126 -78.5t-132.5 -31q-62 0 -115 24q-50 40 -72 101q-18 55 -18 106q0 37 10 94q20 93 63.5 192.5t89.5 175t100 151t95 131.5q77 104 134 163q-15 19 -41 25q-70 -8 -142 -33q-71 -22 -131 -63q70 -21 101 -37q24 -12 24 -29q0 -4 -2 -8
q-2 -12 -8 -14h-19q-12 -2 -30 -2q-23 0 -80 -2q-58 -2 -62 -2q-18 4 -18 28q0 11 2 23q8 37 37 94q27 59 59 107q35 45 62 61q35 18 102 31q64 10 139 12q78 0 140 -14q30 -7 43 -21q12 -12 12 -33q4 -20 4 -82q0 -52 -84 -170q-36 -49 -68 -94t-65 -86z" />
    <glyph glyph-name="braceleft" unicode="{" horiz-adv-x="854" 
d="M797 -573h-56q-65 0 -98 4q-31 2 -68 20q-51 23 -83 70q-35 45 -50 112q-16 68 -16 158q0 209 -6 299q-8 92 -53 151.5t-150 63.5v164q105 4 150 63q45 60 53 152q6 92 6 301q0 88 16 158q15 67 47 112q33 43 86 68q27 12 56 18q26 7 51 9h59h56v-158h-31q-72 0 -107 -14
q-36 -17 -51 -60q-14 -43 -14 -133v-145q0 -127 -16 -213q-19 -86 -64 -146q-45 -57 -131 -94q82 -39 127 -90q45 -53 65 -139q19 -84 19 -221v-148q0 -90 14 -131q15 -43 51 -59q35 -15 107 -15h31v-157z" />
    <glyph glyph-name="bar" unicode="|" horiz-adv-x="1110" 
d="M530 -514v1894h160v-1894h-160z" />
    <glyph glyph-name="braceright" unicode="}" horiz-adv-x="854" 
d="M168 1350h55q56 0 94 -4q39 -7 72 -23q53 -23 86 -68t49 -112q15 -70 15 -158q0 -207 8 -299q8 -94 51 -154.5t150 -62.5v-164q-107 -4 -150 -63.5t-51 -153.5q-8 -92 -8 -297q0 -90 -15 -158q-16 -67 -51 -112q-33 -47 -84 -70q-37 -16 -74 -20q-36 -4 -92 -4h-55v157
h31q71 0 108 15q35 16 49 59q15 43 15 131v148q0 194 43 296q43 103 166 154q-60 29 -99 66q-41 34 -63 86q-27 51 -35 125q-12 71 -12 176v145q0 88 -15 131q-14 43 -49 60q-37 16 -108 16h-31v158z" />
    <glyph glyph-name="asciitilde" unicode="~" horiz-adv-x="961" 
d="M764 1116q0 6 -6 6q-41 0 -41 41q0 33 26 76q25 45 64 78q39 31 67 31q41 0 41 -54q0 -57 -38 -116q-41 -62 -91 -107q-49 -45 -61 -45q-6 0 -6 6q0 12 22 41q23 27 23 43zM520 1116q0 6 -8 6q-41 0 -41 41q0 33 27 76q24 45 63 78q37 31 68 31q41 0 41 -54
q0 -55 -39 -114q-39 -64 -88 -109t-62 -45q-6 0 -6 6q0 17 21 41q24 31 24 43z" />
    <glyph glyph-name="Agrave" unicode="&#xc0;" horiz-adv-x="1237" 
d="M395 244l330 366l6 502q-94 -14 -184 -49q-90 -37 -162 -78q-23 -13 -117 -88q-14 -11 -27.5 -27t-13.5 -20q0 -10 27 -10q10 0 31 2q18 2 51 4q18 0 18 -6q0 -2 -6 -9q-6 -4 -8 -4q-94 -36 -168 -61q-76 -23 -86 -23q-18 0 -18 23q0 59 34 143q35 82 97 144
q43 45 120 94q78 47 170 86q93 39 185 63q80 19 153 19q26 0 72 -29q25 -18 25 -80q0 -24 -6 -135q-12 -124 -15 -231l207 190q15 14 41.5 44t48.5 56q45 52 64 64q16 12 32 12q35 0 35 -30q0 -41 -82 -187q-30 -16 -73 -24l-283 -320l-33 -543q0 -9 12.5 -14.5t14.5 -7.5
q10 -14 33 -14q28 0 79 28q52 29 136 86q4 2 12 2q18 0 18 -16q0 -25 -63 -100q-66 -76 -150 -136q-84 -59 -153 -59q-51 0 -68.5 39t-17.5 129q0 29 2 57v84q2 56 4 115q0 59 2 147q-119 -127 -197 -217q-75 -90 -114 -139q-11 -12 -11 -29q0 -42 99 -90q82 -43 120 -90
q39 -47 39 -104q0 -41 -14 -82q-16 -39 -47 -74q-27 -33 -68 -55q-32 -17 -82 -33q-49 -16 -108 -25q-59 -8 -113 -8q-98 0 -157.5 22.5t-59.5 71.5q0 19 21 66q20 43 47 59q24 13 45 15q22 0 22 -9q-2 -11 -24 -18q-4 -2 -7 -3t-6 -3q-4 -4 -4 -10q0 -15 115 -15
q100 0 164 9q65 10 115 34q63 29 90 66q0 31 -41 57q-43 26 -66 35q-20 9 -36 15t-35 16q-64 36 -96.5 72.5t-32.5 97.5q3 35 36 85t80 85z" />
  </font>
</defs>
</svg>
