<?xml version="1.0" encoding="UTF-8" standalone="no"?>
<svg
   version="1.0"
   width="100%"
   height="435"
   viewBox="500 350 435 435"
   overflow="visible"
   xml:space="preserve"
   id="svg2">
<style>
   path{
      fill: #efefef;
      cursor: pointer;
      -webkit-transition: all .3s ease-in-out;
      -moz-transition: all .3s ease-in-out;
      -ms-transition: all .3s ease-in-out;
      -o-transition: all .3s ease-in-out;
      transition: all .3s ease-in-out;
   }
   path.active{
      fill: #548c7d;
      cursor: pointer;
      -webkit-transition: all .3s ease-in-out;
      -moz-transition: all .3s ease-in-out;
      -ms-transition: all .3s ease-in-out;
      -o-transition: all .3s ease-in-out;
      transition: all .3s ease-in-out;
   }
   #imereti{
       -webkit-transform: scale(2);
       -moz-transform: scale(2);
       -ms-transform: scale(2);
       -o-transform: scale(2);
       transform: scale(2);
   }
   path:hover{
      fill: #548c7d !important;
      cursor: pointer !important;
      -webkit-transition: all .3s ease-in-out;
      -moz-transition: all .3s ease-in-out;
      -ms-transition: all .3s ease-in-out;
      -o-transition: all .3s ease-in-out;
      transition: all .3s ease-in-out;
   }
</style>

   <g id="imereti">
      <path
         stroke="#fff"
         stroke-width="1"
         stroke-linecap="round"
         sodipodi:nodetypes="csscccccsccscccccccccsccsssccscsccsccsc"
         id="map1"
         d="m 392.752,218.596 c 5.614,3.251 4.455,7.992 6.56,12.259 0.544,1.104 2.349,3.438 2.793,5.07 0.487,1.804 -0.344,4.053 0.171,4.813 1.217,1.732 5.342,0.287 6.646,1.817 1.231,1.418 -1.174,9.425 2.535,10.829 2.907,1.087 4.34,3.466 3.107,6.615 -0.258,0.644 -0.673,0.788 -0.773,0.975 -0.157,0.459 -0.573,1.03 -0.529,1.747 0.028,0.313 0.673,0.529 0.701,0.772 0.258,1.604 0.287,2.148 1.274,2.678 1.489,0.788 7.175,-1.604 7.533,1.046 0.544,4.038 -1.303,6.331 1.919,8.162 3.465,-0.645 7.877,-4.752 9.453,-7.89 1.417,-2.85 1.79,-6.431 4.267,-8.049 0.645,-1.203 1.705,-2.362 1.776,-4.04 0,-0.186 -1.175,-1.016 -1.274,-1.016 l 0,0.015 c -0.3,-1.404 1.26,-3.036 0.988,-4.226 -0.086,-0.428 -0.889,-0.816 -0.931,-1.59 -0.101,-1.303 0.058,-3.337 0.415,-3.908 0.314,-0.473 0.83,-0.359 1.132,-0.602 1.302,-1.047 1.589,-2.378 3.666,-3.667 19.27165,-3.04457 9.92522,-5.03536 14.50895,-18.16331 0.39192,-1.23293 -0.47906,-0.0808 -4.06037,-0.78797 -0.60428,-0.11932 -1.36653,-1.40602 -2.38433,-1.52115 -1.4037,-0.15879 -3.1394,0.83235 -4.22546,0.44556 -2.45692,-0.87503 -3.44658,-2.31474 -4.45399,-2.56698 0.243,-1.245 -7.2038,1.61185 -7.7038,0.37985 -1.848,-0.186 -3.553,-0.458 -4.684,-1.046 -1.347,-0.7 -1.203,-0.314 -1.849,-2.133 -0.215,-0.588 -1.117,-1.561 -2.348,-1.074 -2.334,0.916 -0.688,3.737 -5.5,2.378 -0.343,-0.087 -0.773,-0.215 -1.045,-0.33 -2.334,-1.046 -4.396,-0.272 -5.485,-0.517 -1.132,-0.257 -2.334,-1.46 -3.366,-1.761 -3.336,-0.988 -6.645,0.071 -9.924,-0.988 -1.919,0.702 -3.581,2.478 -5.557,3.651 -1.461,0.863 -2.836,0.191 -3.352,2.224 z"
         style="fill-opacity:1" />
      <path
         stroke="#fff"
         stroke-width="1"
         stroke-linecap="round"
         id="map2"
         d="M385.591,313.045   c1.418-0.515,2.793-1.747,3.925-2.176c2.563-0.975,5.241-0.889,7.676-1.99c0.959-0.445,2.19-0.561,2.807-0.831   c1.332-0.63,2.406-1.547,3.566-1.848c0.644-0.158,1.302-0.043,1.833-0.287c1.647-0.787,2.922-2.806,4.196-3.579   c0.315-0.201,1.002,0.157,1.375,0c0.888-0.373,1.518-1.203,2.42-1.575c1.49-0.631,3.824,0.085,4.225-2.106   c0.143-0.587-2.965-3.379-3.008-3.737c-0.301-2.479,2.105-2.864,4.125-4.239c0.802-0.545,1.073-1.533,2.063-1.805   c2.233-0.644,3.351-2.406,3.307-4.669c-0.027-0.888-1.13-1.261-1.302-1.933c-0.388-1.562,0.974-2.421,1.359-3.438   c0.517-1.273,0.273-1.804,0.53-3.452c-3.222-1.831-1.375-4.124-1.919-8.162c-0.358-2.649-6.044-0.258-7.533-1.046   c-0.987-0.529-1.017-1.073-1.274-2.678c-0.028-0.243-0.673-0.459-0.701-0.772c-0.043-0.717,0.372-1.288,0.529-1.747   c-1.575-0.56-4.912-0.717-5.972,0.501c-0.086,0.1-0.215,1.461-0.615,1.66c-0.788,0.402-5.887,0.602-7.763-0.084   c-1.604-0.588-2.191-1.877-4.339-1.506c-0.544,0.102-1.017,0.529-1.633,0.645c-1.173,0.244-2.563-0.027-3.866,0.044   c-3.109,0.2-5.586,0.615-8.093,0.229c-0.458,0.645-1.203,0.443-1.847,0.987c-0.215,0.186-0.172,0.788-0.415,1.032   c-3.193,3.05-2.421,4.496-2.32,7.732c0.042,1.218,0.315,2.191-0.272,3.58c-0.387,0.902-2.048,1.334-2.563,2.679   c-1.919,4.912-6.059,6.059-13.047,8.322c-3.452,2.147-2.678,8.863-2.077,11.256c1.79,7.031,12.044,8.807,9.839,17.042   c3.107,1.46,6.516-1.045,9.48,0.515C380.035,313.375,382.785,314.092,385.591,313.045z"
         style="fill-opacity:1" />
      <path
         stroke="#fff"
         stroke-width="1"
         stroke-linecap="round"
         id="map3"
         d="M328.535,308.391   c1.017-5.713,7.519-5.24,9.609-9.222c0.845-1.633,0.716-5.101,0.444-5.844c-0.645-1.805-2.635-2.449-3.337-4.196   c-0.559-1.404,0.229-2.505-0.287-3.909c-0.387-1.046-0.759-0.832-1.618-1.747c-0.3-0.331-1.217,0.085-1.633-0.115   c-1.661-0.802-0.931-2.392-1.216-3.638c-0.358-1.504-0.875-2.249-1.089-2.979c-0.101-0.385,0.157-1.547-0.287-2.176   c-1.203-1.776-3.022-1.863-4.554-2.506c-0.458-0.044-0.559,2.592-1.418,3.32c-1.332,1.119-12.674,0.818-14.121,0.317   c-1.532-0.546-1.919-1.978-3.094-1.39c-0.801,0.473-3.035,0.887-4.353,0.315c-1.318-0.588-2.063-2.864-3.624-3.954   c-1.433-1.001-4.983-1.375-6.015-0.387c-1.805,1.733,0.874,4.068-1.375,6.789c1.876,4.54-0.772,9.652,4.296,11.084   c0.402,0.115,1.246-0.931,2.421-0.687c1.303,0.271,2.692,1.689,4.067,3.179c0.659,0.702,0.988,1.763,2.249,2.249   c2.163,0.845,3.552,0,5.7,1.876c1.747,1.52,3.724,0.573,5.513,0.631c0.989,0.027,2.679,0.156,3.094,0.344   c6.502,2.864,2.162,12.043,3.236,18.288c1.218,0.915,2.263,2.063,3.51,2.949c-0.259-0.658,2.735-3.193,3.165-4.152   C328.42,311.483,328.277,309.809,328.535,308.391z" 
         style="fill-opacity:1" />
      <path
         stroke="#fff"
         stroke-width="1"
         stroke-linecap="round"
         id="map4"
         d="M281.131,278.187   c0.311-0.126,0.826-0.379,1.089-0.701c-0.07-0.01,0.33-2.048,0.486-2.12c2.148-1.174,6.474,0.602,7.862,1.705   c2.249-2.721-0.429-5.056,1.375-6.789c1.031-0.988,4.582-0.614,6.015,0.387c1.561,1.09,2.306,3.366,3.624,3.954   c1.318,0.571,3.552,0.157,4.353-0.315c-0.314-2.993,2.435-8.564-2.262-8.966c-0.588-2.378,4.182-3.666,2.506-6.043   c-1.447-2.049-10.312,2.334-6.431-3.095c1.705-2.377,4.153-3.136,3.839-4.812c-0.444-2.464-1.146-4.469-0.903-7.419   c0.085-1.016,0.215-1.976,0.287-2.734c-2.993-0.76-2.592,2.506-3.223,4.211c-0.243-0.073-0.888,0.257-1.16-0.058   c-1.661-1.892-2.177-3.208-4.139-3.438c-1.088-0.113-2.12,0.102-3.608,1.219c-0.144,0.113-0.058,1.074-0.129,1.26   c-1.017,2.592-3.853,2.734-5.643,0.974c-0.945-0.932-0.63-2.005-1.475-2.507c-0.573-0.344-3.18,0.059-2.908-0.558   c-2.091,2.191-3.451,3.723-3.766,7.132c-0.144,1.533,0.201,4.167,0.071,6.001c-0.071,1.317,1.432,2.335,1.604,3.852   c0.129,1.047-0.758,2.091-0.945,2.923c-0.2,0.83,0.358,1.576,0.028,2.435c-0.701,1.891-3.021,3.079-5.585,2.29   c-0.988-0.301-1.274-1.646-2.907-1.774c-0.501,0.701-0.271,3.149-0.83,4.267c-0.058,0.129-0.716,0.631-0.716,0.76   c0.058,1.446,1.704,3.896,2.406,4.682c1.346,0.617,4.325,0.932,5.929,1.592C277.436,277.084,279.455,278.89,281.131,278.187z"
         style="fill-opacity:1" />
      <path
         stroke="#fff"
         stroke-width="1"
         stroke-linecap="round"
         id="map5"
         d="M358.968,298.052   c-0.602-2.393-1.375-9.108,2.077-11.256c-1.275-3.182-4.913-2.766-6.989-3.511c-7.576-2.764-2.463-10.283-9.108-9.279   c-1.518-2.248-0.301-8.979-1.547-10.513c-1.16-1.419-3.179-0.845-5.499-1.36c-0.33,0.101-0.988,0.387-1.418,0.529   c-2.363,1.246-3.78,0.23-5.384,0.875c-4.053,1.632-4.039,6.443-6.531,8.521c1.532,0.643,3.351,0.729,4.554,2.506   c0.444,0.629,0.186,1.791,0.287,2.176c0.214,0.73,0.73,1.476,1.089,2.979c0.286,1.246-0.444,2.836,1.216,3.638   c0.416,0.2,1.333-0.216,1.633,0.115c0.859,0.915,1.231,0.701,1.618,1.747c0.516,1.404-0.272,2.505,0.287,3.909   c0.702,1.747,2.692,2.392,3.337,4.196c0.272,0.743,0.401,4.211-0.444,5.844c-2.091,3.981-8.592,3.509-9.609,9.222   c-0.258,1.418-0.115,3.093-0.716,4.44c-0.43,0.959-3.423,3.494-3.165,4.152c0.429,0.56,2.52,0.803,3.837,0.961   c3.265,0.415,5.757-0.188,8.636-2.435c0.516-0.416,0.172-1.146,0.63-1.433c2.506-1.576,4.239,1.246,6.474,2.004   c0.357,0.13,1.103-0.2,1.39-0.172c1.03,0.101,1.618,0.803,2.677,0.661c0.645-0.088,1.92-1.922,3.208-1.548   c0.63,0.187,1.045,0.974,1.432,1.417c2.12,1.591,3.866,3.009,5.499,0.789c1.661-2.234,1.332-2.32,4.984-2.465   c2.02-0.07,2.463,0.416,5.385,0.33C371.013,306.858,360.758,305.083,358.968,298.052z"
         style="fill-opacity:1" />
      <path
         stroke="#fff"
         stroke-width="1"
         stroke-linecap="round"
         id="map6"
         d="M383.257,248.656   c-0.129-0.486-0.43-2.019-1.432-2.792c-2.219-1.748-6.789,0.902-7.791-3.337c-3.05,1.861-0.487,7.174-5.8,7.934   c-1.633,0.244-4.167,0.129-5.155,1.304c-1.089,1.273-0.344,5.026-0.874,6.186c-0.801,1.747-1.791,2.378-3.938,1.936   c-2.363-0.503-3.594-0.703-7.304-1.863c-1.017,0.529-0.53,2.406-1.977,2.448c-2.076-2.993-10.483-1.059-11.084,1.662   c2.32,0.516,4.339-0.059,5.499,1.36c1.246,1.533,0.029,8.265,1.547,10.513c6.646-1.004,1.532,6.516,9.108,9.279   c2.077,0.745,5.714,0.329,6.989,3.511c6.988-2.264,11.127-3.41,13.047-8.322c0.515-1.345,2.176-1.776,2.563-2.679   c0.587-1.389,0.315-2.362,0.272-3.58c-0.101-3.236-0.873-4.683,2.32-7.732c0.243-0.244,0.2-0.847,0.415-1.032   c0.644-0.544,1.389-0.343,1.847-0.987C380.236,258.152,384.36,252.823,383.257,248.656z"
         style="fill-opacity:1" />
      <path
         stroke="#fff"
         stroke-width="1"
         stroke-linecap="round"
         id="map7"
         d="M348.986,260.471   c1.447-0.042,0.96-1.919,1.977-2.448c3.709,1.16,4.94,1.36,7.304,1.863c2.148,0.442,3.137-0.188,3.938-1.936   c0.53-1.159-0.215-4.912,0.874-6.186c0.988-1.175,3.522-1.06,5.155-1.304c5.313-0.76,2.75-6.072,5.8-7.934   c0.215-2.749,0.186-5.671-0.387-8.321c-4.225,4.512-12.388,1.16-17.444,2.85c-2.606,0.889-4.583,3.381-6.272,4.039   c-2.979,1.146-4.339-1.503-5.643-2.778c-2.692-2.621-7.046-2.521-8.966-1.476c-0.601,3.81,4.683,1.117,5.944,3.193   c1.49,2.464-2.95,4.254-3.523,7.033c-0.114,0.571-0.301,1.303-0.086,2.233c0.115,0.502,1.504,0.773,1.861,1.391   c1.046,1.789,0.244,4.324-0.587,5.77c-0.616,1.104-2.349,0.803-2.907,2.636c-0.387,1.303,0.157,1.633,0.458,3.565   c0.431-0.143,1.089-0.429,1.418-0.529C338.503,259.412,346.91,257.478,348.986,260.471z"
         style="fill-opacity:1" />
      <path
         stroke="#fff"
         stroke-width="1"
         stroke-linecap="round"
         id="map8"
         d="M336.025,259.097   c0.559-1.833,2.292-1.532,2.907-2.636c0.831-1.445,1.633-3.98,0.587-5.77c-0.357-0.617-1.747-0.889-1.861-1.391   c-0.215-0.931-0.028-1.662,0.086-2.233c0.573-2.779,5.013-4.569,3.523-7.033c-1.261-2.076-6.545,0.616-5.944-3.193   c-0.042-0.058-0.171-0.071-0.214-0.143c-1.589-2.679-2.249-9.896-1.919-11.343c0.401-1.747,2.12-4.598,4.025-4.554   c2.951,0.085,2.592,0.357,4.568-2.407c2.034-2.835,5.929-5.47,6.803-7.218c0.716-1.46,0.128-3.078,0.831-3.953   c-1.475-1.03-3.352-1.303-4.999-2.033c-0.586,1.919-3.121,3.71-5.083,2.378c-2.435-0.602-3.107-4.025-5.342-4.097   c-2.822-0.085-4.583,3.796-5.514,4.54c-1.876,1.519-4.411,1.992-7.275,2.02c-1.804,3.91-2.12,7.004-2.363,9.538   c-0.344,3.753-2.148,2.592-5.6,4.081c-5.986,2.621-3.752,6.302-2.592,10.871c-0.587,1.188-2.105,0.415-2.993,0.802   c-2.478,1.074-2.363,3.91-4.683,5.915c-0.071,0.759-0.201,1.719-0.287,2.734c-0.244,2.95,0.458,4.955,0.903,7.419   c0.314,1.676-2.134,2.435-3.839,4.812c-3.881,5.429,4.984,1.046,6.431,3.095c1.676,2.377-3.094,3.665-2.506,6.043   c4.697,0.401,1.947,5.973,2.262,8.966c1.175-0.588,1.562,0.844,3.094,1.39c1.447,0.501,12.79,0.802,14.121-0.317   c0.859-0.729,0.96-3.364,1.418-3.32c2.492-2.078,2.478-6.89,6.531-8.521c1.604-0.645,3.021,0.371,5.384-0.875   C336.182,260.729,335.638,260.399,336.025,259.097z"
         style="fill-opacity:1" />
      <path
         stroke="#fff"
         stroke-width="1"
         stroke-linecap="round"
         id="map9"
         d="M414.564,259.999   c1.232-3.149-0.2-5.528-3.107-6.615c-3.709-1.404-1.304-9.411-2.535-10.829c-1.304-1.53-5.428-0.085-6.646-1.817   c-0.516-0.76,0.315-3.009-0.171-4.813c-0.444-1.633-2.249-3.967-2.793-5.07c-2.105-4.267-0.946-9.008-6.56-12.259   c-2.291,1.662-3.222,4.368-5.643,5.757c-0.659,0.372-1.317,0.187-2.062,0.573c-1.861,0.974-2.922,1.876-4.482,2.048   c-0.902,0.114-1.403-1.146-2.908-0.932c0.015,0-2.807,2.035-3.494,1.92c0.057,2.105,0.015,4.21-0.516,6.244   c0.573,2.65,0.602,5.572,0.387,8.321c1.002,4.239,5.572,1.589,7.791,3.337c1.002,0.773,1.303,2.306,1.432,2.792   c1.103,4.167-3.021,9.496-1.748,13.807c2.507,0.386,4.984-0.029,8.093-0.229c1.303-0.071,2.692,0.2,3.866-0.044   c0.616-0.115,1.089-0.543,1.633-0.645c2.148-0.371,2.736,0.918,4.339,1.506c1.876,0.686,6.975,0.486,7.763,0.084   c0.4-0.199,0.529-1.561,0.615-1.66c1.06-1.218,4.397-1.061,5.972-0.501C413.891,260.787,414.306,260.643,414.564,259.999z"
         style="fill-opacity:1" />
      <path
         stroke="#fff"
         stroke-width="1"
         stroke-linecap="round"
         id="map10"
         d="M307.654,235.323   c0.888-0.387,2.406,0.386,2.993-0.802c-1.16-4.569-3.394-8.25,2.592-10.871c3.452-1.489,5.256-0.328,5.6-4.081   c0.243-2.534,0.559-5.628,2.363-9.538c-0.788-3.179-2.678-5.757-2.076-9.638c0.443-2.864,3.38-6.502-1.045-6.517   c-1.547,1.231-3.38,1.561-5.399,1.962c-1.218,0.243-3.81,0.186-4.469,0.745c-0.573,0.486-0.072,2.119-0.645,3.093   c-0.587,0.988-3.223,1.217-4.712,4.338c-0.458,0.946,0.086,1.82-0.1,2.278c-0.687,1.805-2.521,1.575-3.351,2.864   c-0.544,0.846-0.773,3.408-0.874,3.767c-0.416,1.618-1.632,2.521-1.705,3.122c-0.071,0.601,0.86,1.847,0.674,2.363   c-0.243,0.716-0.874,1.059-1.819,2.162c-0.831,1.003-1.619,2.605-2.249,3.266c-0.487,0.501-1.389,0.644-1.847,1.245   c-0.888,1.146-0.946,2.679-1.949,3.738c-0.4,0.415-0.944,0.443-1.273,0.901c-1.49,2.048-2.435,4.598-4.183,6.475   c-0.458,2.406-2.434,4.095-3.495,6.144c-0.272,0.616,2.334,0.214,2.908,0.558c0.845,0.502,0.53,1.575,1.475,2.507   c1.79,1.761,4.625,1.618,5.643-0.974c0.072-0.186-0.014-1.146,0.129-1.26c1.488-1.117,2.521-1.332,3.608-1.219   c1.962,0.23,2.478,1.547,4.139,3.438c0.272,0.314,0.917-0.016,1.16,0.058c0.63-1.705,0.229-4.971,3.223-4.211   C305.291,239.233,305.177,236.397,307.654,235.323z"
         style="fill-opacity:1" />
      <path
         stroke="#fff"
         stroke-width="1"
         stroke-linecap="round"
         id="map11"
         d="M341.782,218.395   c-1.976,2.765-1.618,2.492-4.568,2.407c-1.905-0.044-3.624,2.807-4.025,4.554c-0.329,1.446,0.33,8.664,1.919,11.343   c0.043,0.071,0.172,0.085,0.214,0.143c1.92-1.045,6.274-1.146,8.966,1.476c1.303,1.275,2.664,3.924,5.643,2.778   c1.69-0.658,3.667-3.15,6.272-4.039c5.056-1.689,13.219,1.662,17.444-2.85c0.53-2.034,0.573-4.139,0.516-6.244   c-2.134,0.4-3.953-1.862-5.256-2.807c-2.048-1.476-3.708-2.278-6.115-1.519c-2.435,0.745-4.296-1.719-4.009-3.365   c0.272-1.661,3.136-1.719,3.479-2.692c0.56-1.618-2.921-4.728-4.195-5.987c-3.137-3.05-5.772-4.324-8.651-4.368   c-0.702,0.875-0.114,2.493-0.831,3.953C347.711,212.925,343.816,215.56,341.782,218.395z"
         style="fill-opacity:1" />
   </g>
</svg>