<?xml version="1.0" encoding="UTF-8"?><svg xmlns="http://www.w3.org/2000/svg" width="100%" height="100%"><defs><font id="web" horiz-adv-x="1177"><!--



NOTICE: This font software is the valuable property 
of Webtype LLC, The Font Bureau, Webtype and/or its 
suppliers and its use by you is covered under the terms 
of the Web Font license agreement between you and Webtype 
LLC. You may ONLY use this font software with the licensed 
web site. Except as specifically permitted by the license, 
you may not copy this font software. If you have any 
questions, please contact Webtype.com. 

For more information, please visit http://www.webtype.com/store/license/?id=23

Licensed to: toyota-europe.com

Serial number: SH-917
--><font-face font-family="" units-per-em="2048" panose-1="2 0 5 3 4 0 0 2 0 3" ascent="2314" descent="-739" alphabetic="0"/><missing-glyph horiz-adv-x="1024"/><glyph unicode=" " horiz-adv-x="461"/><glyph unicode="!" horiz-adv-x="627" d="M154 0V299H473V0H154ZM154 944V1495H473V944L426 410H201L154 944Z"/><glyph unicode="&quot;" horiz-adv-x="922" d="M102 1194V1495H397V1194L342 907H158L102 1194ZM524 1194V1495H819V1194L764 907H580L524 1194Z"/><glyph unicode="#" horiz-adv-x="1405" d="M123 383V610H317L342 891H123V1118H362L395 1495H651L618 1118H852L885 1495H1141L1108 1118H1282V891H1087L1063 610H1282V383H1042L1010 0H754L786 383H553L520 0H264L297 383H123ZM573 610H807L831 891H598L573 610Z"/><glyph unicode="$" horiz-adv-x="1407" d="M66 272L264 465Q328 399 421 344T625 270V645Q389 690 270 775Q113 886 113 1081Q113 1263 259 1373Q399 1478 625 1495V1638H801V1495Q1045 1471 1294 1262L1106 1065Q986 1189 801 1225V905Q1051 851 1170 767Q1331 653 1331 446Q1331 334 1287 255T1170 122Q1028 18 801 0V-205H625V0Q305 27 66 272ZM420 1081Q420 1028 477 998T625 944V1229Q420 1211 420 1081ZM801 266Q1024 299 1024 422Q1024 496 971 538T801 608V266Z"/><glyph unicode="%" horiz-adv-x="1577" d="M76 1133Q76 1298 165 1408Q255 1520 389 1520Q525 1520 613 1406Q698 1296 698 1136Q698 1055 675 984T609 860Q520 748 383 748Q262 748 175 843Q76 951 76 1133ZM133 0L1155 1495H1444L422 0H133ZM287 1339T287 1134T383 928Q485 928 485 1133Q485 1272 434 1321Q416 1339 387 1339Q287 1339 287 1134ZM893 360Q893 526 982 636Q1072 748 1206 748Q1344 748 1430 634Q1516 521 1516 364Q1516 283 1492 212T1426 88Q1336 -25 1200 -25Q1080 -25 992 71Q893 179 893 360ZM1104 360Q1104 156 1200 156Q1303 156 1303 360Q1303 497 1252 548Q1233 567 1205 567T1157 550T1126 504Q1104 450 1104 360Z"/><glyph unicode="&amp;" horiz-adv-x="1413" d="M45 426Q45 621 226 770Q279 813 334 850Q258 940 231 987Q180 1079 180 1164T214 1313T303 1424Q418 1520 582 1520Q743 1520 864 1421Q989 1319 989 1163Q989 1001 822 878Q774 842 721 809L997 463Q1068 534 1161 643L1341 440Q1262 340 1165 252L1368 0H1016L946 86Q756 -25 569 -25Q365 -25 209 100Q45 232 45 426ZM360 442Q360 348 439 288Q513 231 610 231Q692 231 784 289L487 659Q360 555 360 442ZM467 1219T467 1177T499 1090T571 997Q633 1038 673 1080T713 1175T676 1260T589 1292T503 1256Z"/><glyph unicode="'" horiz-adv-x="512" d="M102 1194V1495H397V1194L342 907H158L102 1194Z"/><glyph unicode="(" horiz-adv-x="741" d="M82 596Q82 905 259 1166Q422 1407 676 1520V1247Q559 1116 499 964T438 597T492 220T676 -92V-367Q387 -225 235 18T82 596Z"/><glyph unicode=")" horiz-adv-x="741" d="M66 -92Q195 57 249 220T303 597T243 963T66 1247V1520Q322 1403 482 1166Q659 905 659 584T507 19T66 -367V-92Z"/><glyph unicode="*" horiz-adv-x="872" d="M51 1169L90 1292L332 1255L371 1495H498L535 1255L776 1292L821 1171L604 1057L711 842L608 764L434 936L262 766L158 840L266 1059L51 1169Z"/><glyph unicode="+" horiz-adv-x="1110" d="M72 545V811H418V1141H692V811H1038V545H692V215H418V545H72Z"/><glyph unicode="," horiz-adv-x="512" d="M39 -213Q102 -117 102 25V309H397V76Q397 -39 349 -137T233 -328L39 -213Z"/><glyph unicode="-" horiz-adv-x="778" d="M82 418V688H696V418H82Z"/><glyph unicode="." horiz-adv-x="512" d="M102 0V309H410V0H102Z"/><glyph unicode="/" horiz-adv-x="909" d="M41 0L561 1495H868L350 0H41Z"/><glyph unicode="0" horiz-adv-x="1317" d="M53 754Q53 1092 210 1300Q375 1520 651 1520Q929 1520 1092 1300Q1251 1088 1251 751Q1251 584 1210 442T1092 196Q930 -25 651 -25Q374 -25 210 196Q53 407 53 754ZM393 754Q393 425 523 300Q573 252 651 252Q911 252 911 754Q911 1076 779 1197Q729 1243 649 1243T519 1197T442 1080Q393 953 393 754Z"/><glyph unicode="1" horiz-adv-x="819" d="M41 952V1194Q183 1212 268 1271Q374 1344 440 1495H680V0H352V1065Q259 972 41 952Z"/><glyph unicode="2" horiz-adv-x="1188" d="M47 0L676 850Q748 951 759 1019Q764 1049 764 1102T721 1204T604 1253Q395 1253 395 1044V1012H88V1044Q88 1271 246 1402Q387 1520 604 1520Q811 1520 948 1411Q1092 1296 1092 1087Q1092 973 1051 889T950 727L604 276H1079V0H47Z"/><glyph unicode="3" horiz-adv-x="1225" d="M33 197L207 401Q359 262 567 262Q670 262 740 314T811 465T739 602T530 641H438V907H567Q672 907 723 945T774 1067T714 1192T561 1233T402 1214T268 1139L115 1354Q285 1488 460 1512Q524 1520 608 1520T782 1491T943 1410Q1102 1294 1102 1118Q1102 1006 1047 922T889 799Q1006 766 1072 675T1139 469T1099 265T985 112Q828 -25 567 -25Q240 -25 33 197Z"/><glyph unicode="4" horiz-adv-x="1210" d="M31 365V557L705 1495H967V610H1139V365H967V0H639V365H31ZM324 610H639V1055L324 610Z"/><glyph unicode="5" horiz-adv-x="1229" d="M61 158L238 379Q381 262 541 262Q646 262 719 337Q795 415 795 526Q795 645 720 716Q654 778 575 778Q406 778 303 623L113 694L195 1495H1016V1229H442L414 965Q477 1014 536 1029T686 1044T858 1009T998 906Q1122 763 1122 526Q1122 290 950 131Q781 -25 541 -25Q337 -25 154 88Q100 121 61 158Z"/><glyph unicode="6" horiz-adv-x="1229" d="M45 504Q45 802 246 1110Q396 1341 653 1552L850 1323Q739 1240 657 1153Q513 1002 475 907Q560 977 664 986Q698 989 767 989T918 950T1062 846T1159 692T1194 496T1151 291T1029 124Q863 -25 604 -25Q359 -25 200 128Q45 278 45 504ZM373 602T373 494T439 314T617 242T797 313T866 491T797 667T618 737T441 670Z"/><glyph unicode="7" horiz-adv-x="1208" d="M119 1219V1495H1169L489 0H145L745 1219H119Z"/><glyph unicode="8" horiz-adv-x="1303" d="M61 432Q61 685 326 805Q240 858 188 922T135 1094Q135 1286 268 1403T651 1520Q901 1520 1037 1403T1174 1094Q1174 987 1127 923T993 805Q1114 750 1177 658T1241 438T1196 231T1071 94Q903 -25 651 -25Q394 -25 232 96Q61 224 61 432ZM379 461Q379 363 463 301Q542 242 651 242Q761 242 840 301Q924 363 924 461Q924 559 840 616Q764 668 651 668Q539 668 463 616Q379 559 379 461ZM442 1172T442 1090T503 961T651 913Q737 913 801 960T866 1089T802 1217T651 1264Q566 1264 506 1220Q442 1172 442 1090Z"/><glyph unicode="9" horiz-adv-x="1229" d="M33 991Q33 1222 198 1371Q362 1520 623 1520Q867 1520 1026 1367Q1182 1217 1182 992Q1182 881 1151 772T1070 560T957 363T826 188Q687 25 573 -57L377 172Q490 256 571 342Q715 496 752 588Q661 518 562 509Q528 506 460 506T308 544T164 648Q33 790 33 991ZM360 997Q360 896 432 826Q501 758 610 758T786 825T854 1001T788 1181T610 1253T429 1182T360 997Z"/><glyph unicode=":" horiz-adv-x="512" d="M102 0V309H410V0H102ZM102 573V883H410V573H102Z"/><glyph unicode=";" horiz-adv-x="512" d="M39 -213Q102 -117 102 25V309H397V76Q397 -39 349 -137T233 -328L39 -213ZM102 573V883H410V573H102Z"/><glyph unicode="&lt;" horiz-adv-x="799" d="M78 526V803L674 1208V891L313 666L674 438V117L78 526Z"/><glyph unicode="=" horiz-adv-x="1069" d="M113 303V569H956V303H113ZM113 795V1061H956V795H113Z"/><glyph unicode="&gt;" horiz-adv-x="799" d="M125 123V440L485 666L125 893V1214L721 805V528L125 123Z"/><glyph unicode="?" horiz-adv-x="942" d="M31 1354Q189 1520 426 1520Q625 1520 756 1414Q885 1309 885 1137Q885 992 757 828Q721 782 673 724Q551 577 551 446V399H256V446Q256 629 395 807Q426 848 456 886T512 960Q567 1041 567 1103T526 1213T416 1262T296 1228T199 1147L31 1354ZM244 0V299H563V0H244Z"/><glyph unicode="@" horiz-adv-x="1729" d="M92 588T92 747T152 1047T318 1293T564 1459T871 1520T1181 1465T1426 1312Q1636 1107 1636 809Q1636 574 1495 428Q1436 367 1372 338T1262 309Q1109 309 1044 401Q918 309 778 309Q626 309 540 393Q459 472 459 596Q459 740 592 826Q716 907 922 907H1038Q1038 985 1002 1010T842 1036T612 989L549 1155Q606 1190 672 1201Q793 1221 856 1221Q1249 1221 1249 967V496Q1249 449 1298 449Q1376 449 1438 535Q1513 637 1513 779T1468 1029T1339 1216Q1157 1389 866 1389Q598 1389 410 1203Q221 1016 221 739Q221 464 410 279Q498 193 615 144T872 94T1126 150L1176 43Q1026 -25 866 -25T565 35T319 201T153 447ZM678 659T678 605T711 526T849 500T1034 569V729H928Q805 729 742 694Z"/><glyph unicode="A" horiz-adv-x="1454" d="M31 0L565 1495H881L1423 0H1063L948 377H494L377 0H31ZM580 653H866L756 1018Q729 1104 723 1137Q721 1133 712 1095T692 1018L580 653Z"/><glyph unicode="B" horiz-adv-x="1352" d="M154 0V1495H672Q908 1495 1050 1388Q1192 1281 1192 1094Q1192 981 1129 896T967 774Q1101 753 1183 654Q1270 550 1270 406Q1270 324 1231 245T1122 112Q977 0 721 0H154ZM481 276H721Q838 276 885 320T932 442Q932 596 721 596H481V276ZM481 872H641Q870 872 870 1055Q870 1149 811 1184T641 1219H481V872Z"/><glyph unicode="C" horiz-adv-x="1475" d="M82 756Q82 924 141 1064T303 1305T544 1463T844 1520T1134 1469T1378 1298L1194 1083Q1044 1233 840 1233Q650 1233 534 1098Q420 965 420 745T528 393T846 262Q1022 262 1149 366Q1186 397 1223 432L1411 217Q1188 -25 858 -25Q676 -25 535 29T293 186Q82 400 82 756Z"/><glyph unicode="D" horiz-adv-x="1466" d="M154 0V1495H606Q942 1495 1156 1304Q1384 1099 1384 748Q1384 565 1319 425T1144 190Q926 0 606 0H154ZM481 276H606Q806 276 930 418Q1047 551 1047 752Q1047 848 1015 934T924 1082Q797 1219 606 1219H481V276Z"/><glyph unicode="E" horiz-adv-x="1171" d="M154 0V1495H1024V1219H481V868H985V592H481V276H1055V0H154Z"/><glyph unicode="F" horiz-adv-x="1067" d="M154 0V1495H954V1219H481V862H924V586H481V0H154Z"/><glyph unicode="G" horiz-adv-x="1649" d="M82 754Q82 1093 306 1310Q410 1411 548 1465T863 1520T1180 1451T1419 1276L1217 1077Q1073 1233 842 1233Q658 1233 530 1090Q406 951 406 754Q406 551 530 410Q661 262 848 262Q1131 262 1217 477H836V754H1579Q1579 396 1366 180Q1165 -25 848 -25Q682 -25 541 31T298 192Q82 413 82 754Z"/><glyph unicode="H" horiz-adv-x="1483" d="M154 0V1495H481V874H1001V1495H1329V0H1001V598H481V0H154Z"/><glyph unicode="I" horiz-adv-x="635" d="M154 0V1495H481V0H154Z"/><glyph unicode="J" horiz-adv-x="883" d="M72 0V281H176Q293 281 352 342T412 547V1495H739V473Q739 269 592 132Q448 0 242 0H72Z"/><glyph unicode="K" horiz-adv-x="1458" d="M154 0V1495H481V952L965 1495H1370L788 858L1399 0H1001L565 612L481 520V0H154Z"/><glyph unicode="L" horiz-adv-x="1085" d="M154 0V1495H481V276H1014V0H154Z"/><glyph unicode="M" horiz-adv-x="1802" d="M154 0V1495H475L879 766Q889 745 897 724T907 698Q907 709 934 766L1315 1495H1649V0H1321V862Q1321 953 1327 965Q1325 961 1318 943T1300 907L967 295H842L502 907Q482 941 475 965L481 862V0H154Z"/><glyph unicode="N" horiz-adv-x="1610" d="M154 0V1495H436L1096 633Q1112 612 1121 594T1133 571L1128 647V1495H1456V0H1174L514 870Q486 912 477 930L481 856V0H154Z"/><glyph unicode="O" horiz-adv-x="1704" d="M82 594T82 754T137 1054T294 1297T537 1460T854 1520Q1200 1520 1413 1304Q1513 1202 1567 1061T1622 756T1567 450T1410 202T1167 36T850 -25Q676 -25 535 36T293 204T138 452ZM420 754Q420 549 548 404Q673 262 850 262Q1044 262 1168 412Q1284 553 1284 756Q1284 852 1254 939T1166 1092Q1044 1233 854 1233Q667 1233 540 1086Q420 947 420 754Z"/><glyph unicode="P" horiz-adv-x="1247" d="M154 0V1495H649Q903 1495 1048 1380Q1196 1260 1196 1054Q1196 948 1158 863T1050 718Q906 594 649 594H481V0H154ZM481 870H649Q868 870 868 1049Q868 1141 814 1180T649 1219H481V870Z"/><glyph unicode="Q" horiz-adv-x="1704" d="M82 594T82 754T137 1054T294 1297T537 1460T854 1520Q1200 1520 1413 1304Q1622 1091 1622 754Q1622 485 1473 279Q1571 220 1638 203L1505 -37Q1421 -11 1276 94Q1088 -25 850 -25Q676 -25 535 36T293 204T138 452ZM420 754Q420 555 548 408Q606 340 685 301T860 262T1044 309Q999 365 975 410L1149 569Q1165 546 1219 487Q1284 608 1284 728T1254 934T1166 1086Q1039 1233 854 1233Q667 1233 540 1086Q420 947 420 754Z"/><glyph unicode="R" horiz-adv-x="1329" d="M154 0V1495H690Q919 1495 1065 1368Q1204 1247 1204 1064T1111 774T870 625L1268 0H897L481 707V0H154ZM481 858H690Q776 858 826 909T877 1043T823 1172T690 1219H481V858Z"/><glyph unicode="S" horiz-adv-x="1214" d="M80 162L250 391Q315 338 405 300T598 262T739 299T778 397T734 499T627 568T496 622T377 676T277 739T190 822Q113 924 113 1063T159 1284T280 1418Q426 1520 645 1520Q752 1520 868 1489T1077 1391L930 1147Q881 1184 804 1208T658 1233T549 1219T486 1182Q440 1143 440 1090T473 1002T558 939T674 888T799 838T913 778T1010 697Q1106 590 1106 424Q1106 211 966 93T582 -25Q426 -25 307 26T80 162Z"/><glyph unicode="T" horiz-adv-x="1057" d="M72 1219V1495H985V1219H696V0H369V1219H72Z"/><glyph unicode="U" horiz-adv-x="1581" d="M143 606V1495H473V606Q473 450 560 355Q649 258 782 258Q921 258 1016 355Q1112 453 1112 606V1495H1438V606Q1438 312 1241 137Q1059 -25 782 -25Q512 -25 334 137Q143 311 143 606Z"/><glyph unicode="V" horiz-adv-x="1352" d="M31 1495H367L657 541Q662 524 666 510T674 483T680 457Q684 471 689 490T705 541L993 1495H1321L834 0H520L31 1495Z"/><glyph unicode="W" horiz-adv-x="1954" d="M72 1495H412L604 696Q614 641 620 604T629 539Q631 565 635 590T643 645T651 696L815 1495H1141L1317 696Q1321 678 1324 651T1331 596T1339 539Q1341 567 1345 594T1354 647T1364 696L1550 1495H1882L1489 0H1171L1010 786Q979 949 979 1018Q979 1012 975 983T967 918Q959 843 948 786L786 0H459L72 1495Z"/><glyph unicode="X" horiz-adv-x="1432" d="M49 0L528 815L123 1495H485L713 1104L928 1495H1294L893 815L1382 0H1016L713 528L414 0H49Z"/><glyph unicode="Y" horiz-adv-x="1413" d="M31 1495H403L678 977Q685 963 693 936T707 897Q709 909 715 928T735 977L1008 1495H1382L866 606V0H539V606L31 1495Z"/><glyph unicode="Z" horiz-adv-x="1352" d="M59 0L748 1219H133V1495H1255L567 276H1239V0H59Z"/><glyph unicode="[" horiz-adv-x="748" d="M154 -367V1495H686V1221H465V-92H686V-367H154Z"/><glyph unicode="\" horiz-adv-x="909" d="M41 1495H348L868 0H559L41 1495Z"/><glyph unicode="]" horiz-adv-x="748" d="M61 -92H283V1221H61V1495H594V-367H61V-92Z"/><glyph unicode="^" horiz-adv-x="1194" d="M61 756L436 1495H754L1133 756H811L594 1219L379 756H61Z"/><glyph unicode="_" horiz-adv-x="1024" d="M0 -129H1024V-354H0V-129Z"/><glyph unicode="`" horiz-adv-x="1024" d="M250 1356H543L700 1014H473L250 1356Z"/><glyph unicode="a" horiz-adv-x="1083" d="M45 128T45 240T102 416T250 518Q401 580 670 590V621Q670 668 638 685T539 702Q373 702 223 627L125 817Q287 907 527 907T877 829T987 561V0H670V68Q584 10 544 -2Q467 -25 384 -25T243 -6T140 50Q45 128 45 240ZM383 319T383 282T414 223T485 201Q600 201 670 264V412Q478 412 408 344Q383 319 383 282Z"/><glyph unicode="b" horiz-adv-x="1151" d="M102 0V1495H420V793Q457 846 531 876T692 907T855 868T986 765T1070 615T1100 439T1070 263T986 114Q867 -25 686 -25Q606 -25 532 6T420 90V0H102ZM420 535T420 444T469 294T599 236T731 294T782 444T731 592T600 647T470 591Z"/><glyph unicode="c" horiz-adv-x="946" d="M51 438Q51 633 188 770Q325 907 537 907Q758 907 895 743L713 573Q637 655 544 655T399 594T346 438Q346 354 398 292Q455 225 526 225T636 248T711 315L924 166Q844 66 755 21T549 -25T343 11T190 108Q51 241 51 438Z"/><glyph unicode="d" horiz-adv-x="1151" d="M51 440Q51 628 165 764Q284 907 465 907Q545 907 619 877T731 793V1495H1049V0H731V90Q694 37 620 6T459 -25T296 13T165 114Q51 249 51 440ZM369 537T369 445T420 294T552 236T682 294T731 443T681 591T551 647T420 592Z"/><glyph unicode="e" horiz-adv-x="1032" d="M51 449Q51 660 180 788Q302 907 496 907Q709 907 836 768Q967 626 967 387H348Q356 309 404 255T552 201T717 224T842 295L977 123Q877 39 773 7T560 -25T361 2T202 86Q51 211 51 449ZM350 555H641Q635 623 595 662T490 702T393 660T350 555Z"/><glyph unicode="f" horiz-adv-x="623" d="M35 647V883H145V1247Q145 1370 209 1445T403 1520H569V1253H518Q463 1253 463 1153V883H580V647H463V0H145V647H35Z"/><glyph unicode="g" horiz-adv-x="1151" d="M51 442Q51 635 165 768Q284 907 465 907Q545 907 619 877T731 793V883H1049V18Q1049 -182 920 -286T569 -391Q432 -391 318 -359T143 -291L246 -82Q367 -154 549 -154Q655 -154 693 -106T731 8V100Q696 57 629 22T467 -14T296 22T165 122Q51 257 51 442ZM369 438Q369 346 420 291T551 236T681 292T731 439T682 588T552 647T420 589T369 438Z"/><glyph unicode="h" horiz-adv-x="1104" d="M102 0V1495H420V791Q505 907 674 907Q841 907 930 798Q1008 703 1008 530V0H690V455Q690 545 664 593T567 641T458 594T420 465V0H102Z"/><glyph unicode="i" horiz-adv-x="522" d="M102 0V883H420V0H102ZM102 1026V1317H420V1026H102Z"/><glyph unicode="j" horiz-adv-x="522" d="M-31 -100H47Q80 -100 91 -74T102 0V883H420V-94Q420 -217 356 -292T162 -367H-31V-100ZM102 1026V1317H420V1026H102Z"/><glyph unicode="k" horiz-adv-x="1114" d="M102 0V1495H420V539L737 883H1092L733 506L1071 0H694L510 281L420 184V0H102Z"/><glyph unicode="l" horiz-adv-x="522" d="M102 0V1495H420V0H102Z"/><glyph unicode="m" horiz-adv-x="1651" d="M102 0V883H420V791Q500 907 673 907T934 762Q981 821 1050 864T1219 907T1381 878T1482 798Q1554 703 1554 530V0H1237V455Q1237 545 1216 593T1122 641Q987 641 987 465V0H670V455Q670 545 649 593T553 641Q420 641 420 465V0H102Z"/><glyph unicode="n" horiz-adv-x="1104" d="M102 0V883H420V791Q505 907 674 907Q841 907 930 798Q1008 703 1008 530V0H690V455Q690 545 664 593T567 641T458 594T420 465V0H102Z"/><glyph unicode="o" horiz-adv-x="1055" d="M51 442Q51 635 194 774Q331 907 526 907Q724 907 862 776Q1004 644 1004 446Q1004 346 965 260T862 112Q721 -25 528 -25Q331 -25 192 108Q51 243 51 442ZM360 525T360 464T370 366T402 297Q451 227 528 227Q607 227 654 297Q694 358 694 444Q694 481 684 519T654 586Q606 655 526 655Q451 655 402 586Q360 525 360 464Z"/><glyph unicode="p" horiz-adv-x="1151" d="M102 -367V883H420V793Q457 846 531 876T692 907T855 869T986 768T1070 620T1100 444T1070 267T986 118Q867 -25 686 -25Q606 -25 532 6T420 90V-367H102ZM420 530T420 439T470 292T600 236T731 291T782 438Q782 530 731 588T599 647T469 589Z"/><glyph unicode="q" horiz-adv-x="1151" d="M51 442Q51 635 165 768Q284 907 465 907Q545 907 619 877T731 793V883H1049V-367H731V90Q694 37 620 6T459 -25T296 14T165 118Q51 254 51 442ZM369 438Q369 346 420 291T551 236T681 292T731 439T682 588T552 647T420 589T369 438Z"/><glyph unicode="r" horiz-adv-x="868" d="M102 0V883H420V766Q453 821 512 864T640 907Q778 907 862 823L707 555Q666 586 636 598T565 610Q487 610 454 558T420 434V0H102Z"/><glyph unicode="s" horiz-adv-x="848" d="M43 76L145 276Q272 201 375 201T479 250Q479 285 444 305T359 343T260 380T169 434Q74 509 74 637Q74 833 292 890Q360 907 452 907Q615 907 764 825L674 629Q570 686 461 686T352 639Q352 616 398 597T501 557T609 511T701 452Q797 374 797 256Q797 115 683 40Q584 -25 451 -25Q186 -25 43 76Z"/><glyph unicode="t" horiz-adv-x="705" d="M35 647V883H145V1249H463V883H612V647H463V381Q463 330 488 298T561 266H639V0H440Q307 0 226 92Q145 184 145 324V647H35Z"/><glyph unicode="u" horiz-adv-x="1104" d="M96 352V883H414V428Q414 338 440 290T537 242T646 289T684 418V883H1001V0H684V92Q599 -25 430 -25Q264 -25 174 85Q96 180 96 352Z"/><glyph unicode="v" horiz-adv-x="1044" d="M20 883H358L500 520Q510 489 517 453T526 408Q526 419 532 443T544 485T555 520L696 883H1024L635 0H418L20 883Z"/><glyph unicode="w" horiz-adv-x="1556" d="M20 883H350L516 442L532 387Q532 404 551 442L786 956L1022 442Q1026 432 1029 422T1035 404T1040 385Q1042 393 1045 408T1055 442L1217 883H1536L1178 0H981L813 332Q803 348 798 369T791 399Q788 395 781 372T766 330L598 0H399L20 883Z"/><glyph unicode="x" horiz-adv-x="995" d="M25 0L330 453L57 883H393L469 745L502 680Q502 689 532 745L602 883H942L666 451L971 0H631L541 150Q537 158 530 170T514 196T496 229Q487 217 480 204Q468 180 451 152L358 0H25Z"/><glyph unicode="y" horiz-adv-x="987" d="M20 883H354L475 481Q493 422 504 371Q506 387 511 404T521 441T532 481L637 883H967L596 -197Q565 -285 507 -338T344 -391H160V-131H227Q274 -131 311 -107T348 -47Q348 10 324 80L20 883Z"/><glyph unicode="z" horiz-adv-x="973" d="M18 0L418 592Q433 617 455 639Q446 637 438 637H78V883H944L553 293Q547 285 541 277T528 260T514 242Q524 242 535 244L575 246H893V0H18Z"/><glyph unicode="{" horiz-adv-x="717" d="M41 457V694Q147 709 180 777Q205 827 205 973Q205 1200 322 1341T668 1520V1274Q592 1216 571 1174Q532 1101 532 1010T527 853T502 737Q463 632 344 575Q464 515 502 414Q532 336 532 152Q532 52 557 5T607 -68T668 -121V-367Q440 -330 323 -189T205 180Q205 324 185 366T131 428T41 457Z"/><glyph unicode="|" horiz-adv-x="578" d="M133 -367V1495H444V-367H133Z"/><glyph unicode="}" horiz-adv-x="717" d="M49 -121Q125 -63 146 -21Q184 51 184 142T189 299T214 416Q253 520 373 578Q252 637 214 740Q184 821 184 1001Q184 1102 160 1149T110 1221T49 1274V1520Q276 1483 394 1342T512 973Q512 829 532 787T585 725T676 696V459Q569 441 536 374Q512 324 512 180Q512 -47 394 -188T49 -367V-121Z"/><glyph unicode="~" horiz-adv-x="1147" d="M82 532Q82 715 144 838Q215 975 354 975Q457 975 575 897Q627 866 667 839T733 811Q791 811 791 971H1065Q1065 790 1000 664Q927 526 793 526Q668 526 481 660Q440 690 414 690Q356 690 356 532H82Z"/><glyph unicode=" " horiz-adv-x="461"/><glyph unicode="¡" horiz-adv-x="627" d="M154 0V551L201 1085H426L473 551V0H154ZM154 1196V1495H473V1196H154Z"/><glyph unicode="¢" horiz-adv-x="952" d="M51 438Q51 622 176 756Q306 893 496 905V1014H594V905Q778 885 895 743L713 573Q662 631 594 647V231Q651 249 711 315L924 166Q852 78 775 33T594 -23V-162H496V-23Q302 -9 176 120Q51 250 51 438ZM346 520T346 444T386 307T496 229V651Q428 635 387 578Z"/><glyph unicode="£" horiz-adv-x="1546" d="M88 221Q88 336 181 404Q268 467 387 467Q526 467 606 438Q592 512 520 598H147V690H436Q375 760 348 791H147V883H287Q223 1000 223 1112T272 1297T400 1419Q562 1520 776 1520Q1027 1520 1182 1411Q1352 1291 1352 1063H1020Q1020 1174 952 1224T776 1274Q697 1274 628 1222Q561 1169 561 1102T588 983T657 883H1096V791H735Q778 741 809 690H1096V598H856Q897 486 897 356V346Q944 324 985 309T1075 293Q1161 293 1161 375V438H1438V317Q1438 160 1366 68T1186 -25T985 17T803 113Q673 -25 424 -25Q296 -25 196 39Q88 108 88 221ZM297 221Q297 180 334 164T421 147T515 173T584 244Q477 301 399 301Q297 301 297 221Z"/><glyph unicode="¤" horiz-adv-x="1337" d="M35 608V700H213Q211 750 213 801H35V893H219Q248 1178 394 1344Q549 1520 795 1520Q969 1520 1093 1439T1288 1210L1038 1069Q941 1247 801 1247Q621 1247 568 1030Q553 965 547 893H918V801H541Q539 750 541 700H918V608H547Q589 248 795 248Q891 248 951 301T1059 436L1296 293Q1210 127 1089 51T816 -25T563 21T390 152Q248 321 219 608H35Z"/><glyph unicode="¥" horiz-adv-x="1413" d="M31 1495H403L678 977Q688 954 696 928T707 897Q707 923 735 977L1008 1495H1382L870 616H1163V459H866V334H1163V176H866V0H539V176H246V334H539V459H246V616H532L31 1495Z"/><glyph unicode="¦" horiz-adv-x="578" d="M133 -367V410H444V-367H133ZM133 719V1495H444V719H133Z"/><glyph unicode="§" horiz-adv-x="1462" d="M92 547Q92 757 315 897Q231 985 231 1139Q231 1308 370 1414Q509 1520 721 1520Q1020 1520 1247 1364L1096 1118Q920 1243 709 1243Q627 1243 589 1218T551 1165T556 1121T578 1090Q612 1062 709 1034L1010 950Q1171 905 1270 819T1370 582Q1370 371 1147 231Q1231 143 1231 -10Q1231 -180 1092 -286Q954 -391 741 -391Q498 -391 322 -299Q266 -270 215 -236L367 10Q541 -115 754 -115Q836 -115 873 -89T911 -36T906 8T884 39Q846 69 754 94L453 178Q291 223 192 309T92 547ZM410 598Q410 533 454 500Q498 467 625 432L899 356Q1053 455 1053 530Q1053 594 1008 628Q961 664 838 696L563 772Q410 672 410 598Z"/><glyph unicode="¨" horiz-adv-x="1024" d="M164 1014V1280H422V1014H164ZM602 1014V1280H860V1014H602Z"/><glyph unicode="©" horiz-adv-x="1729" d="M92 588T92 747T152 1047T318 1293T564 1459T864 1520T1164 1460T1410 1294T1576 1048T1636 748T1576 448T1411 202T1165 36T865 -25T565 35T319 201T153 447ZM217 745Q217 480 406 289Q594 100 864 100Q999 100 1117 150T1322 289T1460 493T1511 745T1460 998T1322 1203T1117 1341T864 1393Q729 1393 612 1342T406 1203Q217 1015 217 745ZM428 768Q428 951 553 1082Q683 1217 872 1217Q1090 1217 1204 1075L1061 942Q1020 981 983 997T882 1014T772 993T698 935Q637 861 637 784T657 656T710 567Q776 492 862 492T994 512T1083 582L1223 457Q1169 385 1078 337T887 289T708 320T566 414Q428 550 428 768Z"/><glyph unicode="ª" horiz-adv-x="924" d="M129 522V688H772V522H129ZM129 934T129 1012T157 1136T236 1214Q337 1278 498 1278H600Q600 1329 571 1348T437 1368T254 1331L201 1468Q292 1520 446 1520Q772 1520 772 1296V819H596V868Q506 799 380 799T192 866ZM311 1028Q311 956 426 956Q479 956 514 967T596 1012V1130H487Q311 1130 311 1028Z"/><glyph unicode="«" horiz-adv-x="922" d="M82 311V590L393 817V549L260 451L393 352V84L82 311ZM508 311V590L819 817V549L686 451L819 352V84L508 311Z"/><glyph unicode="¬" horiz-adv-x="1110" d="M72 545V811H1038V215H764V545H72Z"/><glyph unicode="­" horiz-adv-x="778" d="M82 418V688H696V418H82Z"/><glyph unicode="®" horiz-adv-x="1729" d="M92 588T92 747T152 1047T318 1293T564 1459T864 1520T1164 1460T1410 1294T1576 1048T1636 748T1576 448T1411 202T1165 36T865 -25T565 35T319 201T153 447ZM217 745Q217 480 406 289Q594 100 864 100Q999 100 1117 150T1322 289T1460 493T1511 745T1460 998T1322 1203T1117 1341T864 1393Q729 1393 612 1342T406 1203Q217 1015 217 745ZM573 317V1214H926Q1052 1214 1132 1138Q1212 1061 1212 952T1156 775T1008 690L1257 317H1022L778 707V317H573ZM778 821H885Q938 821 971 853T1004 938T971 1017T889 1044H778V821Z"/><glyph unicode="¯" horiz-adv-x="1024" d="M205 1075V1210H819V1075H205Z"/><glyph unicode="°" horiz-adv-x="872" d="M51 1135Q51 1294 163 1406Q277 1520 436 1520Q592 1520 708 1406Q821 1294 821 1134Q821 1055 791 984T708 861Q595 750 436 750Q274 750 163 861Q51 973 51 1135ZM244 1135Q244 1055 301 1000Q360 942 436 942Q514 942 571 999T629 1135Q629 1212 572 1269T436 1327Q360 1327 301 1270Q244 1214 244 1135Z"/><glyph unicode="±" horiz-adv-x="1729" d="M35 647V883H145V1247Q145 1370 209 1445T403 1520H569V1253H518Q478 1253 466 1184Q463 1167 463 1153V883H580V647H463V0H145V647H35ZM618 647V883H729V1247Q729 1370 793 1445T987 1520H1153V1253H1102Q1062 1253 1050 1184Q1047 1167 1047 1153V883H1163V647H1047V0H729V647H618ZM1309 0V1495H1626V0H1309Z"/><glyph unicode="²" horiz-adv-x="938" d="M92 592L489 1049Q543 1110 543 1178Q543 1212 515 1242T440 1272Q381 1272 350 1218Q338 1198 338 1167V1139H98V1176Q98 1334 202 1427Q301 1516 453 1516Q622 1516 716 1415Q799 1326 799 1198Q799 1071 717 973L604 838H793V592H92Z"/><glyph unicode="³" horiz-adv-x="866" d="M94 651L223 836Q302 766 403 766Q455 766 489 792T524 868T489 937T385 956H338V1130H403Q455 1130 480 1148T506 1209T475 1271T399 1292Q307 1292 254 1245L135 1436Q240 1518 418 1518Q563 1518 662 1437Q762 1356 762 1235Q762 1169 723 1119T645 1055Q696 1038 738 983T780 856T758 729T689 632Q589 541 403 541Q264 541 154 606Q119 627 94 651Z"/><glyph unicode="´" horiz-adv-x="1024" d="M328 1014L485 1356H778L555 1014H328Z"/><glyph unicode="µ" horiz-adv-x="1151" d="M102 -367V883H420V401Q424 324 450 283T545 242T652 289T690 418V883H1008V0H690V92Q605 -25 436 -25H420V-367H102Z"/><glyph unicode="¶" horiz-adv-x="1618" d="M55 952Q55 1178 202 1330Q361 1495 627 1495H1464V-367H1192V1221H1040V-367H768V424H586Q351 424 198 590Q55 744 55 952ZM367 1081T367 964T434 772T625 698H768V1221H637Q504 1221 436 1151Z"/><glyph unicode="·" horiz-adv-x="512" d="M102 565V874H410V565H102Z"/><glyph unicode="¸" horiz-adv-x="1024" d="M279 -301L344 -213Q408 -254 481 -254T555 -199Q555 -160 496 -160T410 -170L367 -100L465 29H600L532 -57Q616 -53 666 -91T717 -178T698 -261T646 -318Q580 -367 504 -367Q377 -367 279 -301Z"/><glyph unicode="¹" horiz-adv-x="672" d="M88 1085V1333Q179 1345 214 1368T270 1419T313 1493H528V571H244V1137Q204 1097 88 1085Z"/><glyph unicode="º" horiz-adv-x="995" d="M137 522V688H856V522H137ZM137 1165Q137 1308 234 1411Q338 1520 492 1520Q646 1520 754 1414Q856 1314 856 1168Q856 1094 829 1026T753 907Q651 799 496 799Q340 799 241 898Q137 1002 137 1165ZM330 1237T330 1157T374 1028T499 979T622 1031T664 1165T616 1294T494 1341T375 1289Z"/><glyph unicode="»" horiz-adv-x="922" d="M102 84V352L236 451L102 549V817L414 590V311L102 84ZM528 84V352L662 451L528 549V817L840 590V311L528 84Z"/><glyph unicode="¼" horiz-adv-x="2093" d="M92 1085V1333Q183 1345 218 1368T274 1419T317 1493H528V571H248V1137Q208 1097 92 1085ZM297 0L1319 1495H1624L602 0H297ZM1231 182V360L1589 922H1876V387H1962V182H1876V0H1610V182H1231ZM1444 387H1610V639L1444 387Z"/><glyph unicode="½" horiz-adv-x="2077" d="M92 1085V1333Q183 1345 218 1368T274 1419T317 1493H528V571H248V1137Q208 1097 92 1085ZM297 0L1319 1495H1624L602 0H297ZM1243 0L1640 457Q1694 518 1694 586Q1694 621 1666 650T1591 680Q1532 680 1501 626Q1489 606 1489 575V547H1249V584Q1249 743 1353 836Q1451 924 1604 924Q1773 924 1867 823Q1950 734 1950 606Q1950 479 1868 381L1755 246H1944V0H1243Z"/><glyph unicode="¾" horiz-adv-x="2298" d="M94 651L223 836Q302 766 403 766Q455 766 489 792T524 868T489 937T385 956H338V1130H403Q455 1130 480 1148T506 1209T475 1271T399 1292Q307 1292 254 1245L135 1436Q240 1518 418 1518Q563 1518 662 1437Q762 1356 762 1235Q762 1169 723 1119T645 1055Q696 1038 738 983T780 856T758 729T689 632Q589 541 403 541Q264 541 154 606Q119 627 94 651ZM502 0L1524 1495H1829L807 0H502ZM1436 182V360L1794 922H2081V387H2167V182H2081V0H1815V182H1436ZM1649 387H1815V639L1649 387Z"/><glyph unicode="¿" horiz-adv-x="942" d="M57 358Q57 500 186 667Q221 713 269 771Q391 918 391 1049V1096H686V1049Q686 866 547 688Q516 647 486 609T430 534Q375 452 375 391T416 282T526 233T646 267T743 348L911 141Q755 -25 516 -25Q317 -25 186 81Q57 186 57 358ZM379 1196V1495H698V1196H379Z"/><glyph unicode="À" horiz-adv-x="1454" d="M31 0L565 1495H881L1423 0H1063L948 377H494L377 0H31ZM387 1960H680L837 1618H610L387 1960ZM580 653H866L756 1018Q729 1104 723 1137Q721 1133 712 1095T692 1018L580 653Z"/><glyph unicode="Á" horiz-adv-x="1454" d="M31 0L565 1495H881L1423 0H1063L948 377H494L377 0H31ZM580 653H866L756 1018Q729 1104 723 1137Q721 1133 712 1095T692 1018L580 653ZM615 1618L772 1960H1065L842 1618H615Z"/><glyph unicode="Â" horiz-adv-x="1454" d="M31 0L565 1495H881L1423 0H1063L948 377H494L377 0H31ZM401 1618L612 1919H834L1045 1618H813L721 1761L629 1618H401ZM580 653H866L756 1018Q729 1104 723 1137Q721 1133 712 1095T692 1018L580 653Z"/><glyph unicode="Ã" horiz-adv-x="1454" d="M31 0L565 1495H881L1423 0H1063L948 377H494L377 0H31ZM328 1618Q328 1734 397 1803T590 1872Q644 1872 705 1844Q814 1794 852 1794Q936 1794 936 1868H1106Q1106 1749 1037 1682T844 1614Q791 1614 730 1642Q619 1691 582 1691Q498 1691 498 1618H328ZM580 653H866L756 1018Q729 1104 723 1137Q721 1133 712 1095T692 1018L580 653Z"/><glyph unicode="Ä" horiz-adv-x="1454" d="M31 0L565 1495H881L1423 0H1063L948 377H494L377 0H31ZM82 1208V1495H340V1208H82ZM580 653H866L756 1018Q729 1104 723 1137Q721 1133 712 1095T692 1018L580 653ZM1106 1208V1495H1364V1208H1106Z"/><glyph unicode="Å" horiz-adv-x="1454" d="M31 0L555 1466Q459 1549 459 1667Q459 1774 537 1852T723 1931Q828 1931 908 1852Q987 1775 987 1662T891 1466L1423 0H1063L948 377H494L377 0H31ZM580 653H866L756 1018Q729 1104 723 1137Q721 1133 712 1095T692 1018L580 653ZM614 1667Q614 1620 645 1590T723 1559Q770 1559 800 1589T831 1667Q831 1714 801 1745T723 1776Q676 1776 645 1745T614 1667Z"/><glyph unicode="Æ" horiz-adv-x="1952" d="M20 0L795 1495H1804V1219H1262V868H1765V592H1262V276H1835V0H965V387H549L348 0H20ZM676 653H965V1221L676 653Z"/><glyph unicode="Ç" horiz-adv-x="1475" d="M82 756Q82 924 141 1064T303 1305T544 1463T844 1520T1134 1469T1378 1298L1194 1083Q1044 1233 840 1233Q650 1233 534 1098Q420 965 420 745T528 393T846 262Q1022 262 1149 366Q1186 397 1223 432L1411 217Q1307 104 1174 40T848 -25L821 -57Q905 -53 955 -91T1006 -178T987 -261T935 -318Q869 -367 793 -367Q665 -367 567 -301L633 -213Q696 -254 770 -254T844 -199Q844 -160 785 -160T698 -170L655 -100L719 -16Q431 20 256 226Q82 433 82 756Z"/><glyph unicode="È" horiz-adv-x="1171" d="M154 0V1495H1024V1219H481V868H985V592H481V276H1055V0H154ZM289 1960H582L739 1618H512L289 1960Z"/><glyph unicode="É" horiz-adv-x="1171" d="M154 0V1495H1024V1219H481V868H985V592H481V276H1055V0H154ZM426 1618L583 1960H876L653 1618H426Z"/><glyph unicode="Ê" horiz-adv-x="1171" d="M154 0V1495H1024V1219H481V868H985V592H481V276H1055V0H154ZM260 1618L471 1919H693L904 1618H672L580 1761L488 1618H260Z"/><glyph unicode="Ë" horiz-adv-x="1171" d="M154 0V1495H1024V1219H481V868H985V592H481V276H1055V0H154ZM232 1618V1884H490V1618H232ZM670 1618V1884H928V1618H670Z"/><glyph unicode="Ì" horiz-adv-x="635" d="M-11 1960H282L439 1618H212L-11 1960ZM154 0V1495H481V0H154Z"/><glyph unicode="Í" horiz-adv-x="635" d="M154 0V1495H481V0H154ZM202 1618L359 1960H652L429 1618H202Z"/><glyph unicode="Î" horiz-adv-x="635" d="M-4 1618L207 1919H429L640 1618H408L316 1761L224 1618H-4ZM154 0V1495H481V0H154Z"/><glyph unicode="Ï" horiz-adv-x="635" d="M-30 1618V1884H228V1618H-30ZM154 0V1495H481V0H154ZM408 1618V1884H666V1618H408Z"/><glyph unicode="Ð" horiz-adv-x="1528" d="M51 592V862H215V1495H668Q1003 1495 1216 1304Q1446 1098 1446 748Q1446 565 1381 425T1207 191T958 48T668 0H215V592H51ZM543 276H668Q868 276 992 418Q1108 550 1108 752Q1108 848 1076 934T986 1082Q859 1219 668 1219H543V862H768V592H543V276Z"/><glyph unicode="Ñ" horiz-adv-x="1610" d="M154 0V1495H436L1096 633Q1112 612 1121 594T1133 571L1128 647V1495H1456V0H1174L514 870Q486 912 477 930L481 856V0H154ZM404 1618Q404 1734 473 1803T666 1872Q720 1872 781 1844Q890 1794 928 1794Q1012 1794 1012 1868H1182Q1182 1749 1113 1682T920 1614Q867 1614 806 1642Q695 1691 658 1691Q574 1691 574 1618H404Z"/><glyph unicode="Ò" horiz-adv-x="1704" d="M82 594T82 754T137 1054T294 1297T537 1460T854 1520Q1200 1520 1413 1304Q1513 1202 1567 1061T1622 756T1567 450T1410 202T1167 36T850 -25Q676 -25 535 36T293 204T138 452ZM420 754Q420 549 548 404Q673 262 850 262Q1044 262 1168 412Q1284 553 1284 756Q1284 852 1254 939T1166 1092Q1044 1233 854 1233Q667 1233 540 1086Q420 947 420 754ZM516 1960H809L966 1618H739L516 1960Z"/><glyph unicode="Ó" horiz-adv-x="1704" d="M82 594T82 754T137 1054T294 1297T537 1460T854 1520Q1200 1520 1413 1304Q1513 1202 1567 1061T1622 756T1567 450T1410 202T1167 36T850 -25Q676 -25 535 36T293 204T138 452ZM420 754Q420 549 548 404Q673 262 850 262Q1044 262 1168 412Q1284 553 1284 756Q1284 852 1254 939T1166 1092Q1044 1233 854 1233Q667 1233 540 1086Q420 947 420 754ZM688 1618L845 1960H1138L915 1618H688Z"/><glyph unicode="Ô" horiz-adv-x="1704" d="M82 594T82 754T137 1054T294 1297T537 1460T854 1520Q1200 1520 1413 1304Q1513 1202 1567 1061T1622 756T1567 450T1410 202T1167 36T850 -25Q676 -25 535 36T293 204T138 452ZM420 754Q420 549 548 404Q673 262 850 262Q1044 262 1168 412Q1284 553 1284 756Q1284 852 1254 939T1166 1092Q1044 1233 854 1233Q667 1233 540 1086Q420 947 420 754ZM530 1618L741 1919H963L1174 1618H942L850 1761L758 1618H530Z"/><glyph unicode="Õ" horiz-adv-x="1704" d="M82 594T82 754T137 1054T294 1297T537 1460T854 1520Q1200 1520 1413 1304Q1513 1202 1567 1061T1622 756T1567 450T1410 202T1167 36T850 -25Q676 -25 535 36T293 204T138 452ZM420 754Q420 549 548 404Q673 262 850 262Q1044 262 1168 412Q1284 553 1284 756Q1284 852 1254 939T1166 1092Q1044 1233 854 1233Q667 1233 540 1086Q420 947 420 754ZM457 1618Q457 1734 526 1803T719 1872Q773 1872 834 1844Q943 1794 981 1794Q1065 1794 1065 1868H1235Q1235 1749 1166 1682T973 1614Q920 1614 859 1642Q748 1691 711 1691Q627 1691 627 1618H457Z"/><glyph unicode="Ö" horiz-adv-x="1704" d="M82 754Q82 1023 236 1229H82V1495H340V1341Q553 1520 854 1520Q1158 1520 1364 1348V1495H1622V1229H1477Q1622 1033 1622 754Q1622 592 1567 450T1410 202T1167 36T850 -25Q676 -25 535 36T293 204T138 452T82 754ZM420 754Q420 555 548 408Q606 340 685 301T857 262T1031 303T1168 412T1254 570T1284 753T1254 934T1166 1086Q1039 1233 854 1233Q667 1233 540 1086Q420 947 420 754Z"/><glyph unicode="×" horiz-adv-x="1092" d="M57 383L352 676L61 969L254 1161L545 870L836 1161L1030 967L739 676L1032 383L840 188L547 481L252 188L57 383Z"/><glyph unicode="Ø" horiz-adv-x="1704" d="M82 754Q82 1080 294 1298Q395 1401 537 1460T854 1520Q1152 1520 1358 1352L1509 1499L1634 1389L1475 1233Q1622 1030 1622 754Q1622 592 1567 450T1410 202T1167 36T850 -25Q569 -25 356 145L205 -4L84 111L242 264Q82 471 82 754ZM420 754Q420 628 483 500L1126 1126Q1013 1233 854 1233Q667 1233 540 1086Q420 947 420 754ZM586 369Q703 262 850 262Q1044 262 1168 412Q1284 553 1284 754Q1284 881 1227 991L586 369Z"/><glyph unicode="Ù" horiz-adv-x="1581" d="M143 606V1495H473V606Q473 450 560 355Q649 258 782 258Q921 258 1016 355Q1112 453 1112 606V1495H1438V606Q1438 312 1241 137Q1059 -25 782 -25Q512 -25 334 137Q143 311 143 606ZM490 1940H783L940 1598H713L490 1940Z"/><glyph unicode="Ú" horiz-adv-x="1581" d="M143 606V1495H473V606Q473 450 560 355Q649 258 782 258Q921 258 1016 355Q1112 453 1112 606V1495H1438V606Q1438 312 1241 137Q1059 -25 782 -25Q512 -25 334 137Q143 311 143 606ZM645 1598L802 1940H1095L872 1598H645Z"/><glyph unicode="Û" horiz-adv-x="1581" d="M143 606V1495H473V606Q473 450 560 355Q649 258 782 258Q921 258 1016 355Q1112 453 1112 606V1495H1438V606Q1438 312 1241 137Q1059 -25 782 -25Q512 -25 334 137Q143 311 143 606ZM471 1618L682 1919H904L1115 1618H883L791 1761L699 1618H471Z"/><glyph unicode="Ü" horiz-adv-x="1581" d="M143 606V1495H473V606Q473 450 560 355Q649 258 782 258Q921 258 1016 355Q1112 453 1112 606V1495H1438V606Q1438 312 1241 137Q1059 -25 782 -25Q512 -25 334 137Q143 311 143 606ZM575 1167V1495H741V1167H575ZM844 1167V1495H1010V1167H844Z"/><glyph unicode="Ý" horiz-adv-x="1413" d="M31 1495H403L678 977Q685 963 693 936T707 897Q709 909 715 928T735 977L1008 1495H1382L866 606V0H539V606L31 1495ZM570 1618L727 1960H1020L797 1618H570Z"/><glyph unicode="Þ" horiz-adv-x="1247" d="M154 0V1495H481V1214H649Q903 1214 1048 1098Q1196 979 1196 774Q1196 668 1158 583T1050 438Q904 313 649 313H481V0H154ZM481 590H649Q868 590 868 768Q868 860 814 899T649 938H481V590Z"/><glyph unicode="ß" horiz-adv-x="1133" d="M102 0V1133Q102 1304 240 1412Q377 1520 569 1520Q764 1520 884 1417Q1006 1313 1006 1147Q1006 1036 950 958T807 844Q992 772 1056 586Q1081 516 1081 418T1050 238T962 98T825 7T669 -25T526 -4V244Q561 227 635 227T740 276T772 396T758 519T712 618Q643 719 506 750V934Q598 934 647 986T696 1116Q696 1268 561 1268Q454 1268 427 1178Q420 1155 420 1130V0H102Z"/><glyph unicode="à" horiz-adv-x="1083" d="M45 128T45 240T102 416T250 518Q401 580 670 590V621Q670 668 638 685T539 702Q373 702 223 627L125 817Q287 907 527 907T877 829T987 561V0H670V68Q584 10 544 -2Q467 -25 384 -25T243 -6T140 50Q45 128 45 240ZM243 1356H536L693 1014H466L243 1356ZM383 319T383 282T414 223T485 201Q600 201 670 264V412Q478 412 408 344Q383 319 383 282Z"/><glyph unicode="á" horiz-adv-x="1083" d="M45 128T45 240T102 416T250 518Q401 580 670 590V621Q670 668 638 685T539 702Q373 702 223 627L125 817Q287 907 527 907T877 829T987 561V0H670V68Q584 10 544 -2Q467 -25 384 -25T243 -6T140 50Q45 128 45 240ZM383 319T383 282T414 223T485 201Q600 201 670 264V412Q478 412 408 344Q383 319 383 282ZM404 1014L561 1356H854L631 1014H404Z"/><glyph unicode="â" horiz-adv-x="1083" d="M45 128T45 240T102 416T250 518Q401 580 670 590V621Q670 668 638 685T539 702Q373 702 223 627L125 817Q287 907 527 907T877 829T987 561V0H670V68Q584 10 544 -2Q467 -25 384 -25T243 -6T140 50Q45 128 45 240ZM221 1014L432 1315H654L865 1014H633L541 1157L449 1014H221ZM383 319T383 282T414 223T485 201Q600 201 670 264V412Q478 412 408 344Q383 319 383 282Z"/><glyph unicode="ã" horiz-adv-x="1083" d="M45 128T45 240T102 416T250 518Q401 580 670 590V621Q670 668 638 685T539 702Q373 702 223 627L125 817Q287 907 527 907T877 829T987 561V0H670V68Q584 10 544 -2Q467 -25 384 -25T243 -6T140 50Q45 128 45 240ZM164 1014Q164 1130 233 1199T426 1268Q480 1268 541 1240Q650 1190 688 1190Q772 1190 772 1264H942Q942 1145 873 1078T680 1010Q627 1010 566 1038Q455 1087 418 1087Q334 1087 334 1014H164ZM383 319T383 282T414 223T485 201Q600 201 670 264V412Q478 412 408 344Q383 319 383 282Z"/><glyph unicode="ä" horiz-adv-x="1083" d="M45 128T45 240T102 416T250 518Q401 580 670 590V621Q670 668 638 685T539 702Q373 702 223 627L125 817Q287 907 527 907T877 829T987 561V0H670V68Q584 10 544 -2Q467 -25 384 -25T243 -6T140 50Q45 128 45 240ZM197 1014V1280H455V1014H197ZM383 319T383 282T414 223T485 201Q600 201 670 264V412Q478 412 408 344Q383 319 383 282ZM635 1014V1280H893V1014H635Z"/><glyph unicode="å" horiz-adv-x="1083" d="M45 128T45 240T102 416T250 518Q401 580 670 590V621Q670 668 638 685T539 702Q373 702 223 627L125 817Q287 907 527 907T877 829T987 561V0H670V68Q584 10 544 -2Q467 -25 384 -25T243 -6T140 50Q45 128 45 240ZM285 1264Q285 1369 363 1449Q441 1528 549 1528Q657 1528 735 1449Q813 1369 813 1264Q813 1210 792 1162T735 1078Q657 999 549 999Q441 999 363 1078Q285 1158 285 1264ZM383 319T383 282T414 223T485 201Q600 201 670 264V412Q478 412 408 344Q383 319 383 282ZM440 1264Q440 1217 471 1186T549 1155Q596 1155 627 1186T658 1264Q658 1311 627 1341T549 1372Q502 1372 471 1342T440 1264Z"/><glyph unicode="æ" horiz-adv-x="1642" d="M45 128T45 240T103 416T254 518Q408 580 678 590V621Q678 668 642 685T539 702Q373 702 223 627L125 817Q287 907 527 907T858 821Q962 907 1106 907Q1319 907 1446 768Q1577 626 1577 387H950Q956 311 1009 256T1162 201Q1338 201 1452 295L1587 123Q1487 39 1383 7T1159 -25T934 15T758 141Q659 46 599 20Q495 -25 398 -25T243 -6T140 50Q45 128 45 240ZM383 319T383 282T414 223T485 201Q608 201 678 264V412Q482 412 410 344Q383 319 383 282ZM952 555H1251Q1245 623 1205 662T1100 702Q976 702 952 555Z"/><glyph unicode="ç" horiz-adv-x="946" d="M51 438Q51 633 188 770Q325 907 537 907Q758 907 895 743L713 573Q637 655 544 655T399 594T346 438Q346 354 398 292Q455 225 526 225T636 248T711 315L924 166Q846 70 763 25T559 -25L532 -57Q616 -53 666 -91T717 -178T698 -261T646 -318Q580 -367 504 -367Q377 -367 279 -301L344 -213Q408 -254 481 -254T555 -199Q555 -160 496 -160T410 -170L367 -100L432 -14Q267 18 158 144Q51 267 51 438Z"/><glyph unicode="è" horiz-adv-x="1032" d="M51 449Q51 660 180 788Q302 907 496 907Q709 907 836 768Q967 626 967 387H348Q356 309 404 255T552 201T717 224T842 295L977 123Q877 39 773 7T560 -25T361 2T202 86Q51 211 51 449ZM192 1356H485L642 1014H415L192 1356ZM350 555H641Q635 623 595 662T490 702T393 660T350 555Z"/><glyph unicode="é" horiz-adv-x="1032" d="M51 449Q51 660 180 788Q302 907 496 907Q709 907 836 768Q967 626 967 387H348Q356 309 404 255T552 201T717 224T842 295L977 123Q877 39 773 7T560 -25T361 2T202 86Q51 211 51 449ZM350 555H641Q635 623 595 662T490 702T393 660T350 555ZM383 1014L540 1356H833L610 1014H383Z"/><glyph unicode="ê" horiz-adv-x="1032" d="M51 449Q51 660 180 788Q302 907 496 907Q709 907 836 768Q967 626 967 387H348Q356 309 404 255T552 201T717 224T842 295L977 123Q877 39 773 7T560 -25T361 2T202 86Q51 211 51 449ZM179 1014L390 1315H612L823 1014H591L499 1157L407 1014H179ZM350 555H641Q635 623 595 662T490 702T393 660T350 555Z"/><glyph unicode="ë" horiz-adv-x="1032" d="M51 449Q51 660 180 788Q302 907 496 907Q709 907 836 768Q967 626 967 387H348Q356 309 404 255T552 201T717 224T842 295L977 123Q877 39 773 7T560 -25T361 2T202 86Q51 211 51 449ZM151 1014V1280H409V1014H151ZM350 555H641Q635 623 595 662T490 702T393 660T350 555ZM589 1014V1280H847V1014H589Z"/><glyph unicode="ì" horiz-adv-x="522" d="M-64 1356H229L386 1014H159L-64 1356ZM102 0V883H420V0H102Z"/><glyph unicode="í" horiz-adv-x="522" d="M102 0V883H420V0H102ZM143 1014L300 1356H593L370 1014H143Z"/><glyph unicode="î" horiz-adv-x="522" d="M-61 1014L150 1315H372L583 1014H351L259 1157L167 1014H-61ZM102 0V883H420V0H102Z"/><glyph unicode="ï" horiz-adv-x="522" d="M-76 1014V1280H182V1014H-76ZM102 0V883H420V0H102ZM336 1014V1280H594V1014H336Z"/><glyph unicode="ð" horiz-adv-x="1057" d="M51 442Q51 644 163 774Q278 907 465 907Q597 907 672 823Q646 954 541 1094L293 993L205 1174L401 1251Q330 1321 256 1372L440 1534Q555 1458 657 1356L827 1423L913 1243L795 1196Q1006 886 1006 506Q1006 261 862 114Q724 -25 528 -25Q331 -25 192 108Q51 243 51 442ZM360 525T360 464T370 366T402 297Q451 227 528 227Q607 227 654 297Q694 358 694 444Q694 481 684 519T654 586Q606 655 526 655Q451 655 402 586Q360 525 360 464Z"/><glyph unicode="ñ" horiz-adv-x="1104" d="M102 0V883H420V791Q505 907 674 907Q841 907 930 798Q1008 703 1008 530V0H690V455Q690 545 664 593T567 641T458 594T420 465V0H102ZM168 1014Q168 1130 237 1199T430 1268Q484 1268 545 1240Q654 1190 692 1190Q776 1190 776 1264H946Q946 1145 877 1078T684 1010Q631 1010 570 1038Q459 1087 422 1087Q338 1087 338 1014H168Z"/><glyph unicode="ò" horiz-adv-x="1055" d="M51 442Q51 635 194 774Q331 907 526 907Q724 907 862 776Q1004 644 1004 446Q1004 346 965 260T862 112Q721 -25 528 -25Q331 -25 192 108Q51 243 51 442ZM200 1356H493L650 1014H423L200 1356ZM360 525T360 464T370 366T402 297Q451 227 528 227Q607 227 654 297Q694 358 694 444Q694 481 684 519T654 586Q606 655 526 655Q451 655 402 586Q360 525 360 464Z"/><glyph unicode="ó" horiz-adv-x="1055" d="M51 442Q51 635 194 774Q331 907 526 907Q724 907 862 776Q1004 644 1004 446Q1004 346 965 260T862 112Q721 -25 528 -25Q331 -25 192 108Q51 243 51 442ZM360 525T360 464T370 366T402 297Q451 227 528 227Q607 227 654 297Q694 358 694 444Q694 481 684 519T654 586Q606 655 526 655Q451 655 402 586Q360 525 360 464ZM381 1014L538 1356H831L608 1014H381Z"/><glyph unicode="ô" horiz-adv-x="1055" d="M51 442Q51 635 194 774Q331 907 526 907Q724 907 862 776Q1004 644 1004 446Q1004 346 965 260T862 112Q721 -25 528 -25Q331 -25 192 108Q51 243 51 442ZM202 1014L413 1315H635L846 1014H614L522 1157L430 1014H202ZM360 525T360 464T370 366T402 297Q451 227 528 227Q607 227 654 297Q694 358 694 444Q694 481 684 519T654 586Q606 655 526 655Q451 655 402 586Q360 525 360 464Z"/><glyph unicode="õ" horiz-adv-x="1055" d="M51 442Q51 635 194 774Q331 907 526 907Q724 907 862 776Q1004 644 1004 446Q1004 346 965 260T862 112Q721 -25 528 -25Q331 -25 192 108Q51 243 51 442ZM133 1014Q133 1130 202 1199T395 1268Q449 1268 510 1240Q619 1190 657 1190Q741 1190 741 1264H911Q911 1145 842 1078T649 1010Q596 1010 535 1038Q424 1087 387 1087Q303 1087 303 1014H133ZM360 525T360 464T370 366T402 297Q451 227 528 227Q607 227 654 297Q694 358 694 444Q694 481 684 519T654 586Q606 655 526 655Q451 655 402 586Q360 525 360 464Z"/><glyph unicode="ö" horiz-adv-x="1055" d="M51 442Q51 635 194 774Q331 907 526 907Q724 907 862 776Q1004 644 1004 446Q1004 346 965 260T862 112Q721 -25 528 -25Q331 -25 192 108Q51 243 51 442ZM168 1014V1280H426V1014H168ZM360 525T360 464T370 366T402 297Q451 227 528 227Q607 227 654 297Q694 358 694 444Q694 481 684 519T654 586Q606 655 526 655Q451 655 402 586Q360 525 360 464ZM606 1014V1280H864V1014H606Z"/><glyph unicode="÷" horiz-adv-x="1178" d="M76 555V801H1102V555H76ZM434 143V453H741V143H434ZM434 903V1212H741V903H434Z"/><glyph unicode="ø" horiz-adv-x="1055" d="M45 72L141 166Q51 285 51 442Q51 635 194 774Q331 907 526 907Q684 907 811 819L913 920L1028 819L918 713Q1004 593 1004 444Q1004 250 862 112Q721 -25 528 -25Q373 -25 252 61L156 -33L45 72ZM360 525T360 464T370 366T402 297Q451 227 528 227Q607 227 654 297Q694 358 694 444Q694 481 684 519T654 586Q606 655 526 655Q451 655 402 586Q360 525 360 464Z"/><glyph unicode="ù" horiz-adv-x="1104" d="M96 352V883H414V428Q414 338 440 290T537 242T646 289T684 418V883H1001V0H684V92Q599 -25 430 -25Q264 -25 174 85Q96 180 96 352ZM241 1356H534L691 1014H464L241 1356Z"/><glyph unicode="ú" horiz-adv-x="1104" d="M96 352V883H414V428Q414 338 440 290T537 242T646 289T684 418V883H1001V0H684V92Q599 -25 430 -25Q264 -25 174 85Q96 180 96 352ZM410 1014L567 1356H860L637 1014H410Z"/><glyph unicode="û" horiz-adv-x="1104" d="M96 352V883H414V428Q414 338 440 290T537 242T646 289T684 418V883H1001V0H684V92Q599 -25 430 -25Q264 -25 174 85Q96 180 96 352ZM225 1014L436 1315H658L869 1014H637L545 1157L453 1014H225Z"/><glyph unicode="ü" horiz-adv-x="1104" d="M96 352V883H414V428Q414 338 440 290T537 242T646 289T684 418V883H1001V0H684V92Q599 -25 430 -25Q264 -25 174 85Q96 180 96 352ZM199 1014V1280H457V1014H199ZM637 1014V1280H895V1014H637Z"/><glyph unicode="ý" horiz-adv-x="987" d="M20 883H354L475 481Q493 422 504 371Q506 387 511 404T521 441T532 481L637 883H967L596 -197Q565 -285 507 -338T344 -391H160V-131H227Q274 -131 311 -107T348 -47Q348 10 324 80L20 883ZM369 1014L526 1356H819L596 1014H369Z"/><glyph unicode="þ" horiz-adv-x="1151" d="M102 -367V1495H420V793Q457 846 531 876T692 907T855 869T986 768T1070 620T1100 444T1070 267T986 118Q867 -25 686 -25Q606 -25 532 6T420 90V-367H102ZM420 530T420 439T470 295T600 242T731 294T782 438Q782 530 731 585T599 641T469 586Z"/><glyph unicode="ÿ" horiz-adv-x="987" d="M20 883H354L475 481Q493 422 504 371Q506 387 511 404T521 441T532 481L637 883H967L596 -197Q565 -285 507 -338T344 -391H160V-131H227Q274 -131 311 -107T348 -47Q348 10 324 80L20 883ZM147 1014V1280H405V1014H147ZM585 1014V1280H843V1014H585Z"/><glyph unicode="Ā" horiz-adv-x="1454" d="M31 0L565 1495H881L1423 0H1063L948 377H494L377 0H31ZM420 1691V1826H1034V1691H420ZM580 653H866L756 1018Q729 1104 723 1137Q721 1133 712 1095T692 1018L580 653Z"/><glyph unicode="ā" horiz-adv-x="1083" d="M45 128T45 240T102 416T250 518Q401 580 670 590V621Q670 668 638 685T539 702Q373 702 223 627L125 817Q287 907 527 907T877 829T987 561V0H670V68Q584 10 544 -2Q467 -25 384 -25T243 -6T140 50Q45 128 45 240ZM256 1075V1210H870V1075H256ZM383 319T383 282T414 223T485 201Q600 201 670 264V412Q478 412 408 344Q383 319 383 282Z"/><glyph unicode="Ă" horiz-adv-x="1454" d="M31 0L565 1495H881L1423 0H1063L948 377H494L377 0H31ZM426 1921H579Q621 1771 729 1771Q819 1771 863 1872Q874 1898 879 1921H1032Q1020 1773 937 1697T729 1620Q604 1620 521 1696T426 1921ZM580 653H866L756 1018Q729 1104 723 1137Q721 1133 712 1095T692 1018L580 653Z"/><glyph unicode="ă" horiz-adv-x="1083" d="M45 128T45 240T102 416T250 518Q401 580 670 590V621Q670 668 638 685T539 702Q373 702 223 627L125 817Q287 907 527 907T877 829T987 561V0H670V68Q584 10 544 -2Q467 -25 384 -25T243 -6T140 50Q45 128 45 240ZM250 1305H403Q445 1155 553 1155Q643 1155 687 1256Q698 1282 703 1305H856Q844 1157 761 1081T553 1004Q428 1004 345 1080T250 1305ZM383 319T383 282T414 223T485 201Q600 201 670 264V412Q478 412 408 344Q383 319 383 282Z"/><glyph unicode="Ą" horiz-adv-x="1454" d="M31 0L565 1495H881L1423 0Q1285 -10 1201 -68Q1139 -111 1139 -148T1160 -202T1221 -219T1325 -176L1423 -299Q1323 -395 1167 -395Q1049 -395 977 -352T905 -225Q905 -88 1063 0L948 377H494L377 0H31ZM580 653H866L756 1018Q729 1104 723 1137Q721 1133 712 1095T692 1018L580 653Z"/><glyph unicode="ą" horiz-adv-x="1083" d="M45 128T45 240T102 416T250 518Q401 580 670 590V621Q670 668 638 685T539 702Q373 702 223 627L125 817Q287 907 527 907T877 829T987 561V0Q854 -11 778 -68Q723 -111 723 -158Q723 -219 808 -219Q849 -219 899 -176L997 -299Q912 -395 741 -395Q623 -395 556 -352T489 -225Q489 -90 670 0V68Q584 10 544 -2Q467 -25 384 -25T243 -6T140 50Q45 128 45 240ZM383 319T383 282T414 223T485 201Q600 201 670 264V412Q478 412 408 344Q383 319 383 282Z"/><glyph unicode="Ć" horiz-adv-x="1475" d="M82 756Q82 924 141 1064T303 1305T544 1463T844 1520T1134 1469T1378 1298L1194 1083Q1044 1233 840 1233Q650 1233 534 1098Q420 965 420 745T528 393T846 262Q1022 262 1149 366Q1186 397 1223 432L1411 217Q1188 -25 858 -25Q676 -25 535 29T293 186Q82 400 82 756ZM650 1651L807 1993H1100L877 1651H650Z"/><glyph unicode="ć" horiz-adv-x="946" d="M51 438Q51 633 188 770Q325 907 537 907Q758 907 895 743L713 573Q637 655 544 655T399 594T346 438Q346 354 398 292Q455 225 526 225T636 248T711 315L924 166Q844 66 755 21T549 -25T343 11T190 108Q51 241 51 438ZM361 1014L518 1356H811L588 1014H361Z"/><glyph unicode="Č" horiz-adv-x="1475" d="M82 756Q82 924 141 1064T303 1305T544 1463T844 1520T1134 1469T1378 1298L1194 1083Q1044 1233 840 1233Q650 1233 534 1098Q420 965 420 745T528 393T846 262Q1022 262 1149 366Q1186 397 1223 432L1411 217Q1188 -25 858 -25Q676 -25 535 29T293 186Q82 400 82 756ZM495 1931H727L819 1787L911 1931H1138L927 1630H706L495 1931Z"/><glyph unicode="č" horiz-adv-x="946" d="M51 438Q51 633 188 770Q325 907 537 907Q758 907 895 743L713 573Q637 655 544 655T399 594T346 438Q346 354 398 292Q455 225 526 225T636 248T711 315L924 166Q844 66 755 21T549 -25T343 11T190 108Q51 241 51 438ZM209 1315H441L533 1171L625 1315H852L641 1014H420L209 1315Z"/><glyph unicode="Ď" horiz-adv-x="1466" d="M154 0V1495H606Q942 1495 1156 1304Q1384 1099 1384 748Q1384 565 1319 425T1144 190Q926 0 606 0H154ZM376 1931H608L700 1787L792 1931H1019L808 1630H587L376 1931ZM481 276H606Q806 276 930 418Q1047 551 1047 752Q1047 848 1015 934T924 1082Q797 1219 606 1219H481V276Z"/><glyph unicode="ď" horiz-adv-x="1151" d="M51 440Q51 628 165 764Q284 907 465 907Q545 907 619 877T731 793V1495H1049V0H731V90Q694 37 620 6T459 -25T296 13T165 114Q51 249 51 440ZM369 537T369 445T420 294T552 236T682 294T731 443T681 591T551 647T420 592ZM1132 1026Q1190 1108 1190 1239V1495H1454V1287Q1454 1182 1411 1095T1307 924L1132 1026Z"/><glyph unicode="Đ" horiz-adv-x="1528" d="M51 592V862H215V1495H668Q1003 1495 1216 1304Q1446 1098 1446 748Q1446 565 1381 425T1207 191T958 48T668 0H215V592H51ZM543 276H668Q868 276 992 418Q1108 550 1108 752Q1108 848 1076 934T986 1082Q859 1219 668 1219H543V862H768V592H543V276Z"/><glyph unicode="đ" horiz-adv-x="1151" d="M51 440Q51 628 165 764Q284 907 465 907Q545 907 619 877T731 793V1063H506V1333H731V1495H1049V1333H1120V1063H1049V0H731V90Q694 37 620 6T459 -25T296 13T165 114Q51 249 51 440ZM369 537T369 445T420 294T552 236T682 294T731 443T681 591T551 647T420 592Z"/><glyph unicode="Ē" horiz-adv-x="1171" d="M154 0V1495H1024V1219H481V868H985V592H481V276H1055V0H154ZM275 1691V1826H889V1691H275Z"/><glyph unicode="ē" horiz-adv-x="1032" d="M51 449Q51 660 180 788Q302 907 496 907Q709 907 836 768Q967 626 967 387H348Q356 309 404 255T552 201T717 224T842 295L977 123Q877 39 773 7T560 -25T361 2T202 86Q51 211 51 449ZM207 1075V1210H821V1075H207ZM350 555H641Q635 623 595 662T490 702T393 660T350 555Z"/><glyph unicode="Ė" horiz-adv-x="1171" d="M154 0V1495H1024V1219H481V868H985V592H481V276H1055V0H154ZM457 1630V1896H715V1630H457Z"/><glyph unicode="ė" horiz-adv-x="1032" d="M51 449Q51 660 180 788Q302 907 496 907Q709 907 836 768Q967 626 967 387H348Q356 309 404 255T552 201T717 224T842 295L977 123Q877 39 773 7T560 -25T361 2T202 86Q51 211 51 449ZM350 555H641Q635 623 595 662T490 702T393 660T350 555ZM372 1014V1280H630V1014H372Z"/><glyph unicode="Ę" horiz-adv-x="1171" d="M154 0V1495H1024V1219H481V868H985V592H481V276H1055V0Q903 -4 818 -62Q750 -108 750 -158Q750 -219 844 -219Q894 -219 956 -176L1055 -299Q966 -395 778 -395Q659 -395 588 -352T516 -225Q516 -97 676 0H154Z"/><glyph unicode="ę" horiz-adv-x="1032" d="M51 330T51 444T86 644T180 788Q302 907 496 907Q709 907 836 768Q967 626 967 387H348Q356 309 404 255T552 201T717 224T842 295L977 123Q901 59 815 22Q641 -54 641 -133Q641 -162 662 -178T719 -195Q782 -195 848 -152L946 -274Q922 -301 885 -322Q796 -371 674 -371T480 -328T408 -193T500 -23Q193 1 88 244Q51 330 51 444ZM350 555H641Q635 623 595 662T490 702T393 660T350 555Z"/><glyph unicode="Ě" horiz-adv-x="1171" d="M154 0V1495H1024V1219H481V868H985V592H481V276H1055V0H154ZM276 1931H508L600 1787L692 1931H919L708 1630H487L276 1931Z"/><glyph unicode="ě" horiz-adv-x="1032" d="M51 449Q51 660 180 788Q302 907 496 907Q709 907 836 768Q967 626 967 387H348Q356 309 404 255T552 201T717 224T842 295L977 123Q877 39 773 7T560 -25T361 2T202 86Q51 211 51 449ZM171 1315H403L495 1171L587 1315H814L603 1014H382L171 1315ZM350 555H641Q635 623 595 662T490 702T393 660T350 555Z"/><glyph unicode="Ğ" horiz-adv-x="1649" d="M82 754Q82 1093 306 1310Q410 1411 548 1465T863 1520T1180 1451T1419 1276L1217 1077Q1073 1233 842 1233Q658 1233 530 1090Q406 951 406 754Q406 551 530 410Q661 262 848 262Q1131 262 1217 477H836V754H1579Q1579 396 1366 180Q1165 -25 848 -25Q682 -25 541 31T298 192Q82 413 82 754ZM528 1921H681Q723 1771 831 1771Q921 1771 965 1872Q976 1898 981 1921H1134Q1122 1773 1039 1697T831 1620Q706 1620 623 1696T528 1921Z"/><glyph unicode="ğ" horiz-adv-x="1151" d="M51 442Q51 635 165 768Q284 907 465 907Q545 907 619 877T731 793V883H1049V18Q1049 -182 920 -286T569 -391Q432 -391 318 -359T143 -291L246 -82Q367 -154 549 -154Q655 -154 693 -106T731 8V100Q696 57 629 22T467 -14T296 22T165 122Q51 257 51 442ZM272 1305H425Q467 1155 575 1155Q665 1155 709 1256Q720 1282 725 1305H878Q866 1157 783 1081T575 1004Q450 1004 367 1080T272 1305ZM369 438Q369 346 420 291T551 236T681 292T731 439T682 588T552 647T420 589T369 438Z"/><glyph unicode="Ģ" horiz-adv-x="1649" d="M82 754Q82 1093 306 1310Q410 1411 548 1465T863 1520T1180 1451T1419 1276L1217 1077Q1073 1233 842 1233Q658 1233 530 1090Q406 951 406 754Q406 551 530 410Q661 262 848 262Q1131 262 1217 477H836V754H1579Q1579 396 1366 180Q1165 -25 848 -25Q682 -25 541 31T298 192Q82 413 82 754ZM667 -597Q725 -515 725 -384V-128H989V-336Q989 -441 946 -528T842 -699L667 -597Z"/><glyph unicode="ģ" horiz-adv-x="1151" d="M51 442Q51 635 165 768Q284 907 465 907Q545 907 619 877T731 793V883H1049V18Q1049 -182 920 -286T569 -391Q432 -391 318 -359T143 -291L246 -82Q367 -154 549 -154Q655 -154 693 -106T731 8V100Q696 57 629 22T467 -14T296 22T165 122Q51 257 51 442ZM369 438Q369 346 420 291T551 236T681 292T731 439T682 588T552 647T420 589T369 438ZM430 1041V1249Q430 1354 473 1441T577 1612L752 1510Q694 1428 694 1297V1041H430Z"/><glyph unicode="Ī" horiz-adv-x="635" d="M11 1691V1826H625V1691H11ZM154 0V1495H481V0H154Z"/><glyph unicode="ī" horiz-adv-x="522" d="M-46 1075V1210H568V1075H-46ZM102 0V883H420V0H102Z"/><glyph unicode="Į" horiz-adv-x="635" d="M14 -309T14 -233T52 -107T154 -12V1495H481V0Q373 -11 303 -70Q248 -116 248 -158Q248 -219 341 -219Q391 -219 455 -176L553 -299Q464 -395 276 -395Q158 -395 86 -352Z"/><glyph unicode="į" horiz-adv-x="522" d="M-25 -221Q-25 -111 102 -8V883H420V0Q277 -22 222 -112Q209 -135 209 -158T230 -198T287 -215Q352 -215 416 -172L514 -295Q425 -391 238 -391Q119 -391 47 -348T-25 -221ZM102 1026V1317H420V1026H102Z"/><glyph unicode="İ" horiz-adv-x="635" d="M154 0V1495H481V0H154ZM189 1630V1896H447V1630H189Z"/><glyph unicode="ı" horiz-adv-x="522" d="M102 0V883H420V0H102Z"/><glyph unicode="Ķ" horiz-adv-x="1458" d="M154 0V1495H481V952L965 1495H1370L788 858L1399 0H1001L565 612L481 520V0H154ZM536 -579Q594 -497 594 -366V-110H858V-318Q858 -423 815 -510T711 -681L536 -579Z"/><glyph unicode="ķ" horiz-adv-x="1114" d="M102 0V1495H420V539L737 883H1092L733 506L1071 0H694L510 281L420 184V0H102ZM366 -578Q424 -496 424 -365V-109H688V-317Q688 -422 645 -509T541 -680L366 -578Z"/><glyph unicode="Ĺ" horiz-adv-x="1085" d="M154 0V1495H481V276H1014V0H154ZM204 1651L361 1993H654L431 1651H204Z"/><glyph unicode="ĺ" horiz-adv-x="522" d="M102 0V1495H420V0H102ZM153 1673L310 2015H603L380 1673H153Z"/><glyph unicode="Ļ" horiz-adv-x="1085" d="M154 0V1495H481V276H1014V0H154ZM405 -578Q463 -496 463 -365V-109H727V-317Q727 -422 684 -509T580 -680L405 -578Z"/><glyph unicode="ļ" horiz-adv-x="522" d="M102 -578Q160 -496 160 -365V-109H424V-317Q424 -422 381 -509T277 -680L102 -578ZM133 0V1495H451V0H133Z"/><glyph unicode="Ľ" horiz-adv-x="1085" d="M154 0V1495H481V276H1014V0H154ZM655 1026Q713 1108 713 1239V1495H977V1287Q977 1182 934 1095T830 924L655 1026Z"/><glyph unicode="ľ" horiz-adv-x="522" d="M102 0V1495H420V0H102ZM503 1026Q561 1108 561 1239V1495H825V1287Q825 1182 782 1095T678 924L503 1026Z"/><glyph unicode="Ł" horiz-adv-x="1126" d="M-2 762L195 842V1495H522V977L729 1061L834 831L522 705V276H1055V0H195V569L104 532L-2 762Z"/><glyph unicode="ł" horiz-adv-x="666" d="M-2 762L174 834V1495H492V965L563 993L668 764L492 692V0H174V561L104 532L-2 762Z"/><glyph unicode="Ń" horiz-adv-x="1610" d="M154 0V1495H436L1096 633Q1112 612 1121 594T1133 571L1128 647V1495H1456V0H1174L514 870Q486 912 477 930L481 856V0H154ZM662 1610L819 1952H1112L889 1610H662Z"/><glyph unicode="ń" horiz-adv-x="1104" d="M102 0V883H420V791Q505 907 674 907Q841 907 930 798Q1008 703 1008 530V0H690V455Q690 545 664 593T567 641T458 594T420 465V0H102ZM398 1014L555 1356H848L625 1014H398Z"/><glyph unicode="Ņ" horiz-adv-x="1610" d="M154 0V1495H436L1096 633Q1112 612 1121 594T1133 571L1128 647V1495H1456V0H1174L514 870Q486 912 477 930L481 856V0H154ZM618 -578Q676 -496 676 -365V-109H940V-317Q940 -422 897 -509T793 -680L618 -578Z"/><glyph unicode="ņ" horiz-adv-x="1104" d="M102 0V883H420V791Q505 907 674 907Q841 907 930 798Q1008 703 1008 530V0H690V455Q690 545 664 593T567 641T458 594T420 465V0H102ZM362 -578Q420 -496 420 -365V-109H684V-317Q684 -422 641 -509T537 -680L362 -578Z"/><glyph unicode="Ň" horiz-adv-x="1610" d="M154 0V1495H436L1096 633Q1112 612 1121 594T1133 571L1128 647V1495H1456V0H1174L514 870Q486 912 477 930L481 856V0H154ZM467 1870H699L791 1726L883 1870H1110L899 1569H678L467 1870Z"/><glyph unicode="ň" horiz-adv-x="1104" d="M102 0V883H420V791Q505 907 674 907Q841 907 930 798Q1008 703 1008 530V0H690V455Q690 545 664 593T567 641T458 594T420 465V0H102ZM225 1315H457L549 1171L641 1315H868L657 1014H436L225 1315Z"/><glyph unicode="Ō" horiz-adv-x="1704" d="M82 594T82 754T137 1054T294 1297T537 1460T854 1520Q1200 1520 1413 1304Q1513 1202 1567 1061T1622 756T1567 450T1410 202T1167 36T850 -25Q676 -25 535 36T293 204T138 452ZM420 754Q420 549 548 404Q673 262 850 262Q1044 262 1168 412Q1284 553 1284 756Q1284 852 1254 939T1166 1092Q1044 1233 854 1233Q667 1233 540 1086Q420 947 420 754ZM549 1691V1826H1163V1691H549Z"/><glyph unicode="ō" horiz-adv-x="1055" d="M51 442Q51 635 194 774Q331 907 526 907Q724 907 862 776Q1004 644 1004 446Q1004 346 965 260T862 112Q721 -25 528 -25Q331 -25 192 108Q51 243 51 442ZM223 1075V1210H837V1075H223ZM360 525T360 464T370 366T402 297Q451 227 528 227Q607 227 654 297Q694 358 694 444Q694 481 684 519T654 586Q606 655 526 655Q451 655 402 586Q360 525 360 464Z"/><glyph unicode="Ő" horiz-adv-x="1704" d="M82 594T82 754T137 1054T294 1297T537 1460T854 1520Q1200 1520 1413 1304Q1513 1202 1567 1061T1622 756T1567 450T1410 202T1167 36T850 -25Q676 -25 535 36T293 204T138 452ZM420 754Q420 549 548 404Q673 262 850 262Q1044 262 1168 412Q1284 553 1284 756Q1284 852 1254 939T1166 1092Q1044 1233 854 1233Q667 1233 540 1086Q420 947 420 754ZM533 1651L723 1993H975L785 1651H533ZM877 1651L1067 1993H1319L1129 1651H877Z"/><glyph unicode="ő" horiz-adv-x="1055" d="M51 442Q51 635 194 774Q331 907 526 907Q724 907 862 776Q1004 644 1004 446Q1004 346 965 260T862 112Q721 -25 528 -25Q331 -25 192 108Q51 243 51 442ZM201 1014L391 1356H643L453 1014H201ZM360 525T360 464T370 366T402 297Q451 227 528 227Q607 227 654 297Q694 358 694 444Q694 481 684 519T654 586Q606 655 526 655Q451 655 402 586Q360 525 360 464ZM545 1014L735 1356H987L797 1014H545Z"/><glyph unicode="Œ" horiz-adv-x="2281" d="M82 594T82 754T137 1054T294 1297T537 1460T830 1520T1100 1472T1294 1343V1495H2134V1219H1581V868H2095V592H1581V276H2165V0H1294V160Q1201 39 978 -10Q913 -25 850 -25Q676 -25 535 36T293 204T138 452ZM420 754Q420 549 548 404Q673 262 850 262Q1044 262 1168 412Q1284 553 1284 756Q1284 852 1254 939T1166 1092Q1044 1233 854 1233Q667 1233 540 1086Q420 947 420 754Z"/><glyph unicode="œ" horiz-adv-x="1673" d="M51 442Q51 635 194 774Q331 907 526 907Q625 907 709 866T834 760Q868 819 958 864Q1042 907 1141 907T1328 872T1478 768Q1608 626 1608 387H989Q997 309 1045 255T1193 201T1358 224T1483 295L1618 123Q1518 39 1414 7T1224 -25T1087 -14T987 18Q884 63 838 131Q767 27 618 -12Q571 -25 501 -25T344 10T192 108Q51 243 51 442ZM360 525T360 464T370 366T402 297Q451 227 528 227Q607 227 654 297Q694 358 694 444Q694 481 684 519T654 586Q606 655 526 655Q451 655 402 586Q360 525 360 464ZM1012 555H1303Q1296 623 1257 662T1151 702T1055 660T1012 555Z"/><glyph unicode="Ŕ" horiz-adv-x="1329" d="M154 0V1495H690Q919 1495 1065 1368Q1204 1247 1204 1064T1111 774T870 625L1268 0H897L481 707V0H154ZM481 858H690Q776 858 826 909T877 1043T823 1172T690 1219H481V858ZM510 1630L667 1972H960L737 1630H510Z"/><glyph unicode="ŕ" horiz-adv-x="868" d="M102 0V883H420V766Q453 821 512 864T640 907Q778 907 862 823L707 555Q666 586 636 598T565 610Q487 610 454 558T420 434V0H102ZM317 1014L474 1356H767L544 1014H317Z"/><glyph unicode="Ŗ" horiz-adv-x="1329" d="M154 0V1495H690Q919 1495 1065 1368Q1204 1247 1204 1064T1111 774T870 625L1268 0H897L481 707V0H154ZM481 858H690Q776 858 826 909T877 1043T823 1172T690 1219H481V858ZM491 -578Q549 -496 549 -365V-109H813V-317Q813 -422 770 -509T666 -680L491 -578Z"/><glyph unicode="ŗ" horiz-adv-x="868" d="M102 -578Q160 -496 160 -365V-109H424V-317Q424 -422 381 -509T277 -680L102 -578ZM133 0V883H451V766Q484 821 543 864T671 907Q809 907 893 823L738 555Q697 586 667 598T596 610Q518 610 485 558T451 434V0H133Z"/><glyph unicode="Ř" horiz-adv-x="1329" d="M154 0V1495H690Q919 1495 1065 1368Q1204 1247 1204 1064T1111 774T870 625L1268 0H897L481 707V0H154ZM340 1931H572L664 1787L756 1931H983L772 1630H551L340 1931ZM481 858H690Q776 858 826 909T877 1043T823 1172T690 1219H481V858Z"/><glyph unicode="ř" horiz-adv-x="868" d="M102 0V883H420V766Q453 821 512 864T640 907Q778 907 862 823L707 555Q666 586 636 598T565 610Q487 610 454 558T420 434V0H102ZM134 1315H366L458 1171L550 1315H777L566 1014H345L134 1315Z"/><glyph unicode="Ś" horiz-adv-x="1214" d="M80 162L250 391Q315 338 405 300T598 262T739 299T778 397T734 499T627 568T496 622T377 676T277 739T190 822Q113 924 113 1063T159 1284T280 1418Q426 1520 645 1520Q752 1520 868 1489T1077 1391L930 1147Q881 1184 804 1208T658 1233T549 1219T486 1182Q440 1143 440 1090T473 1002T558 939T674 888T799 838T913 778T1010 697Q1106 590 1106 424Q1106 211 966 93T582 -25Q426 -25 307 26T80 162ZM447 1630L604 1972H897L674 1630H447Z"/><glyph unicode="ś" horiz-adv-x="848" d="M43 76L145 276Q272 201 375 201T479 250Q479 285 444 305T359 343T260 380T169 434Q74 509 74 637Q74 833 292 890Q360 907 452 907Q615 907 764 825L674 629Q570 686 461 686T352 639Q352 616 398 597T501 557T609 511T701 452Q797 374 797 256Q797 115 683 40Q584 -25 451 -25Q186 -25 43 76ZM245 1014L402 1356H695L472 1014H245Z"/><glyph unicode="Ş" horiz-adv-x="1214" d="M80 162L250 391Q315 338 405 300T598 262T739 299T778 397T734 499T627 568T496 622T377 676T277 739T190 822Q113 924 113 1063T159 1284T280 1418Q426 1520 645 1520Q752 1520 868 1489T1077 1391L930 1147Q881 1184 804 1208T658 1233T549 1219T486 1182Q440 1143 440 1090T473 1002T558 939T674 888T799 838T913 778T1010 697Q1106 590 1106 409T986 112T655 -20L627 -57Q711 -53 761 -91T811 -178T792 -261T740 -318Q675 -367 599 -367Q471 -367 373 -301L438 -213Q502 -254 580 -254Q608 -254 628 -241T649 -199Q649 -160 590 -160T504 -170L461 -100L520 -23Q387 -12 283 37T80 162Z"/><glyph unicode="ş" horiz-adv-x="848" d="M43 76L145 276Q272 201 375 201T479 250Q479 285 444 305T359 343T260 380T169 434Q74 509 74 637Q74 833 292 890Q360 907 452 907Q615 907 764 825L674 629Q570 686 461 686T352 639Q352 616 398 597T501 557T609 511T701 452Q797 374 797 256Q797 115 683 40Q584 -25 451 -25Q186 -25 43 76ZM192 -301L257 -213Q321 -254 394 -254T468 -199Q468 -160 409 -160T323 -170L280 -100L378 29H513L445 -57Q529 -53 579 -91T630 -178T611 -261T559 -318Q493 -367 417 -367Q290 -367 192 -301Z"/><glyph unicode="Š" horiz-adv-x="1214" d="M80 162L250 391Q315 338 405 300T598 262T739 299T778 397T734 499T627 568T496 622T377 676T277 739T190 822Q113 924 113 1063T159 1284T280 1418Q426 1520 645 1520Q752 1520 868 1489T1077 1391L930 1147Q881 1184 804 1208T658 1233T549 1219T486 1182Q440 1143 440 1090T473 1002T558 939T674 888T799 838T913 778T1010 697Q1106 590 1106 424Q1106 211 966 93T582 -25Q426 -25 307 26T80 162ZM284 1919H516L608 1775L700 1919H927L716 1618H495L284 1919Z"/><glyph unicode="š" horiz-adv-x="848" d="M43 76L145 276Q272 201 375 201T479 250Q479 285 444 305T359 343T260 380T169 434Q74 509 74 637Q74 833 292 890Q360 907 452 907Q615 907 764 825L674 629Q570 686 461 686T352 639Q352 616 398 597T501 557T609 511T701 452Q797 374 797 256Q797 115 683 40Q584 -25 451 -25Q186 -25 43 76ZM105 1315H337L429 1171L521 1315H748L537 1014H316L105 1315Z"/><glyph unicode="Ţ" horiz-adv-x="1057" d="M72 1219V1495H985V1219H696V0H369V1219H72ZM344 -578Q402 -496 402 -365V-109H666V-317Q666 -422 623 -509T519 -680L344 -578Z"/><glyph unicode="ţ" horiz-adv-x="705" d="M35 647V883H145V1249H463V883H612V647H463V381Q463 330 488 298T561 266H639V0H440Q307 0 226 92Q145 184 145 324V647H35ZM182 -578Q240 -496 240 -365V-109H504V-317Q504 -422 461 -509T357 -680L182 -578Z"/><glyph unicode="Ť" horiz-adv-x="1057" d="M72 1219V1495H985V1219H696V0H369V1219H72ZM211 1931H443L535 1787L627 1931H854L643 1630H422L211 1931Z"/><glyph unicode="ť" horiz-adv-x="705" d="M35 647V883H145V1249H463V883H612V647H463V381Q463 330 488 298T561 266H639V0H440Q307 0 226 92Q145 184 145 324V647H35ZM645 978Q703 1060 703 1191V1447H967V1239Q967 1134 924 1047T820 876L645 978Z"/><glyph unicode="Ū" horiz-adv-x="1581" d="M143 606V1495H473V606Q473 450 560 355Q649 258 782 258Q921 258 1016 355Q1112 453 1112 606V1495H1438V606Q1438 312 1241 137Q1059 -25 782 -25Q512 -25 334 137Q143 311 143 606ZM484 1691V1826H1098V1691H484Z"/><glyph unicode="ū" horiz-adv-x="1104" d="M96 352V883H414V428Q414 338 440 290T537 242T646 289T684 418V883H1001V0H684V92Q599 -25 430 -25Q264 -25 174 85Q96 180 96 352ZM244 1075V1210H858V1075H244Z"/><glyph unicode="Ů" horiz-adv-x="1581" d="M143 606V1495H473V606Q473 450 560 355Q649 258 782 258Q921 258 1016 355Q1112 453 1112 606V1495H1438V606Q1438 312 1241 137Q1059 -25 782 -25Q512 -25 334 137Q143 311 143 606ZM520 1819Q520 1924 598 2004Q676 2083 784 2083Q892 2083 970 2004Q1048 1924 1048 1819Q1048 1765 1027 1717T970 1633Q892 1554 784 1554Q676 1554 598 1633Q520 1713 520 1819ZM675 1819Q675 1772 706 1741T784 1710Q831 1710 862 1741T893 1819Q893 1866 862 1896T784 1927Q737 1927 706 1897T675 1819Z"/><glyph unicode="ů" horiz-adv-x="1104" d="M96 352V883H414V428Q414 338 440 290T537 242T646 289T684 418V883H1001V0H684V92Q599 -25 430 -25Q264 -25 174 85Q96 180 96 352ZM283 1183Q283 1288 361 1368Q439 1447 547 1447Q655 1447 733 1368Q811 1288 811 1183Q811 1129 790 1081T733 997Q655 918 547 918Q439 918 361 997Q283 1077 283 1183ZM438 1183Q438 1136 469 1105T547 1074Q594 1074 625 1105T656 1183Q656 1230 625 1260T547 1291Q500 1291 469 1261T438 1183Z"/><glyph unicode="Ű" horiz-adv-x="1581" d="M143 606V1495H473V606Q473 450 560 355Q649 258 782 258Q921 258 1016 355Q1112 453 1112 606V1495H1438V606Q1438 312 1241 137Q1059 -25 782 -25Q512 -25 334 137Q143 311 143 606ZM457 1651L647 1993H899L709 1651H457ZM801 1651L991 1993H1243L1053 1651H801Z"/><glyph unicode="ű" horiz-adv-x="1104" d="M96 352V883H414V428Q414 338 440 290T537 242T646 289T684 418V883H1001V0H684V92Q599 -25 430 -25Q264 -25 174 85Q96 180 96 352ZM232 1014L422 1356H674L484 1014H232ZM576 1014L766 1356H1018L828 1014H576Z"/><glyph unicode="Ų" horiz-adv-x="1581" d="M143 606V1495H473V606Q473 450 560 355Q649 258 782 258Q921 258 1016 355Q1112 453 1112 606V1495H1438V606Q1438 374 1310 211Q1192 60 995 4Q903 -25 855 -72T807 -152Q807 -215 885 -215Q950 -215 1014 -172L1112 -295Q1023 -391 836 -391Q717 -391 645 -348T573 -221Q573 -103 696 -18Q454 8 304 165Q143 335 143 606Z"/><glyph unicode="ų" horiz-adv-x="1104" d="M96 352V883H414V428Q414 338 440 290T537 242T646 289T684 418V883H1001V0Q868 -11 792 -68Q737 -111 737 -149Q737 -219 815 -219Q863 -219 913 -176L1012 -299Q923 -395 756 -395Q637 -395 571 -352T504 -225Q504 -90 684 0V92Q599 -25 430 -25Q264 -25 174 85Q96 180 96 352Z"/><glyph unicode="Ÿ" horiz-adv-x="1413" d="M31 1495H403L678 977Q685 963 693 936T707 897Q709 909 715 928T735 977L1008 1495H1382L866 606V0H539V606L31 1495ZM357 1618V1884H615V1618H357ZM795 1618V1884H1053V1618H795Z"/><glyph unicode="Ź" horiz-adv-x="1352" d="M59 0L748 1219H133V1495H1255L567 276H1239V0H59ZM496 1651L653 1993H946L723 1651H496Z"/><glyph unicode="ź" horiz-adv-x="973" d="M18 0L418 592Q433 617 455 639Q446 637 438 637H78V883H944L553 293Q547 285 541 277T528 260T514 242Q524 242 535 244L575 246H893V0H18ZM340 1014L497 1356H790L567 1014H340Z"/><glyph unicode="Ż" horiz-adv-x="1352" d="M59 0L748 1219H133V1495H1255L567 276H1239V0H59ZM541 1630V1896H799V1630H541Z"/><glyph unicode="ż" horiz-adv-x="973" d="M18 0L418 592Q433 617 455 639Q446 637 438 637H78V883H944L553 293Q547 285 541 277T528 260T514 242Q524 242 535 244L575 246H893V0H18ZM357 1014V1280H615V1014H357Z"/><glyph unicode="Ž" horiz-adv-x="1352" d="M59 0L748 1219H133V1495H1255L567 276H1239V0H59ZM356 1919H588L680 1775L772 1919H999L788 1618H567L356 1919Z"/><glyph unicode="ž" horiz-adv-x="973" d="M18 0L418 592Q433 617 455 639Q446 637 438 637H78V883H944L553 293Q547 285 541 277T528 260T514 242Q524 242 535 244L575 246H893V0H18ZM167 1315H399L491 1171L583 1315H810L599 1014H378L167 1315Z"/><glyph unicode="ƒ" horiz-adv-x="750" d="M-2 -367L20 -100H72Q115 -100 131 -32Q135 -14 135 0L193 647H82L102 883H213L244 1247Q254 1370 325 1445T526 1520H692L670 1253H618Q567 1253 553 1153L530 883H647L627 647H510L444 -94Q434 -217 364 -292T164 -367H-2Z"/><glyph unicode="ˆ" horiz-adv-x="1024" d="M190 1014L401 1315H623L834 1014H602L510 1157L418 1014H190Z"/><glyph unicode="ˇ" horiz-adv-x="1024" d="M186 1315H418L510 1171L602 1315H829L618 1014H397L186 1315Z"/><glyph unicode="˘" horiz-adv-x="1024" d="M209 1305H362Q404 1155 512 1155Q602 1155 646 1256Q657 1282 662 1305H815Q803 1157 720 1081T512 1004Q387 1004 304 1080T209 1305Z"/><glyph unicode="˙" horiz-adv-x="1024" d="M381 1014V1280H639V1014H381Z"/><glyph unicode="˛" horiz-adv-x="1024" d="M256 -201Q256 -78 463 25H598Q424 -94 424 -193Q424 -238 448 -255T502 -272Q575 -272 639 -229L694 -305Q614 -371 492 -371Q401 -371 331 -326Q256 -279 256 -201Z"/><glyph unicode="˜" horiz-adv-x="1024" d="M123 1014Q123 1130 192 1199T385 1268Q439 1268 500 1240Q609 1190 647 1190Q731 1190 731 1264H901Q901 1145 832 1078T639 1010Q586 1010 525 1038Q414 1087 377 1087Q293 1087 293 1014H123Z"/><glyph unicode="˝" horiz-adv-x="1024" d="M119 1014L309 1356H561L371 1014H119ZM463 1014L653 1356H905L715 1014H463Z"/><glyph unicode="΄" horiz-adv-x="1024" d="M348 1014L444 1356H721L559 1014H348Z"/><glyph unicode="΅" horiz-adv-x="1024" d="M59 1014V1280H317V1014H59ZM346 1014L442 1356H719L557 1014H346ZM707 1014V1280H965V1014H707Z"/><glyph unicode="Ά" horiz-adv-x="1454" d="M-7 1153L89 1495H366L204 1153H-7ZM31 0L565 1495H881L1423 0H1063L948 377H494L377 0H31ZM580 653H866L756 1018Q729 1104 723 1137Q721 1133 712 1095T692 1018L580 653Z"/><glyph unicode="Έ" horiz-adv-x="1552" d="M21 1153L117 1495H394L232 1153H21ZM535 0V1495H1405V1219H862V868H1366V592H862V276H1436V0H535Z"/><glyph unicode="Ή" horiz-adv-x="1864" d="M21 1153L117 1495H394L232 1153H21ZM535 0V1495H862V874H1382V1495H1710V0H1382V598H862V0H535Z"/><glyph unicode="Ί" horiz-adv-x="1016" d="M21 1153L117 1495H394L232 1153H21ZM535 0V1495H862V0H535Z"/><glyph unicode="Ό" horiz-adv-x="1982" d="M21 1153L117 1495H394L232 1153H21ZM361 594T361 754T416 1054T573 1297T816 1460T1133 1520Q1479 1520 1692 1304Q1792 1202 1846 1061T1901 756T1846 450T1689 202T1446 36T1129 -25Q955 -25 814 36T572 204T417 452ZM699 754Q699 549 827 404Q952 262 1129 262Q1323 262 1447 412Q1563 553 1563 756Q1563 852 1533 939T1445 1092Q1323 1233 1133 1233Q946 1233 819 1086Q699 947 699 754Z"/><glyph unicode="Ύ" horiz-adv-x="1876" d="M21 1153L117 1495H394L232 1153H21ZM494 1495H866L1141 977Q1148 963 1156 936T1170 897Q1172 909 1178 928T1198 977L1471 1495H1845L1329 606V0H1002V606L494 1495Z"/><glyph unicode="Ώ" horiz-adv-x="1733" d="M21 1153L117 1495H394L232 1153H21ZM362 0V276H649V369Q526 455 459 591T391 875T436 1138T564 1338Q742 1520 1022 1520Q1302 1520 1478 1342Q1650 1169 1650 893Q1650 727 1583 591T1392 369V276H1679V0H1106V535Q1216 567 1282 669Q1345 767 1345 893Q1345 1047 1257 1147Q1164 1253 1022 1253Q880 1253 786 1144Q696 1039 696 893Q696 769 759 669Q824 567 936 535V0H362Z"/><glyph unicode="ΐ" horiz-adv-x="522" d="M-192 1014V1280H66V1014H-192ZM95 1014L191 1356H468L306 1014H95ZM102 0V883H420V0H102ZM456 1014V1280H714V1014H456Z"/><glyph unicode="Α" horiz-adv-x="1454" d="M31 0L565 1495H881L1423 0H1063L948 377H494L377 0H31ZM580 653H866L756 1018Q729 1104 723 1137Q721 1133 712 1095T692 1018L580 653Z"/><glyph unicode="Β" horiz-adv-x="1352" d="M154 0V1495H672Q908 1495 1050 1388Q1192 1281 1192 1094Q1192 981 1129 896T967 774Q1101 753 1183 654Q1270 550 1270 406Q1270 324 1231 245T1122 112Q977 0 721 0H154ZM481 276H721Q838 276 885 320T932 442Q932 596 721 596H481V276ZM481 872H641Q870 872 870 1055Q870 1149 811 1184T641 1219H481V872Z"/><glyph unicode="Γ" horiz-adv-x="1067" d="M154 0V1495H954V1219H481V0H154Z"/><glyph unicode="Δ" horiz-adv-x="1454" d="M31 0L565 1495H881L1423 0H31ZM463 276H981L756 1018Q729 1104 723 1137Q721 1133 712 1095T692 1018L463 276Z"/><glyph unicode="Ε" horiz-adv-x="1171" d="M154 0V1495H1024V1219H481V868H985V592H481V276H1055V0H154Z"/><glyph unicode="Ζ" horiz-adv-x="1352" d="M59 0L748 1219H133V1495H1255L567 276H1239V0H59Z"/><glyph unicode="Η" horiz-adv-x="1483" d="M154 0V1495H481V874H1001V1495H1329V0H1001V598H481V0H154Z"/><glyph unicode="Θ" horiz-adv-x="1704" d="M82 594T82 754T137 1054T294 1297T537 1460T854 1520Q1200 1520 1413 1304Q1513 1202 1567 1061T1622 756T1567 450T1410 202T1167 36T850 -25Q676 -25 535 36T293 204T138 452ZM420 754Q420 549 548 404Q673 262 850 262Q1044 262 1168 412Q1284 553 1284 756Q1284 852 1254 939T1166 1092Q1044 1233 854 1233Q667 1233 540 1086Q420 947 420 754ZM543 621V891H1157V621H543Z"/><glyph unicode="Ι" horiz-adv-x="635" d="M154 0V1495H481V0H154Z"/><glyph unicode="Κ" horiz-adv-x="1458" d="M154 0V1495H481V952L965 1495H1370L788 858L1399 0H1001L565 612L481 520V0H154Z"/><glyph unicode="Λ" horiz-adv-x="1352" d="M31 0L518 1495H832L1321 0H985L695 954Q690 971 686 985T678 1012T672 1038Q668 1024 663 1005T647 954L359 0H31Z"/><glyph unicode="Μ" horiz-adv-x="1802" d="M154 0V1495H475L879 766Q889 745 897 724T907 698Q907 709 934 766L1315 1495H1649V0H1321V862Q1321 953 1327 965Q1325 961 1318 943T1300 907L967 295H842L502 907Q482 941 475 965L481 862V0H154Z"/><glyph unicode="Ν" horiz-adv-x="1610" d="M154 0V1495H436L1096 633Q1112 612 1121 594T1133 571L1128 647V1495H1456V0H1174L514 870Q486 912 477 930L481 856V0H154Z"/><glyph unicode="Ξ" horiz-adv-x="1356" d="M45 0V276H514V592H293V868H514V1219H115V1495H1241V1219H842V868H1061V592H842V276H1311V0H45Z"/><glyph unicode="Ο" horiz-adv-x="1704" d="M82 594T82 754T137 1054T294 1297T537 1460T854 1520Q1200 1520 1413 1304Q1513 1202 1567 1061T1622 756T1567 450T1410 202T1167 36T850 -25Q676 -25 535 36T293 204T138 452ZM420 754Q420 549 548 404Q673 262 850 262Q1044 262 1168 412Q1284 553 1284 756Q1284 852 1254 939T1166 1092Q1044 1233 854 1233Q667 1233 540 1086Q420 947 420 754Z"/><glyph unicode="Π" horiz-adv-x="1462" d="M154 0V1495H1309V0H981V1219H481V0H154Z"/><glyph unicode="Ρ" horiz-adv-x="1247" d="M154 0V1495H649Q903 1495 1048 1380Q1196 1260 1196 1054Q1196 948 1158 863T1050 718Q906 594 649 594H481V0H154ZM481 870H649Q868 870 868 1049Q868 1141 814 1180T649 1219H481V870Z"/><glyph unicode="Σ" horiz-adv-x="1288" d="M18 0L506 772L68 1495H1198V1219H592L874 772L543 276H1198V0H18Z"/><glyph unicode="Τ" horiz-adv-x="1057" d="M72 1219V1495H985V1219H696V0H369V1219H72Z"/><glyph unicode="Υ" horiz-adv-x="1413" d="M31 1495H403L678 977Q685 963 693 936T707 897Q709 909 715 928T735 977L1008 1495H1382L866 606V0H539V606L31 1495Z"/><glyph unicode="Φ" horiz-adv-x="1780" d="M82 752Q82 1025 258 1207Q440 1395 725 1395V1495H1053V1395Q1343 1395 1522 1212Q1698 1032 1698 752Q1698 475 1521 290Q1338 98 1053 98V0H725V98Q439 98 258 290Q82 476 82 752ZM393 752Q393 590 492 481Q593 371 725 371V1120Q582 1120 485 1006Q393 898 393 752ZM1053 371Q1201 371 1296 490Q1384 599 1384 752Q1384 908 1293 1011Q1197 1120 1053 1120V371Z"/><glyph unicode="Χ" horiz-adv-x="1432" d="M49 0L528 815L123 1495H485L713 1104L928 1495H1294L893 815L1382 0H1016L713 528L414 0H49Z"/><glyph unicode="Ψ" horiz-adv-x="1667" d="M96 1028V1495H424V1022Q424 922 475 878Q536 827 670 827V1495H997V827Q1198 827 1232 939Q1243 975 1243 1022V1495H1571V1028Q1571 692 1262 588Q1153 551 997 551V0H670V551Q375 551 226 688Q96 809 96 1028Z"/><glyph unicode="Ω" horiz-adv-x="1423" d="M53 0V276H340V369Q217 455 150 591T82 875T127 1138T255 1338Q433 1520 713 1520Q993 1520 1169 1342Q1341 1169 1341 893Q1341 727 1274 591T1083 369V276H1370V0H797V535Q907 567 973 669Q1036 767 1036 893Q1036 1047 948 1147Q855 1253 713 1253Q571 1253 477 1144Q387 1039 387 893Q387 769 450 669Q515 567 627 535V0H53Z"/><glyph unicode="Ϊ" horiz-adv-x="635" d="M-30 1618V1884H228V1618H-30ZM154 0V1495H481V0H154ZM408 1618V1884H666V1618H408Z"/><glyph unicode="Ϋ" horiz-adv-x="1413" d="M31 1495H403L678 977Q685 963 693 936T707 897Q709 909 715 928T735 977L1008 1495H1382L866 606V0H539V606L31 1495ZM357 1618V1884H615V1618H357ZM795 1618V1884H1053V1618H795Z"/><glyph unicode="ά" horiz-adv-x="1151" d="M51 442Q51 635 165 768Q284 907 465 907Q545 907 619 877T731 793V883H1049V0H731V90Q694 37 620 6T459 -25T296 14T165 118Q51 254 51 442ZM369 438Q369 346 420 291T551 236T681 292T731 439T682 588T552 647T420 589T369 438ZM471 1014L567 1356H844L682 1014H471Z"/><glyph unicode="έ" horiz-adv-x="942" d="M47 246Q47 315 88 373T207 451Q145 463 117 510T88 614T110 725T183 818Q294 907 510 907Q757 907 883 758L717 602Q642 702 516 702Q444 702 417 675T389 624T393 587T410 562Q436 539 512 539H643V371H504Q350 371 350 283Q350 246 387 222T514 197Q663 197 729 289L920 154Q858 55 754 15T511 -25T289 -3T152 57Q47 129 47 246ZM385 1014L481 1356H758L596 1014H385Z"/><glyph unicode="ή" horiz-adv-x="1104" d="M102 0V883H420V791Q505 907 674 907Q841 907 930 798Q1008 703 1008 530V-367H690V455Q690 545 664 593T567 641T458 594T420 465V0H102ZM444 1014L540 1356H817L655 1014H444Z"/><glyph unicode="ί" horiz-adv-x="522" d="M102 0V883H420V0H102ZM154 1014L250 1356H527L365 1014H154Z"/><glyph unicode="ΰ" horiz-adv-x="1098" d="M96 434V883H414V428Q414 338 442 290T549 242Q627 242 655 290T684 428V883H1001V434Q1001 108 760 10Q674 -25 550 -25T339 10T198 106Q96 224 96 434ZM96 1014V1280H354V1014H96ZM383 1014L479 1356H756L594 1014H383ZM744 1014V1280H1002V1014H744Z"/><glyph unicode="α" horiz-adv-x="1151" d="M51 442Q51 635 165 768Q284 907 465 907Q545 907 619 877T731 793V883H1049V0H731V90Q694 37 620 6T459 -25T296 14T165 118Q51 254 51 442ZM369 438Q369 346 420 291T551 236T681 292T731 439T682 588T552 647T420 589T369 438Z"/><glyph unicode="β" horiz-adv-x="1133" d="M102 -367V1133Q102 1304 240 1412Q377 1520 569 1520Q764 1520 884 1417Q1006 1313 1006 1147Q1006 1036 950 958T807 844Q992 772 1056 586Q1081 516 1081 418T1050 238T962 98T825 7T669 -25T526 -4V244Q561 227 635 227T740 276T772 396T758 519T712 618Q643 719 506 750V934Q598 934 647 986T696 1116Q696 1268 561 1268Q454 1268 427 1178Q420 1155 420 1130V-367H102Z"/><glyph unicode="γ" horiz-adv-x="1044" d="M20 883H358L500 520Q510 489 517 453T526 408Q526 419 532 443T544 485T555 520L696 883H1024L686 115V-367H369V109L20 883Z"/><glyph unicode="δ" horiz-adv-x="1057" d="M51 442Q51 644 163 774Q278 907 465 907Q597 907 672 823Q630 986 488 1102Q348 1216 174 1249V1495H897V1249H639Q892 1095 976 786Q1006 676 1006 540T967 297T862 118Q728 -25 528 -25Q331 -25 192 108Q51 243 51 442ZM360 525T360 464T370 366T402 297Q451 227 528 227Q607 227 654 297Q694 358 694 444Q694 481 684 519T654 586Q606 655 526 655Q451 655 402 586Q360 525 360 464Z"/><glyph unicode="ε" horiz-adv-x="942" d="M47 246Q47 315 88 373T207 451Q145 463 117 510T88 614T110 725T183 818Q294 907 510 907Q757 907 883 758L717 602Q642 702 516 702Q444 702 417 675T389 624T393 587T410 562Q436 539 512 539H643V371H504Q350 371 350 283Q350 246 387 222T514 197Q663 197 729 289L920 154Q858 55 754 15T511 -25T289 -3T152 57Q47 129 47 246Z"/><glyph unicode="ζ" horiz-adv-x="915" d="M51 438Q51 719 316 1067Q387 1161 455 1251Q446 1249 438 1249H78V1495H944Q466 860 376 637Q342 554 342 456T400 292T598 211T822 137T907 -61T809 -283T543 -367Q358 -367 201 -260L307 -119Q405 -184 535 -184Q582 -184 613 -163T645 -98T615 -43T505 -25T336 18T184 116Q51 244 51 438Z"/><glyph unicode="η" horiz-adv-x="1104" d="M102 0V883H420V791Q505 907 674 907Q841 907 930 798Q1008 703 1008 530V-367H690V455Q690 545 664 593T567 641T458 594T420 465V0H102Z"/><glyph unicode="θ" horiz-adv-x="1223" d="M53 754Q53 1096 190 1300Q336 1520 610 1520T1032 1300Q1169 1099 1169 751Q1169 584 1136 442T1032 196Q884 -25 610 -25T190 196Q53 402 53 754ZM393 754Q393 545 423 447T496 300T612 252T730 299T796 420Q829 527 829 754Q829 968 799 1059T725 1197T609 1243T492 1197T428 1080Q393 965 393 754ZM467 618V889H754V618H467Z"/><glyph unicode="ι" horiz-adv-x="522" d="M102 0V883H420V0H102Z"/><glyph unicode="κ" horiz-adv-x="1114" d="M102 0V883H420V539L737 883H1092L733 506L1071 0H694L510 281L420 184V0H102Z"/><glyph unicode="λ" horiz-adv-x="987" d="M20 0L324 803Q340 843 340 890Q340 958 310 1029T260 1139T215 1206T143 1235H76V1495H260Q365 1495 422 1441T512 1300L596 1079L967 0H633L512 401Q498 450 483 510L350 0H20Z"/><glyph unicode="μ" horiz-adv-x="1151" d="M102 -367V883H420V401Q424 324 450 283T545 242T652 289T690 418V883H1008V0H690V92Q605 -25 436 -25H420V-367H102Z"/><glyph unicode="ν" horiz-adv-x="1044" d="M20 883H358L500 520Q510 489 517 453T526 408Q526 419 532 443T544 485T555 520L696 883H1024L635 0H418L20 883Z"/><glyph unicode="ξ" horiz-adv-x="911" d="M51 430Q51 676 227 792Q276 825 326 844Q240 872 184 934T127 1095T205 1249H78V1495H903V1249H600Q535 1249 486 1209T436 1099T485 981T627 934V750Q479 717 414 637T348 456T403 290T598 211T822 137T907 -61T809 -283T543 -367Q358 -367 201 -260L307 -119Q405 -184 535 -184Q582 -184 613 -163T645 -98T615 -43T505 -25T336 18T184 114Q51 241 51 430Z"/><glyph unicode="ο" horiz-adv-x="1055" d="M51 442Q51 635 194 774Q331 907 526 907Q724 907 862 776Q1004 644 1004 446Q1004 346 965 260T862 112Q721 -25 528 -25Q331 -25 192 108Q51 243 51 442ZM360 525T360 464T370 366T402 297Q451 227 528 227Q607 227 654 297Q694 358 694 444Q694 481 684 519T654 586Q606 655 526 655Q451 655 402 586Q360 525 360 464Z"/><glyph unicode="π" horiz-adv-x="1085" d="M102 0V883H983V0H666V647H420V0H102Z"/><glyph unicode="ρ" horiz-adv-x="1151" d="M102 -367V442Q102 640 244 774Q387 907 602 907Q818 907 960 776Q1100 647 1100 448Q1100 352 1070 268T986 118Q868 -25 686 -25Q606 -25 532 6T420 90V-367H102ZM420 530T420 439T470 292T600 236T731 291T782 438Q782 530 731 588T599 647T469 589Z"/><glyph unicode="ς" horiz-adv-x="946" d="M51 438Q51 633 188 770Q325 907 537 907Q758 907 895 743L713 573Q637 655 544 655T399 594T346 444T402 291T598 211T822 137T907 -61T809 -283T543 -367Q358 -367 201 -260L307 -119Q405 -184 535 -184Q582 -184 613 -163T645 -98T615 -43T505 -25T336 18T184 116Q51 244 51 438Z"/><glyph unicode="σ" horiz-adv-x="1055" d="M51 438Q51 629 194 758Q331 883 526 883H1026V647H952Q1004 555 1004 449T965 257T862 110Q723 -25 528 -25Q333 -25 192 106Q51 239 51 438ZM360 438Q360 302 456 246Q487 227 528 227Q609 227 654 295Q694 356 694 416T685 513T656 578Q608 643 535 647H526Q451 647 402 580Q360 522 360 438Z"/><glyph unicode="τ" horiz-adv-x="788" d="M4 647V883H784V647H553V0H236V647H4Z"/><glyph unicode="υ" horiz-adv-x="1098" d="M96 434V883H414V428Q414 338 442 290T549 242Q627 242 655 290T684 428V883H1001V434Q1001 108 760 10Q674 -25 550 -25T339 10T198 106Q96 224 96 434Z"/><glyph unicode="φ" horiz-adv-x="1370" d="M51 442Q51 635 194 774Q331 907 526 907V1128H844V907Q1036 907 1178 774Q1319 642 1319 444Q1319 250 1176 112Q1112 49 1025 12T844 -25V-367H526V-25Q330 -25 192 110Q51 246 51 442ZM360 441Q360 403 370 366T402 297Q448 227 526 227V655Q451 655 402 586Q360 525 360 441ZM844 227Q922 227 968 297Q1010 360 1010 444Q1010 481 1000 518T968 586Q922 655 844 655V227Z"/><glyph unicode="χ" horiz-adv-x="995" d="M-4 -367L330 319L57 883H393L473 692Q483 670 489 651T498 627Q498 642 520 690L602 883H942L668 315L999 -367H662L530 -59Q517 -34 500 27Q498 23 490 -1T471 -53L338 -367H-4Z"/><glyph unicode="ψ" horiz-adv-x="1538" d="M96 434V883H414V428Q414 338 455 290T610 242V1128H928V242Q1042 242 1083 290T1124 428V883H1442V434Q1442 109 1166 10Q1069 -25 928 -25V-367H610V-25Q343 -25 213 106Q96 224 96 434Z"/><glyph unicode="ω" horiz-adv-x="1575" d="M72 455Q72 614 126 788Q143 842 164 883H481Q389 684 389 463T514 242Q586 242 612 290T639 428V678H936V428Q936 338 962 290T1061 242Q1186 242 1186 463T1094 883H1411Q1476 755 1497 559Q1503 502 1503 426T1480 262T1406 110Q1299 -25 1087 -25T786 113Q697 -25 494 -25Q279 -25 170 110Q72 233 72 455Z"/><glyph unicode="ϊ" horiz-adv-x="522" d="M-76 1014V1280H182V1014H-76ZM102 0V883H420V0H102ZM336 1014V1280H594V1014H336Z"/><glyph unicode="ϋ" horiz-adv-x="1098" d="M96 434V883H414V428Q414 338 442 290T549 242Q627 242 655 290T684 428V883H1001V434Q1001 108 760 10Q674 -25 550 -25T339 10T198 106Q96 224 96 434ZM201 1014V1280H459V1014H201ZM639 1014V1280H897V1014H639Z"/><glyph unicode="ό" horiz-adv-x="1055" d="M51 442Q51 635 194 774Q331 907 526 907Q724 907 862 776Q1004 644 1004 446Q1004 346 965 260T862 112Q721 -25 528 -25Q331 -25 192 108Q51 243 51 442ZM360 525T360 464T370 366T402 297Q451 227 528 227Q607 227 654 297Q694 358 694 444Q694 481 684 519T654 586Q606 655 526 655Q451 655 402 586Q360 525 360 464ZM411 1014L507 1356H784L622 1014H411Z"/><glyph unicode="ύ" horiz-adv-x="1098" d="M96 434V883H414V428Q414 338 442 290T549 242Q627 242 655 290T684 428V883H1001V434Q1001 108 760 10Q674 -25 550 -25T339 10T198 106Q96 224 96 434ZM446 1014L542 1356H819L657 1014H446Z"/><glyph unicode="ώ" horiz-adv-x="1575" d="M72 455Q72 614 126 788Q143 842 164 883H481Q389 684 389 463T514 242Q586 242 612 290T639 428V678H936V428Q936 338 962 290T1061 242Q1186 242 1186 463T1094 883H1411Q1476 755 1497 559Q1503 502 1503 426T1480 262T1406 110Q1299 -25 1087 -25T786 113Q697 -25 494 -25Q279 -25 170 110Q72 233 72 455ZM684 1014L780 1356H1057L895 1014H684Z"/><glyph unicode="Ё" horiz-adv-x="1171" d="M154 0V1495H1024V1219H481V868H985V592H481V276H1055V0H154ZM232 1618V1884H490V1618H232ZM670 1618V1884H928V1618H670Z"/><glyph unicode="Ђ" horiz-adv-x="1503" d="M72 1219V1495H985V1219H696V791Q802 907 1012 907Q1310 907 1384 654Q1407 578 1407 489V-94Q1407 -217 1343 -292T1149 -367H956V-100H1034Q1067 -100 1078 -74T1090 0V414Q1090 520 1051 580T911 641T755 587T696 440V0H369V1219H72Z"/><glyph unicode="Ѓ" horiz-adv-x="1067" d="M154 0V1495H954V1219H481V0H154ZM447 1641L604 1983H897L674 1641H447Z"/><glyph unicode="Є" horiz-adv-x="1475" d="M82 756Q82 924 141 1064T303 1305T544 1463T844 1520T1134 1469T1378 1298L1194 1083Q1044 1233 840 1233Q680 1233 574 1137T432 887H1108V610H432Q463 444 567 353T846 262Q1022 262 1149 366Q1186 397 1223 432L1411 217Q1188 -25 858 -25Q676 -25 535 29T293 186Q82 400 82 756Z"/><glyph unicode="Ѕ" horiz-adv-x="1214" d="M80 162L250 391Q315 338 405 300T598 262T739 299T778 397T734 499T627 568T496 622T377 676T277 739T190 822Q113 924 113 1063T159 1284T280 1418Q426 1520 645 1520Q752 1520 868 1489T1077 1391L930 1147Q881 1184 804 1208T658 1233T549 1219T486 1182Q440 1143 440 1090T473 1002T558 939T674 888T799 838T913 778T1010 697Q1106 590 1106 424Q1106 211 966 93T582 -25Q426 -25 307 26T80 162Z"/><glyph unicode="І" horiz-adv-x="635" d="M154 0V1495H481V0H154Z"/><glyph unicode="Ї" horiz-adv-x="635" d="M-30 1618V1884H228V1618H-30ZM154 0V1495H481V0H154ZM408 1618V1884H666V1618H408Z"/><glyph unicode="Ј" horiz-adv-x="883" d="M72 0V281H176Q293 281 352 342T412 547V1495H739V473Q739 269 592 132Q448 0 242 0H72Z"/><glyph unicode="Љ" horiz-adv-x="2128" d="M72 0V276H109Q156 276 181 308T207 391V1495H1362V901H1530Q1784 901 1928 786Q2077 666 2077 460Q2077 354 2039 269T1930 124Q1787 0 1530 0H1034V1219H535V324Q535 184 454 92Q373 0 240 0H72ZM1362 276H1530Q1749 276 1749 455Q1749 547 1695 586T1530 625H1362V276Z"/><glyph unicode="Њ" horiz-adv-x="2095" d="M154 0V1495H481V901H1001V1495H1329V901H1497Q1751 901 1896 786Q2044 666 2044 460Q2044 354 2006 269T1898 124Q1754 0 1497 0H1001V625H481V0H154ZM1329 276H1497Q1716 276 1716 455Q1716 547 1662 586T1497 625H1329V276Z"/><glyph unicode="Ћ" horiz-adv-x="1503" d="M72 1219V1495H985V1219H696V791Q802 907 1012 907Q1310 907 1384 654Q1407 578 1407 489V0H1090V414Q1090 520 1051 580T911 641T755 587T696 440V0H369V1219H72Z"/><glyph unicode="Ќ" horiz-adv-x="1458" d="M154 0V1495H481V952L748 1251Q867 1384 1000 1438Q1136 1495 1350 1495V1219Q1227 1219 1138 1181T971 1057L788 858L1399 0H1001L565 612L481 520V0H154ZM650 1618L807 1960H1100L877 1618H650Z"/><glyph unicode="Ў" horiz-adv-x="1167" d="M31 1495H383L569 872Q580 838 588 805T598 764Q598 772 627 872L788 1495H1137L690 195Q659 106 601 53T438 0H193V260H322Q369 260 405 284T442 344Q442 401 418 471L31 1495ZM295 1932H448Q490 1782 598 1782Q688 1782 732 1883Q743 1909 748 1932H901Q889 1784 806 1708T598 1631Q473 1631 390 1707T295 1932Z"/><glyph unicode="Џ" horiz-adv-x="1462" d="M154 0V1495H481V276H981V1495H1309V0H891V-367H571V0H154Z"/><glyph unicode="А" horiz-adv-x="1454" d="M31 0L565 1495H881L1423 0H1063L948 377H494L377 0H31ZM580 653H866L756 1018Q729 1104 723 1137Q721 1133 712 1095T692 1018L580 653Z"/><glyph unicode="Б" horiz-adv-x="1247" d="M154 0V1495H954V1219H481V901H649Q903 901 1048 786Q1196 666 1196 460Q1196 354 1158 269T1050 124Q906 0 649 0H154ZM481 276H649Q868 276 868 455Q868 547 814 586T649 625H481V276Z"/><glyph unicode="В" horiz-adv-x="1352" d="M154 0V1495H672Q908 1495 1050 1388Q1192 1281 1192 1094Q1192 981 1129 896T967 774Q1101 753 1183 654Q1270 550 1270 406Q1270 324 1231 245T1122 112Q977 0 721 0H154ZM481 276H721Q838 276 885 320T932 442Q932 596 721 596H481V276ZM481 872H641Q870 872 870 1055Q870 1149 811 1184T641 1219H481V872Z"/><glyph unicode="Г" horiz-adv-x="1067" d="M154 0V1495H954V1219H481V0H154Z"/><glyph unicode="Д" horiz-adv-x="1528" d="M-4 276H104Q183 276 195 391L276 1495H1350V276H1503V-367H1184V0H315V-367H-4V276ZM487 276H1022V1219H586L522 385Q514 303 487 276Z"/><glyph unicode="Е" horiz-adv-x="1171" d="M154 0V1495H1024V1219H481V868H985V592H481V276H1055V0H154Z"/><glyph unicode="Ж" horiz-adv-x="2281" d="M59 0L670 858L487 1057Q410 1143 321 1181T109 1219V1495Q417 1495 590 1363Q651 1317 711 1251L977 952V1495H1305V952L1571 1251Q1690 1384 1822 1438Q1959 1495 2173 1495V1219Q2050 1219 1961 1181T1794 1057L1612 858L2222 0H1825L1389 612L1305 520V0H977V520L893 612L457 0H59Z"/><glyph unicode="З" horiz-adv-x="1225" d="M33 197L207 401Q359 262 567 262Q670 262 740 314T811 465T739 602T530 641H377V907H567Q672 907 723 945T774 1067T714 1192T561 1233T402 1214T268 1139L115 1354Q285 1488 460 1512Q524 1520 608 1520T782 1491T943 1410Q1102 1294 1102 1118Q1102 1006 1047 922T889 799Q1006 766 1072 675T1139 469T1099 265T985 112Q828 -25 567 -25Q240 -25 33 197Z"/><glyph unicode="И" horiz-adv-x="1610" d="M154 0H436L1096 870Q1124 912 1133 930L1129 856V0H1456V1495H1174L514 633Q498 612 489 594T477 571L482 647V1495H154V0Z"/><glyph unicode="Й" horiz-adv-x="1610" d="M154 0H436L1096 870Q1124 912 1133 930L1129 856V0H1456V1495H1174L514 633Q498 612 489 594T477 571L482 647V1495H154V0ZM518 1921H671Q713 1771 821 1771Q911 1771 955 1872Q966 1898 971 1921H1124Q1112 1773 1029 1697T821 1620Q696 1620 613 1696T518 1921Z"/><glyph unicode="К" horiz-adv-x="1458" d="M154 0V1495H481V952L748 1251Q867 1384 1000 1438Q1136 1495 1350 1495V1219Q1227 1219 1138 1181T971 1057L788 858L1399 0H1001L565 612L481 520V0H154Z"/><glyph unicode="Л" horiz-adv-x="1516" d="M72 0V276H109Q156 276 181 308T207 391V1495H1362V0H1034V1219H535V324Q535 184 454 92Q373 0 240 0H72Z"/><glyph unicode="М" horiz-adv-x="1802" d="M154 0V1495H475L879 766Q889 745 897 724T907 698Q907 709 934 766L1315 1495H1649V0H1321V862Q1321 953 1327 965Q1325 961 1318 943T1300 907L967 295H842L502 907Q482 941 475 965L481 862V0H154Z"/><glyph unicode="Н" horiz-adv-x="1483" d="M154 0V1495H481V874H1001V1495H1329V0H1001V598H481V0H154Z"/><glyph unicode="О" horiz-adv-x="1704" d="M82 594T82 754T137 1054T294 1297T537 1460T854 1520Q1200 1520 1413 1304Q1513 1202 1567 1061T1622 756T1567 450T1410 202T1167 36T850 -25Q676 -25 535 36T293 204T138 452ZM420 754Q420 549 548 404Q673 262 850 262Q1044 262 1168 412Q1284 553 1284 756Q1284 852 1254 939T1166 1092Q1044 1233 854 1233Q667 1233 540 1086Q420 947 420 754Z"/><glyph unicode="П" horiz-adv-x="1462" d="M154 0V1495H1309V0H981V1219H481V0H154Z"/><glyph unicode="Р" horiz-adv-x="1247" d="M154 0V1495H649Q903 1495 1048 1380Q1196 1260 1196 1054Q1196 948 1158 863T1050 718Q906 594 649 594H481V0H154ZM481 870H649Q868 870 868 1049Q868 1141 814 1180T649 1219H481V870Z"/><glyph unicode="С" horiz-adv-x="1475" d="M82 756Q82 924 141 1064T303 1305T544 1463T844 1520T1134 1469T1378 1298L1194 1083Q1044 1233 840 1233Q650 1233 534 1098Q420 965 420 745T528 393T846 262Q1022 262 1149 366Q1186 397 1223 432L1411 217Q1188 -25 858 -25Q676 -25 535 29T293 186Q82 400 82 756Z"/><glyph unicode="Т" horiz-adv-x="1057" d="M72 1219V1495H985V1219H696V0H369V1219H72Z"/><glyph unicode="У" horiz-adv-x="1167" d="M31 1495H383L569 872Q580 838 588 805T598 764Q598 772 627 872L788 1495H1137L690 195Q659 106 601 53T438 0H193V260H322Q369 260 405 284T442 344Q442 401 418 471L31 1495Z"/><glyph unicode="Ф" horiz-adv-x="1780" d="M82 752Q82 1025 258 1207Q440 1395 725 1395V1495H1053V1395Q1343 1395 1522 1212Q1698 1032 1698 752Q1698 475 1521 290Q1338 98 1053 98V0H725V98Q439 98 258 290Q82 476 82 752ZM393 752Q393 590 492 481Q593 371 725 371V1120Q582 1120 485 1006Q393 898 393 752ZM1053 371Q1201 371 1296 490Q1384 599 1384 752Q1384 908 1293 1011Q1197 1120 1053 1120V371Z"/><glyph unicode="Х" horiz-adv-x="1432" d="M49 0L528 815L123 1495H485L713 1104L928 1495H1294L893 815L1382 0H1016L713 528L414 0H49Z"/><glyph unicode="Ц" horiz-adv-x="1487" d="M154 0V1495H481V276H981V1495H1309V276H1462V-367H1143V0H154Z"/><glyph unicode="Ч" horiz-adv-x="1346" d="M113 975V1495H440V1051Q440 942 483 883T642 823T811 881T864 1040V1495H1192V0H864V674Q743 557 535 557Q322 557 213 677Q113 787 113 975Z"/><glyph unicode="Ш" horiz-adv-x="2208" d="M154 0V1495H481V276H940V1495H1268V276H1726V1495H2054V0H154Z"/><glyph unicode="Щ" horiz-adv-x="2232" d="M154 0V1495H481V276H940V1495H1268V276H1726V1495H2054V276H2208V-367H1888V0H154Z"/><glyph unicode="Ъ" horiz-adv-x="1462" d="M72 1219V1495H696V901H864Q1118 901 1262 786Q1411 666 1411 460Q1411 354 1373 269T1264 124Q1121 0 864 0H369V1219H72ZM696 276H864Q1083 276 1083 455Q1083 547 1029 586T864 625H696V276Z"/><glyph unicode="Ы" horiz-adv-x="1788" d="M154 0V1495H481V901H649Q903 901 1048 786Q1196 666 1196 460Q1196 354 1158 269T1050 124Q906 0 649 0H154ZM481 276H649Q868 276 868 455Q868 547 814 586T649 625H481V276ZM1307 0V1495H1634V0H1307Z"/><glyph unicode="Ь" horiz-adv-x="1247" d="M154 0V1495H481V901H649Q903 901 1048 786Q1196 666 1196 460Q1196 354 1158 269T1050 124Q906 0 649 0H154ZM481 276H649Q868 276 868 455Q868 547 814 586T649 625H481V276Z"/><glyph unicode="Э" horiz-adv-x="1475" d="M64 217Q287 -25 617 -25Q799 -25 940 29T1182 186Q1393 400 1393 756Q1393 924 1334 1064T1172 1305T931 1463T631 1520T341 1469T97 1298L281 1083Q431 1233 635 1233Q795 1233 901 1137T1043 887H367V610H1043Q1012 444 908 353T629 262Q453 262 326 366Q289 397 252 432L64 217Z"/><glyph unicode="Ю" horiz-adv-x="2380" d="M154 0V1495H481V874H766Q802 1154 1010 1335Q1221 1520 1530 1520Q1876 1520 2089 1304Q2189 1202 2243 1061T2298 756T2243 450T2086 202T1843 36T1537 -25T1246 22T1021 154Q823 325 772 598H481V0H154ZM1096 754Q1096 549 1224 404Q1349 262 1526 262Q1720 262 1844 412Q1960 553 1960 756Q1960 852 1929 939T1842 1092Q1721 1233 1530 1233Q1343 1233 1216 1086Q1096 947 1096 754Z"/><glyph unicode="Я" horiz-adv-x="1350" d="M82 0V276Q170 276 246 326T395 494L479 625Q332 666 239 773T145 1049Q145 1246 284 1368Q430 1495 659 1495H1196V0H868V707L655 344Q501 78 267 20Q184 0 82 0ZM473 1126T473 1044T523 910T659 858H868V1219H659Q582 1219 528 1173Z"/><glyph unicode="а" horiz-adv-x="1083" d="M45 128T45 240T102 416T250 518Q401 580 670 590V621Q670 668 638 685T539 702Q373 702 223 627L125 817Q287 907 527 907T877 829T987 561V0H670V68Q584 10 544 -2Q467 -25 384 -25T243 -6T140 50Q45 128 45 240ZM383 319T383 282T414 223T485 201Q600 201 670 264V412Q478 412 408 344Q383 319 383 282Z"/><glyph unicode="б" horiz-adv-x="1118" d="M59 440T59 632T111 988T272 1264Q491 1493 934 1493V1225Q514 1225 418 977Q387 897 387 793Q424 846 498 876T659 907T822 868T954 766Q1067 633 1067 457Q1067 251 916 110Q772 -27 569 -27Q220 -27 101 318Q59 440 59 632ZM387 535T387 444T436 294T566 236T698 294T750 444T699 592T567 647T437 591Z"/><glyph unicode="в" horiz-adv-x="995" d="M102 0V883H571Q719 883 809 821T899 645Q899 580 861 532T766 461Q841 449 893 389Q944 330 944 250Q944 131 852 66T600 0H102ZM399 207H514Q582 207 610 225T639 283Q639 354 514 354H399V207ZM399 522H467Q602 522 602 602Q602 645 567 660T467 676H399V522Z"/><glyph unicode="г" horiz-adv-x="725" d="M102 0V883H692V647H420V0H102Z"/><glyph unicode="д" horiz-adv-x="1210" d="M16 244H76Q161 244 174 358L236 883H1055V244H1194V-367H877V0H334V-367H16V244ZM461 244H737V647H526L489 324Q483 266 461 244Z"/><glyph unicode="е" horiz-adv-x="1032" d="M51 449Q51 660 180 788Q302 907 496 907Q709 907 836 768Q967 626 967 387H348Q356 309 404 255T552 201T717 224T842 295L977 123Q877 39 773 7T560 -25T361 2T202 86Q51 211 51 449ZM350 555H641Q635 623 595 662T490 702T393 660T350 555Z"/><glyph unicode="ж" horiz-adv-x="1706" d="M43 0L381 506Q303 584 251 607Q164 647 53 647V883Q240 883 319 853T448 789T547 698L694 539V883H1012V539L1159 698Q1292 850 1491 874Q1561 883 1653 883V647Q1542 647 1488 622Q1403 584 1325 506L1663 0H1286L1102 281L1012 184V0H694V184L604 281L420 0H43Z"/><glyph unicode="з" horiz-adv-x="858" d="M31 106L184 285Q252 217 358 217Q492 217 492 301Q492 379 326 379H236V537H348Q408 537 438 550T469 598Q469 666 372 666T217 616L80 809Q162 864 242 885T412 907T568 889T683 838Q786 768 786 659Q786 594 753 544T659 471Q729 453 768 399T807 277T782 155T706 60Q601 -25 410 -25Q175 -25 31 106Z"/><glyph unicode="и" horiz-adv-x="1067" d="M102 0V883H389V496Q389 479 388 467T387 451Q391 463 408 485L705 883H965V0H678V383Q678 395 679 407T680 424L659 391L362 0H102Z"/><glyph unicode="й" horiz-adv-x="1067" d="M102 0V883H389V496Q389 479 388 467T387 451Q391 463 408 485L705 883H965V0H678V383Q678 395 679 407T680 424L659 391L362 0H102ZM240 1305H393Q435 1155 543 1155Q633 1155 677 1256Q688 1282 693 1305H846Q834 1157 751 1081T543 1004Q418 1004 335 1080T240 1305Z"/><glyph unicode="к" horiz-adv-x="1114" d="M102 0V883H420V539L567 698Q700 850 899 874Q969 883 1061 883V647Q950 647 896 622Q811 584 733 506L1071 0H694L510 281L420 184V0H102Z"/><glyph unicode="л" horiz-adv-x="1139" d="M41 0V266H57Q104 266 130 298T156 381V883H1036V0H719V647H473V324Q473 184 392 92Q311 0 178 0H41Z"/><glyph unicode="м" horiz-adv-x="1206" d="M102 0V883H395L604 520L805 883H1104V0H809V391L664 156H549L399 403V0H102Z"/><glyph unicode="н" horiz-adv-x="1077" d="M102 0V883H420V563H655V883H975V0H655V317H420V0H102Z"/><glyph unicode="о" horiz-adv-x="1055" d="M51 442Q51 635 194 774Q331 907 526 907Q724 907 862 776Q1004 644 1004 446Q1004 346 965 260T862 112Q721 -25 528 -25Q331 -25 192 108Q51 243 51 442ZM360 525T360 464T370 366T402 297Q451 227 528 227Q607 227 654 297Q694 358 694 444Q694 481 684 519T654 586Q606 655 526 655Q451 655 402 586Q360 525 360 464Z"/><glyph unicode="п" horiz-adv-x="1085" d="M102 0V883H983V0H666V647H420V0H102Z"/><glyph unicode="р" horiz-adv-x="1151" d="M102 -367V883H420V793Q457 846 531 876T692 907T855 869T986 768T1070 620T1100 444T1070 267T986 118Q867 -25 686 -25Q606 -25 532 6T420 90V-367H102ZM420 530T420 439T470 292T600 236T731 291T782 438Q782 530 731 588T599 647T469 589Z"/><glyph unicode="с" horiz-adv-x="946" d="M51 438Q51 633 188 770Q325 907 537 907Q758 907 895 743L713 573Q637 655 544 655T399 594T346 438Q346 354 398 292Q455 225 526 225T636 248T711 315L924 166Q844 66 755 21T549 -25T343 11T190 108Q51 241 51 438Z"/><glyph unicode="т" horiz-adv-x="788" d="M4 647V883H784V647H553V0H236V647H4Z"/><glyph unicode="у" horiz-adv-x="987" d="M20 883H354L475 481Q493 422 504 371Q506 387 511 404T521 441T532 481L637 883H967L596 -197Q565 -285 507 -338T344 -391H160V-131H227Q274 -131 311 -107T348 -47Q348 10 324 80L20 883Z"/><glyph unicode="ф" horiz-adv-x="1780" d="M51 440Q51 628 165 764Q284 907 465 907Q545 907 619 877T731 793V1495H1049V793Q1085 846 1160 876T1321 907T1484 869T1615 768T1699 620T1729 444T1699 267T1615 118Q1496 -25 1315 -25Q1235 -25 1160 6T1049 90V-367H731V90Q694 37 620 6T459 -25T296 13T165 114Q51 249 51 440ZM369 537T369 445T420 294T552 236T682 294T731 443T681 591T551 647T420 592ZM1049 530T1049 439T1099 292T1229 236T1360 291T1411 438Q1411 530 1360 588T1228 647T1098 589Z"/><glyph unicode="х" horiz-adv-x="995" d="M25 0L330 453L57 883H393L469 745L502 680Q502 689 532 745L602 883H942L666 451L971 0H631L541 150Q537 158 530 170T514 196T496 229Q487 217 480 204Q468 180 451 152L358 0H25Z"/><glyph unicode="ц" horiz-adv-x="1139" d="M102 0V883H420V244H666V883H983V244H1122V-367H805V0H102Z"/><glyph unicode="ч" horiz-adv-x="1090" d="M82 625V883H399V700Q399 610 426 562T523 514T632 561T670 690V883H987V0H670V365Q586 248 416 248Q249 248 160 358Q82 454 82 625Z"/><glyph unicode="ш" horiz-adv-x="1573" d="M102 0V883H420V244H629V883H944V244H1155V883H1470V0H102Z"/><glyph unicode="щ" horiz-adv-x="1626" d="M102 0V883H420V244H629V883H944V244H1155V883H1470V244H1610V-367H1292V0H102Z"/><glyph unicode="ъ" horiz-adv-x="1212" d="M31 647V883H614V676H817Q975 676 1068 587T1161 344Q1161 190 1069 95T817 0H303V647H31ZM614 236H713Q842 236 842 338T713 440H614V236Z"/><glyph unicode="ы" horiz-adv-x="1468" d="M102 0V883H414V676H616Q774 676 867 587T961 344Q961 190 869 95T616 0H102ZM414 236H512Q641 236 641 338T512 440H414V236ZM1048 0V883H1366V0H1048Z"/><glyph unicode="ь" horiz-adv-x="1012" d="M102 0V883H414V676H616Q774 676 867 587T961 344Q961 190 869 95T616 0H102ZM414 236H512Q641 236 641 338T512 440H414V236Z"/><glyph unicode="э" horiz-adv-x="946" d="M22 166Q102 66 191 21T397 -25T603 11T756 108Q895 241 895 438Q895 633 758 770Q621 907 409 907Q188 907 51 743L233 573Q309 655 409 655Q536 655 586 530H325V362H588Q567 305 521 265T412 225T310 248T235 315L22 166Z"/><glyph unicode="ю" horiz-adv-x="1546" d="M102 0V883H420V563H559Q601 714 730 810Q859 907 1018 907Q1215 907 1354 776Q1495 644 1495 446Q1495 346 1456 260T1353 112T1201 12T1026 -25T863 0T728 70Q602 165 559 317H420V0H102ZM852 527T852 465T862 366T894 297Q942 227 1020 227Q1098 227 1144 297Q1186 360 1186 444Q1186 481 1176 519T1144 586Q1097 655 1018 655Q942 655 894 586Q852 527 852 465Z"/><glyph unicode="я" horiz-adv-x="1010" d="M72 598Q72 724 171 802Q273 883 436 883H907V0H600V379L492 203Q422 90 341 48Q252 0 76 0V225Q131 225 171 240T248 311L272 348Q72 416 72 598ZM387 616T387 578T416 513T498 487H600V659H498Q453 659 420 638Z"/><glyph unicode="ё" horiz-adv-x="1032" d="M51 449Q51 660 180 788Q302 907 496 907Q709 907 836 768Q967 626 967 387H348Q356 309 404 255T552 201T717 224T842 295L977 123Q877 39 773 7T560 -25T361 2T202 86Q51 211 51 449ZM151 1014V1280H409V1014H151ZM350 555H641Q635 623 595 662T490 702T393 660T350 555ZM589 1014V1280H847V1014H589Z"/><glyph unicode="ђ" horiz-adv-x="1104" d="M31 1063V1333H102V1495H420V1333H645V1063H420V791Q505 907 674 907Q841 907 930 798Q1008 703 1008 530V-94Q1008 -217 944 -292T750 -367H557V-100H635Q668 -100 679 -74T690 0V455Q690 545 664 593T567 641T458 594T420 465V0H102V1063H31Z"/><glyph unicode="ѓ" horiz-adv-x="733" d="M102 0V883H692V647H420V0H102ZM251 1014L408 1356H701L478 1014H251Z"/><glyph unicode="є" horiz-adv-x="946" d="M51 438Q51 633 188 770Q325 907 537 907Q758 907 895 743L713 573Q637 655 537 655Q410 655 360 530H621V362H358Q379 305 425 265T534 225T636 248T711 315L924 166Q844 66 755 21T549 -25T343 11T190 108Q51 241 51 438Z"/><glyph unicode="ѕ" horiz-adv-x="848" d="M43 76L145 276Q272 201 375 201T479 250Q479 285 444 305T359 343T260 380T169 434Q74 509 74 637Q74 833 292 890Q360 907 452 907Q615 907 764 825L674 629Q570 686 461 686T352 639Q352 616 398 597T501 557T609 511T701 452Q797 374 797 256Q797 115 683 40Q584 -25 451 -25Q186 -25 43 76Z"/><glyph unicode="і" horiz-adv-x="522" d="M102 0V883H420V0H102ZM102 1026V1317H420V1026H102Z"/><glyph unicode="ї" horiz-adv-x="522" d="M-76 1014V1280H182V1014H-76ZM102 0V883H420V0H102ZM336 1014V1280H594V1014H336Z"/><glyph unicode="ј" horiz-adv-x="522" d="M-31 -100H47Q80 -100 91 -74T102 0V883H420V-94Q420 -217 356 -292T162 -367H-31V-100ZM102 1026V1317H420V1026H102Z"/><glyph unicode="љ" horiz-adv-x="1628" d="M41 0V266H57Q104 266 130 298T156 381V883H1030V676H1233Q1391 676 1484 587T1577 344Q1577 190 1485 95T1233 0H719V647H473V324Q473 184 392 92Q311 0 178 0H41ZM1030 236H1128Q1257 236 1257 338T1128 440H1030V236Z"/><glyph unicode="њ" horiz-adv-x="1565" d="M102 0V883H420V563H655V883H967V676H1169Q1327 676 1420 587T1513 344Q1513 190 1421 95T1169 0H655V317H420V0H102ZM967 236H1065Q1194 236 1194 338T1065 440H967V236Z"/><glyph unicode="ћ" horiz-adv-x="1104" d="M31 1063V1333H102V1495H420V1333H645V1063H420V791Q505 907 674 907Q841 907 930 798Q1008 703 1008 530V0H690V455Q690 545 664 593T567 641T458 594T420 465V0H102V1063H31Z"/><glyph unicode="ќ" horiz-adv-x="1114" d="M102 0V883H420V539L567 698Q700 850 899 874Q969 883 1061 883V647Q950 647 896 622Q811 584 733 506L1071 0H694L510 281L420 184V0H102ZM457 1014L614 1356H907L684 1014H457Z"/><glyph unicode="ў" horiz-adv-x="987" d="M20 883H354L475 481Q493 422 504 371Q506 387 511 404T521 441T532 481L637 883H967L596 -197Q565 -285 507 -338T344 -391H160V-131H227Q274 -131 311 -107T348 -47Q348 10 324 80L20 883ZM192 1305H345Q387 1155 495 1155Q585 1155 629 1256Q640 1282 645 1305H798Q786 1157 703 1081T495 1004Q370 1004 287 1080T192 1305Z"/><glyph unicode="џ" horiz-adv-x="1102" d="M102 0V883H420V244H682V883H999V0H715V-367H397V0H102Z"/><glyph unicode="Ґ" horiz-adv-x="1067" d="M154 0V1495H637V1761H954V1219H481V0H154Z"/><glyph unicode="ґ" horiz-adv-x="725" d="M102 0V883H375V1085H692V647H420V0H102Z"/><glyph unicode="–" horiz-adv-x="942" d="M82 418V688H860V418H82Z"/><glyph unicode="—" horiz-adv-x="1331" d="M82 418V688H1249V418H82Z"/><glyph unicode="‘" horiz-adv-x="512" d="M102 932V1116Q102 1231 150 1329T266 1520L461 1405Q397 1308 397 1167V932H102Z"/><glyph unicode="’" horiz-adv-x="512" d="M39 1022Q102 1118 102 1260V1495H397V1311Q397 1196 349 1098T233 907L39 1022Z"/><glyph unicode="‚" horiz-adv-x="512" d="M39 -238Q102 -140 102 0V236H397V51Q397 -63 349 -161T233 -352L39 -238Z"/><glyph unicode="“" horiz-adv-x="922" d="M102 932V1116Q102 1231 150 1329T266 1520L461 1405Q397 1308 397 1167V932H102ZM524 932V1116Q524 1231 572 1329T688 1520L883 1405Q819 1308 819 1167V932H524Z"/><glyph unicode="”" horiz-adv-x="922" d="M39 1022Q102 1118 102 1260V1495H397V1311Q397 1196 349 1098T233 907L39 1022ZM461 1022Q524 1118 524 1260V1495H819V1311Q819 1196 771 1098T655 907L461 1022Z"/><glyph unicode="„" horiz-adv-x="922" d="M39 -238Q102 -140 102 0V236H397V51Q397 -63 349 -161T233 -352L39 -238ZM461 -238Q524 -140 524 0V236H819V51Q819 -63 771 -161T655 -352L461 -238Z"/><glyph unicode="†" horiz-adv-x="1178" d="M61 692V963H446V1495H731V963H1116V692H731V-367H446V692H61Z"/><glyph unicode="‡" horiz-adv-x="1178" d="M61 147V418H446V692H61V963H446V1495H731V963H1116V692H731V418H1116V147H731V-367H446V147H61Z"/><glyph unicode="•" horiz-adv-x="782" d="M51 778Q51 919 150 1017Q251 1116 391 1116Q532 1116 633 1017Q733 919 733 778Q733 707 707 645T633 534Q534 434 391 434Q249 434 150 534Q51 636 51 778Z"/><glyph unicode="…" horiz-adv-x="1495" d="M102 0V309H410V0H102ZM594 0V309H901V0H594ZM1085 0V309H1393V0H1085Z"/><glyph unicode="‰" horiz-adv-x="2281" d="M76 1133Q76 1298 165 1408Q255 1520 389 1520Q525 1520 613 1406Q698 1296 698 1136Q698 1055 675 984T609 860Q520 748 383 748Q262 748 175 843Q76 951 76 1133ZM133 0L1155 1495H1444L422 0H133ZM287 1339T287 1134T383 928Q485 928 485 1133Q485 1272 434 1321Q416 1339 387 1339Q287 1339 287 1134ZM893 360Q893 526 982 636Q1072 748 1206 748Q1344 748 1430 634Q1516 521 1516 364Q1516 283 1492 212T1426 88Q1336 -25 1200 -25Q1080 -25 992 71Q893 179 893 360ZM1104 360Q1104 156 1200 156Q1303 156 1303 360Q1303 497 1252 548Q1233 567 1205 567T1157 550T1126 504Q1104 450 1104 360ZM1597 360Q1597 525 1687 636Q1777 748 1911 748Q2047 748 2135 634Q2220 524 2220 364Q2220 283 2197 212T2131 88Q2041 -25 1905 -25Q1785 -25 1697 71Q1597 180 1597 360ZM1808 567T1808 362T1905 156Q2007 156 2007 360Q2007 497 1956 548Q1937 567 1909 567Q1808 567 1808 362Z"/><glyph unicode="‹" horiz-adv-x="496" d="M82 311V590L393 817V549L260 451L393 352V84L82 311Z"/><glyph unicode="›" horiz-adv-x="496" d="M102 84V352L236 451L102 549V817L414 590V311L102 84Z"/><glyph unicode="€" horiz-adv-x="1337" d="M35 608V700H213Q211 750 213 801H35V893H219Q248 1178 394 1344Q549 1520 795 1520Q969 1520 1093 1439T1288 1210L1038 1069Q941 1247 801 1247Q621 1247 568 1030Q553 965 547 893H918V801H541Q539 750 541 700H918V608H547Q589 248 795 248Q891 248 951 301T1059 436L1296 293Q1210 127 1089 51T816 -25T563 21T390 152Q248 321 219 608H35Z"/><glyph unicode="№" horiz-adv-x="2486" d="M154 0V1495H436L1096 633Q1112 612 1121 594T1133 571L1128 647V1495H1456V0H1174L514 870Q486 912 477 930L481 856V0H154ZM1628 522V688H2347V522H1628ZM1628 1165Q1628 1308 1725 1411Q1829 1520 1983 1520Q2137 1520 2245 1414Q2347 1314 2347 1168Q2347 1094 2320 1026T2244 907Q2142 799 1987 799Q1831 799 1732 898Q1628 1002 1628 1165ZM1821 1237T1821 1157T1865 1028T1990 979T2113 1031T2155 1165T2107 1294T1985 1341T1866 1289Z"/><glyph unicode="™" horiz-adv-x="1677" d="M66 1339V1495H561V1339H391V598H227V1339H66ZM657 598V1495H803L1120 1057L1427 1495H1579V598H1415V1235L1155 852H1085L821 1223V598H657Z"/><glyph unicode="ﬀ" horiz-adv-x="1206" d="M35 647V883H145V1247Q145 1370 209 1445T403 1520H569V1253H518Q478 1253 466 1184Q463 1167 463 1153V883H580V647H463V0H145V647H35ZM618 647V883H729V1247Q729 1370 793 1445T987 1520H1153V1253H1102Q1062 1253 1050 1184Q1047 1167 1047 1153V883H1163V647H1047V0H729V647H618Z"/><glyph unicode="ﬁ" horiz-adv-x="1145" d="M35 647V883H145V1247Q145 1370 209 1445T403 1520H569V1253H518Q478 1253 466 1184Q463 1167 463 1153V883H580V647H463V0H145V647H35ZM725 0V883H1042V0H725ZM725 1026V1317H1042V1026H725Z"/><glyph unicode="ﬂ" horiz-adv-x="1145" d="M35 647V883H145V1247Q145 1370 209 1445T403 1520H569V1253H518Q478 1253 466 1184Q463 1167 463 1153V883H580V647H463V0H145V647H35ZM725 0V1495H1042V0H725Z"/><glyph unicode="ﬃ" horiz-adv-x="1729" d="M35 647V883H145V1247Q145 1370 209 1445T403 1520H569V1253H518Q478 1253 466 1184Q463 1167 463 1153V883H580V647H463V0H145V647H35ZM618 647V883H729V1247Q729 1370 793 1445T987 1520H1153V1253H1102Q1062 1253 1050 1184Q1047 1167 1047 1153V883H1163V647H1047V0H729V647H618ZM1309 0V883H1626V0H1309ZM1309 1026V1317H1626V1026H1309Z"/><glyph unicode="ﬄ" horiz-adv-x="1729" d="M35 647V883H145V1247Q145 1370 209 1445T403 1520H569V1253H518Q478 1253 466 1184Q463 1167 463 1153V883H580V647H463V0H145V647H35ZM618 647V883H729V1247Q729 1370 793 1445T987 1520H1153V1253H1102Q1062 1253 1050 1184Q1047 1167 1047 1153V883H1163V647H1047V0H729V647H618ZM1309 0V1495H1626V0H1309Z"/></font>
</defs>
</svg>
